<svg xmlns="http://www.w3.org/2000/svg" id="Layer_1" x="0" y="0" version="1.1" viewBox="0 0 640 320" xml:space="preserve"><defs/><style>.st3{fill:#1d2b51}.st5{fill:#101c3b}.st6{fill:#162345}.st7,.st8{fill:none;stroke:#f0f5f8;stroke-width:.7386;stroke-linecap:round;stroke-miterlimit:10;stroke-dasharray:0,2.5604}.st8{stroke-width:1.4771;stroke-dasharray:0,3.2415}.st10{fill:#9aa2b2}.st11{fill:#bdc4d4}.st12{fill:#f0f5f8}.st13{fill:#e6eaf0}.st15{fill:#34909d}.st21{fill:#d7dbe0}.st22{fill:#fff}.st25{fill:none;stroke:#1d2b51;stroke-width:.9848;stroke-miterlimit:10}.st26{fill:#3d4968}</style><path fill="#4d5978" d="M640 0v320H0V5.7C0 2.6 2.9 0 6.4 0H640z"/><g opacity=".25"><g id="web_homepage_1_"><path fill="#3d4968" d="M572.8 51.4v140.3c0 3.9-3.2 7.1-7.1 7.1H460.2c-3.9 0-7.1-3.2-7.1-7.1V51.4c0-3.9 3.2-7.1 7.1-7.1h105.6c3.9.1 7 3.2 7 7.1z" opacity=".28"/><path d="M567.8 48.9v140.3c0 3.9-3.2 7-7 7H455.1c-3.9 0-7.1-3.2-7.1-7v-10.4h-1.6V48.9c0-3.9 3.2-7.1 7.1-7.1h107.2c3.9 0 7.1 3.2 7.1 7.1z" class="st3"/><path fill="#3d4968" d="M480.5 182.9v13.3h-25.4c-3.9 0-7.1-3.2-7.1-7v-10.4h-1.6v-2.9h27c4 0 7.1 3.1 7.1 7z" opacity=".33"/><path d="M559 49.2c0 1.3-1 2.3-2.3 2.3h-8.8c-.5-.1-.9-.3-1.2-.6-.4-.4-.7-1-.7-1.6 0-1.3 1-2.3 2.3-2.3h8.4c.6 0 1.2.3 1.6.7.4.3.7.9.7 1.5zM542.5 49.2c0 1.3-1 2.3-2.3 2.3h-8.8c-.5-.1-.9-.3-1.2-.6-.4-.4-.7-1-.7-1.6 0-1.3 1-2.3 2.3-2.3h8.4c.6 0 1.2.3 1.6.7.5.3.7.9.7 1.5zM526.2 49.2c0 1.3-1 2.3-2.3 2.3h-8.8c-.5-.1-.9-.3-1.2-.6-.4-.4-.7-1-.7-1.6 0-1.3 1-2.3 2.3-2.3h8.4c.6 0 1.2.3 1.6.7.5.3.7.9.7 1.5zM561.5 58.5v57c0 1.6-1.3 2.8-2.8 2.8H454.5c-.2 0-.5 0-.7-.1-1.2-.3-2.1-1.4-2.1-2.7v-57c0-1.5 1.3-2.8 2.8-2.8h104.2c.7 0 1.4.3 1.9.7.5.6.9 1.3.9 2.1zM451.7 124.1h30.8v2.8h-30.8zM451.7 130.3h30.8v2.8h-30.8zM451.7 136.6h30.8v2.8h-30.8zM451.7 142.9H475v2.8h-23.3zM491.2 124.1H522v2.8h-30.8zM491.2 130.3H522v2.8h-30.8zM491.2 136.6H522v2.8h-30.8zM491.2 142.9h23.2v2.8h-23.2zM530.7 124.1h30.8v2.8h-30.8zM530.7 130.3h30.8v2.8h-30.8zM530.7 136.6h30.8v2.8h-30.8zM530.7 142.9h23.2v2.8h-23.2zM561.5 152.2v10c0 .9-.7 1.6-1.6 1.6H453.2c-.8 0-1.5-.7-1.5-1.6v-10c0-.9.7-1.6 1.6-1.6H560c.5 0 1 .3 1.3.7.1.2.2.5.2.9zM502.8 168.1h58.6v2.7h-58.6zM502.8 173.7h58.6v2.7h-58.6zM453.9 182.7h13.2v1.6h-13.2zM453.9 185.7h11.4v1.6h-11.4zM453.9 188.7H467v1.6h-13.1zM483.4 182.7h11.4v1.6h-11.4zM483.4 185.7h9.5v1.6h-9.5zM483.4 188.7h11.4v1.6h-11.4zM512.9 182.7h11.4v1.6h-11.4zM512.9 185.7h7v1.6h-7zM512.9 188.7h9.7v1.6h-9.7zM542.4 182.7h10.4v1.6h-10.4zM542.4 185.7h5.8v1.6h-5.8zM542.4 188.7h8.1v1.6h-8.1z" class="st5"/><path d="M559 49.2c0 1.3-1 2.3-2.3 2.3h-8.8c-.4-.4-.7-1-.7-1.6 0-1.3 1-2.3 2.3-2.3h8.8c.4.4.7 1 .7 1.6zM542.5 49.2c0 1.3-1 2.3-2.3 2.3h-8.8c-.4-.4-.7-1-.7-1.6 0-1.3 1-2.3 2.3-2.3h8.8c.5.4.7 1 .7 1.6zM526.2 49.2c0 1.3-1 2.3-2.3 2.3h-8.8c-.4-.4-.7-1-.7-1.6 0-1.3 1-2.3 2.3-2.3h8.8c.5.4.7 1 .7 1.6zM561.5 58.5v57c0 1.6-1.3 2.8-2.8 2.8H454.5c-.2 0-.5 0-.7-.1-.6-.5-.9-1.2-.9-2.1v-57c0-1.5 1.3-2.8 2.8-2.8h104.2c.2 0 .5 0 .7.1.5.6.9 1.3.9 2.1zM452.9 124.7h29.6v2.1h-29.6zM452.9 131h29.6v2.1h-29.6zM452.9 137.3h29.6v2.1h-29.6zM452.9 143.6H475v2.1h-22.1zM492.4 124.7H522v2.1h-29.6zM492.4 131H522v2.1h-29.6zM492.4 137.3H522v2.1h-29.6zM492.4 143.6h22.1v2.1h-22.1zM531.9 124.7h29.6v2.1h-29.6zM531.9 131h29.6v2.1h-29.6zM531.9 137.3h29.6v2.1h-29.6zM531.9 143.6H554v2.1h-22.1zM561.5 152.2v10c0 .9-.7 1.6-1.6 1.6H453.2c-.2-.3-.3-.6-.3-.9v-10c0-.9.7-1.6 1.6-1.6h106.8c.1.2.2.5.2.9zM504 168.7h57.5v2H504zM504 174.4h57.5v2H504z" class="st6"/><g><path d="M455.1 183.3h12v1h-12zM455.1 186.3h10.2v1h-10.2zM455.1 189.4H467v1h-11.9z" class="st6"/></g><g><path d="M484.6 183.3h10.2v1h-10.2zM484.6 186.3h8.3v1h-8.3zM484.6 189.4h10.2v1h-10.2z" class="st6"/></g><g><path d="M514.1 183.3h10.2v1h-10.2zM514.1 186.3h5.8v1h-5.8zM514.1 189.4h8.5v1h-8.5z" class="st6"/></g><g><path d="M543.6 183.3h9.2v1h-9.2zM543.6 186.3h4.6v1h-4.6zM543.6 189.4h6.9v1h-6.9z" class="st6"/></g></g><path d="M386.3 67.2l67.1-9.7M491.1 68.1l67.1-9.7M490.8 128.3l67.1-9.7" class="st7"/><path d="M336.6 215c-6.5-12.3-10.2-26.3-10.2-41.2 0-36.5 22.2-67.8 53.8-81.1M499.7 195.8c-4.6 17.8-14.6 33.4-28.1 45" class="st8"/><path d="M350.2 110.2h-19.7c-1.8 0-3.5 1-4.4 2.5l-9.9 17.1c-.9 1.6-.9 3.5 0 5.1l9.9 17.1c.9 1.6 2.6 2.5 4.4 2.5h19.7c1.8 0 3.5-1 4.4-2.5l9.9-17.1c.9-1.6.9-3.5 0-5.1l-9.9-17.1c-.9-1.5-2.6-2.5-4.4-2.5z" class="st3"/><path id="gear_8_" fill="#637194" d="M359 133.3c-.1-.5-.3-1-.5-1.5s-.4-1-.7-1.4l-2.5 1c-.3-.4-.6-.7-.9-1l1-2.5c-.9-.6-1.9-1-2.9-1.2l-1 2.5c-.4-.1-.9-.1-1.3 0l-1-2.5c-.5.1-1 .3-1.5.5s-1 .4-1.4.7l1 2.5c-.4.3-.7.6-1 .9l-2.5-1c-.6.9-1 1.9-1.2 2.9l2.5 1c-.1.4-.1.9 0 1.3l-2.5 1c.1.5.3 1 .5 1.5s.4 1 .7 1.4l2.5-1c.3.4.6.7.9 1l-1 2.5c.9.6 1.9 1 2.9 1.2l1-2.5c.4.1.9.1 1.3 0l1 2.5c.5-.1 1-.3 1.5-.5s1-.4 1.4-.7l-1-2.5c.4-.3.7-.6 1-.9l2.5 1c.6-.9 1-1.9 1.2-2.9l-2.5-1.1c.1-.4.1-.9 0-1.3l2.5-.9zm-7.6 3.3c-.9.4-1.9-.1-2.2-.9-.4-.9.1-1.9.9-2.2.9-.4 1.9.1 2.2.9.4.8 0 1.8-.9 2.2z"/><path id="gear_4_" d="M345.9 130.2c.1-.7.2-1.5.2-2.3 0-.8-.1-1.5-.2-2.3h-4c-.2-.6-.4-1.2-.8-1.8l2.8-2.8c-.9-1.3-2-2.4-3.2-3.2l-2.8 2.8c-.6-.3-1.2-.6-1.8-.8v-4c-.7-.1-1.5-.2-2.3-.2-.8 0-1.5.1-2.3.2v4c-.6.2-1.2.4-1.8.8l-2.8-2.8c-1.3.9-2.4 2-3.2 3.2l2.8 2.8c-.3.6-.6 1.2-.8 1.8h-4c-.1.7-.2 1.5-.2 2.3 0 .8.1 1.5.2 2.3h4c.2.6.4 1.2.8 1.8l-2.8 2.8c.9 1.3 2 2.4 3.2 3.2l2.8-2.8c.6.3 1.2.6 1.8.8v4c.7.1 1.5.2 2.3.2.8 0 1.5-.1 2.3-.2v-4c.6-.2 1.2-.4 1.8-.8l2.8 2.8c1.3-.9 2.4-2 3.2-3.2l-2.8-2.8c.3-.6.6-1.2.8-1.8h4zm-12.1.2c-1.4 0-2.5-1.1-2.5-2.5s1.1-2.5 2.5-2.5 2.5 1.1 2.5 2.5-1.1 2.5-2.5 2.5z" class="st10"/><path id="gear_10_" d="M338.9 127.9c-.5-.1-.5-.8-.1-1 .5-.3.3-1.1-.3-1-.5.1-.8-.5-.5-.9.4-.5-.2-1.1-.7-.8-.4.2-.9-.1-.8-.6.1-.6-.7-.9-1-.4-.3.4-.9.3-1-.2-.1-.6-1-.6-1.1 0-.1.5-.7.6-1 .2-.4-.5-1.1-.1-1 .4.1.5-.4.9-.8.6-.5-.3-1.1.3-.7.8.3.4 0 .9-.5.9-.6-.1-.9.7-.3 1 .4.2.4.9-.1 1-.6.2-.5 1 .1 1.1.5 0 .7.7.3 1-.5.4 0 1.1.6 1 .5-.2.9.3.7.8-.3.6.4 1.1.9.6.4-.3.9-.1.9.4 0 .6.8.8 1.1.2.2-.5.8-.5 1 0 .2.6 1.1.4 1.1-.2 0-.5.6-.8.9-.4.5.4 1.1-.1.9-.6-.2-.4.2-.9.7-.8.6.2 1-.5.6-1-.4-.3-.2-.9.3-1 .3 0 .4-.9-.2-1.1zm-5.1 1.6c-.9 0-1.7-.7-1.7-1.7 0-.9.7-1.7 1.7-1.7.9 0 1.7.7 1.7 1.7s-.8 1.7-1.7 1.7z" class="st11"/><path d="M351.7 135c0 .5-.4 1-1 1-.5 0-1-.4-1-1s.4-1 1-1 1 .4 1 1z" class="st11"/><path id="gear_9_" d="M345.4 142.7c-.4-.1-.4-.7-.1-.9.4-.3.2-.9-.3-.9-.4 0-.7-.4-.4-.7.3-.4-.2-.9-.6-.7-.4.2-.8-.1-.7-.5.1-.5-.5-.8-.8-.4-.2.3-.8.2-.8-.2-.1-.5-.8-.5-.9 0-.1.4-.6.5-.8.2-.3-.4-1-.1-.8.4.1.4-.3.7-.7.5-.4-.3-.9.3-.6.7.2.3 0 .8-.4.7-.5-.1-.7.6-.3.9.4.2.3.7-.1.9-.5.2-.4.9.1.9.4 0 .6.5.3.8-.4.3 0 1 .5.8.4-.1.7.3.6.6-.2.5.4.9.7.5.3-.3.8-.1.8.4s.7.7.9.2c.2-.4.7-.4.9 0 .2.5.9.3.9-.2 0-.4.5-.6.8-.4.4.3 1-.1.7-.5-.2-.4.2-.8.6-.6.5.2.8-.5.5-.8-.3-.3-.1-.8.3-.8.1 0 .2-.7-.3-.9zm-4.3 2.7c-1.5 0-2.7-1.2-2.7-2.7 0-1.5 1.2-2.7 2.7-2.7 1.5 0 2.7 1.2 2.7 2.7 0 1.5-1.2 2.7-2.7 2.7z" class="st12"/><path d="M343.5 142.7c0 1.3-1.1 2.4-2.4 2.4-1.3 0-2.4-1.1-2.4-2.4 0-1.3 1.1-2.4 2.4-2.4 1.3 0 2.4 1.1 2.4 2.4z" class="st12"/><g id="user_man_account_2_"><path d="M578.1 222.2c0 3.1-1.1 5.9-2.8 8.1-2.4 3-6.1 4.9-10.2 4.9s-7.8-1.9-10.2-4.9c-.1-.1-.1-.2-.2-.3-1.6-2.2-2.6-4.9-2.6-7.8 0-7.2 5.8-13 13-13 4.8 0 9 2.6 11.2 6.4 1.1 2 1.8 4.2 1.8 6.6z" class="st3"/><path d="M574.6 229.5c-2.2 2.8-5.7 4.6-9.5 4.6-3.9 0-7.3-1.8-9.5-4.6.9-3.8 4-6.8 8-7.4-1.5-.6-2.6-2.1-2.6-3.8 0-2.3 1.8-4.1 4.1-4.1s4.1 1.9 4.1 4.1c0 1.7-1.1 3.2-2.6 3.8 4 .6 7.1 3.5 8 7.4z" class="st13"/></g><g id="Artwork_4_1_"><path fill="#3d4968" d="M487.2 196.2V291c0 3.4-2.7 6.1-6.1 6.1H357.7c-3.4 0-6.1-2.7-6.1-6.1V184.8c0-3.4 2.7-6.1 6.1-6.1h96.1v10.4c0 3.9 3.2 7 7.1 7h26.3z" opacity=".32"/><path d="M465.5 291.4H346.9c-4.7 0-8.6-3.8-8.6-8.6V181.6c0-4.7 3.8-8.6 8.6-8.6h118.6c4.7 0 8.6 3.8 8.6 8.6v101.3c-.1 4.7-3.9 8.5-8.6 8.5z" class="st10"/><path d="M463.8 291.4H345.3c-4.7 0-8.6-3.8-8.6-8.6V181.6c0-4.7 3.8-8.6 8.6-8.6h118.6c4.7 0 8.6 3.8 8.6 8.6v101.3c-.1 4.7-3.9 8.5-8.7 8.5z" class="st12"/><path d="M464.9 181.9c0 2-1.6 3.6-3.6 3.6s-3.6-1.6-3.6-3.6 1.6-3.6 3.6-3.6 3.6 1.7 3.6 3.6z" class="st15"/><path fill="#f8b85e" d="M454.3 181.9c0 2-1.6 3.6-3.6 3.6s-3.6-1.6-3.6-3.6 1.6-3.6 3.6-3.6 3.6 1.7 3.6 3.6z"/><path fill="#ba0034" d="M443.7 181.9c0 2-1.6 3.6-3.6 3.6s-3.6-1.6-3.6-3.6 1.6-3.6 3.6-3.6c2 .1 3.6 1.7 3.6 3.6z"/></g><path fill="#c9d2de" d="M459.9 201.3v41.8c0 1.6-1.3 3-3 3H352.7c-.5 0-1-.1-1.4-.4-.9-.5-1.6-1.5-1.6-2.6v-41.8c0-1.6 1.3-3 3-3h104.2c.9 0 1.7.4 2.3 1.1.4.5.7 1.2.7 1.9z"/><path d="M459.9 201.3v41.8c0 1.6-1.3 3-3 3H352.7c-.5 0-1-.1-1.4-.4-.2-.3-.3-.7-.3-1.1v-42.7c0-1.4 1.1-2.5 2.5-2.5h105.7c.4.5.7 1.2.7 1.9z" class="st13"/><path d="M350.2 190.9h25.9v3.8h-25.9z" class="st10"/><path d="M444.7 256.2H456c2 0 3.6-1.6 3.6-3.6S458 249 456 249h-11.3c-2 0-3.6 1.6-3.6 3.6s1.6 3.6 3.6 3.6z" class="st15"/><path fill="#a8274b" d="M426.7 256.2h8.2c2 0 3.6-1.6 3.6-3.6s-1.6-3.6-3.6-3.6h-8.2c-2 0-3.6 1.6-3.6 3.6s1.6 3.6 3.6 3.6z"/><path d="M454.7 253.3h-8.3c-.5 0-.9-.4-.9-.9s.4-.9.9-.9h8.3c.5 0 .9.4.9.9s-.4.9-.9.9zM434.9 253.3h-8.3c-.5 0-.9-.4-.9-.9s.4-.9.9-.9h8.3c.5 0 .9.4.9.9-.1.5-.5.9-.9.9z" class="st12"/><path d="M385 234h1v8.5h-1zM386 233.1h2.5v.8H386zM382.5 233.1h2.5v.8h-2.5zM386 242.5h2.5v.8H386zM382.5 242.5h2.5v.8h-2.5z" class="st3"/><path id="text_4_" d="M368.5 220.5h-10.7v3.8h10.7v-3.8zm38.7 11.7h29.3v-3.8h-29.3v3.8zm29.3-27.6H368v3.8h68.5v-3.8zm-78.7 35.5h26.6v-3.8h-26.6v3.8zm20.4-27.6h-20.4v3.8h20.4v-3.8zm-6.4 11.7h41.5v-3.8h-41.5v3.8zm29.8 4.2h-43.9v3.8h43.9v-3.8zm14.9-4.2h36.6v-3.8h-36.6v3.8zm-32.7-7.9h69.4v-3.8h-69.4v3.8zm55.5-11.7v3.8h13.9v-3.8h-13.9zm2.7 27.6h11.1v-3.8H442v3.8z" class="st10"/><g id="cloud_8_"><path d="M515.2 298.1c0 3.4-2.7 6.1-6.1 6.1h-64.4c-5.8 0-10.5-4.7-10.5-10.5s4.7-10.5 10.5-10.5c1.4 0 2.6.3 3.8.7v-.2c0-7.5 4.1-14.1 10.1-17.6 3-1.8 6.5-2.8 10.3-2.8 10 0 18.3 7.2 20.1 16.6 1.9-1.1 4.1-1.7 6.4-1.7 7.2 0 13 5.8 13 13v.9h.6c3.5 0 6.2 2.7 6.2 6z" class="st10"/></g><g id="cloud_9_"><path fill="#dbdee6" d="M370.9 293.6c0 2.5-2 4.6-4.6 4.6h-48.5c-4.4 0-7.9-3.5-7.9-7.9s3.5-7.9 7.9-7.9c1 0 2 .2 2.9.5v-.2c0-5.7 3.1-10.6 7.6-13.3 2.3-1.3 4.9-2.1 7.8-2.1 7.5 0 13.8 5.4 15.1 12.5 1.4-.8 3.1-1.3 4.8-1.3 5.4 0 9.8 4.4 9.8 9.8v.7h.5c2.6 0 4.6 2 4.6 4.6z"/></g><g id="login_1_"><path d="M559.1 248.4v5.2c0 1.2-1 2.2-2.2 2.2h-52.5c-1.1-.1-1.9-1.1-1.9-2.2v-5.2c0-1.2 1-2.2 2.2-2.2h52.2c1.1 0 2 .8 2.2 1.9v.3z" class="st21"/><path d="M559.1 248.4v5.2c0 1.2-1 2.2-2.2 2.2h-52.5v-5.5c0-1.2 1-2.2 2.2-2.2h52.5v.3z" class="st22"/><path d="M559.1 261.8v5.2c0 1.2-1 2.2-2.2 2.2h-52.5c-1.1-.1-1.9-1.1-1.9-2.2v-5.2c0-1.2 1-2.2 2.2-2.2h52.2c1.1 0 2 .8 2.2 1.9v.3z" class="st21"/><path d="M559.1 261.8v5.2c0 1.2-1 2.2-2.2 2.2h-52.5v-5.5c0-1.2 1-2.2 2.2-2.2h52.5v.3z" class="st22"/><g><path d="M521.2 252.1c0 .6-.5 1.1-1.1 1.1s-1.1-.5-1.1-1.1c0-.6.5-1.1 1.1-1.1s1.1.4 1.1 1.1zM527.1 252.1c0 .6-.5 1.1-1.1 1.1-.6 0-1.1-.5-1.1-1.1 0-.6.5-1.1 1.1-1.1.6 0 1.1.4 1.1 1.1zM533 252.1c0 .6-.5 1.1-1.1 1.1-.6 0-1.1-.5-1.1-1.1 0-.6.5-1.1 1.1-1.1.6 0 1.1.4 1.1 1.1zM539 252.1c0 .6-.5 1.1-1.1 1.1-.6 0-1.1-.5-1.1-1.1 0-.6.5-1.1 1.1-1.1.6 0 1.1.4 1.1 1.1zM544.9 252.1c0 .6-.5 1.1-1.1 1.1-.6 0-1.1-.5-1.1-1.1 0-.6.5-1.1 1.1-1.1.6 0 1.1.4 1.1 1.1z" class="st3"/></g><g><circle cx="520.1" cy="264.9" r="1.1" class="st3"/><path d="M527.1 264.9c0 .6-.5 1.1-1.1 1.1-.6 0-1.1-.5-1.1-1.1 0-.6.5-1.1 1.1-1.1.6 0 1.1.5 1.1 1.1z" class="st3"/><circle cx="531.9" cy="264.9" r="1.1" class="st3"/><path d="M539 264.9c0 .6-.5 1.1-1.1 1.1-.6 0-1.1-.5-1.1-1.1 0-.6.5-1.1 1.1-1.1.6 0 1.1.5 1.1 1.1zM544.9 264.9c0 .6-.5 1.1-1.1 1.1-.6 0-1.1-.5-1.1-1.1 0-.6.5-1.1 1.1-1.1.6 0 1.1.5 1.1 1.1z" class="st3"/></g></g><g><path d="M489.9 70.4v56.9c0 1.5-1.2 2.7-2.7 2.7H383c-1.5 0-2.7-1.2-2.7-2.7V70.4c0-1.5 1.2-2.7 2.7-2.7h104.1c1.5 0 2.8 1.2 2.8 2.7z" class="st15"/><g id="image_photo_1_"><path d="M459.7 122.8h-69.5c-1.2 0-2.3-1-2.3-2.3V78.4c0-1.2 1-2.3 2.3-2.3h69.5c1.2 0 2.3 1 2.3 2.3v42.1c0 1.2-1.1 2.3-2.3 2.3z" class="st10"/><path d="M390.6 77.8h68.7v37.8h-68.7z" class="st22"/><path fill="#e5ebf2" d="M459.3 107.2v8.5h-30.5l-2.7-4.5 16.4-19.1c.6-.7 1.8-.8 2.5-.1l14.3 15.2z"/><path fill="#cad2db" d="M440.3 115.7h-49.6v-12.4L409 85.8c.7-.6 1.7-.6 2.3 0l29 29.9z"/></g><path d="M485.6 78.2v42.5c0 1.1-.9 2-2 2h-12.3c-1.1 0-2-.9-2-2V78.2c0-1.1.9-2 2-2h12.3c1.1 0 2 .9 2 2z" class="st12"/><path d="M478.6 98.5v-2.3c0-.4-.3-.7-.7-.7-.4 0-.7.3-.7.7v2.3c0 .4-.3.7-.7.7h-2.3c-.4 0-.7.3-.7.7 0 .4.3.7.7.7h2.3c.4 0 .7.3.7.7v2.3c0 .4.3.7.7.7.4 0 .7-.3.7-.7v-2.3c0-.4.3-.7.7-.7h2.3c.4 0 .7-.3.7-.7 0-.4-.3-.7-.7-.7h-2.3c-.4 0-.7-.3-.7-.7z" class="st15"/></g><g id="setting_3_"><path d="M392.5 156.1l6.6-6.6c.4-.4.9-.6 1.5-.6 1 0 2.1-.4 2.9-1.2 1.1-1.1 1.4-2.6 1-3.9l-2 2-2.2-.6-.6-2.2 1.9-1.9c-1.3-.4-2.8 0-3.9 1-.8.8-1.2 1.8-1.2 2.9 0 .6-.2 1.1-.6 1.5l-6.6 6.6c-.4.4-.9.6-1.5.6-1 0-2.1.4-2.9 1.2-1.6 1.6-1.5 4.3.2 5.8 1.5 1.3 3.8 1.3 5.3-.1.9-.8 1.3-1.9 1.3-3 .2-.6.4-1.1.8-1.5zm-5 3.2l-1.2-1.2.5-1.7 1.7-.5 1.2 1.2-.5 1.7-1.7.5z" class="st3"/><path d="M392.7 153c-.2-.2-.2-.6 0-.8l2.1-2.1c.2-.2.6-.2.8 0 .2.2.2.6 0 .8l-2.1 2.1c-.3.2-.6.2-.8 0z" class="st10"/></g><g><path d="M416.1 158.7l5.4-5.4-1.1-1.1-5.4 5.4-1.1.6-1.3 2.1.8.8 2.1-1.3z" class="st10"/><path d="M426.3 152.8l5.6-5.6c.2-.2.3-.4.3-.6.2-.7.4-2.5-1.1-4-1.6-1.6-3.3-1.3-4-1.1l-.6.3-5.6 5.6c.9.9.9 2.3 0 3.1l-.5.5-.8-.8-.9.9 4 4 .9-.9-.8-.8.5-.5c.8-1 2.2-1 3-.1z" class="st3"/></g><g id="_x30__14_"><path d="M600.7 182.4l-8.2 8.2c-.5.5-1.2.5-1.7 0s-.5-1.2 0-1.7l8.2-8.2c.5-.5 1.2-.5 1.7 0s.5 1.3 0 1.7z" class="st12"/><path d="M604.6 178.6l-1 1c-.5.5-1.2.5-1.7 0s-.5-1.2 0-1.7l1-1c.5-.5 1.2-.5 1.7 0 .5.4.5 1.2 0 1.7zM609.4 173.8l-.2.2c-.5.5-1.2.5-1.7 0s-.5-1.2 0-1.7l.2-.2c.5-.5 1.2-.5 1.7 0 .5.4.5 1.2 0 1.7z" class="st10"/></g><g id="_x30__15_"><path d="M339.6 72.7l-8.2 8.2c-.5.5-1.2.5-1.7 0s-.5-1.2 0-1.7l8.2-8.2c.5-.5 1.2-.5 1.7 0 .4.5.4 1.3 0 1.7zM343.5 68.8l-1 1c-.5.5-1.2.5-1.7 0s-.5-1.2 0-1.7l1-1c.5-.5 1.2-.5 1.7 0 .4.5.4 1.3 0 1.7zM348.3 64l-.2.2c-.5.5-1.2.5-1.7 0s-.5-1.2 0-1.7l.2-.2c.5-.5 1.2-.5 1.7 0 .4.5.4 1.3 0 1.7z" class="st12"/></g><g id="_x30__16_"><path d="M594.2 82.7h-.9c-.5 0-.9-.4-.9-.9v-.9c0-.5-.3-.9-.8-1-.6-.1-1.1.3-1.1.9v1c0 .5-.4.9-.9.9h-.9c-.5 0-.9.3-1 .8-.1.6.3 1.1.9 1.1h1c.5 0 .9.4.9.9v.9c0 .5.3.9.8 1 .6.1 1.1-.3 1.1-.9v-1c0-.5.4-.9.9-.9h1c.6 0 1-.5.9-1.1-.2-.5-.6-.8-1-.8z" class="st10"/></g><g id="_x30__17_"><path d="M423.5 33h-1.2c-.7 0-1.2-.5-1.2-1.2v-1.2c0-.6-.4-1.1-1-1.2-.8-.2-1.4.4-1.4 1.2v1.2c0 .7-.5 1.2-1.2 1.2h-1.2c-.6 0-1.1.4-1.2 1-.2.8.4 1.4 1.2 1.4h1.2c.7 0 1.2.5 1.2 1.2v1.2c0 .6.4 1.1 1 1.2.8.2 1.4-.4 1.4-1.2v-1.2c0-.7.5-1.2 1.2-1.2h1.2c.7 0 1.3-.7 1.2-1.4-.1-.7-.6-1-1.2-1z" class="st12"/></g><g id="_x30__18_"><path d="M320.2 236H319c-.7 0-1.2-.5-1.2-1.2v-1.2c0-.6-.4-1.1-1-1.2-.8-.2-1.4.4-1.4 1.2v1.2c0 .7-.5 1.2-1.2 1.2H313c-.6 0-1.1.4-1.2 1-.2.8.4 1.4 1.2 1.4h1.2c.7 0 1.2.5 1.2 1.2v1.2c0 .6.4 1.1 1 1.2.8.2 1.4-.4 1.4-1.2v-1.2c0-.7.5-1.2 1.2-1.2h1.2c.7 0 1.3-.7 1.2-1.4-.1-.6-.6-1-1.2-1z" class="st12"/></g><circle cx="585.1" cy="253.6" r="1.9" class="st25"/><circle cx="518.8" cy="225.3" r="1.9" class="st12"/><path d="M532.4 286.5c0 .6-.5 1-1 1-.6 0-1-.5-1-1 0-.6.5-1 1-1 .6 0 1 .5 1 1zM376.9 42.3c0 .7-.6 1.3-1.3 1.3-.7 0-1.3-.6-1.3-1.3 0-.7.6-1.3 1.3-1.3.7 0 1.3.6 1.3 1.3z" class="st3"/><path d="M364.1 82.2c0 1-.8 1.9-1.9 1.9-1 0-1.9-.8-1.9-1.9s.8-1.9 1.9-1.9c1.1 0 1.9.8 1.9 1.9zM324.1 55.3c0 .5-.4.9-.9.9s-.9-.4-.9-.9.4-.9.9-.9.9.4.9.9z" class="st25"/><circle cx="317.8" cy="95.7" r="1.9" class="st3"/><circle cx="320.4" cy="262.6" r="2.2" class="st3"/><circle cx="313.1" cy="209.5" r="1.9" class="st25"/><circle cx="529.9" cy="21.9" r="1.9" class="st25"/><circle cx="595.7" cy="54.7" r=".9" class="st3"/></g><path d="M319.6 247.6c-12.1 11.7-31.7 19-32.8 36.4-.8 12.5 9.2 22.8 11.5 35 .1.3.1.7.2 1H0V0h150.1c4.1 6.3 8.5 12.2 14.4 17.3 9.1 8 20 13.7 31.5 16.4 17.2 4 35.1 1.6 52.6.4 17.6-1.2 36.1-.8 51.6 8.1s26.7 28.9 21.1 46.7c-3.4 10.8-12 18.7-19.2 27.1-7.3 8.4-13.8 19.4-11.7 30.5 2.9 15.1 19.2 21.8 29.7 32.5 17.5 17.8 17.2 51.3-.5 68.6z" class="st26"/><g id="_x34_tuEDY.tif"><path fill="#45d0fc" d="M100.6 72.2c-.1.3-.3.4-.5.6-7.4 7.4-14.8 14.7-22.1 22.1-.4.4-.7.5-1.1 0-1.4-1.5-2.9-2.9-4.3-4.3-.5-.5-.5-.7 0-1.2 5.6-5.5 11.1-11 16.6-16.6.2-.2.3-.4.5-.5 3.6-.1 7.2-.1 10.9-.1z"/><path d="M181.6 93.6h-5.3c-.4 0-.5.1-.5.5.3 2 1.2 3.5 3.1 4.2 1.9.7 3.7.4 5.2-1 .3-.3.6-.7.8-1 .2-.2.3-.3.5-.1.5.2.9.5 1.4.7.4.1.3.3.2.6-1.3 2.1-3.2 3.2-5.7 3.5-5 .5-8.4-3.5-8-8.5.3-3.5 2.5-6.3 5.8-7 4.4-.9 8.3 2.2 8.4 6.7 0 1.6 0 1.6-1.5 1.6-1.5-.2-3-.2-4.4-.2zM116.1 90.2v-9.7c0-.5.2-.7.7-.7h10.7c.6 0 .7.2.7.7 0 1.7 0 1.7-1.7 1.7h-7.3c-.5 0-.6.1-.6.6v5.8c0 .5.1.6.6.6h7.4c.5 0 .6.2.6.6 0 1.7 0 1.7-1.7 1.7h-6.3c-.5 0-.7.1-.6.6v7.7c0 .6-.2.8-.7.7-.6-.1-1.3.2-1.6-.1-.4-.4-.1-1.1-.1-1.7-.1-2.8-.1-5.6-.1-8.5zM147.4 98.5c-1.7 2.2-3.8 2.9-6.4 2.4-2.3-.4-3.8-2.3-3.9-5-.1-3.2 0-6.4-.1-9.7 0-.4.1-.4.5-.5 2-.1 2-.1 2 1.9 0 2.5-.1 5 .1 7.5.1 1.9.9 3 2.3 3.4 1.7.5 3.4-.1 4.5-1.6.6-.8.9-1.8.9-2.8v-7.8c0-.5.1-.7.7-.7h1.2c.5-.1.7.1.7.7v13.6c0 .4-.1.6-.6.6-.6 0-1.3.2-1.7-.1-.4-.3-.1-1.1-.1-1.7-.1 0-.1-.1-.1-.2z" class="st22"/><path fill="#42cffc" d="M85.6 92.6c1.3-1.3 2.6-2.6 3.8-3.9.2-.2.4-.3.7-.3h10.2c.1 0 .2 0 .2.1-3.1 3.2-6.2 6.3-9.4 9.5-.2.1-.4-.1-.5-.2L85.8 93c-.1-.1-.2-.2-.2-.4z"/><path fill="#06589c" d="M91.1 98.1c3.1 3.1 6.2 6.3 9.4 9.4-.1.2-.3.1-.5.1h-9.8c-.4 0-.7-.1-1-.4l-3.6-3.6c-.1-.3.2-.5.3-.7l4.5-4.5c.3-.2.4-.4.7-.3z"/><path d="M161.3 98.3v2c0 .3-.1.4-.4.5-2.6.8-5.8-.3-5.8-3.8v-8.3c0-.5-.1-.7-.6-.6h-.3c-1.9 0-1.9 0-1.7-1.9 0-.3.1-.4.4-.4h1.3c1 0 .9.1.9-.9v-2.7c0-.4.1-.6.5-.5h1.5c.4 0 .5.2.5.5v3c0 .5.1.7.7.7.8-.1 1.5 0 2.3 0 .5 0 .7.1.7.6 0 1.7 0 1.7-1.7 1.7h-1.3c-.6-.1-.7.2-.7.7v7.9c.1 1.6 1.3 2.4 2.8 1.9.4-.2.6-.3.9-.4zM171.8 98.2c0 .6-.1 1.1 0 1.6.1.7-.2.9-.8 1-.8.1-1.7.2-2.5 0-1.8-.5-2.9-1.9-2.9-3.8v-8.3c0-.5-.1-.8-.7-.7h-.2c-1.9 0-1.9 0-1.7-1.9 0-.3.2-.4.4-.4h1.6c.4 0 .5-.1.5-.5v-3.1c0-.4.1-.6.6-.6h1.4c.4 0 .6.1.5.5v3.1c0 .4.1.6.6.6h2.5c.4 0 .5.1.5.5.1 1.8.1 1.8-1.7 1.8-.6 0-1.4-.3-1.7.1-.4.4-.1 1.1-.1 1.7v6.9c.2 1.7 1.4 2.4 3 1.8.2-.1.4-.2.7-.3z" class="st22"/><path fill="#1fbbfc" d="M91.1 98.1l-5.3 5.3c-.1.1-.1.2-.1.2l-5.2-5.2c-.2-.2-.3-.4 0-.6 1.7-1.7 3.5-3.4 5.2-5.1 1.6 1.6 3.3 3.2 4.9 4.8.1.1.3.3.5.6 0-.1 0-.1 0 0z"/><path d="M192.8 88c.8-1.4 2-2.2 3.5-2.6.7-.2 1.5-.1 2.2.1.3.1.4.2.4.6v2.2c-.5-.1-1-.3-1.5-.4-2.4-.3-4.5 1.7-4.5 4.2v7.7c0 .6-.2.8-.8.8h-1.3c-.4 0-.5-.2-.5-.6V86.3c0-.4.1-.6.6-.6 1.8 0 1.8 0 1.8 1.7.1.3.1.4.1.6zM133.5 90.2v9.7c0 .5-.1.7-.6.6h-1.5c-.3 0-.4-.1-.4-.4v-.3-19.2c0-.6.2-.8.8-.8 1.7 0 1.7 0 1.7 1.8v8.6z" class="st22"/><path d="M176 91.6c.2-2.1 2-3.8 3.9-4 2.5-.2 4.3.9 4.9 3.1.2.8.2.9-.6.9H176z" class="st26"/></g><path d="M79.8 129.9l-2.4 15.4h8l-.5 3H73.7l2.9-18.3h3.2zM88.5 142.9l.6-3.5c.1-.8.4-1.6.7-2.3s.7-1.3 1.2-1.7c.5-.5 1-.8 1.7-1.1.6-.3 1.3-.4 2-.4 1 0 1.7.2 2.2.7.5.5.8 1.1.8 2h.3l.4-2.4h3l-1.7 10.5c0 .3 0 .6.2.7.2.2.4.3.7.3h.8l-.4 2.5h-2c-.8 0-1.5-.2-1.9-.7-.5-.5-.6-1.1-.5-1.8h-.3c-.3.8-.8 1.5-1.4 2-.7.5-1.5.7-2.4.7-1.2 0-2.2-.4-2.9-1.1-.7-.8-1-1.8-1-3.1v-.6c-.2-.3-.1-.5-.1-.7zm5.3 2.8c.7 0 1.4-.2 1.9-.7.5-.4.8-1.1 1-1.8l.6-4c.1-.8-.1-1.4-.4-1.8-.4-.4-.9-.7-1.7-.7-.8 0-1.5.3-2 .8s-.9 1.2-1 2l-.5 3.3c-.1.9 0 1.6.3 2.1s1 .8 1.8.8zM103.2 148.2l2.2-14h3l-.4 2.4h.2c.3-.8.8-1.5 1.5-2s1.6-.7 2.6-.7c.7 0 1.3.1 1.8.4.5.2 1 .6 1.3 1.1.3.5.6 1 .7 1.6.1.6.1 1.3 0 2.1l-1.5 9.1h-3.2l1.4-8.8c.1-.9 0-1.5-.4-2s-1-.7-1.8-.7-1.5.3-2 .8-.9 1.2-1 2l-1.4 8.7h-3zM119.1 142.9l.6-3.5c.1-.8.4-1.6.7-2.3.3-.7.7-1.2 1.2-1.7s1.1-.8 1.7-1.1c.6-.3 1.3-.4 2-.4 1 0 1.8.2 2.4.7.6.5.9 1.1.9 2h.3c0-.3 0-.6.1-.9 0-.3.1-.5.1-.8 0-.3.1-.5.1-.8l.7-4.3h3.2l-2.9 18.3H127l.4-2.4h-.2c-.3.8-.8 1.5-1.6 2-.7.5-1.6.7-2.6.7-1.3 0-2.3-.4-3-1.1-.7-.8-1.1-1.8-1.1-3.1v-.6c.1-.2.1-.5.2-.7zm5.5 2.8c.8 0 1.5-.3 2.1-.8.6-.5.9-1.2 1.1-2l.5-3.4c.1-.8 0-1.5-.4-2s-1-.8-1.9-.8c-.8 0-1.6.3-2.1.8-.6.5-.9 1.2-1.1 2l-.5 3.3c-.1.9 0 1.6.4 2.1s1 .8 1.9.8zM134.1 144.6h3.2c0 .4.2.8.6 1 .4.2.9.4 1.5.4h1c.8 0 1.4-.2 1.9-.5s.8-.7.9-1.3c.2-1-.5-1.6-1.9-1.8l-2-.2c-1.5-.2-2.6-.6-3.3-1.3-.7-.7-.9-1.7-.7-2.9.2-1.3.9-2.3 1.9-3.1 1-.7 2.4-1.1 4.1-1.1h1c1.5 0 2.7.3 3.6 1 .8.7 1.2 1.6 1.2 2.7H144c0-.4-.2-.7-.6-.9-.3-.2-.8-.3-1.4-.3h-1c-.7 0-1.3.1-1.7.4-.4.3-.7.7-.8 1.2-.2.9.4 1.5 1.6 1.6l2 .3c1.6.2 2.7.6 3.4 1.4.7.7 1 1.7.8 2.9-.2 1.4-.9 2.5-2 3.2-1.1.7-2.5 1.1-4.3 1.1h-1c-1.6 0-2.8-.3-3.7-1-.8-.6-1.3-1.6-1.2-2.8zM155 148.4c-.9 0-1.7-.1-2.4-.4-.7-.3-1.3-.6-1.7-1.1s-.8-1-1-1.7-.2-1.4-.1-2.2l.6-3.6c.3-1.7 1-3.1 2.3-4s2.8-1.5 4.7-1.5c.8 0 1.5.1 2.2.4.6.2 1.2.6 1.7 1s.8 1 1.1 1.6c.3.6.4 1.3.4 2h-3.2c0-.6-.3-1.2-.7-1.6-.5-.4-1.1-.6-1.9-.6-.9 0-1.7.2-2.2.7-.6.5-.9 1.1-1.1 2l-.7 3.6c-.1.8 0 1.5.5 1.9.4.5 1.1.7 2 .7.8 0 1.5-.2 2.1-.6.6-.4 1-.9 1.2-1.6h3.2c-.5 1.6-1.3 2.8-2.5 3.6-1.4 1-2.8 1.4-4.5 1.4zM164.9 142.9l.6-3.5c.1-.8.4-1.6.7-2.3s.7-1.3 1.2-1.7c.5-.5 1-.8 1.7-1.1.6-.3 1.3-.4 2-.4 1 0 1.7.2 2.2.7.5.5.8 1.1.8 2h.3l.4-2.4h3l-1.7 10.5c0 .3 0 .6.2.7.2.2.4.3.7.3h.8l-.4 2.5h-2c-.8 0-1.5-.2-1.9-.7-.5-.5-.6-1.1-.5-1.8h-.3c-.3.8-.8 1.5-1.4 2-.7.5-1.5.7-2.4.7-1.2 0-2.2-.4-2.9-1.1-.7-.8-1-1.8-1-3.1v-.6c-.2-.3-.2-.5-.1-.7zm5.3 2.8c.7 0 1.4-.2 1.9-.7.5-.4.8-1.1 1-1.8l.6-4c.1-.8-.1-1.4-.4-1.8-.4-.4-.9-.7-1.7-.7-.8 0-1.5.3-2 .8s-.9 1.2-1 2l-.5 3.3c-.1.9 0 1.6.3 2.1s.9.8 1.8.8zM178.9 152.5l2.9-18.3h3.1l-.4 2.4h.2c.3-.8.8-1.5 1.5-2s1.6-.7 2.6-.7c1.3 0 2.3.4 3 1.1.7.8 1.1 1.8 1.1 3.1 0 .4 0 .8-.1 1.2l-.5 3.5c-.3 1.7-.9 3.1-1.9 4.1-1 1-2.3 1.5-3.8 1.5-1 0-1.8-.2-2.4-.7-.6-.5-.9-1.1-.9-2h-.2v.3c0 .2 0 .4-.1.6 0 .2 0 .5-.1.8 0 .3-.1.5-.1.8l-.7 4.3h-3.2zm7-6.8c.9 0 1.6-.3 2.2-.8.6-.5.9-1.2 1.1-2.1l.5-3.3c.1-.9 0-1.5-.4-2s-1-.8-1.9-.8c-.8 0-1.5.3-2.1.8-.6.5-.9 1.2-1.1 2l-.6 3.4c-.1.8 0 1.5.4 2 .5.5 1.1.8 1.9.8zM200.6 148.4c-.9 0-1.7-.1-2.4-.4-.7-.3-1.3-.6-1.7-1.1-.5-.5-.8-1.1-1-1.7s-.2-1.4-.1-2.3l.6-3.5c.1-.8.4-1.6.8-2.3.4-.7.9-1.3 1.5-1.7.6-.5 1.3-.8 2.1-1.1.8-.3 1.6-.4 2.6-.4.9 0 1.7.1 2.4.4.7.3 1.3.6 1.7 1.1.4.5.8 1.1.9 1.7.2.7.2 1.4.1 2.3l-.4 2.5h-8.9l-.2.9c-.2 1 0 1.7.4 2.2.4.5 1.1.8 2 .8.7 0 1.3-.1 1.8-.3.5-.2.9-.5 1.2-.9h3.1c-.2.6-.6 1.1-1 1.6s-.9.9-1.5 1.2c-.6.3-1.2.6-1.9.8-.6.2-1.3.2-2.1.2zm4.3-8.5l.1-.4c.2-.9 0-1.7-.4-2.2-.4-.5-1.1-.8-2-.8-.9 0-1.7.3-2.3.8-.6.5-1 1.2-1.1 2.2l-.1.5h5.8zM72.4 178.7l7.8-18.3h4.3l1.9 18.3h-3.2l-.4-4.6h-5.3l-1.8 4.6h-3.3zm6.2-7.1h4l-.5-6.5c0-.3-.1-.6-.1-.9v-.8-.8h-.1c-.1.2-.1.5-.2.8-.1.2-.2.5-.3.8l-.3.9-2.5 6.5zM87.3 183.1l2.9-18.3h3.1l-.4 2.4h.2c.3-.8.8-1.5 1.5-2s1.6-.7 2.6-.7c1.3 0 2.3.4 3 1.1.7.8 1.1 1.8 1.1 3.1 0 .4 0 .8-.1 1.2l-.5 3.5c-.3 1.7-.9 3.1-1.9 4.1-1 1-2.3 1.5-3.8 1.5-1 0-1.8-.2-2.4-.7-.6-.5-.9-1.1-.9-2h-.2v.3c0 .2 0 .4-.1.6 0 .2 0 .5-.1.8 0 .3-.1.5-.1.8l-.7 4.3h-3.2zm7-6.9c.9 0 1.6-.3 2.2-.8.6-.5.9-1.2 1.1-2.1l.4-3.3c.1-.9 0-1.5-.4-2s-1-.8-1.9-.8c-.8 0-1.5.3-2.1.8-.6.5-.9 1.2-1.1 2l-.6 3.4c-.1.8 0 1.5.4 2 .5.6 1.2.8 2 .8zM102.6 183.1l2.9-18.3h3.1l-.4 2.4h.2c.3-.8.8-1.5 1.5-2s1.6-.7 2.6-.7c1.3 0 2.3.4 3 1.1.7.8 1.1 1.8 1.1 3.1 0 .4 0 .8-.1 1.2l-.5 3.5c-.3 1.7-.9 3.1-1.9 4.1-1 1-2.3 1.5-3.8 1.5-1 0-1.8-.2-2.4-.7-.6-.5-.9-1.1-.9-2h-.2v.3c0 .2 0 .4-.1.6 0 .2 0 .5-.1.8 0 .3-.1.5-.1.8l-.7 4.3h-3.2zm7-6.9c.9 0 1.6-.3 2.2-.8.6-.5.9-1.2 1.1-2.1l.5-3.3c.1-.9 0-1.5-.4-2s-1-.8-1.9-.8c-.8 0-1.5.3-2.1.8-.6.5-.9 1.2-1.1 2l-.6 3.4c-.1.8 0 1.5.4 2 .4.6 1 .8 1.9.8zM120.4 160.4h7.6l-2.2 13.8c-.1.5 0 .9.3 1.2s.6.4 1.1.4h4.2l-.5 2.9h-4.4c-1.4 0-2.5-.4-3.2-1.2-.7-.8-.9-1.9-.7-3.3l1.7-10.9h-4.5l.6-2.9zM134.1 178.7l.5-2.9h5l1.3-8.2h-4.4l.4-2.9h7.4l-1.8 11.1h4l-.5 2.9h-11.9zM141 161c.1-.5.3-.9.7-1.2.4-.3.8-.5 1.4-.5h.7c.5 0 1 .2 1.2.5.3.3.4.7.3 1.2-.1.5-.3.9-.7 1.2-.4.3-.8.5-1.4.5h-.7c-.5 0-1-.2-1.2-.5-.3-.3-.4-.7-.3-1.2zM155 179c-.9 0-1.7-.1-2.4-.4-.7-.3-1.3-.6-1.7-1.1s-.8-1-1-1.7-.2-1.4-.1-2.2l.6-3.6c.3-1.7 1-3.1 2.3-4s2.8-1.5 4.7-1.5c.8 0 1.5.1 2.2.4.6.2 1.2.6 1.7 1s.8 1 1.1 1.6c.3.6.4 1.3.4 2h-3.2c0-.6-.3-1.2-.7-1.6-.5-.4-1.1-.6-1.9-.6-.9 0-1.7.2-2.2.7-.6.5-.9 1.1-1.1 2l-.6 3.6c-.1.8 0 1.5.5 1.9.4.5 1.1.7 2 .7.8 0 1.5-.2 2.1-.6.6-.4 1-.9 1.2-1.6h3.2c-.5 1.6-1.3 2.8-2.5 3.6-1.5 1-2.9 1.4-4.6 1.4zM164.9 173.4l.6-3.5c.1-.8.4-1.6.7-2.3s.7-1.3 1.2-1.7c.5-.5 1-.8 1.7-1.1.6-.3 1.3-.4 2-.4 1 0 1.7.2 2.2.7.5.5.8 1.1.8 2h.3l.4-2.4h3l-1.7 10.5c0 .3 0 .6.2.7.2.2.4.3.7.3h.8l-.4 2.5h-2c-.8 0-1.5-.2-1.9-.7-.5-.5-.6-1.1-.5-1.8h-.3c-.3.8-.8 1.5-1.4 2-.7.5-1.5.7-2.4.7-1.2 0-2.2-.4-2.9-1.1-.7-.8-1-1.8-1-3.1v-.6c-.2-.2-.2-.4-.1-.7zm5.3 2.8c.7 0 1.4-.2 1.9-.7.5-.4.8-1.1 1-1.8l.6-4c.1-.8-.1-1.4-.4-1.8-.4-.4-.9-.7-1.7-.7-.8 0-1.5.3-2 .8s-.9 1.2-1 2l-.5 3.3c-.1.9 0 1.6.3 2.1s.9.8 1.8.8zM181.2 164.7h3.8l.7-4.3h3.2l-.7 4.3h5.3l-.5 2.9h-5.3l-1.1 6.8c-.1.4 0 .8.2 1.1.2.3.6.4 1.1.4h3.6l-.5 2.9h-3.8c-1.4 0-2.4-.4-3.1-1.2-.7-.8-.9-1.8-.7-3.2l1.1-6.8h-3.8l.5-2.9zM195.2 178.7l.5-2.9h5l1.3-8.2h-4.4l.4-2.9h7.4l-1.8 11.1h4l-.5 2.9h-11.9zm6.9-17.7c.1-.5.3-.9.7-1.2.4-.3.8-.5 1.4-.5h.7c.5 0 1 .2 1.2.5.3.3.4.7.3 1.2-.1.5-.3.9-.7 1.2-.4.3-.8.5-1.4.5h-.7c-.5 0-1-.2-1.2-.5-.3-.3-.4-.7-.3-1.2zM215.9 179c-.9 0-1.7-.1-2.4-.4-.7-.3-1.3-.6-1.7-1.1-.4-.5-.8-1.1-.9-1.8-.2-.7-.2-1.4-.1-2.3l.6-3.4c.3-1.7 1-3.1 2.3-4 1.2-1 2.8-1.5 4.7-1.5.9 0 1.7.1 2.4.4.7.3 1.3.6 1.7 1.1.4.5.8 1.1 1 1.7.2.7.2 1.4.1 2.3l-.5 3.4c-.3 1.7-1 3.1-2.3 4.1-1.4 1-3 1.5-4.9 1.5zm-2-5.6c-.1.8 0 1.5.5 2 .4.5 1.1.7 2 .7.9 0 1.6-.2 2.2-.7.6-.5 1-1.2 1.1-2l.5-3.4c.1-.8 0-1.5-.5-2s-1.1-.7-2-.7-1.6.2-2.2.7c-.6.5-1 1.2-1.1 2l-.5 3.4zM225.4 178.7l2.2-14h3l-.4 2.4h.2c.3-.8.8-1.5 1.5-2s1.6-.7 2.6-.7c.7 0 1.3.1 1.8.4.5.2 1 .6 1.3 1.1.3.5.6 1 .7 1.6.1.6.1 1.3 0 2.1l-1.5 9.1h-3.2l1.4-8.8c.1-.9 0-1.5-.4-2s-1-.7-1.8-.7-1.5.3-2 .8-.9 1.2-1 2l-1.4 8.7h-3zM74.8 191H88l-.5 2.9h-5l-2.4 15.4h-3.2l2.4-15.4h-5l.5-2.9zM88.9 204l1.4-8.8h3.2l-1.4 8.8c-.3 1.8.4 2.7 2.1 2.7 1.7 0 2.7-.9 3-2.7l1.4-8.8h3.2l-1.4 8.8c-.3 1.7-1 3.1-2.1 4.1-1.1 1-2.6 1.4-4.5 1.4-1.8 0-3.1-.5-3.9-1.5-1-.9-1.3-2.2-1-4zM104.8 195.3h3.8l.7-4.3h3.2l-.7 4.3h5.3l-.5 2.9h-5.3l-1.1 6.8c-.1.4 0 .8.2 1.1.2.3.6.4 1.1.4h3.6l-.5 2.9h-3.8c-1.4 0-2.4-.4-3.1-1.2-.7-.8-.9-1.8-.7-3.2l1.1-6.8h-3.8l.5-2.9zM124.3 209.5c-.9 0-1.7-.1-2.4-.4-.7-.3-1.3-.6-1.7-1.1-.4-.5-.8-1.1-.9-1.8-.2-.7-.2-1.4-.1-2.3l.6-3.4c.3-1.7 1-3.1 2.3-4 1.2-1 2.8-1.5 4.7-1.5.9 0 1.7.1 2.4.4.7.3 1.3.6 1.7 1.1.4.5.8 1.1 1 1.7.2.7.2 1.4.1 2.3l-.5 3.4c-.3 1.7-1 3.1-2.3 4.1-1.5 1-3 1.5-4.9 1.5zm-2-5.5c-.1.8 0 1.5.5 2 .4.5 1.1.7 2 .7.9 0 1.6-.2 2.2-.7.6-.5 1-1.2 1.1-2l.5-3.4c.1-.8 0-1.5-.5-2s-1.1-.7-2-.7-1.6.2-2.2.7c-.6.5-1 1.2-1.1 2l-.5 3.4zM134.4 209.3l2.2-14h3l-.4 2.4h.2c.3-.8.8-1.5 1.6-2 .7-.5 1.7-.7 2.7-.7 1.5 0 2.6.5 3.3 1.4.7.9.9 2.2.7 3.9l-.2 1.1h-3.3l.1-.8c.2-.9 0-1.6-.4-2.1s-1-.8-1.9-.8c-.8 0-1.5.3-2.1.8-.6.5-.9 1.2-1 2.1l-1.4 8.7h-3.1zM149.3 209.3l.5-2.9h5l1.3-8.2h-4.4l.4-2.9h7.4l-1.8 11.1h4l-.5 2.9h-11.9zm7-17.8c.1-.5.3-.9.7-1.2.4-.3.8-.5 1.4-.5h.7c.5 0 1 .2 1.2.5.3.3.4.7.3 1.2-.1.5-.3.9-.7 1.2-.4.3-.8.5-1.4.5h-.7c-.5 0-1-.2-1.2-.5-.3-.3-.4-.7-.3-1.2zM164.9 204l.6-3.5c.1-.8.4-1.6.7-2.3s.7-1.3 1.2-1.7c.5-.5 1-.8 1.7-1.1.6-.3 1.3-.4 2-.4 1 0 1.7.2 2.2.7.5.5.8 1.1.8 2h.3l.4-2.4h3l-1.7 10.5c0 .3 0 .6.2.7.2.2.4.3.7.3h.8l-.4 2.5h-2c-.8 0-1.5-.2-1.9-.7-.5-.5-.6-1.1-.5-1.8h-.3c-.3.8-.8 1.5-1.4 2-.7.5-1.5.7-2.4.7-1.2 0-2.2-.4-2.9-1.1-.7-.8-1-1.8-1-3.1v-.6c-.2-.3-.2-.5-.1-.7zm5.3 2.8c.7 0 1.4-.2 1.9-.7.5-.4.8-1.1 1-1.8l.6-4c.1-.8-.1-1.4-.4-1.8-.4-.4-.9-.7-1.7-.7-.8 0-1.5.3-2 .8s-.9 1.2-1 2l-.5 3.3c-.1.9 0 1.6.3 2.1s.9.8 1.8.8zM181.5 191h7.6l-2.2 13.8c-.1.5 0 .9.3 1.2s.6.4 1.1.4h4.2l-.5 2.9h-4.4c-1.4 0-2.5-.4-3.2-1.2-.7-.8-.9-1.9-.7-3.3l1.7-10.9H181l.5-2.9z" class="st22"/><g><path d="M16.2 303.1c-.2 0-.3 0-.5-.1s-.2-.1-.3-.3l-.2-.4v-.5l.1-.6c0-.2.1-.4.2-.5s.2-.3.3-.4c.1-.1.2-.2.4-.3.2-.1.3-.1.5-.1s.4.1.6.2c.1.1.2.3.2.5l.1-.6h.7l-.5 3.1c0 .2-.1.4-.2.5-.1.1-.2.3-.3.4-.1.1-.3.2-.5.2-.2.1-.4.1-.6.1h-.9l.1-.6h.9c.2 0 .4-.1.5-.2.1-.1.2-.2.2-.4l.1-.7c-.1.2-.2.4-.4.5 0 .2-.2.2-.5.2zm-.2-1.2c0 .2 0 .4.1.5.1.1.2.2.4.2s.4-.1.5-.2c.1-.1.2-.3.2-.5l.1-.5c0-.2 0-.4-.1-.5-.1-.1-.2-.2-.5-.2-.2 0-.4.1-.5.2-.1.1-.2.3-.2.5v.5zM18.8 303.4l.1-.7h1.2l.3-1.9h-1l.1-.7h1.8l-.4 2.6h1l-.1.7h-3zm1.6-4.2c0-.1.1-.2.2-.3.1-.1.2-.1.3-.1h.2c.1 0 .2 0 .3.1.1.1.1.2.1.3 0 .1-.1.2-.2.3-.1.1-.2.1-.3.1h-.2c-.1 0-.2 0-.3-.1-.1-.1-.1-.2-.1-.3zM22.7 300.1h.9l.2-1h.8l-.2 1h1.3l-.1.7h-1.3l-.3 1.6c0 .1 0 .2.1.2.1.1.1.1.2.1h.8l-.1.7h-.9c-.3 0-.6-.1-.7-.3s-.2-.4-.2-.7l.3-1.6h-.9l.1-.7zM26.6 299.1h.8l-.2 1c0 .1 0 .2-.1.4 0 .1 0 .1-.1.2h.1c.1-.2.2-.4.4-.5.2-.1.4-.2.6-.2.2 0 .3 0 .4.1s.2.1.3.2.1.2.2.4v.5l-.3 2.2h-.8l.3-2.1c0-.2 0-.4-.1-.5-.1-.1-.2-.2-.4-.2s-.3.1-.5.2c-.1.1-.2.3-.2.5l-.3 2.1h-.8l.7-4.3zM29.8 302.1l.3-2.1h.8l-.3 2.1c-.1.4.1.6.5.6s.6-.2.7-.6l.3-2.1h.7l-.3 2.1c-.1.4-.2.7-.5 1s-.6.3-1.1.3c-.4 0-.7-.1-.9-.3-.2-.2-.3-.6-.2-1zM33.1 303.4l.7-4.3h.8l-.2 1V300.7h.1c.1-.2.2-.4.4-.5s.4-.2.6-.2c.3 0 .5.1.7.3.2.2.3.4.3.7v.3l-.1.8c-.1.4-.2.7-.5 1-.2.2-.5.3-.9.3-.2 0-.4-.1-.6-.2-.1-.1-.2-.3-.2-.5H34l-.1.6h-.8zm1-1.3c0 .2 0 .4.1.5s.2.2.4.2.4-.1.5-.2c.1-.1.2-.3.2-.5l.1-.8c0-.2 0-.4-.1-.5-.1-.1-.2-.2-.4-.2s-.4.1-.5.2c-.1.1-.2.3-.3.5v.8zM36.6 302.6l.3-1.9c0-.3.1-.5.2-.7.1-.2.3-.4.4-.5.2-.1.4-.3.6-.3.2-.1.5-.1.7-.1.4 0 .8.1 1 .3.2.2.3.4.3.8v.2l-.4 2.6h-.6l.1-.6c-.1.2-.2.4-.3.5-.1.1-.3.2-.5.2-.4 0-.6-.2-.6-.7v-.2-.2l.1-.5c.1-.7.4-1.1 1-1.1.3 0 .5.2.6.6v-.2-.4c0-.3 0-.4-.1-.6-.1-.1-.4-.2-.6-.2-.3 0-.6.1-.8.3s-.4.5-.4.9l-.3 1.9c-.1.4 0 .6.2.9.2.2.4.3.8.3h.4l-.1.6h-.4c-.5 0-.8-.1-1.1-.4-.3-.2-.4-.6-.4-1-.1-.2-.1-.3-.1-.5zm2.2-.1c.3 0 .4-.2.5-.5l.1-.6c0-.4-.1-.6-.3-.6-.2 0-.4.2-.5.6l-.1.5v.4c.1.2.2.2.3.2zM41 299.1h1.5c.2 0 .4 0 .6.1s.3.1.4.3c.1.1.2.3.2.4v.5c-.1.4-.2.7-.5 1-.3.2-.7.3-1.1.3h-.7l-.3 1.7h-.8l.7-4.3zm.5 1.9h.7c.2 0 .4-.1.5-.2.1-.1.2-.3.3-.5 0-.2 0-.4-.1-.5s-.3-.2-.5-.2h-.7l-.2 1.4zM44.1 302.1l.1-.8c0-.2.1-.4.2-.5.1-.2.2-.3.3-.4.1-.1.2-.2.4-.3s.3-.1.5-.1.4.1.5.2c.1.1.2.3.2.5h.1l.1-.6h.7l-.4 2.5v.2s.1.1.2.1h.2l-.1.6h-.5c-.2 0-.3-.1-.5-.2-.1-.1-.2-.3-.1-.4h-.1c-.1.2-.2.4-.3.5-.2.1-.3.2-.6.2s-.5-.1-.7-.3-.2-.4-.2-.7v-.1c-.1-.3-.1-.3 0-.4zm1.2.7c.2 0 .3-.1.4-.2.1-.1.2-.2.2-.4l.1-.9c0-.2 0-.3-.1-.4-.1-.1-.2-.2-.4-.2s-.4.1-.5.2c-.1.1-.2.3-.2.5l-.1.8c0 .2 0 .4.1.5s.3.1.5.1zM47.6 302.5h.7c0 .1.1.2.1.2.1.1.2.1.4.1h.2c.2 0 .3 0 .5-.1.1-.1.2-.2.2-.3 0-.2-.1-.4-.4-.4l-.5-.1c-.4 0-.6-.1-.8-.3-.2-.2-.2-.4-.2-.7.1-.3.2-.6.4-.7.2-.2.6-.3 1-.3h.2c.4 0 .6.1.8.2.2.2.3.4.3.6h-.7c0-.1-.1-.2-.1-.2-.1-.1-.2-.1-.3-.1h-.2c-.2 0-.3 0-.4.1s-.2.2-.2.3c0 .2.1.3.4.4l.5.1c.4 0 .6.2.8.3.2.2.2.4.2.7-.1.3-.2.6-.5.8-.3.2-.6.3-1 .3h-.2c-.4 0-.7-.1-.9-.2-.2-.2-.3-.4-.3-.7zM51.2 302.5h.7c0 .1.1.2.1.2.1.1.2.1.4.1h.2c.2 0 .3 0 .5-.1.1-.1.2-.2.2-.3 0-.2-.1-.4-.4-.4l-.5-.1c-.4 0-.6-.1-.8-.3-.2-.2-.2-.4-.2-.7.1-.3.2-.6.4-.7.2-.2.6-.3 1-.3h.2c.4 0 .6.1.8.2.2.2.3.4.3.6h-.7c0-.1-.1-.2-.1-.2-.1-.1-.2-.1-.3-.1h-.2c-.2 0-.3 0-.4.1s-.2.2-.2.3c0 .2.1.3.4.4l.5.1c.4 0 .6.2.8.3.2.2.2.4.2.7-.1.3-.2.6-.5.8-.3.2-.6.3-1 .3h-.2c-.4 0-.7-.1-.9-.2-.2-.2-.3-.4-.3-.7zM54.8 303.4l.1-.7h1.2l.3-1.9h-1l.1-.7h1.8l-.4 2.6h1l-.1.7h-3zm1.6-4.2c0-.1.1-.2.2-.3.1-.1.2-.1.3-.1h.2c.1 0 .2 0 .3.1.1.1.1.2.1.3 0 .1-.1.2-.2.3-.1.1-.2.1-.3.1h-.2c-.1 0-.2 0-.3-.1-.1-.1-.1-.2-.1-.3zM59.7 303.4c-.2 0-.4 0-.6-.1-.2-.1-.3-.1-.4-.3-.1-.1-.2-.3-.2-.4v-.5l.1-.8c.1-.4.2-.7.5-1 .3-.2.7-.3 1.1-.3.2 0 .4 0 .6.1s.3.1.4.3c.1.1.2.3.2.4 0 .2.1.3 0 .5l-.1.8c-.1.4-.2.7-.5 1-.3.2-.7.3-1.1.3zm-.5-1.3c0 .2 0 .4.1.5s.3.2.5.2.4-.1.5-.2.2-.3.3-.5l.1-.8c0-.2 0-.4-.1-.5-.1-.1-.3-.2-.5-.2s-.4.1-.5.2c-.1.1-.2.3-.3.5l-.1.8zM61.9 303.4l.5-3.3h.7l-.1.6h.1c.1-.2.2-.4.4-.5.2-.1.4-.2.6-.2.2 0 .3 0 .4.1s.2.1.3.2c.1.1.1.2.2.4v.5l-.3 2.1h-.8l.3-2.1c0-.2 0-.4-.1-.5-.1-.1-.2-.2-.4-.2s-.4.1-.5.2c-.1.1-.2.3-.2.5l-.3 2.1h-.8zM66.2 299.1h1.5c.2 0 .4 0 .6.1s.3.1.4.3c.1.1.2.3.2.4v.5c-.1.4-.2.7-.5 1-.3.2-.7.3-1.1.3h-.7l-.3 1.7h-.8l.7-4.3zm.5 1.9h.7c.2 0 .4-.1.5-.2.1-.1.2-.3.3-.5 0-.2 0-.4-.1-.5s-.3-.2-.5-.2h-.7l-.2 1.4zM70.5 303.4c-.2 0-.4 0-.6-.1-.2-.1-.3-.1-.4-.3-.1-.1-.2-.2-.2-.4v-.5l.1-.8c0-.2.1-.4.2-.5.1-.2.2-.3.4-.4.1-.1.3-.2.5-.3s.4-.1.6-.1c.2 0 .4 0 .6.1s.3.1.4.3c.1.1.2.2.2.4v.5l-.1.6H70v.2c0 .2 0 .4.1.5s.3.2.5.2.3 0 .4-.1c.1-.1.2-.1.3-.2h.7c-.1.1-.1.3-.2.4-.1.1-.2.2-.4.3-.1.1-.3.1-.4.2h-.5zm1-2v-.1c0-.2 0-.4-.1-.5-.1-.1-.3-.2-.5-.2s-.4.1-.5.2c-.1.1-.2.3-.3.5v.1h1.4zM72.7 303.4l.5-3.3h.8l-.1.6h.1c.1-.2.2-.4.4-.5.2-.1.4-.2.6-.2.2 0 .3 0 .4.1s.2.1.3.2c.1.1.1.2.2.4v.5l-.3 2.1h-.8l.3-2.1c0-.2 0-.4-.1-.5-.1-.1-.2-.2-.4-.2s-.4.1-.5.2c-.1.1-.2.3-.2.5l-.3 2.1h-.9zM77.4 303.1c-.2 0-.3 0-.5-.1s-.2-.1-.3-.3l-.2-.4v-.5l.1-.6c0-.2.1-.4.2-.5s.2-.3.3-.4c.1-.1.2-.2.4-.3.2-.1.3-.1.5-.1s.4.1.6.2c.1.1.2.3.2.5l.1-.6h.7l-.5 3.1c0 .2-.1.4-.2.5-.1.1-.2.3-.3.4-.1.1-.3.2-.5.2-.2.1-.4.1-.6.1h-.9l.1-.6h.9c.2 0 .4-.1.5-.2.1-.1.2-.2.2-.4l.1-.7c-.1.2-.2.4-.4.5 0 .2-.2.2-.5.2zm-.2-1.2c0 .2 0 .4.1.5.1.1.2.2.4.2s.4-.1.5-.2c.1-.1.2-.3.2-.5l.1-.5c0-.2 0-.4-.1-.5-.1-.1-.2-.2-.5-.2-.2 0-.4.1-.5.2-.1.1-.2.3-.2.5v.5zM80.2 302.1l.3-2.1h.8l-.3 2.1c-.1.4.1.6.5.6s.6-.2.7-.6l.3-2.1h.7l-.3 2.1c-.1.4-.2.7-.5 1s-.6.3-1.1.3c-.4 0-.7-.1-.9-.3-.2-.2-.3-.6-.2-1zM83.6 303.4l.1-.7h1.2l.3-1.9h-1l.1-.7H86l-.4 2.6h1l-.1.7h-2.9zm1.6-4.2c0-.1.1-.2.2-.3.1-.1.2-.1.3-.1h.2c.1 0 .2 0 .3.1.1.1.1.2.1.3 0 .1-.1.2-.2.3-.1.1-.2.1-.3.1h-.2c-.1 0-.2 0-.3-.1-.1-.1-.1-.2-.1-.3zM87.1 303.4l.5-3.3h.7l-.1.6h.1c.1-.2.2-.4.4-.5.2-.1.4-.2.6-.2.2 0 .3 0 .4.1s.2.1.3.2c.1.1.1.2.2.4v.5l-.3 2.1h-.8l.3-2.1c0-.2 0-.4-.1-.5-.1-.1-.2-.2-.4-.2s-.4.1-.5.2c-.1.1-.2.3-.2.5l-.3 2.1h-.8z" class="st22"/></g></svg>