<svg xmlns="http://www.w3.org/2000/svg" id="Layer_1" x="0" y="0" version="1.1" viewBox="0 0 500 300" xml:space="preserve"><defs/><style>.st3{fill:#1d2b51}.st5{fill:#101c3b}.st6{fill:#162345}.st7,.st8{fill:none;stroke:#f0f5f8;stroke-width:.7386;stroke-linecap:round;stroke-miterlimit:10;stroke-dasharray:0,2.5604}.st8{stroke-width:1.4771;stroke-dasharray:0,3.2415}.st10{fill:#9aa2b2}.st11{fill:#bdc4d4}.st12{fill:#f0f5f8}.st13{fill:#e6eaf0}.st15{fill:#34909d}.st21{fill:#d7dbe0}.st22{fill:#fff}.st25{fill:none;stroke:#1d2b51;stroke-width:.9848;stroke-miterlimit:10}.st26{fill:#3d4968}</style><path fill="#4d5978" d="M500 0v300H0V5.4C0 2.4 2.2 0 5 0h495z"/><g opacity=".25"><g id="web_homepage_1_"><path fill="#3d4968" d="M460.3 31.4v140.3c0 3.9-3.2 7.1-7.1 7.1H347.7c-3.9 0-7.1-3.2-7.1-7.1V31.4c0-3.9 3.2-7.1 7.1-7.1h105.6c3.9.1 7 3.2 7 7.1z" opacity=".28"/><path d="M455.3 28.9v140.3c0 3.9-3.2 7-7 7H342.6c-3.9 0-7.1-3.2-7.1-7v-10.4H334V28.9c0-3.9 3.2-7.1 7.1-7.1h107.2c3.8 0 7 3.2 7 7.1z" class="st3"/><path fill="#3d4968" d="M368 162.9v13.3h-25.4c-3.9 0-7.1-3.2-7.1-7v-10.4H334v-2.9h27c3.9 0 7 3.1 7 7z" opacity=".33"/><path d="M446.5 29.2c0 1.3-1 2.3-2.3 2.3h-8.8c-.5-.1-.9-.3-1.2-.6-.4-.4-.7-1-.7-1.6 0-1.3 1-2.3 2.3-2.3h8.4c.6 0 1.2.3 1.6.7.4.3.7.9.7 1.5zM430 29.2c0 1.3-1 2.3-2.3 2.3h-8.8c-.5-.1-.9-.3-1.2-.6-.4-.4-.7-1-.7-1.6 0-1.3 1-2.3 2.3-2.3h8.4c.6 0 1.2.3 1.6.7.5.3.7.9.7 1.5zM413.7 29.2c0 1.3-1 2.3-2.3 2.3h-8.8c-.5-.1-.9-.3-1.2-.6-.4-.4-.7-1-.7-1.6 0-1.3 1-2.3 2.3-2.3h8.4c.6 0 1.2.3 1.6.7.5.3.7.9.7 1.5zM449 38.5v57c0 1.6-1.3 2.8-2.8 2.8H342c-.2 0-.5 0-.7-.1-1.2-.3-2.1-1.4-2.1-2.7v-57c0-1.5 1.3-2.8 2.8-2.8h104.2c.7 0 1.4.3 1.9.7.5.6.9 1.3.9 2.1zM339.2 104.1H370v2.8h-30.8zM339.2 110.3H370v2.8h-30.8zM339.2 116.6H370v2.8h-30.8zM339.2 122.9h23.3v2.8h-23.3zM378.7 104.1h30.8v2.8h-30.8zM378.7 110.3h30.8v2.8h-30.8zM378.7 116.6h30.8v2.8h-30.8zM378.7 122.9h23.2v2.8h-23.2zM418.2 104.1H449v2.8h-30.8zM418.2 110.3H449v2.8h-30.8zM418.2 116.6H449v2.8h-30.8zM418.2 122.9h23.2v2.8h-23.2zM449 132.2v10c0 .9-.7 1.6-1.6 1.6H340.7c-.8 0-1.5-.7-1.5-1.6v-10c0-.9.7-1.6 1.6-1.6h106.7c.5 0 1 .3 1.3.7.1.2.2.5.2.9zM390.3 148.1h58.6v2.7h-58.6zM390.3 153.7h58.6v2.7h-58.6zM341.4 162.7h13.2v1.6h-13.2zM341.4 165.7h11.4v1.6h-11.4zM341.4 168.7h13.1v1.6h-13.1zM370.9 162.7h11.4v1.6h-11.4zM370.9 165.7h9.5v1.6h-9.5zM370.9 168.7h11.4v1.6h-11.4zM400.4 162.7h11.4v1.6h-11.4zM400.4 165.7h7v1.6h-7zM400.4 168.7h9.7v1.6h-9.7zM429.9 162.7h10.4v1.6h-10.4zM429.9 165.7h5.8v1.6h-5.8zM429.9 168.7h8.1v1.6h-8.1z" class="st5"/><path d="M446.5 29.2c0 1.3-1 2.3-2.3 2.3h-8.8c-.4-.4-.7-1-.7-1.6 0-1.3 1-2.3 2.3-2.3h8.8c.4.4.7 1 .7 1.6zM430 29.2c0 1.3-1 2.3-2.3 2.3h-8.8c-.4-.4-.7-1-.7-1.6 0-1.3 1-2.3 2.3-2.3h8.8c.5.4.7 1 .7 1.6zM413.7 29.2c0 1.3-1 2.3-2.3 2.3h-8.8c-.4-.4-.7-1-.7-1.6 0-1.3 1-2.3 2.3-2.3h8.8c.5.4.7 1 .7 1.6zM449 38.5v57c0 1.6-1.3 2.8-2.8 2.8H342c-.2 0-.5 0-.7-.1-.6-.5-.9-1.2-.9-2.1v-57c0-1.5 1.3-2.8 2.8-2.8h104.2c.2 0 .5 0 .7.1.5.6.9 1.3.9 2.1zM340.4 104.7H370v2.1h-29.6zM340.4 111H370v2.1h-29.6zM340.4 117.3H370v2.1h-29.6zM340.4 123.6h22.1v2.1h-22.1zM379.9 104.7h29.6v2.1h-29.6zM379.9 111h29.6v2.1h-29.6zM379.9 117.3h29.6v2.1h-29.6zM379.9 123.6H402v2.1h-22.1zM419.4 104.7H449v2.1h-29.6zM419.4 111H449v2.1h-29.6zM419.4 117.3H449v2.1h-29.6zM419.4 123.6h22.1v2.1h-22.1zM449 132.2v10c0 .9-.7 1.6-1.6 1.6H340.7c-.2-.3-.3-.6-.3-.9v-10c0-.9.7-1.6 1.6-1.6h106.8c.1.2.2.5.2.9zM391.5 148.7H449v2h-57.5zM391.5 154.4H449v2h-57.5z" class="st6"/><g><path d="M342.6 163.3h12v1h-12zM342.6 166.3h10.2v1h-10.2zM342.6 169.4h11.9v1h-11.9z" class="st6"/></g><g><path d="M372.1 163.3h10.2v1h-10.2zM372.1 166.3h8.3v1h-8.3zM372.1 169.4h10.2v1h-10.2z" class="st6"/></g><g><path d="M401.6 163.3h10.2v1h-10.2zM401.6 166.3h5.8v1h-5.8zM401.6 169.4h8.5v1h-8.5z" class="st6"/></g><g><path d="M431.1 163.3h9.2v1h-9.2zM431.1 166.3h4.6v1h-4.6zM431.1 169.4h6.9v1h-6.9z" class="st6"/></g></g><path d="M273.8 47.2l67.1-9.7M378.6 48.1l67.1-9.7M378.3 108.3l67.1-9.7" class="st7"/><path d="M224.1 195c-6.5-12.3-10.2-26.3-10.2-41.2 0-36.5 22.2-67.8 53.8-81.1M387.2 175.8c-4.6 17.8-14.6 33.4-28.1 45" class="st8"/><path d="M237.7 90.2H218c-1.8 0-3.5 1-4.4 2.5l-9.9 17.1c-.9 1.6-.9 3.5 0 5.1l9.9 17.1c.9 1.6 2.6 2.5 4.4 2.5h19.7c1.8 0 3.5-1 4.4-2.5l9.9-17.1c.9-1.6.9-3.5 0-5.1l-9.9-17.1c-.9-1.5-2.6-2.5-4.4-2.5z" class="st3"/><path id="gear_8_" fill="#637194" d="M246.5 113.3c-.1-.5-.3-1-.5-1.5s-.4-1-.7-1.4l-2.5 1c-.3-.4-.6-.7-.9-1l1-2.5c-.9-.6-1.9-1-2.9-1.2l-1 2.5c-.4-.1-.9-.1-1.3 0l-1-2.5c-.5.1-1 .3-1.5.5s-1 .4-1.4.7l1 2.5c-.4.3-.7.6-1 .9l-2.5-1c-.6.9-1 1.9-1.2 2.9l2.5 1c-.1.4-.1.9 0 1.3l-2.5 1c.1.5.3 1 .5 1.5s.4 1 .7 1.4l2.5-1c.3.4.6.7.9 1l-1 2.5c.9.6 1.9 1 2.9 1.2l1-2.5c.4.1.9.1 1.3 0l1 2.5c.5-.1 1-.3 1.5-.5s1-.4 1.4-.7l-1-2.5c.4-.3.7-.6 1-.9l2.5 1c.6-.9 1-1.9 1.2-2.9l-2.5-1.1c.1-.4.1-.9 0-1.3l2.5-.9zm-7.6 3.3c-.9.4-1.9-.1-2.2-.9-.4-.9.1-1.9.9-2.2.9-.4 1.9.1 2.2.9.4.8 0 1.8-.9 2.2z"/><path id="gear_4_" d="M233.4 110.2c.1-.7.2-1.5.2-2.3 0-.8-.1-1.5-.2-2.3h-4c-.2-.6-.4-1.2-.8-1.8l2.8-2.8c-.9-1.3-2-2.4-3.2-3.2l-2.8 2.8c-.6-.3-1.2-.6-1.8-.8v-4c-.7-.1-1.5-.2-2.3-.2-.8 0-1.5.1-2.3.2v4c-.6.2-1.2.4-1.8.8l-2.8-2.8c-1.3.9-2.4 2-3.2 3.2l2.8 2.8c-.3.6-.6 1.2-.7 1.8h-4c-.1.7-.2 1.5-.2 2.3 0 .8.1 1.5.2 2.3h4c.2.6.4 1.2.7 1.8l-2.8 2.8c.9 1.3 2 2.4 3.2 3.2l2.8-2.8c.6.3 1.2.6 1.8.8v4c.7.1 1.5.2 2.3.2.8 0 1.5-.1 2.3-.2v-4c.6-.2 1.2-.4 1.8-.8l2.8 2.8c1.3-.9 2.4-2 3.2-3.2l-2.8-2.8c.3-.6.6-1.2.8-1.8h4zm-12.1.2c-1.4 0-2.5-1.1-2.5-2.5s1.1-2.5 2.5-2.5 2.5 1.1 2.5 2.5-1.1 2.5-2.5 2.5z" class="st10"/><path id="gear_10_" d="M226.4 107.9c-.5-.1-.5-.8-.1-1 .5-.3.3-1.1-.3-1-.5.1-.8-.5-.5-.9.4-.5-.2-1.1-.7-.8-.4.2-.9-.1-.8-.6.1-.6-.7-.9-1-.4-.3.4-.9.3-1-.2-.1-.6-1-.6-1.1 0-.1.5-.7.6-1 .2-.4-.5-1.1-.1-1 .4.1.5-.4.9-.8.6-.5-.3-1.1.3-.7.8.3.4 0 .9-.5.9-.6-.1-.9.7-.3 1 .4.2.4.9-.1 1-.6.2-.5 1 .1 1.1.5 0 .7.7.3 1-.5.4 0 1.1.6 1 .5-.2.9.3.7.8-.3.6.4 1.1.9.6.4-.3.9-.1.9.4 0 .6.8.8 1.1.2.2-.5.8-.5 1 0 .2.6 1.1.4 1.1-.2 0-.5.6-.8.9-.4.5.4 1.1-.1.9-.6-.2-.4.2-.9.7-.8.6.2 1-.5.6-1-.4-.3-.2-.9.3-1 .3 0 .4-.9-.2-1.1zm-5.1 1.6c-.9 0-1.7-.7-1.7-1.7 0-.9.7-1.7 1.7-1.7.9 0 1.7.7 1.7 1.7s-.8 1.7-1.7 1.7z" class="st11"/><path d="M239.2 115c0 .5-.4 1-1 1s-1-.4-1-1 .4-1 1-1 1 .4 1 1z" class="st11"/><path id="gear_9_" d="M232.9 122.7c-.4-.1-.4-.7-.1-.9.4-.3.2-.9-.3-.9-.4 0-.7-.4-.4-.7.3-.4-.2-.9-.6-.7-.4.2-.8-.1-.7-.5.1-.5-.5-.8-.8-.4-.2.3-.8.2-.8-.2-.1-.5-.8-.5-.9 0-.1.4-.6.5-.8.2-.3-.4-1-.1-.8.4.1.4-.3.7-.7.5-.4-.3-.9.3-.6.7.2.3 0 .8-.4.7-.5-.1-.7.6-.3.9.4.2.3.7-.1.9-.5.2-.4.9.1.9.4 0 .6.5.3.8-.4.3 0 1 .5.8.4-.1.7.3.6.6-.2.5.4.9.7.5.3-.3.8-.1.8.4s.7.7.9.2c.2-.4.7-.4.9 0 .2.5.9.3.9-.2 0-.4.5-.6.8-.4.4.3 1-.1.7-.5-.2-.4.2-.8.6-.6.5.2.8-.5.5-.8-.3-.3-.1-.8.3-.8.1 0 .2-.7-.3-.9zm-4.3 2.7c-1.5 0-2.7-1.2-2.7-2.7 0-1.5 1.2-2.7 2.7-2.7 1.5 0 2.7 1.2 2.7 2.7 0 1.5-1.2 2.7-2.7 2.7z" class="st12"/><path d="M231 122.7c0 1.3-1.1 2.4-2.4 2.4s-2.4-1.1-2.4-2.4c0-1.3 1.1-2.4 2.4-2.4s2.4 1.1 2.4 2.4z" class="st12"/><g id="user_man_account_2_"><path d="M465.6 202.2c0 3.1-1.1 5.9-2.8 8.1-2.4 3-6.1 4.9-10.2 4.9s-7.8-1.9-10.2-4.9c-.1-.1-.1-.2-.2-.3-1.6-2.2-2.6-4.9-2.6-7.8 0-7.2 5.8-13 13-13 4.8 0 9 2.6 11.2 6.4 1.1 2 1.8 4.2 1.8 6.6z" class="st3"/><path d="M462.1 209.5c-2.2 2.8-5.7 4.6-9.5 4.6-3.9 0-7.3-1.8-9.5-4.6.9-3.8 4-6.8 8-7.4-1.5-.6-2.6-2.1-2.6-3.8 0-2.3 1.8-4.1 4.1-4.1s4.1 1.9 4.1 4.1c0 1.7-1.1 3.2-2.6 3.8 4 .6 7.1 3.5 8 7.4z" class="st13"/></g><g id="Artwork_4_1_"><path fill="#3d4968" d="M374.7 176.2V271c0 3.4-2.7 6.1-6.1 6.1H245.2c-3.4 0-6.1-2.7-6.1-6.1V164.8c0-3.4 2.7-6.1 6.1-6.1h96.1v10.4c0 3.9 3.2 7 7.1 7h26.3z" opacity=".32"/><path d="M353 271.4H234.4c-4.7 0-8.6-3.8-8.6-8.6V161.6c0-4.7 3.8-8.6 8.6-8.6H353c4.7 0 8.6 3.8 8.6 8.6v101.3c-.1 4.7-3.9 8.5-8.6 8.5z" class="st10"/><path d="M351.3 271.4H232.8c-4.7 0-8.6-3.8-8.6-8.6V161.6c0-4.7 3.8-8.6 8.6-8.6h118.6c4.7 0 8.6 3.8 8.6 8.6v101.3c-.1 4.7-3.9 8.5-8.7 8.5z" class="st12"/><path d="M352.4 161.9c0 2-1.6 3.6-3.6 3.6s-3.6-1.6-3.6-3.6 1.6-3.6 3.6-3.6 3.6 1.7 3.6 3.6z" class="st15"/><path fill="#f8b85e" d="M341.8 161.9c0 2-1.6 3.6-3.6 3.6s-3.6-1.6-3.6-3.6 1.6-3.6 3.6-3.6 3.6 1.7 3.6 3.6z"/><path fill="#ba0034" d="M331.2 161.9c0 2-1.6 3.6-3.6 3.6s-3.6-1.6-3.6-3.6 1.6-3.6 3.6-3.6c2 .1 3.6 1.7 3.6 3.6z"/></g><path fill="#c9d2de" d="M347.4 181.3v41.8c0 1.6-1.3 3-3 3H240.2c-.5 0-1-.1-1.4-.4-.9-.5-1.6-1.5-1.6-2.6v-41.8c0-1.6 1.3-3 3-3h104.2c.9 0 1.7.4 2.3 1.1.4.5.7 1.2.7 1.9z"/><path d="M347.4 181.3v41.8c0 1.6-1.3 3-3 3H240.2c-.5 0-1-.1-1.4-.4-.2-.3-.3-.7-.3-1.1v-42.7c0-1.4 1.1-2.5 2.5-2.5h105.7c.4.5.7 1.2.7 1.9z" class="st13"/><path d="M237.7 170.9h25.9v3.8h-25.9z" class="st10"/><path d="M332.2 236.2h11.3c2 0 3.6-1.6 3.6-3.6s-1.6-3.6-3.6-3.6h-11.3c-2 0-3.6 1.6-3.6 3.6s1.6 3.6 3.6 3.6z" class="st15"/><path fill="#a8274b" d="M314.2 236.2h8.2c2 0 3.6-1.6 3.6-3.6s-1.6-3.6-3.6-3.6h-8.2c-2 0-3.6 1.6-3.6 3.6s1.6 3.6 3.6 3.6z"/><path d="M342.2 233.3h-8.3c-.5 0-.9-.4-.9-.9s.4-.9.9-.9h8.3c.5 0 .9.4.9.9s-.4.9-.9.9zM322.4 233.3h-8.3c-.5 0-.9-.4-.9-.9s.4-.9.9-.9h8.3c.5 0 .9.4.9.9-.1.5-.4.9-.9.9z" class="st12"/><path d="M272.5 214h1v8.5h-1zM273.5 213.1h2.5v.8h-2.5zM270 213.1h2.5v.8H270zM273.5 222.5h2.5v.8h-2.5zM270 222.5h2.5v.8H270z" class="st3"/><path id="text_4_" d="M256 200.5h-10.7v3.8H256v-3.8zm38.7 11.7H324v-3.8h-29.3v3.8zm29.3-27.6h-68.5v3.8H324v-3.8zm-78.7 35.5h26.6v-3.8h-26.6v3.8zm20.4-27.6h-20.4v3.8h20.4v-3.8zm-6.4 11.7h41.5v-3.8h-41.5v3.8zm29.8 4.2h-43.9v3.8h43.9v-3.8zm14.9-4.2h36.6v-3.8H304v3.8zm-32.7-7.9h69.4v-3.8h-69.4v3.8zm55.5-11.7v3.8h13.9v-3.8h-13.9zm2.7 27.6h11.1v-3.8h-11.1v3.8z" class="st10"/><g id="cloud_8_"><path d="M402.7 278.1c0 3.4-2.7 6.1-6.1 6.1h-64.4c-5.8 0-10.5-4.7-10.5-10.5s4.7-10.5 10.5-10.5c1.4 0 2.6.3 3.8.7v-.2c0-7.5 4.1-14.1 10.1-17.6 3-1.8 6.5-2.8 10.3-2.8 10 0 18.3 7.2 20.1 16.6 1.9-1.1 4.1-1.7 6.4-1.7 7.2 0 13 5.8 13 13v.9h.6c3.5 0 6.2 2.7 6.2 6z" class="st10"/></g><g id="cloud_9_"><path fill="#dbdee6" d="M258.4 273.6c0 2.5-2 4.6-4.6 4.6h-48.5c-4.4 0-7.9-3.5-7.9-7.9s3.5-7.9 7.9-7.9c1 0 2 .2 2.9.5v-.2c0-5.7 3.1-10.6 7.6-13.3 2.3-1.3 4.9-2.1 7.8-2.1 7.5 0 13.8 5.4 15.1 12.5 1.4-.8 3.1-1.3 4.8-1.3 5.4 0 9.8 4.4 9.8 9.8v.7h.5c2.6 0 4.6 2 4.6 4.6z"/></g><g id="login_1_"><path d="M446.6 228.4v5.2c0 1.2-1 2.2-2.2 2.2h-52.5c-1.1-.1-1.9-1.1-1.9-2.2v-5.2c0-1.2 1-2.2 2.2-2.2h52.2c1.1 0 2 .8 2.2 1.9v.3z" class="st21"/><path d="M446.6 228.4v5.2c0 1.2-1 2.2-2.2 2.2h-52.5v-5.5c0-1.2 1-2.2 2.2-2.2h52.5v.3z" class="st22"/><path d="M446.6 241.8v5.2c0 1.2-1 2.2-2.2 2.2h-52.5c-1.1-.1-1.9-1.1-1.9-2.2v-5.2c0-1.2 1-2.2 2.2-2.2h52.2c1.1 0 2 .8 2.2 1.9v.3z" class="st21"/><path d="M446.6 241.8v5.2c0 1.2-1 2.2-2.2 2.2h-52.5v-5.5c0-1.2 1-2.2 2.2-2.2h52.5v.3z" class="st22"/><g><path d="M408.7 232.1c0 .6-.5 1.1-1.1 1.1-.6 0-1.1-.5-1.1-1.1 0-.6.5-1.1 1.1-1.1.6 0 1.1.4 1.1 1.1zM414.6 232.1c0 .6-.5 1.1-1.1 1.1-.6 0-1.1-.5-1.1-1.1 0-.6.5-1.1 1.1-1.1.6 0 1.1.4 1.1 1.1zM420.5 232.1c0 .6-.5 1.1-1.1 1.1-.6 0-1.1-.5-1.1-1.1 0-.6.5-1.1 1.1-1.1.6 0 1.1.4 1.1 1.1zM426.5 232.1c0 .6-.5 1.1-1.1 1.1-.6 0-1.1-.5-1.1-1.1 0-.6.5-1.1 1.1-1.1.6 0 1.1.4 1.1 1.1zM432.4 232.1c0 .6-.5 1.1-1.1 1.1-.6 0-1.1-.5-1.1-1.1 0-.6.5-1.1 1.1-1.1.6 0 1.1.4 1.1 1.1z" class="st3"/></g><g><circle cx="407.6" cy="244.9" r="1.1" class="st3"/><path d="M414.6 244.9c0 .6-.5 1.1-1.1 1.1-.6 0-1.1-.5-1.1-1.1s.5-1.1 1.1-1.1c.6 0 1.1.5 1.1 1.1z" class="st3"/><circle cx="419.4" cy="244.9" r="1.1" class="st3"/><path d="M426.5 244.9c0 .6-.5 1.1-1.1 1.1-.6 0-1.1-.5-1.1-1.1s.5-1.1 1.1-1.1c.6 0 1.1.5 1.1 1.1zM432.4 244.9c0 .6-.5 1.1-1.1 1.1-.6 0-1.1-.5-1.1-1.1s.5-1.1 1.1-1.1c.6 0 1.1.5 1.1 1.1z" class="st3"/></g></g><g><path d="M377.4 50.4v56.9c0 1.5-1.2 2.7-2.7 2.7H270.5c-1.5 0-2.7-1.2-2.7-2.7V50.4c0-1.5 1.2-2.7 2.7-2.7h104.1c1.5 0 2.8 1.2 2.8 2.7z" class="st15"/><g id="image_photo_1_"><path d="M347.2 102.8h-69.5c-1.2 0-2.3-1-2.3-2.3V58.4c0-1.2 1-2.3 2.3-2.3h69.5c1.2 0 2.3 1 2.3 2.3v42.1c0 1.2-1 2.3-2.3 2.3z" class="st10"/><path d="M278.1 57.8h68.7v37.8h-68.7z" class="st22"/><path fill="#e5ebf2" d="M346.8 87.2v8.5h-30.5l-2.7-4.5L330 72.1c.6-.7 1.8-.8 2.5-.1l14.3 15.2z"/><path fill="#cad2db" d="M327.8 95.7h-49.6V83.3l18.3-17.5c.7-.6 1.7-.6 2.3 0l29 29.9z"/></g><path d="M373.1 58.2v42.5c0 1.1-.9 2-2 2h-12.3c-1.1 0-2-.9-2-2V58.2c0-1.1.9-2 2-2h12.3c1.1 0 2 .9 2 2z" class="st12"/><path d="M366.1 78.5v-2.3c0-.4-.3-.7-.7-.7-.4 0-.7.3-.7.7v2.3c0 .4-.3.7-.7.7h-2.3c-.4 0-.7.3-.7.7 0 .4.3.7.7.7h2.3c.4 0 .7.3.7.7v2.3c0 .4.3.7.7.7.4 0 .7-.3.7-.7v-2.3c0-.4.3-.7.7-.7h2.3c.4 0 .7-.3.7-.7 0-.4-.3-.7-.7-.7h-2.3c-.4 0-.7-.3-.7-.7z" class="st15"/></g><g id="setting_3_"><path d="M280 136.1l6.6-6.6c.4-.4.9-.6 1.5-.6 1 0 2.1-.4 2.9-1.2 1.1-1.1 1.4-2.6 1-3.9l-2 2-2.2-.6-.6-2.2 1.9-1.9c-1.3-.4-2.8 0-3.9 1-.8.8-1.2 1.8-1.2 2.9 0 .6-.2 1.1-.6 1.5l-6.6 6.6c-.4.4-.9.6-1.5.6-1 0-2.1.4-2.9 1.2-1.6 1.6-1.5 4.3.2 5.8 1.5 1.3 3.8 1.3 5.3-.1.9-.8 1.3-1.9 1.3-3 .2-.6.4-1.1.8-1.5zm-5 3.2l-1.2-1.2.5-1.7 1.7-.5 1.2 1.2-.5 1.7-1.7.5z" class="st3"/><path d="M280.2 133c-.2-.2-.2-.6 0-.8l2.1-2.1c.2-.2.6-.2.8 0 .2.2.2.6 0 .8L281 133c-.2.2-.6.2-.8 0z" class="st10"/></g><g><path d="M303.6 138.7l5.4-5.4-1.1-1.1-5.4 5.4-1.1.6-1.3 2.1.8.8 2.1-1.3z" class="st10"/><path d="M313.8 132.8l5.6-5.6c.2-.2.3-.4.3-.6.2-.7.4-2.5-1.1-4-1.6-1.6-3.3-1.3-4-1.1l-.6.3-5.6 5.6c.9.9.9 2.3 0 3.1l-.5.5-.8-.8-.9.9 4 4 .9-.9-.8-.8.5-.5c.8-1 2.2-1 3-.1z" class="st3"/></g><g id="_x30__14_"><path d="M488.2 162.4l-8.2 8.2c-.5.5-1.2.5-1.7 0s-.5-1.2 0-1.7l8.2-8.2c.5-.5 1.2-.5 1.7 0s.5 1.3 0 1.7z" class="st12"/><path d="M492.1 158.6l-1 1c-.5.5-1.2.5-1.7 0s-.5-1.2 0-1.7l1-1c.5-.5 1.2-.5 1.7 0 .5.4.5 1.2 0 1.7zM496.9 153.8l-.2.2c-.5.5-1.2.5-1.7 0s-.5-1.2 0-1.7l.2-.2c.5-.5 1.2-.5 1.7 0 .5.4.5 1.2 0 1.7z" class="st10"/></g><g id="_x30__15_"><path d="M227.1 52.7l-8.2 8.2c-.5.5-1.2.5-1.7 0s-.5-1.2 0-1.7l8.2-8.2c.5-.5 1.2-.5 1.7 0 .4.5.4 1.3 0 1.7zM231 48.8l-1 1c-.5.5-1.2.5-1.7 0s-.5-1.2 0-1.7l1-1c.5-.5 1.2-.5 1.7 0 .4.5.4 1.3 0 1.7zM235.8 44l-.2.2c-.5.5-1.2.5-1.7 0s-.5-1.2 0-1.7l.2-.2c.5-.5 1.2-.5 1.7 0 .4.5.4 1.3 0 1.7z" class="st12"/></g><g id="_x30__16_"><path d="M481.7 62.7h-.9c-.5 0-.9-.4-.9-.9v-.9c0-.5-.3-.9-.8-1-.6-.1-1.1.3-1.1.9v1c0 .5-.4.9-.9.9H476c-.5 0-.9.3-1 .8-.1.6.3 1.1.9 1.1h1c.5 0 .9.4.9.9v.9c0 .5.3.9.8 1 .6.1 1.1-.3 1.1-.9v-1c0-.5.4-.9.9-.9h1c.6 0 1-.5.9-1.1 0-.5-.4-.8-.8-.8z" class="st10"/></g><g id="_x30__17_"><path d="M311 13h-1.2c-.7 0-1.2-.5-1.2-1.2v-1.2c0-.6-.4-1.1-1-1.2-.8-.2-1.4.4-1.4 1.2v1.2c0 .7-.5 1.2-1.2 1.2h-1.2c-.6 0-1.1.4-1.2 1-.2.8.4 1.4 1.2 1.4h1.2c.7 0 1.2.5 1.2 1.2v1.2c0 .6.4 1.1 1 1.2.8.2 1.4-.4 1.4-1.2v-1.2c0-.7.5-1.2 1.2-1.2h1.2c.7 0 1.3-.7 1.2-1.4-.1-.7-.6-1-1.2-1z" class="st12"/></g><g id="_x30__18_"><path d="M207.7 216h-1.2c-.7 0-1.2-.5-1.2-1.2v-1.2c0-.6-.4-1.1-1-1.2-.8-.2-1.4.4-1.4 1.2v1.2c0 .7-.5 1.2-1.2 1.2h-1.2c-.6 0-1.1.4-1.2 1-.2.8.4 1.4 1.2 1.4h1.2c.7 0 1.2.5 1.2 1.2v1.2c0 .6.4 1.1 1 1.2.8.2 1.4-.4 1.4-1.2v-1.2c0-.7.5-1.2 1.2-1.2h1.2c.7 0 1.3-.7 1.2-1.4-.1-.6-.6-1-1.2-1z" class="st12"/></g><circle cx="472.6" cy="233.6" r="1.9" class="st25"/><circle cx="406.4" cy="205.3" r="1.9" class="st12"/><path d="M419.9 266.5c0 .6-.5 1-1 1-.6 0-1-.5-1-1 0-.6.5-1 1-1 .6 0 1 .5 1 1zM264.4 22.3c0 .7-.6 1.3-1.3 1.3-.7 0-1.3-.6-1.3-1.3 0-.7.6-1.3 1.3-1.3.7 0 1.3.6 1.3 1.3z" class="st3"/><path d="M251.6 62.2c0 1-.8 1.9-1.9 1.9-1 0-1.9-.8-1.9-1.9 0-1 .8-1.9 1.9-1.9 1.1 0 1.9.8 1.9 1.9zM211.6 35.3c0 .5-.4.9-.9.9s-.9-.4-.9-.9.4-.9.9-.9.9.4.9.9z" class="st25"/><circle cx="205.3" cy="75.7" r="1.9" class="st3"/><circle cx="207.9" cy="242.6" r="2.2" class="st3"/><circle cx="200.7" cy="189.5" r="1.9" class="st25"/><circle cx="417.4" cy="1.9" r="1.9" class="st25"/><circle cx="483.2" cy="34.7" r=".9" class="st3"/></g><path d="M299.6 232.1c-11.3 11-29.7 17.9-30.7 34.1-.7 11.7 8.6 21.4 10.7 32.8.1.3.1.6.1 1H0V0h140.8c3.8 5.9 7.9 11.4 13.5 16.2 8.6 7.5 18.7 12.9 29.6 15.4 16.1 3.8 32.9 1.5 49.4.4s33.8-.8 48.3 7.6 25 27.1 19.8 43.7c-3.2 10.2-11.2 17.5-18 25.4-6.8 7.9-12.9 18.1-10.9 28.6 2.7 14.2 18 20.4 27.9 30.4 16.1 16.8 15.8 48.2-.8 64.4z" class="st26"/><g id="_x34_tuEDY.tif"><path fill="#45d0fc" d="M112.5 72.2c0 .2-.2.3-.4.4L94.7 90c-.3.3-.5.4-.9 0-1.1-1.2-2.2-2.3-3.4-3.4-.4-.4-.4-.6 0-1 4.4-4.3 8.7-8.7 13.1-13l.4-.4h8.6z"/><path d="M176.1 89h-4.2c-.3 0-.4 0-.4.4.2 1.5.9 2.7 2.4 3.3 1.5.6 2.9.4 4.1-.7.3-.2.5-.5.7-.8.1-.2.2-.2.4-.1.4.2.7.4 1.1.5.3.1.3.2.1.5-1 1.6-2.5 2.5-4.5 2.7-3.9.4-6.6-2.7-6.3-6.7.2-2.8 2-5 4.6-5.5 3.4-.7 6.5 1.7 6.6 5.2 0 1.2 0 1.2-1.2 1.2h-3.4zM124.7 86.4v-7.6c0-.4.1-.5.5-.5h8.4c.4 0 .5.1.5.5 0 1.3 0 1.3-1.3 1.3h-5.7c-.4 0-.5.1-.5.5v4.6c0 .4.1.5.5.5h5.8c.4 0 .5.1.5.5 0 1.4 0 1.4-1.4 1.4h-4.9c-.4 0-.5.1-.5.5v6c0 .4-.1.6-.6.5-.4-.1-1 .2-1.3-.1-.3-.3-.1-.9-.1-1.3.1-2.4.1-4.6.1-6.8zM149.3 92.9c-1.3 1.7-3 2.2-5 1.9-1.8-.3-3-1.8-3.1-3.9-.1-2.5 0-5.1 0-7.6 0-.3.1-.3.4-.4 1.6-.1 1.6-.1 1.6 1.5 0 2-.1 3.9 0 5.9.1 1.5.7 2.4 1.8 2.7 1.3.4 2.7-.1 3.5-1.2.5-.7.7-1.4.7-2.2v-6.1c0-.4.1-.6.5-.5h1c.4 0 .5.1.5.5v10.7c0 .4-.1.5-.5.4-.5 0-1 .1-1.3-.1-.3-.2-.1-.9-.1-1.3v-.3z" class="st22"/><path fill="#42cffc" d="M100.7 88.2l3-3c.1-.1.3-.2.5-.2h8.2c-2.5 2.5-4.9 5-7.3 7.4-.2.1-.3-.1-.4-.2-1.3-1.2-2.5-2.5-3.8-3.7-.1-.1-.2-.2-.2-.3z"/><path fill="#06589c" d="M105.1 92.5c2.4 2.5 4.9 4.9 7.4 7.4-.1.1-.2 0-.4 0h-7.7c-.3 0-.6-.1-.8-.3-.9-1-1.9-1.9-2.8-2.8-.1-.3.1-.4.3-.5l3.5-3.5c.1-.2.2-.3.5-.3z"/><path d="M160.2 92.7v1.6c0 .2-.1.3-.3.4-2 .6-4.6-.2-4.6-3v-6.5c0-.4-.1-.6-.5-.5h-.2c-1.5 0-1.5 0-1.3-1.5 0-.2.1-.3.3-.3h1c.8 0 .7.1.7-.7v-2.1c0-.3.1-.5.4-.4h1.2c.3 0 .4.1.4.4v2.3c0 .4.1.6.5.5h1.8c.4 0 .5.1.5.5 0 1.3 0 1.3-1.3 1.3h-1c-.4-.1-.5.1-.5.5v6.2c.1 1.3 1 1.9 2.2 1.5.3-.1.5-.1.7-.2zM168.5 92.6v1.3c.1.5-.2.7-.6.8-.7.1-1.3.2-2 0-1.4-.4-2.3-1.5-2.3-3v-6.5c0-.4-.1-.6-.5-.6h-.2c-1.5 0-1.5 0-1.3-1.5 0-.2.1-.3.3-.3h1.3c.3 0 .4-.1.4-.4V80c0-.3.1-.5.4-.4h1.1c.3 0 .4.1.4.4v2.4c0 .4.1.5.5.4h2c.3 0 .4.1.4.4.1 1.4.1 1.4-1.4 1.4-.5 0-1.1-.2-1.4.1-.3.3-.1.9-.1 1.3v5.4c.1 1.3 1.1 1.9 2.3 1.4.3 0 .4-.1.7-.2z" class="st22"/><path fill="#1fbbfc" d="M105.1 92.5c-1.4 1.4-2.8 2.8-4.2 4.1 0 0-.1.1-.1.2l-4.1-4.1c-.2-.2-.2-.3 0-.5 1.4-1.3 2.7-2.7 4.1-4 1.3 1.3 2.6 2.5 3.9 3.8 0 .2.2.3.4.5z"/><path d="M184.9 84.6c.6-1.1 1.6-1.8 2.8-2 .6-.1 1.2-.1 1.7.1.2.1.4.2.3.4v1.7l-1.2-.3c-1.9-.2-3.5 1.3-3.5 3.3v6.1c0 .5-.2.6-.6.6h-1c-.3 0-.4-.1-.4-.4V83.3c0-.3.1-.5.4-.5 1.4 0 1.4 0 1.4 1.4.1.1.1.3.1.4zM138.4 86.3v7.6c0 .4-.1.5-.5.5h-1.2c-.2 0-.3-.1-.3-.3v-.3-15.1c0-.5.1-.6.6-.6 1.4 0 1.4 0 1.4 1.4v6.8z" class="st22"/><path d="M171.7 87.5c.2-1.6 1.5-3 3-3.1 1.9-.2 3.4.7 3.9 2.5.2.7.2.7-.5.7h-5.9c-.1-.1-.3-.1-.5-.1z" class="st26"/></g><path d="M96.2 117.5l-1.9 12.1h6.3l-.4 2.3h-8.8l2.3-14.4h2.5zM103 127.7l.4-2.7c.1-.7.3-1.2.5-1.8.3-.5.6-1 1-1.4.4-.4.8-.7 1.3-.9.5-.2 1-.3 1.6-.3.8 0 1.4.2 1.8.5.4.4.6.9.6 1.6h.2l.3-1.9h2.4l-1.3 8.3c0 .2 0 .4.1.6.1.1.3.2.5.2h.7l-.3 2h-1.5c-.7 0-1.2-.2-1.5-.6-.4-.4-.5-.8-.4-1.4h-.2c-.2.7-.6 1.2-1.1 1.6s-1.2.6-1.9.6c-1 0-1.7-.3-2.3-.9-.5-.6-.8-1.4-.8-2.5v-.5c-.2-.1-.1-.3-.1-.5zm4.2 2.2c.6 0 1.1-.2 1.5-.5.4-.3.7-.8.8-1.4l.5-3.1c.1-.6 0-1.1-.3-1.4-.3-.4-.7-.5-1.3-.5-.6 0-1.2.2-1.6.6-.4.4-.7.9-.8 1.6l-.4 2.6c-.1.7 0 1.2.3 1.6.1.3.6.5 1.3.5zM114.6 131.9l1.7-11h2.4l-.3 1.9h.2c.2-.7.6-1.2 1.2-1.5s1.2-.6 2.1-.6c.5 0 1 .1 1.4.3.4.2.8.5 1 .8.3.4.4.8.5 1.3s.1 1 0 1.6l-1.1 7.2h-2.5l1.1-6.9c.1-.7 0-1.2-.3-1.6-.3-.4-.8-.6-1.4-.6-.6 0-1.2.2-1.6.6-.4.4-.7.9-.8 1.6l-1.1 6.8h-2.5zM127 127.7l.4-2.7c.1-.7.3-1.3.6-1.8s.6-1 1-1.4c.4-.4.8-.7 1.3-.9.5-.2 1-.3 1.6-.3.8 0 1.4.2 1.9.6.5.4.7.9.7 1.5h.2c0-.2 0-.5.1-.7 0-.2 0-.4.1-.6 0-.2 0-.4.1-.6l.5-3.4h2.5l-2.3 14.4h-2.4l.3-1.9h-.2c-.2.7-.6 1.2-1.2 1.6s-1.3.6-2.1.6c-1 0-1.8-.3-2.3-.9s-.8-1.4-.8-2.5v-.5-.5zm4.4 2.2c.7 0 1.2-.2 1.6-.6.4-.4.7-.9.8-1.6l.4-2.7c.1-.7 0-1.2-.3-1.6-.3-.4-.8-.6-1.5-.6s-1.2.2-1.7.6c-.4.4-.7.9-.8 1.6l-.4 2.6c-.1.7 0 1.2.3 1.6.4.5.9.7 1.6.7zM138.8 129.1h2.5c0 .3.2.6.5.8.3.2.7.3 1.2.3h.8c.6 0 1.1-.1 1.5-.4.4-.2.6-.6.7-1 .1-.8-.4-1.2-1.5-1.4l-1.5-.2c-1.2-.1-2-.5-2.6-1-.5-.6-.7-1.3-.6-2.2.2-1 .7-1.8 1.5-2.4.8-.6 1.9-.8 3.2-.8h.8c1.2 0 2.1.3 2.8.8.7.5 1 1.2.9 2.2h-2.5c0-.3-.2-.6-.5-.7-.3-.2-.6-.3-1.1-.3h-.8c-.6 0-1 .1-1.4.3-.3.2-.5.5-.6.9-.1.7.3 1.1 1.3 1.3l1.6.2c1.2.1 2.1.5 2.7 1.1s.8 1.3.6 2.3c-.2 1.1-.7 1.9-1.5 2.5-.8.6-2 .9-3.4.9h-.8c-1.2 0-2.2-.3-2.9-.8-.6-.7-.9-1.5-.9-2.4zM155.2 132.1c-.7 0-1.4-.1-1.9-.3-.5-.2-1-.5-1.4-.9-.4-.4-.6-.8-.8-1.4-.1-.5-.2-1.1-.1-1.8l.4-2.8c.2-1.3.8-2.4 1.8-3.2 1-.8 2.2-1.1 3.7-1.1.6 0 1.2.1 1.7.3.5.2.9.4 1.3.8.4.3.7.8.9 1.2.2.5.3 1 .3 1.6h-2.5c0-.5-.2-.9-.6-1.2-.4-.3-.9-.5-1.5-.5-.7 0-1.3.2-1.8.5-.5.4-.7.9-.8 1.6l-.5 2.8c-.1.6 0 1.1.4 1.5.4.4.9.6 1.6.6.6 0 1.2-.1 1.6-.5.4-.3.8-.7 1-1.2h2.5c-.4 1.2-1.1 2.2-2 2.9-.8.8-1.9 1.1-3.3 1.1zM163 127.7l.4-2.7c.1-.7.3-1.2.5-1.8.3-.5.6-1 1-1.4.4-.4.8-.7 1.3-.9.5-.2 1-.3 1.6-.3.8 0 1.4.2 1.8.5.4.4.6.9.6 1.6h.2l.3-1.9h2.4l-1.3 8.3c0 .2 0 .4.1.6.1.1.3.2.5.2h.7l-.3 2h-1.5c-.7 0-1.2-.2-1.5-.6-.4-.4-.5-.8-.4-1.4h-.2c-.2.7-.6 1.2-1.1 1.6s-1.2.6-1.9.6c-1 0-1.7-.3-2.3-.9-.5-.6-.8-1.4-.8-2.5v-.5c-.2-.1-.1-.3-.1-.5zm4.2 2.2c.6 0 1.1-.2 1.5-.5.4-.3.7-.8.8-1.4l.5-3.1c.1-.6 0-1.1-.3-1.4-.3-.4-.7-.5-1.3-.5-.6 0-1.2.2-1.6.6-.4.4-.7.9-.8 1.6l-.4 2.6c-.1.7 0 1.2.3 1.6.1.3.6.5 1.3.5zM174.1 135.3l2.3-14.4h2.4l-.3 1.9h.2c.2-.7.6-1.2 1.2-1.5.6-.4 1.3-.6 2.1-.6 1 0 1.8.3 2.3.9.6.6.8 1.4.8 2.4 0 .3 0 .7-.1 1l-.4 2.7c-.2 1.4-.7 2.4-1.5 3.2-.8.8-1.8 1.2-3 1.2-.8 0-1.4-.2-1.9-.6-.5-.4-.7-.9-.7-1.6h-.2v.7c0 .2 0 .4-.1.6 0 .2-.1.4-.1.6l-.5 3.4h-2.5zm5.5-5.4c.7 0 1.2-.2 1.7-.6s.7-1 .8-1.6l.4-2.6c.1-.7 0-1.2-.3-1.6-.3-.4-.8-.6-1.5-.6-.6 0-1.2.2-1.6.6s-.7.9-.8 1.6l-.4 2.7c-.1.7 0 1.2.3 1.6.2.3.7.5 1.4.5zM191.1 132.1c-.7 0-1.4-.1-1.9-.3-.5-.2-1-.5-1.4-.9-.4-.4-.6-.8-.8-1.4-.1-.5-.2-1.1-.1-1.8l.4-2.8c.1-.7.3-1.2.6-1.8.3-.5.7-1 1.2-1.4.5-.4 1-.7 1.6-.9.6-.2 1.3-.3 2-.3s1.3.1 1.9.3c.6.2 1 .5 1.4.9.4.4.6.8.7 1.4s.2 1.1 0 1.8l-.3 2h-7l-.1.7c-.1.7 0 1.3.3 1.7.3.4.9.6 1.6.6.5 0 1-.1 1.4-.3.4-.2.7-.4.9-.7h2.5c-.2.5-.5.9-.8 1.2s-.7.7-1.2.9c-.5.3-.9.5-1.5.6-.3.4-.8.5-1.4.5zm3.4-6.7l.1-.3c.1-.7 0-1.3-.3-1.7-.4-.4-.9-.6-1.6-.6-.7 0-1.3.2-1.8.6-.5.4-.8 1-.9 1.7l-.1.4h4.6zM90.4 155.9l6.1-14.4h3.4l1.5 14.4h-2.5l-.3-3.6h-4.1l-1.4 3.6h-2.7zm4.8-5.6h3.2l-.4-5.1v-.7-.6-.6h-.1c-.1.2-.1.4-.2.6-.1.2-.1.4-.2.6s-.2.5-.3.7l-2 5.1zM102.1 159.3l2.3-14.4h2.4l-.3 1.9h.2c.2-.7.6-1.2 1.2-1.5.6-.4 1.3-.6 2.1-.6 1 0 1.8.3 2.3.9.6.6.8 1.4.8 2.4 0 .3 0 .7-.1 1l-.4 2.7c-.2 1.4-.7 2.4-1.5 3.2-.8.8-1.8 1.2-3 1.2-.8 0-1.4-.2-1.9-.6-.5-.4-.7-.9-.7-1.6h-.2v.7c0 .2 0 .4-.1.6 0 .2-.1.4-.1.6l-.5 3.4h-2.5zm5.5-5.4c.7 0 1.2-.2 1.7-.6s.7-1 .8-1.6l.4-2.6c.1-.7 0-1.2-.3-1.6-.3-.4-.8-.6-1.5-.6-.6 0-1.2.2-1.6.6s-.7.9-.8 1.6l-.4 2.7c-.1.7 0 1.2.3 1.6.2.3.7.5 1.4.5zM114.1 159.3l2.3-14.4h2.4l-.3 1.9h.2c.2-.7.6-1.2 1.2-1.5.6-.4 1.3-.6 2.1-.6 1 0 1.8.3 2.3.9.6.6.8 1.4.8 2.4 0 .3 0 .7-.1 1l-.4 2.7c-.2 1.4-.7 2.4-1.5 3.2-.8.8-1.8 1.2-3 1.2-.8 0-1.4-.2-1.9-.6-.5-.4-.7-.9-.7-1.6h-.2v.7c0 .2 0 .4-.1.6 0 .2-.1.4-.1.6l-.5 3.4h-2.5zm5.5-5.4c.7 0 1.2-.2 1.7-.6s.7-1 .8-1.6l.4-2.6c.1-.7 0-1.2-.3-1.6-.3-.4-.8-.6-1.5-.6-.6 0-1.2.2-1.6.6s-.7.9-.8 1.6l-.4 2.7c-.1.7 0 1.2.3 1.6.2.3.7.5 1.4.5zM128 141.5h6l-1.7 10.8c-.1.4 0 .7.2 1 .2.2.5.3.9.3h3.3l-.4 2.3h-3.5c-1.1 0-2-.3-2.5-.9-.5-.6-.7-1.5-.5-2.6l1.4-8.6h-3.5l.3-2.3zM138.8 155.9l.4-2.3h3.9l1-6.5h-3.4l.3-2.3h5.8l-1.4 8.7h3.2l-.4 2.3h-9.4zm5.4-14c.1-.4.2-.7.5-1 .3-.2.7-.4 1.1-.4h.5c.4 0 .8.1 1 .4.2.2.3.6.2 1-.1.4-.2.7-.5.9-.3.2-.7.4-1.1.4h-.5c-.4 0-.8-.1-1-.4-.2-.2-.2-.5-.2-.9zM155.2 156.1c-.7 0-1.4-.1-1.9-.3-.5-.2-1-.5-1.4-.9-.4-.4-.6-.8-.8-1.4-.1-.5-.2-1.1-.1-1.8l.4-2.8c.2-1.3.8-2.4 1.8-3.2 1-.8 2.2-1.1 3.7-1.1.6 0 1.2.1 1.7.3.5.2.9.4 1.3.8.4.3.7.8.9 1.2.2.5.3 1 .3 1.6h-2.5c0-.5-.2-.9-.6-1.2-.4-.3-.9-.5-1.5-.5-.7 0-1.3.2-1.8.5-.5.4-.7.9-.8 1.6l-.5 2.8c-.1.6 0 1.1.4 1.5.4.4.9.6 1.6.6.6 0 1.2-.1 1.6-.5.4-.3.8-.7 1-1.2h2.5c-.4 1.2-1.1 2.2-2 2.9-.8.8-1.9 1.1-3.3 1.1zM163 151.7l.4-2.7c.1-.7.3-1.2.5-1.8.3-.5.6-1 1-1.4.4-.4.8-.7 1.3-.9.5-.2 1-.3 1.6-.3.8 0 1.4.2 1.8.5.4.4.6.9.6 1.6h.2l.3-1.9h2.4l-1.3 8.3c0 .2 0 .4.1.6.1.1.3.2.5.2h.7l-.3 2h-1.5c-.7 0-1.2-.2-1.5-.6-.4-.4-.5-.8-.4-1.4h-.2c-.2.7-.6 1.2-1.1 1.6s-1.2.6-1.9.6c-1 0-1.7-.3-2.3-.9-.5-.6-.8-1.4-.8-2.5v-.5c-.2-.1-.1-.3-.1-.5zm4.2 2.2c.6 0 1.1-.2 1.5-.5.4-.3.7-.8.8-1.4l.5-3.1c.1-.6 0-1.1-.3-1.4-.3-.4-.7-.5-1.3-.5-.6 0-1.2.2-1.6.6-.4.4-.7.9-.8 1.6l-.4 2.6c-.1.7 0 1.2.3 1.6.1.3.6.5 1.3.5zM175.8 144.9h3l.5-3.4h2.5l-.5 3.4h4.2l-.4 2.3H181l-.8 5.3c-.1.3 0 .6.2.8.2.2.5.3.8.3h2.8l-.4 2.3h-3c-1.1 0-1.9-.3-2.4-.9s-.7-1.4-.5-2.5l.8-5.3h-3l.3-2.3zM186.8 155.9l.4-2.3h3.9l1-6.5h-3.4l.3-2.3h5.8l-1.4 8.7h3.2l-.4 2.3h-9.4zm5.4-14c.1-.4.2-.7.5-1 .3-.2.7-.4 1.1-.4h.5c.4 0 .8.1 1 .4.2.2.3.6.2 1-.1.4-.2.7-.5.9-.3.2-.7.4-1.1.4h-.5c-.4 0-.8-.1-1-.4-.2-.2-.2-.5-.2-.9zM203.1 156.1c-.7 0-1.4-.1-1.9-.3s-1-.5-1.3-.9c-.3-.4-.6-.8-.7-1.4-.1-.5-.2-1.1-.1-1.8l.4-2.7c.2-1.3.8-2.4 1.8-3.2 1-.8 2.2-1.2 3.7-1.2.7 0 1.4.1 1.9.3.5.2 1 .5 1.3.9.4.4.6.8.8 1.4.1.5.2 1.1.1 1.8l-.4 2.7c-.2 1.4-.8 2.4-1.8 3.2-1.1.8-2.3 1.2-3.8 1.2zm-1.6-4.4c-.1.7 0 1.2.4 1.6.4.4.9.6 1.6.6.7 0 1.3-.2 1.8-.6.5-.4.8-.9.9-1.6l.4-2.7c.1-.7 0-1.2-.4-1.6-.4-.4-.9-.6-1.6-.6s-1.3.2-1.7.6c-.5.4-.8.9-.9 1.6l-.5 2.7zM210.6 155.9l1.7-11h2.4l-.3 1.9h.2c.2-.7.6-1.2 1.2-1.5s1.2-.6 2.1-.6c.5 0 1 .1 1.4.3.4.2.8.5 1 .8.3.4.4.8.5 1.3s.1 1 0 1.6l-1.1 7.2h-2.5l1.1-6.9c.1-.7 0-1.2-.3-1.6-.3-.4-.8-.6-1.4-.6-.6 0-1.2.2-1.6.6-.4.4-.7.9-.8 1.6l-1.1 6.8h-2.5zM92.2 165.5h10.4l-.4 2.3h-4l-1.9 12.1h-2.5l1.9-12.1h-4l.5-2.3zM103.3 175.8l1.1-6.9h2.5l-1.1 6.9c-.2 1.4.3 2.1 1.6 2.1s2.1-.7 2.3-2.1l1.1-6.9h2.5l-1.1 6.9c-.2 1.4-.8 2.4-1.7 3.2-.9.8-2.1 1.1-3.5 1.1s-2.4-.4-3.1-1.2c-.6-.7-.8-1.8-.6-3.1zM115.8 168.9h3l.5-3.4h2.5l-.5 3.4h4.2l-.4 2.3H121l-.8 5.3c-.1.3 0 .6.2.8.2.2.5.3.8.3h2.8l-.4 2.3h-3c-1.1 0-1.9-.3-2.4-.9s-.7-1.4-.5-2.5l.8-5.3h-3l.3-2.3zM131.1 180.1c-.7 0-1.4-.1-1.9-.3s-1-.5-1.3-.9c-.3-.4-.6-.8-.7-1.4-.1-.5-.2-1.1-.1-1.8l.4-2.7c.2-1.3.8-2.4 1.8-3.2 1-.8 2.2-1.2 3.7-1.2.7 0 1.4.1 1.9.3.5.2 1 .5 1.3.9.4.4.6.8.8 1.4.1.5.2 1.1.1 1.8l-.4 2.7c-.2 1.4-.8 2.4-1.8 3.2-1.1.8-2.3 1.2-3.8 1.2zm-1.6-4.4c-.1.7 0 1.2.4 1.6.4.4.9.6 1.6.6.7 0 1.3-.2 1.8-.6.5-.4.8-.9.9-1.6l.4-2.7c.1-.7 0-1.2-.4-1.6-.4-.4-.9-.6-1.6-.6s-1.3.2-1.7.6c-.5.4-.8.9-.9 1.6l-.5 2.7zM139 179.9l1.7-11h2.3l-.3 1.9h.2c.2-.7.7-1.2 1.2-1.5.6-.4 1.3-.6 2.1-.6 1.2 0 2 .4 2.6 1.1.5.7.7 1.8.5 3l-.1.8h-2.6l.1-.6c.1-.7 0-1.3-.3-1.7-.3-.4-.8-.6-1.5-.6-.6 0-1.2.2-1.6.6-.4.4-.7 1-.8 1.7l-1.1 6.8H139zM150.8 179.9l.4-2.3h3.9l1-6.5h-3.4l.3-2.3h5.8l-1.4 8.7h3.2l-.4 2.3h-9.4zm5.4-14c.1-.4.2-.7.5-1 .3-.2.7-.4 1.1-.4h.5c.4 0 .8.1 1 .4.2.2.3.6.2 1-.1.4-.2.7-.5.9-.3.2-.7.4-1.1.4h-.5c-.4 0-.8-.1-1-.4-.2-.2-.2-.5-.2-.9zM163 175.7l.4-2.7c.1-.7.3-1.2.5-1.8.3-.5.6-1 1-1.4.4-.4.8-.7 1.3-.9.5-.2 1-.3 1.6-.3.8 0 1.4.2 1.8.5.4.4.6.9.6 1.6h.2l.3-1.9h2.4l-1.3 8.3c0 .2 0 .4.1.6.1.1.3.2.5.2h.7l-.3 2h-1.5c-.7 0-1.2-.2-1.5-.6-.4-.4-.5-.8-.4-1.4h-.2c-.2.7-.6 1.2-1.1 1.6s-1.2.6-1.9.6c-1 0-1.7-.3-2.3-.9-.5-.6-.8-1.4-.8-2.5v-.5c-.2-.1-.1-.3-.1-.5zm4.2 2.2c.6 0 1.1-.2 1.5-.5.4-.3.7-.8.8-1.4l.5-3.1c.1-.6 0-1.1-.3-1.4-.3-.4-.7-.5-1.3-.5-.6 0-1.2.2-1.6.6-.4.4-.7.9-.8 1.6l-.4 2.6c-.1.7 0 1.2.3 1.6.1.3.6.5 1.3.5zM176 165.5h6l-1.7 10.8c-.1.4 0 .7.2 1 .2.2.5.3.9.3h3.3l-.4 2.3h-3.5c-1.1 0-2-.3-2.5-.9-.5-.6-.7-1.5-.5-2.6l1.4-8.6h-3.5l.3-2.3z" class="st22"/><g><path d="M16.2 282.1c-.2 0-.3 0-.5-.1s-.2-.1-.3-.3l-.2-.4v-.5l.1-.6c0-.2.1-.4.2-.5s.2-.3.3-.4c.1-.1.2-.2.4-.3.2-.1.3-.1.5-.1s.4.1.6.2c.1.1.2.3.2.5l.1-.6h.7l-.5 3.1c0 .2-.1.4-.2.5-.1.1-.2.3-.3.4-.1.1-.3.2-.5.2-.2.1-.4.1-.6.1h-.9l.1-.6h.9c.2 0 .4-.1.5-.2.1-.1.2-.2.2-.4l.1-.7c-.1.2-.2.4-.4.5 0 .1-.2.2-.5.2zm-.1-1.3c0 .2 0 .4.1.5.1.1.2.2.4.2s.4-.1.5-.2c.1-.1.2-.3.2-.5l.1-.5c0-.2 0-.4-.1-.5-.1-.1-.2-.2-.5-.2-.2 0-.4.1-.5.2-.1.1-.2.3-.2.5v.5zM18.8 282.3l.1-.7h1.2l.3-1.9h-1l.1-.7h1.8l-.4 2.6h1l-.1.7h-3zm1.7-4.2c0-.1.1-.2.2-.3.1-.1.2-.1.3-.1h.2c.1 0 .2 0 .3.1.1.1.1.2.1.3 0 .1-.1.2-.2.3-.1.1-.2.1-.3.1h-.2c-.1 0-.2 0-.3-.1-.1-.1-.2-.2-.1-.3zM22.7 279h.9l.2-1h.8l-.2 1h1.3l-.1.7h-1.3l-.3 1.6c0 .1 0 .2.1.2.1.1.1.1.2.1h.8l-.1.7h-.9c-.3 0-.6-.1-.7-.3s-.2-.4-.2-.7l.3-1.6h-.9l.1-.7zM26.6 278h.8l-.2 1c0 .1 0 .2-.1.4 0 .1 0 .1-.1.2h.1c.1-.2.2-.4.4-.5.2-.1.4-.2.6-.2.2 0 .3 0 .4.1s.2.1.3.2.1.2.2.4v.5l-.3 2.2h-.8l.3-2.1c0-.2 0-.4-.1-.5-.1-.1-.2-.2-.4-.2s-.3.1-.5.2c-.1.1-.2.3-.2.5l-.3 2.1H26l.6-4.3zM29.8 281.1l.3-2.1h.8l-.3 2.1c-.1.4.1.6.5.6s.6-.2.7-.6l.2-2.1h.7l-.3 2.1c-.1.4-.2.7-.5 1s-.6.3-1.1.3c-.4 0-.7-.1-.9-.3-.1-.3-.2-.6-.1-1zM33.2 282.3l.7-4.3h.8l-.2 1V279.6h.1c.1-.2.2-.4.4-.5s.4-.2.6-.2c.3 0 .5.1.7.3.2.2.3.4.3.7v.3l-.1.8c-.1.4-.2.7-.5 1-.2.2-.5.3-.9.3-.2 0-.4-.1-.6-.2-.1-.1-.2-.3-.2-.5H34l-.1.6h-.7zm.9-1.2c0 .2 0 .4.1.5s.2.2.4.2.4-.1.5-.2c.1-.1.2-.3.2-.5l.1-.8c0-.2 0-.4-.1-.5-.1-.1-.2-.2-.4-.2s-.4.1-.5.2c-.1.1-.2.3-.3.5v.8zM36.6 281.5l.3-1.9c0-.3.1-.5.2-.7.1-.2.3-.4.4-.5.2-.1.4-.3.6-.3.2-.1.5-.1.7-.1.4 0 .8.1 1 .3.2.2.3.4.3.8v.2l-.4 2.6h-.6l.1-.6c-.1.2-.2.4-.3.5-.1.1-.3.2-.5.2-.4 0-.6-.2-.6-.7v-.2-.2l.1-.5c.1-.7.4-1.1 1-1.1.3 0 .5.2.6.6v-.2-.4c0-.3 0-.4-.1-.6-.1-.1-.4-.2-.6-.2-.3 0-.6.1-.8.3s-.4.5-.4.9l-.3 1.9c-.1.4 0 .6.2.9.2.2.4.3.8.3h.4l-.1.6h-.4c-.5 0-.8-.1-1.1-.4-.3-.2-.4-.6-.4-1-.1-.2-.1-.3-.1-.5zm2.2 0c.3 0 .4-.2.5-.5l.1-.6c0-.4-.1-.6-.3-.6-.2 0-.4.2-.5.6l-.1.5v.4c.1.1.2.2.3.2zM41 278h1.5c.2 0 .4 0 .6.1s.3.1.4.3c.1.1.2.3.2.4v.5c-.1.4-.2.7-.5 1-.3.2-.7.3-1.1.3h-.7l-.3 1.7h-.8l.7-4.3zm.5 2h.7c.2 0 .4-.1.5-.2.1-.1.2-.3.3-.5 0-.2 0-.4-.1-.5s-.3-.2-.5-.2h-.7l-.2 1.4zM44.1 281.1l.1-.8c0-.2.1-.4.2-.5.1-.2.2-.3.3-.4.1-.1.2-.2.4-.3s.3-.1.5-.1.4.1.5.2c.1.1.2.3.2.5h.1l.1-.6h.7l-.4 2.5v.2s.1.1.2.1h.2l-.1.6h-.5c-.2 0-.3-.1-.5-.2-.1-.1-.2-.3-.1-.4h-.1c-.1.2-.2.4-.3.5-.2.1-.3.2-.6.2s-.5-.1-.7-.3-.2-.4-.2-.7v-.1-.4zm1.2.6c.2 0 .3-.1.4-.2.1-.1.2-.2.2-.4l.1-.9c0-.2 0-.3-.1-.4-.1-.1-.2-.2-.4-.2s-.4.1-.5.2c-.1.1-.2.3-.2.5l-.1.8c0 .2 0 .4.1.5s.3.1.5.1zM47.6 281.5h.7c0 .1.1.2.1.2.1.1.2.1.4.1h.2c.2 0 .3 0 .5-.1.1-.1.2-.2.2-.3 0-.2-.1-.4-.4-.4l-.5-.1c-.4 0-.6-.1-.8-.3-.2-.2-.2-.4-.2-.7.1-.3.2-.6.4-.7.2-.2.6-.3 1-.3h.2c.4 0 .6.1.8.2.2.2.3.4.3.6H50c0-.1-.1-.2-.1-.2-.1-.1-.2-.1-.3-.1h-.2c-.2 0-.3 0-.4.1s-.2.2-.2.3c0 .2.1.3.4.4l.5.1c.4 0 .6.2.8.3.2.2.2.4.2.7-.1.3-.2.6-.5.8-.3.2-.6.3-1 .3H49c-.4 0-.7-.1-.9-.2-.4-.2-.5-.5-.5-.7zM51.2 281.5h.8c0 .1.1.2.1.2.1.1.2.1.4.1h.2c.2 0 .3 0 .5-.1.1-.1.2-.2.2-.3 0-.2-.1-.4-.4-.4l-.5-.1c-.4 0-.6-.1-.8-.3-.2-.2-.2-.4-.2-.7.1-.3.2-.6.4-.7.2-.2.6-.3 1-.3h.2c.4 0 .6.1.8.2.2.2.3.4.3.6h-.7c0-.1-.1-.2-.1-.2-.1-.1-.2-.1-.3-.1h-.2c-.2 0-.3 0-.4.1s-.2.2-.2.3c0 .2.1.3.4.4l.5.1c.4 0 .6.2.8.3.2.2.2.4.2.7-.1.3-.2.6-.5.8-.3.2-.6.3-1 .3h-.2c-.4 0-.7-.1-.9-.2-.3-.2-.4-.5-.4-.7zM54.8 282.3l.1-.7h1.2l.3-1.9h-1l.1-.7h1.8l-.4 2.6h1l-.1.7h-3zm1.6-4.2c0-.1.1-.2.2-.3.1-.1.2-.1.3-.1h.2c.1 0 .2 0 .3.1.1.1.1.2.1.3 0 .1-.1.2-.2.3-.1.1-.2.1-.3.1h-.2c-.1 0-.2 0-.3-.1 0-.1-.1-.2-.1-.3zM59.7 282.4c-.2 0-.4 0-.6-.1-.2-.1-.3-.1-.4-.3-.1-.1-.2-.3-.2-.4v-.5l.1-.8c.1-.4.2-.7.5-1 .3-.2.7-.3 1.1-.3.2 0 .4 0 .6.1s.3.1.4.3c.1.1.2.3.2.4 0 .2.1.3 0 .5l-.1.8c-.1.4-.2.7-.5 1-.3.1-.6.3-1.1.3zm-.5-1.3c0 .2 0 .4.1.5s.3.2.5.2.4-.1.5-.2.2-.3.3-.5l.1-.8c0-.2 0-.4-.1-.5-.1-.1-.3-.2-.5-.2s-.4.1-.5.2c-.1.1-.2.3-.3.5l-.1.8zM62 282.3l.5-3.3h.7l-.1.6h.1c.1-.2.2-.4.4-.5.2-.1.4-.2.6-.2.2 0 .3 0 .4.1s.2.1.3.2c.1.1.1.2.2.4v.5l-.3 2.1H64l.3-2.1c0-.2 0-.4-.1-.5-.1-.1-.2-.2-.4-.2s-.4.1-.5.2c-.1.1-.2.3-.2.5l-.3 2.1H62zM66.2 278h1.5c.2 0 .4 0 .6.1s.3.1.4.3c.1.1.2.3.2.4v.5c-.1.4-.2.7-.5 1-.3.2-.7.3-1.1.3h-.7l-.3 1.7h-.8l.7-4.3zm.5 2h.7c.2 0 .4-.1.5-.2.1-.1.2-.3.3-.5 0-.2 0-.4-.1-.5s-.3-.2-.5-.2h-.7l-.2 1.4zM70.5 282.4c-.2 0-.4 0-.6-.1-.2-.1-.3-.1-.4-.3-.1-.1-.2-.2-.2-.4v-.5l.1-.8c0-.2.1-.4.2-.5.1-.2.2-.3.4-.4.1-.1.3-.2.5-.3s.4-.1.6-.1c.2 0 .4 0 .6.1s.3.1.4.3c.1.1.2.2.2.4v.5l-.1.6h-2.1v.2c0 .2 0 .4.1.5s.3.2.5.2.3 0 .4-.1c.1-.1.2-.1.3-.2h.6c-.1.1-.1.3-.2.4-.1.1-.2.2-.4.3-.1.1-.3.1-.4.2-.1-.1-.3 0-.5 0zm1-2.1v-.1c0-.2 0-.4-.1-.5-.1-.1-.3-.2-.5-.2s-.4.1-.5.2c-.1.1-.2.3-.3.5v.1h1.4zM72.8 282.3l.5-3.3h.7l-.1.6h.1c.1-.2.2-.4.4-.5.2-.1.4-.2.6-.2.2 0 .3 0 .4.1s.2.1.3.2c.1.1.1.2.2.4v.5l-.3 2.1h-.8l.3-2.1c0-.2 0-.4-.1-.5-.1-.1-.2-.2-.4-.2s-.4.1-.5.2c-.1.1-.2.3-.2.5l-.3 2.1h-.8zM77.4 282.1c-.2 0-.3 0-.5-.1s-.2-.1-.3-.3l-.2-.4v-.5l.1-.6c0-.2.1-.4.2-.5s.2-.3.3-.4c.1-.1.2-.2.4-.3.2-.1.3-.1.5-.1s.4.1.6.2c.1.1.2.3.2.5l.1-.6h.7l-.5 3.1c0 .2-.1.4-.2.5-.1.1-.2.3-.3.4-.1.1-.3.2-.5.2-.2.1-.4.1-.6.1h-.9l.1-.6h.9c.2 0 .4-.1.5-.2.1-.1.2-.2.2-.4l.1-.7c-.1.2-.2.4-.4.5 0 .1-.2.2-.5.2zm-.1-1.3c0 .2 0 .4.1.5.1.1.2.2.4.2s.4-.1.5-.2c.1-.1.2-.3.2-.5l.1-.5c0-.2 0-.4-.1-.5-.1-.1-.2-.2-.5-.2-.2 0-.4.1-.5.2-.1.1-.2.3-.2.5v.5zM80.2 281.1l.3-2.1h.8l-.3 2.1c-.1.4.1.6.5.6s.6-.2.7-.6l.3-2.1h.7l-.3 2.1c-.1.4-.2.7-.5 1s-.6.3-1.1.3c-.4 0-.7-.1-.9-.3-.2-.3-.3-.6-.2-1zM83.6 282.3l.1-.7h1.2l.3-1.9h-1l.1-.7H86l-.4 2.6h1l-.1.7h-2.9zm1.6-4.2c0-.1.1-.2.2-.3.1-.1.2-.1.3-.1h.2c.1 0 .2 0 .3.1.1.1.1.2.1.3 0 .1-.1.2-.2.3-.1.1-.2.1-.3.1h-.2c-.1 0-.2 0-.3-.1 0-.1-.1-.2-.1-.3zM87.2 282.3l.5-3.3h.7l-.1.6h.1c.1-.2.2-.4.4-.5.2-.1.4-.2.6-.2.2 0 .3 0 .4.1s.2.1.3.2c.1.1.1.2.2.4v.5l-.3 2.1h-.8l.3-2.1c0-.2 0-.4-.1-.5-.1-.1-.2-.2-.4-.2s-.4.1-.5.2c-.1.1-.2.3-.2.5l-.3 2.1h-.8z" class="st22"/></g></svg>