<svg xmlns="http://www.w3.org/2000/svg" id="Layer_1" x="0" y="0" version="1.1" viewBox="0 0 500 300" xml:space="preserve"><defs/><style>.st1{fill:#3d4968}.st4{fill:#1d2b51}.st7{fill:#162345}.st11{fill:#9aa2b2}.st12{fill:#bdc4d4}.st13{fill:#f0f5f8}.st14{fill:#e6eaf0}.st16{fill:#34909d}.st22{fill:#d7dbe0}.st23{fill:#fff}.st26{fill:none;stroke:#1d2b51;stroke-width:.9848;stroke-miterlimit:10}</style><path fill="#4d5978" d="M500 0v300H0V5.4C0 2.4 2.2 0 5 0h495z"/><path d="M299.6 232.1c-11.3 11-29.7 17.9-30.7 34.1-.7 11.7 8.6 21.4 10.7 32.8.1.3.1.6.1 1H0V0h140.8c3.8 5.9 7.9 11.4 13.5 16.2 8.6 7.5 18.7 12.9 29.6 15.4 16.1 3.8 32.9 1.5 49.4.4s33.8-.8 48.3 7.6 25 27.1 19.8 43.7c-3.2 10.2-11.2 17.5-18 25.4s-12.9 18.1-10.9 28.6c2.7 14.2 18 20.4 27.9 30.4 16.1 16.8 15.8 48.2-.8 64.4z" class="st1"/><g id="decoration" opacity=".25"><path fill="#3d4968" d="M474.9 131.1v85c0 2.4-1.9 4.3-4.3 4.3h-63.9c-2.4 0-4.3-1.9-4.3-4.3v-85c0-2.4 1.9-4.3 4.3-4.3h63.9c2.4 0 4.3 2 4.3 4.3z" opacity=".28"/><path d="M471.8 129.6v85c0 2.4-1.9 4.3-4.3 4.3h-63.9c-2.4 0-4.3-1.9-4.3-4.3v-6.3h-1v-78.6c0-2.4 1.9-4.3 4.3-4.3h64.9c2.4-.1 4.3 1.8 4.3 4.2z" class="st4"/><path fill="#3d4968" d="M419 210.7v8.1h-15.4c-2.4 0-4.3-1.9-4.3-4.3v-6.3h-1v-1.7h16.4c2.4 0 4.3 1.9 4.3 4.2z" opacity=".33"/><path fill="#101c3b" d="M466.5 129.8c0 .8-.6 1.4-1.4 1.4h-5.4c-.3 0-.5-.2-.7-.4-.3-.3-.4-.6-.4-1 0-.8.6-1.4 1.4-1.4h5.1c.4 0 .7.2 1 .4.2.2.4.6.4 1zm-10 0c0 .8-.6 1.4-1.4 1.4h-5.4c-.3-.1-.5-.2-.7-.4-.3-.3-.4-.6-.4-1 0-.8.6-1.4 1.4-1.4h5.1c.4 0 .7.2 1 .4s.4.6.4 1zm-9.8 0c0 .8-.6 1.4-1.4 1.4h-5.4c-.3 0-.5-.2-.7-.4-.3-.3-.4-.6-.4-1 0-.8.6-1.4 1.4-1.4h5.1c.4 0 .7.2 1 .4.2.2.4.6.4 1zm21.3 5.6v34.5c0 .9-.8 1.7-1.7 1.7h-63.1c-.1 0-.3 0-.4-.1-.7-.2-1.3-.8-1.3-1.6v-34.5c0-.9.8-1.7 1.7-1.7h63.1c.4 0 .8.2 1.1.4.4.4.6.8.6 1.3zm-66.5 39.7h18.6v1.7h-18.6v-1.7zm0 3.8h18.6v1.7h-18.6v-1.7zm0 3.8h18.6v1.7h-18.6v-1.7zm0 3.8h14.1v1.7h-14.1v-1.7zm24-11.4h18.6v1.7h-18.6v-1.7zm0 3.8h18.6v1.7h-18.6v-1.7zm0 3.8h18.6v1.7h-18.6v-1.7zm0 3.8h14.1v1.7h-14.1v-1.7zm23.9-11.4H468v1.7h-18.6v-1.7zm0 3.8H468v1.7h-18.6v-1.7zm0 3.8H468v1.7h-18.6v-1.7zm0 3.8h14.1v1.7h-14.1v-1.7zm18.6 5.6v6.1c0 .5-.4.9-.9.9h-64.6c-.5 0-.9-.4-.9-.9v-6.1c0-.5.4-.9.9-.9h64.6c.3 0 .6.2.8.4.1.1.1.3.1.5zm-35.5 9.6H468v1.6h-35.5v-1.6zm0 3.5H468v1.6h-35.5v-1.6zm-29.6 5.4h8v1h-8v-1zm0 1.8h6.9v1h-6.9v-1zm0 1.9h7.9v1h-7.9v-1zm17.8-3.7h6.9v1h-6.9v-1zm0 1.8h5.7v1h-5.7v-1zm0 1.9h6.9v1h-6.9v-1zm17.9-3.7h6.9v1h-6.9v-1zm0 1.8h4.2v1h-4.2v-1zm0 1.9h5.9v1h-5.9v-1zm17.9-3.7h6.3v1h-6.3v-1zm0 1.8h3.5v1h-3.5v-1zm0 1.9h4.9v1h-4.9v-1z"/><path d="M466.5 129.8c0 .8-.6 1.4-1.4 1.4h-5.4c-.2-.3-.4-.6-.4-1 0-.8.6-1.4 1.4-1.4h5.4c.2.2.4.6.4 1zm-10 0c0 .8-.6 1.4-1.4 1.4h-5.4c-.2-.3-.4-.6-.4-1 0-.8.6-1.4 1.4-1.4h5.4c.3.2.4.6.4 1zm-9.8 0c0 .8-.6 1.4-1.4 1.4h-5.4c-.2-.3-.4-.6-.4-1 0-.8.6-1.4 1.4-1.4h5.4c.2.2.4.6.4 1zm21.3 5.6v34.5c0 .9-.8 1.7-1.7 1.7h-63.1c-.1 0-.3 0-.4-.1-.3-.3-.6-.8-.6-1.3v-34.5c0-.9.8-1.7 1.7-1.7H467c.1 0 .3 0 .4.1.4.4.6.8.6 1.3zm-65.7 40.1h17.9v1.3h-17.9v-1.3zm0 3.8h17.9v1.3h-17.9v-1.3zm0 3.8h17.9v1.3h-17.9v-1.3zm0 3.8h13.4v1.3h-13.4v-1.3zm23.9-11.4h17.9v1.3h-17.9v-1.3zm0 3.8h17.9v1.3h-17.9v-1.3zm0 3.8h17.9v1.3h-17.9v-1.3zm0 3.8h13.4v1.3h-13.4v-1.3zm23.9-11.4H468v1.3h-17.9v-1.3zm0 3.8H468v1.3h-17.9v-1.3zm0 3.8H468v1.3h-17.9v-1.3zm0 3.8h13.4v1.3h-13.4v-1.3zm17.9 5.2v6.1c0 .5-.4.9-.9.9h-64.6c-.1-.2-.2-.3-.2-.6v-6.1c0-.5.4-.9.9-.9h64.6c.2.2.2.4.2.6zm-34.8 10H468v1.2h-34.8v-1.2zm0 3.5H468v1.2h-34.8v-1.2zM403.6 211h7.3v.6h-7.3v-.6zm0 1.8h6.2v.6h-6.2v-.6zm0 1.9h7.2v.6h-7.2v-.6zM421.5 211h6.2v.6h-6.2v-.6zm0 1.8h5v.6h-5v-.6zm0 1.9h6.2v.6h-6.2v-.6zM439.3 211h6.2v.6h-6.2v-.6zm0 1.8h3.5v.6h-3.5v-.6zm0 1.9h5.2v.6h-5.2v-.6zM457.2 211h5.6v.6h-5.6v-.6zm0 1.8h2.8v.6h-2.8v-.6zm0 1.9h4.2v.6h-4.2v-.6z" class="st7"/><path fill="none" stroke="#f0f5f8" stroke-dasharray="0,2.5604" stroke-linecap="round" stroke-miterlimit="10" stroke-width=".739" d="M361.9 140.6l40.6-5.8m22.9 6.4l40.6-5.9m-40.8 42.4l40.7-5.9"/><path fill="none" stroke="#f0f5f8" stroke-dasharray="0,3.2415" stroke-linecap="round" stroke-miterlimit="10" stroke-width="1.477" d="M331.8 230.2c-4-7.4-6.2-15.9-6.2-25 0-22.1 13.4-41 32.6-49.1m72.4 62.4c-2.8 10.8-8.8 20.2-17 27.2"/><path d="M338.9 166.7h-9.6c-1.8 0-3.5 1-4.4 2.5l-4.8 8.3c-.9 1.6-.9 3.5 0 5.1l4.8 8.3c.9 1.6 2.6 2.5 4.4 2.5h9.6c1.8 0 3.5-1 4.4-2.5l4.8-8.3c.9-1.6.9-3.5 0-5.1l-4.8-8.3c-.9-1.5-2.6-2.5-4.4-2.5z" class="st4"/><path id="gear_8_" fill="#637194" d="M345.4 180.7l-.3-.9c-.1-.3-.3-.6-.4-.8l-1.5.6-.6-.6.6-1.5c-.5-.4-1.1-.6-1.7-.7l-.6 1.5h-.8l-.6-1.5-.9.3c-.3.1-.6.3-.8.4l.6 1.5-.6.6-1.5-.6c-.4.5-.6 1.1-.7 1.7l1.5.6v.8l-1.5.6.3.9c.1.3.3.6.4.8l1.5-.6.6.6-.6 1.5c.5.4 1.1.6 1.7.7l.6-1.5h.8l.6 1.5.9-.3c.3-.1.6-.3.8-.4l-.6-1.5.6-.6 1.5.6c.4-.5.6-1.1.7-1.7l-1.5-.6v-.8l1.5-.6zm-4.6 2c-.5.2-1.1 0-1.3-.6-.2-.5 0-1.1.6-1.3.5-.2 1.1 0 1.3.6.2.5-.1 1-.6 1.3z"/><path id="gear_4_" d="M337.5 178.8c.1-.4.1-.9.1-1.4s0-.9-.1-1.4h-2.4c-.1-.4-.3-.8-.5-1.1l1.7-1.7c-.5-.8-1.2-1.4-2-2l-1.7 1.7c-.3-.2-.7-.3-1.1-.5V170c-.4-.1-.9-.1-1.4-.1s-.9 0-1.4.1v2.4c-.4.1-.8.3-1.1.5l-1.7-1.7c-.8.5-1.4 1.2-2 2l1.7 1.7c-.2.3-.3.7-.5 1.1h-2.4c-.1.5-.1.9-.1 1.4s0 .9.1 1.4h2.4c.1.4.3.8.5 1.1l-1.7 1.7c.5.8 1.2 1.4 2 2l1.7-1.7c.3.2.7.3 1.1.5v2.4c.5.1.9.1 1.4.1s.9 0 1.4-.1v-2.4c.4-.1.8-.3 1.1-.5l1.7 1.7c.8-.5 1.4-1.2 2-2l-1.7-1.7c.2-.3.3-.7.5-1.1h2.4zm-7.3.1c-.8 0-1.5-.7-1.5-1.5s.7-1.5 1.5-1.5 1.5.7 1.5 1.5-.7 1.5-1.5 1.5z" class="st11"/><path id="gear_10_" d="M333.2 177.4c-.3-.1-.3-.5-.1-.6.3-.2.2-.7-.2-.6-.3 0-.5-.3-.3-.5.2-.3-.1-.7-.4-.5s-.6-.1-.5-.4c.1-.4-.4-.6-.6-.3-.2.2-.6.2-.6-.1-.1-.4-.6-.4-.7 0-.1.3-.4.4-.6.1-.2-.3-.7-.1-.6.3.1.3-.2.5-.5.4-.3-.2-.7.2-.4.5.2.2 0 .6-.3.5-.4 0-.5.5-.2.6s.2.5-.1.6c-.4.1-.3.6.1.7.3 0 .4.4.2.6-.3.2 0 .7.3.6.3-.1.5.2.4.5-.2.3.3.6.5.4.2-.2.6 0 .6.3 0 .4.5.5.7.1.1-.3.5-.3.6 0s.7.2.7-.1.4-.5.6-.3c.3.3.7-.1.5-.4-.1-.3.1-.6.4-.5.4.1.6-.3.3-.6-.2-.2-.1-.6.2-.6.3 0 .4-.6 0-.7zm-3 1c-.6 0-1-.4-1-1s.4-1 1-1 1 .4 1 1-.5 1-1 1z" class="st12"/><path d="M341 181.7c0 .3-.3.6-.6.6s-.6-.3-.6-.6.3-.6.6-.6.6.3.6.6z" class="st12"/><path id="gear_9_" d="M337.1 186.4c-.2-.1-.3-.4-.1-.5.3-.2.1-.6-.2-.5-.2 0-.4-.3-.3-.5.2-.2-.1-.6-.4-.4-.2.1-.5-.1-.4-.3.1-.3-.3-.5-.5-.2-.1.2-.5.1-.5-.1-.1-.3-.5-.3-.6 0 0 .2-.4.3-.5.1-.2-.3-.6-.1-.5.2.1.2-.2.4-.4.3-.3-.2-.6.2-.4.4.1.2 0 .5-.3.5s-.4.4-.2.5c.2.1.2.4-.1.5-.3.1-.3.5.1.6.2 0 .3.3.2.5-.2.2 0 .6.3.5.2-.1.5.2.3.4-.1.3.2.5.5.3.2-.2.5 0 .5.2 0 .3.4.4.5.1.1-.2.4-.2.5 0 .1.3.5.2.5-.1 0-.2.3-.4.5-.2s.6 0 .5-.3c-.1-.2.1-.5.3-.4.3.1.5-.3.3-.5s-.1-.5.2-.5c.5-.1.5-.5.2-.6zm-2.5 1.6c-.9 0-1.6-.7-1.6-1.6 0-.9.7-1.6 1.6-1.6s1.6.7 1.6 1.6c0 .9-.7 1.6-1.6 1.6z" class="st13"/><path d="M336 186.4c0 .8-.6 1.5-1.5 1.5s-1.5-.6-1.5-1.5c0-.8.6-1.5 1.5-1.5s1.5.7 1.5 1.5z" class="st13"/><g id="user_man_account_2_"><path d="M478.1 234.5c0 1.8-.6 3.5-1.7 4.9-1.4 1.8-3.7 3-6.2 3s-4.7-1.2-6.2-3c0-.1-.1-.1-.1-.2-1-1.3-1.6-3-1.6-4.7 0-4.3 3.5-7.9 7.9-7.9 2.9 0 5.4 1.6 6.8 3.9.7 1.2 1.1 2.6 1.1 4z" class="st4"/><path d="M476 238.9c-1.3 1.7-3.4 2.8-5.8 2.8-2.3 0-4.4-1.1-5.8-2.8.5-2.3 2.4-4.1 4.8-4.5-.9-.4-1.6-1.3-1.6-2.3 0-1.4 1.1-2.5 2.5-2.5s2.5 1.1 2.5 2.5c0 1-.6 1.9-1.6 2.3 2.5.4 4.4 2.2 5 4.5z" class="st14"/></g><g id="Artwork_4_1_"><path fill="#3d4968" d="M423.1 218.8v57.4c0 2-1.6 3.7-3.7 3.7h-74.8c-2 0-3.7-1.6-3.7-3.7v-64.3c0-2 1.6-3.7 3.7-3.7h58.2v6.3c0 2.4 1.9 4.3 4.3 4.3h16z" opacity=".32"/><path d="M406.5 276.4h-65.1c-4.7 0-8.6-3.8-8.6-8.6v-54.6c0-4.7 3.8-8.6 8.6-8.6h65.1c4.7 0 8.6 3.8 8.6 8.6v54.6c-.1 4.8-3.9 8.6-8.6 8.6z" class="st11"/><path d="M405.5 276.4h-65.1c-4.7 0-8.6-3.8-8.6-8.6v-54.6c0-4.7 3.8-8.6 8.6-8.6h65.1c4.7 0 8.6 3.8 8.6 8.6v54.6c0 4.8-3.9 8.6-8.6 8.6z" class="st13"/><path d="M409.5 210.2c0 1.2-1 2.2-2.2 2.2s-2.2-1-2.2-2.2 1-2.2 2.2-2.2 2.2 1 2.2 2.2z" class="st16"/><path fill="#f8b85e" d="M403.1 210.2c0 1.2-1 2.2-2.2 2.2s-2.2-1-2.2-2.2 1-2.2 2.2-2.2 2.2 1 2.2 2.2z"/><path fill="#ba0034" d="M396.7 210.2c0 1.2-1 2.2-2.2 2.2s-2.2-1-2.2-2.2 1-2.2 2.2-2.2 2.2 1 2.2 2.2z"/></g><path fill="#c9d2de" d="M406.5 221.9v25.3c0 1-.8 1.8-1.8 1.8h-63.1c-.3 0-.6-.1-.9-.2-.6-.3-.9-.9-.9-1.6v-25.3c0-1 .8-1.8 1.8-1.8h63.1c.6 0 1 .3 1.4.6.2.3.4.7.4 1.2z"/><path d="M406.5 221.9v25.3c0 1-.8 1.8-1.8 1.8h-63.1c-.3 0-.6-.1-.9-.2-.1-.2-.2-.4-.2-.7v-25.9c0-.8.7-1.5 1.5-1.5h64c.3.3.5.7.5 1.2z" class="st14"/><path d="M340.1 215.6h15.7v2.3h-15.7v-2.3z" class="st11"/><path d="M397.3 255.1h6.8c1.2 0 2.2-1 2.2-2.2s-1-2.2-2.2-2.2h-6.8c-1.2 0-2.2 1-2.2 2.2 0 1.3 1 2.2 2.2 2.2z" class="st16"/><path fill="#a8274b" d="M386.4 255.1h5c1.2 0 2.2-1 2.2-2.2s-1-2.2-2.2-2.2h-5c-1.2 0-2.2 1-2.2 2.2 0 1.3 1 2.2 2.2 2.2z"/><path d="M403.4 253.4h-5c-.3 0-.5-.2-.5-.5s.2-.5.5-.5h5c.3 0 .5.2.5.5 0 .2-.3.5-.5.5zm-12.1 0h-5c-.3 0-.5-.2-.5-.5s.2-.5.5-.5h5c.3 0 .5.2.5.5.1.2-.2.5-.5.5z" class="st13"/><path d="M361.1 241.7h.6v5.1h-.6v-5.1zm.7-.5h1.5v.5h-1.5v-.5zm-2.2 0h1.5v.5h-1.5v-.5zm2.2 5.6h1.5v.5h-1.5v-.5zm-2.2 0h1.5v.5h-1.5v-.5z" class="st4"/><path id="text_4_" d="M351.1 233.5h-6.5v2.3h6.5v-2.3zm23.5 7.1h17.7v-2.3h-17.7v2.3zm17.7-16.7h-41.5v2.3h41.5v-2.3zm-47.7 21.5h16.1v-2.3h-16.1v2.3zm12.4-16.7h-12.4v2.3H357v-2.3zm-3.9 7.1h25.1v-2.3h-25.1v2.3zm18.1 2.5h-26.6v2.3h26.6v-2.3zm9-2.5h22.2v-2.3h-22.2v2.3zm-19.8-4.8h42v-2.3h-42v2.3zm33.6-7.1v2.3h8.4v-2.3H394zm1.7 16.7h6.7v-2.3h-6.7v2.3z" class="st11"/><path id="cloud_8_" d="M440 280.5c0 2-1.6 3.7-3.7 3.7h-39c-3.5 0-6.3-2.8-6.3-6.3s2.8-6.3 6.3-6.3c.8 0 1.6.2 2.3.4v-.1c0-4.6 2.5-8.5 6.1-10.7 1.8-1.1 4-1.7 6.2-1.7 6 0 11.1 4.3 12.2 10.1 1.1-.7 2.5-1 3.9-1 4.3 0 7.9 3.5 7.9 7.9v.5h.4c2.1-.2 3.7 1.5 3.7 3.5z" class="st11"/><path id="cloud_9_" fill="#dbdee6" d="M352.6 277.7c0 1.5-1.2 2.8-2.8 2.8h-29.3c-2.6 0-4.8-2.1-4.8-4.8 0-2.6 2.1-4.8 4.8-4.8.6 0 1.2.1 1.7.3v-.1c0-3.4 1.9-6.4 4.6-8 1.4-.8 3-1.3 4.7-1.3 4.6 0 8.3 3.3 9.2 7.6.9-.5 1.9-.8 2.9-.8 3.3 0 5.9 2.7 5.9 5.9v.4h.3c1.6.1 2.8 1.3 2.8 2.8z"/><g id="login_1_"><path d="M466.6 250.4v3.1c0 .7-.6 1.3-1.3 1.3h-31.8c-.6-.1-1.1-.6-1.1-1.3v-3.1c0-.7.6-1.3 1.3-1.3h31.6c.7 0 1.2.5 1.3 1.1v.2z" class="st22"/><path d="M466.6 250.4v3.1c0 .7-.6 1.3-1.3 1.3h-31.8v-3.3c0-.7.6-1.3 1.3-1.3h31.8v.2z" class="st23"/><path d="M466.6 258.5v3.1c0 .7-.6 1.3-1.3 1.3h-31.8c-.6-.1-1.1-.6-1.1-1.3v-3.1c0-.7.6-1.3 1.3-1.3h31.6c.7 0 1.2.5 1.3 1.1v.2z" class="st22"/><path d="M466.6 258.5v3.1c0 .7-.6 1.3-1.3 1.3h-31.8v-3.3c0-.7.6-1.3 1.3-1.3h31.8v.2z" class="st23"/><path d="M443.6 252.6c0 .4-.3.7-.7.7-.4 0-.7-.3-.7-.7s.3-.7.7-.7c.4 0 .7.3.7.7zm3.6 0c0 .4-.3.7-.7.7-.4 0-.7-.3-.7-.7s.3-.7.7-.7c.4 0 .7.3.7.7zm3.6 0c0 .4-.3.7-.7.7-.4 0-.7-.3-.7-.7s.3-.7.7-.7c.4 0 .7.3.7.7zm3.6 0c0 .4-.3.7-.7.7-.4 0-.7-.3-.7-.7s.3-.7.7-.7c.4 0 .7.3.7.7zm3.6 0c0 .4-.3.7-.7.7-.4 0-.7-.3-.7-.7s.3-.7.7-.7c.4 0 .7.3.7.7z" class="st4"/><circle cx="442.9" cy="260.4" r=".7" class="st4"/><path d="M447.2 260.4c0 .4-.3.7-.7.7-.4 0-.7-.3-.7-.7 0-.4.3-.7.7-.7.4 0 .7.3.7.7z" class="st4"/><circle cx="450.1" cy="260.4" r=".7" class="st4"/><path d="M454.4 260.4c0 .4-.3.7-.7.7-.4 0-.7-.3-.7-.7 0-.4.3-.7.7-.7.4 0 .7.3.7.7zm3.6 0c0 .4-.3.7-.7.7-.4 0-.7-.3-.7-.7 0-.4.3-.7.7-.7.4 0 .7.3.7.7z" class="st4"/></g><path d="M424.6 142.6v34.5c0 .9-.7 1.7-1.7 1.7h-63c-.9 0-1.7-.7-1.7-1.7v-34.5c0-.9.7-1.7 1.7-1.7h63c1 .1 1.7.8 1.7 1.7z" class="st16"/><g id="image_photo_1_"><path d="M405.5 174.3h-40.3c-1.2 0-2.3-1-2.3-2.3v-23.7c0-1.2 1-2.3 2.3-2.3h40.3c1.2 0 2.3 1 2.3 2.3V172c-.1 1.3-1.1 2.3-2.3 2.3z" class="st11"/><path d="M364.5 147.1h41.6V170h-41.6v-22.9z" class="st23"/><path fill="#e5ebf2" d="M406.1 164.9v5.1h-18.5l-1.6-2.7 9.9-11.6c.4-.5 1.1-.5 1.5 0l8.7 9.2z"/><path fill="#cad2db" d="M394.6 170h-30.1v-7.5l11.1-10.6c.4-.4 1-.4 1.4 0l17.6 18.1z"/></g><path d="M422.1 147.3V173c0 .7-.6 1.2-1.2 1.2h-7.4c-.7 0-1.2-.6-1.2-1.2v-25.7c0-.7.6-1.2 1.2-1.2h7.4c.6 0 1.2.6 1.2 1.2z" class="st13"/><path d="M417.8 159.6v-1.4c0-.2-.2-.4-.4-.4s-.4.2-.4.4v1.4c0 .2-.2.4-.4.4h-1.4c-.2 0-.4.2-.4.4s.2.4.4.4h1.4c.2 0 .4.2.4.4v1.4c0 .2.2.4.4.4s.4-.2.4-.4v-1.4c0-.2.2-.4.4-.4h1.4c.2 0 .4-.2.4-.4s-.2-.4-.4-.4h-1.4c-.2.1-.4-.1-.4-.4z" class="st16"/><g id="setting_3_"><path d="M365.7 194.5l4-4c.2-.2.6-.4.9-.4.6 0 1.3-.2 1.7-.7.6-.6.8-1.6.6-2.4l-1.2 1.2-1.3-.3-.3-1.3 1.2-1.2c-.8-.2-1.7 0-2.3.6-.5.5-.7 1.1-.7 1.7 0 .3-.1.7-.4.9l-4 4c-.2.2-.6.4-.9.4-.6 0-1.3.2-1.7.7-1 1-.9 2.6.1 3.5.9.8 2.3.8 3.2 0 .5-.5.8-1.2.8-1.8-.1-.3 0-.7.3-.9zm-3.1 2l-.7-.7.3-1 1-.3.7.7-.3 1-1 .3z" class="st4"/><path d="M365.8 192.6c-.1-.1-.1-.4 0-.5l1.3-1.3c.1-.1.4-.1.5 0s.1.4 0 .5l-1.3 1.3c-.2.1-.4.1-.5 0z" class="st11"/></g><path d="M379.9 196.1l3.3-3.3-.6-.6-3.3 3.2-.7.4-.8 1.2.5.5 1.3-.8.3-.6z" class="st11"/><path d="M386.2 192.5l3.4-3.4c.1-.1.2-.2.2-.3.1-.5.3-1.5-.7-2.4-.9-.9-2-.8-2.4-.7-.1 0-.3.1-.3.2l-3.4 3.4c.5.5.5 1.4 0 1.9l-.3.3-.5-.5-.5.5 2.4 2.4.5-.5-.5-.5.3-.3c.4-.6 1.2-.6 1.8-.1z" class="st4"/><g id="_x30__14_"><path d="M491.8 210.5l-5 5c-.3.3-.7.3-1 0s-.3-.7 0-1l5-5c.3-.3.7-.3 1 0 .2.2.2.7 0 1z" class="st13"/><path d="M494.1 208.1l-.6.6c-.3.3-.7.3-1 0s-.3-.7 0-1l.6-.6c.3-.3.7-.3 1 0s.3.7 0 1zm2.9-2.9l-.1.1c-.3.3-.7.3-1 0s-.3-.7 0-1l.1-.1c.3-.3.7-.3 1 0s.3.7 0 1z" class="st11"/></g><path id="_x30__15_" d="M333.6 144l-5 5c-.3.3-.7.3-1 0s-.3-.7 0-1l5-5c.3-.3.7-.3 1 0s.3.7 0 1zm2.4-2.3l-.6.6c-.3.3-.7.3-1 0s-.3-.7 0-1l.6-.6c.3-.3.7-.3 1 0 .3.2.3.7 0 1zm2.9-2.9l-.1.1c-.3.3-.7.3-1 0s-.3-.7 0-1l.1-.1c.3-.3.7-.3 1 0 .3.2.3.7 0 1z" class="st13"/><g id="_x30__16_"><path d="M487.8 150h-.6c-.3 0-.6-.3-.6-.6v-.6c0-.3-.2-.5-.5-.6-.4-.1-.7.2-.7.6v.6c0 .3-.3.6-.6.6h-.6c-.3 0-.5.2-.6.5-.1.4.2.7.6.7h.6c.3 0 .6.3.6.6v.6c0 .3.2.5.5.6.4.1.7-.2.7-.6v-.6c0-.3.3-.6.6-.6h.6c.4 0 .6-.3.6-.7-.1-.3-.3-.5-.6-.5z" class="st11"/></g><g id="_x30__17_"><path d="M384.5 119.9h-.7c-.4 0-.7-.3-.7-.7v-.7c0-.3-.2-.7-.6-.7-.5-.1-.9.3-.9.7v.7c0 .4-.3.7-.7.7h-.7c-.4 0-.7.2-.7.6-.1.5.3.9.7.9h.7c.4 0 .7.3.7.7v.7c0 .4.2.7.6.7.5.1.9-.3.9-.7v-.7c0-.4.3-.7.7-.7h.7c.4 0 .8-.4.7-.9-.1-.3-.4-.6-.7-.6z" class="st13"/></g><g id="_x30__18_"><path d="M321.9 242.9h-.7c-.4 0-.7-.3-.7-.7v-.7c0-.3-.2-.7-.6-.7-.5-.1-.9.3-.9.7v.7c0 .4-.3.7-.7.7h-.7c-.3 0-.7.2-.7.6-.1.5.3.9.7.9h.7c.4 0 .7.3.7.7v.7c0 .4.2.7.6.7.5.1.9-.3.9-.7v-.7c0-.4.3-.7.7-.7h.7c.4 0 .8-.4.7-.9 0-.4-.3-.6-.7-.6z" class="st13"/></g><circle cx="482.3" cy="253.5" r="1.1" class="st26"/><circle cx="442.2" cy="236.4" r="1.1" class="st13"/><path d="M450.4 273.5c0 .3-.3.6-.6.6s-.6-.3-.6-.6.3-.6.6-.6.6.3.6.6zm-94.2-147.9c0 .4-.4.8-.8.8s-.8-.4-.8-.8.4-.8.8-.8c.5 0 .8.4.8.8z" class="st4"/><path d="M348.5 149.7c0 .6-.5 1.1-1.1 1.1s-1.1-.5-1.1-1.1.5-1.1 1.1-1.1 1.1.5 1.1 1.1zm-24.2-16.2c0 .3-.2.5-.5.5s-.5-.2-.5-.5.2-.5.5-.5c.2-.1.5.2.5.5z" class="st26"/><circle cx="320.5" cy="157.9" r="1.1" class="st4"/><circle cx="322" cy="259" r="1.3" class="st4"/><circle cx="317.6" cy="226.8" r="1.1" class="st26"/><circle cx="448.9" cy="113.2" r="1.1" class="st26"/><circle cx="488.8" cy="133.1" r=".5" class="st4"/></g><g id="flutter"><path fill="#45d0fc" d="M37.6 15c0 .2-.2.3-.4.4L19.8 32.8c-.3.3-.5.4-.9 0-1.1-1.2-2.2-2.3-3.4-3.4-.4-.4-.4-.6 0-1 4.4-4.3 8.7-8.7 13.1-13l.4-.4h8.6z"/><path d="M101.2 31.9H97c-.3 0-.4 0-.4.4.2 1.5.9 2.7 2.4 3.3s2.9.4 4.1-.7c.3-.2.5-.5.7-.8.1-.2.2-.2.4-.1.4.2.7.4 1.1.5.3.1.3.2.1.5-1 1.6-2.5 2.5-4.5 2.7-3.9.4-6.6-2.7-6.3-6.7.2-2.8 2-5 4.6-5.5 3.4-.7 6.5 1.7 6.6 5.2 0 1.2 0 1.2-1.2 1.2h-3.4zm-51.4-2.7v-7.6c0-.4.1-.5.5-.5h8.4c.4 0 .5.1.5.5 0 1.3 0 1.3-1.3 1.3h-5.7c-.4 0-.5.1-.5.5V28c0 .4.1.5.5.5H58c.4 0 .5.1.5.5 0 1.4 0 1.4-1.4 1.4h-4.9c-.4 0-.5.1-.5.5v6c0 .4-.1.6-.6.5-.4-.1-1 .2-1.3-.1s-.1-.9-.1-1.3c.1-2.3.1-4.6.1-6.8zm24.6 6.5c-1.3 1.7-3 2.2-5 1.9-1.8-.3-3-1.8-3.1-3.9-.1-2.5 0-5.1 0-7.6 0-.3.1-.3.4-.4 1.6-.1 1.6-.1 1.6 1.5 0 2-.1 3.9 0 5.9.1 1.5.7 2.4 1.8 2.7 1.3.4 2.7-.1 3.5-1.2.5-.7.7-1.4.7-2.2v-6.1c0-.4.1-.6.5-.5h1c.4 0 .5.1.5.5V37c0 .4-.1.5-.5.4-.5 0-1 .1-1.3-.1-.3-.2-.1-.9-.1-1.3v-.3z" class="st23"/><path fill="#42cffc" d="M25.8 31.1l3-3c.1-.1.3-.2.5-.2h8.2c-2.5 2.5-4.9 5-7.3 7.4-.2.1-.3-.1-.4-.2-1.3-1.2-2.5-2.5-3.8-3.7-.1-.1-.2-.2-.2-.3z"/><path fill="#06589c" d="M30.2 35.4c2.4 2.5 4.9 4.9 7.4 7.4-.1.1-.2 0-.4 0h-7.7c-.3 0-.6-.1-.8-.3-.9-1-1.9-1.9-2.8-2.8-.1-.3.1-.4.3-.5l3.5-3.5c.1-.2.2-.4.5-.3z"/><path d="M85.3 35.5v1.6c0 .2-.1.3-.3.4-2 .6-4.6-.2-4.6-3V28c0-.4-.1-.6-.5-.5h-.2c-1.5 0-1.5 0-1.3-1.5 0-.2.1-.3.3-.3h1c.8 0 .7.1.7-.7v-2.1c0-.3.1-.5.4-.4H82c.3 0 .4.1.4.4v2.3c0 .4.1.6.5.5h1.8c.4 0 .5.1.5.5 0 1.3 0 1.3-1.3 1.3h-1c-.4-.1-.5.1-.5.5v6.2c.1 1.3 1 1.9 2.2 1.5.3 0 .5-.1.7-.2zm8.3 0v1.3c.1.5-.2.7-.6.8-.7.1-1.3.2-2 0-1.4-.4-2.3-1.5-2.3-3v-6.5c0-.4-.1-.6-.5-.6H88c-1.5 0-1.5 0-1.3-1.5 0-.2.1-.3.3-.3h1.3c.3 0 .4-.1.4-.4v-2.4c0-.3.1-.5.4-.4h1.1c.3 0 .4.1.4.4v2.4c0 .4.1.5.5.4h2c.3 0 .4.1.4.4.1 1.4.1 1.4-1.4 1.4-.5 0-1.1-.2-1.4.1-.3.3-.1.9-.1 1.3v5.4c.1 1.3 1.1 1.9 2.3 1.4.3 0 .4-.1.7-.2z" class="st23"/><path fill="#1fbbfc" d="M30.2 35.4c-1.4 1.4-2.8 2.8-4.2 4.1 0 0-.1.1-.1.2l-4.1-4.1c-.2-.2-.2-.3 0-.5 1.4-1.3 2.7-2.7 4.1-4 1.3 1.3 2.6 2.5 3.9 3.8 0 .1.2.2.4.5 0-.1 0-.1 0 0z"/><path d="M110 27.4c.6-1.1 1.6-1.8 2.8-2 .6-.1 1.2-.1 1.7.1.2.1.4.2.3.4v1.7l-1.2-.3c-1.9-.2-3.5 1.3-3.5 3.3v6.1c0 .5-.2.6-.6.6h-1c-.3 0-.4-.1-.4-.4V26.1c0-.3.1-.5.4-.5 1.4 0 1.4 0 1.4 1.4.1.2.1.3.1.4zm-46.5 1.8v7.6c0 .4-.1.5-.5.5h-1.2c-.2 0-.3-.1-.3-.3V21.6c0-.5.1-.6.6-.6 1.4 0 1.4 0 1.4 1.4v6.8z" class="st23"/><path d="M96.8 30.3c.2-1.6 1.5-3 3-3.1 1.9-.2 3.4.7 3.9 2.5.2.7.2.7-.5.7h-5.9c-.1-.1-.3-.1-.5-.1z" class="st1"/></g><path id="text" d="M51 62.8l-1.9 12.1h6.3l-.4 2.3h-8.8l2.3-14.4H51zM57.9 73l.4-2.7c.1-.7.3-1.2.5-1.8.3-.5.6-1 1-1.4s.8-.7 1.3-.9c.5-.2 1-.3 1.6-.3.8 0 1.4.2 1.8.5.4.4.6.9.6 1.6h.2l.3-1.9H68l-1.3 8.3c0 .2 0 .4.1.6.1.1.3.2.5.2h.7l-.3 2h-1.5c-.7 0-1.2-.2-1.5-.6-.4-.4-.5-.8-.4-1.4h-.2c-.2.7-.6 1.2-1.1 1.6s-1.2.6-1.9.6c-1 0-1.7-.3-2.3-.9-.5-.6-.8-1.4-.8-2.5v-.5c-.2-.1-.2-.3-.1-.5zm4.1 2.2c.6 0 1.1-.2 1.5-.5s.7-.8.8-1.4l.5-3.1c.1-.6 0-1.1-.3-1.4-.3-.4-.7-.5-1.3-.5s-1.2.2-1.6.6c-.4.4-.7.9-.8 1.6l-.4 2.5c-.1.7 0 1.2.3 1.6.2.4.7.6 1.3.6zm7.4 2l1.7-11h2.4l-.3 1.9h.2c.2-.7.6-1.2 1.2-1.5s1.2-.6 2.1-.6c.5 0 1 .1 1.4.3.4.2.8.5 1 .8.3.4.4.8.5 1.3s.1 1 0 1.6l-1.1 7.2H76l1.1-6.9c.1-.7 0-1.2-.3-1.6s-.8-.6-1.4-.6-1.2.2-1.6.6-.7.9-.8 1.6l-1.1 6.8-2.5.1zM81.9 73l.4-2.7c.1-.7.3-1.3.6-1.8s.6-1 1-1.4.8-.7 1.3-.9c.5-.2 1-.3 1.6-.3.8 0 1.4.2 1.9.6s.7.9.7 1.5h.2c0-.2 0-.5.1-.7 0-.2 0-.4.1-.6 0-.2 0-.4.1-.6l.5-3.4h2.5l-2.3 14.4h-2.4l.3-1.9h-.2c-.2.7-.6 1.2-1.2 1.6s-1.3.6-2.1.6c-1 0-1.8-.3-2.3-.9s-.8-1.4-.8-2.5v-.5c-.1-.1 0-.3 0-.5zm4.3 2.2c.7 0 1.2-.2 1.6-.6s.7-.9.8-1.6l.4-2.7c.1-.7 0-1.2-.3-1.6s-.8-.6-1.5-.6-1.2.2-1.7.6c-.4.4-.7.9-.8 1.6l-.3 2.7c-.1.7 0 1.2.3 1.6s.8.6 1.5.6zm7.5-.8h2.5c0 .3.2.6.5.8.3.2.7.3 1.2.3h.8c.6 0 1.1-.1 1.5-.4.4-.2.6-.6.7-1 .1-.8-.4-1.2-1.5-1.4l-1.5-.2c-1.2-.1-2-.5-2.6-1-.5-.6-.7-1.3-.6-2.2.2-1 .7-1.8 1.5-2.4s1.8-.9 3.2-.9h.8c1.2 0 2.1.3 2.8.8.7.5 1 1.2.9 2.2h-2.5c0-.3-.2-.6-.5-.7-.3-.2-.6-.3-1.1-.3H99c-.6 0-1 .1-1.4.3-.3.2-.5.5-.6.9-.1.7.3 1.1 1.3 1.3l1.6.2c1.2.1 2.1.5 2.7 1.1s.8 1.3.6 2.3c-.2 1.1-.7 1.9-1.5 2.5s-2 .9-3.4.9h-.8c-1.2 0-2.2-.3-2.9-.8-.6-.6-1-1.4-.9-2.3zm16.4 3c-.7 0-1.4-.1-1.9-.3-.5-.2-1-.5-1.4-.9s-.6-.8-.8-1.4c-.1-.5-.2-1.1-.1-1.8l.4-2.8c.2-1.3.8-2.4 1.8-3.2 1-.8 2.2-1.1 3.7-1.1.6 0 1.2.1 1.7.3.5.2.9.4 1.3.8.4.3.7.8.9 1.2.2.5.3 1 .3 1.6h-2.5c0-.5-.2-.9-.6-1.2-.4-.3-.9-.5-1.5-.5-.7 0-1.3.2-1.8.5-.5.4-.7.9-.8 1.6l-.5 2.8c-.1.6 0 1.1.4 1.5s.9.6 1.6.6c.6 0 1.2-.1 1.6-.5.4-.3.8-.7 1-1.2h2.5c-.4 1.2-1.1 2.2-2 2.9-.8.8-2 1.1-3.3 1.1zm7.8-4.4l.4-2.7c.1-.7.3-1.2.5-1.8.3-.5.6-1 1-1.4s.8-.7 1.3-.9c.5-.2 1-.3 1.6-.3.8 0 1.4.2 1.8.5.4.4.6.9.6 1.6h.2l.3-1.9h2.4l-1.3 8.3c0 .2 0 .4.1.6.1.1.3.2.5.2h.7l-.3 2h-1.5c-.7 0-1.2-.2-1.5-.6-.4-.4-.5-.8-.4-1.4h-.2c-.2.7-.6 1.2-1.1 1.6s-1.2.6-1.9.6c-1 0-1.7-.3-2.3-.9-.5-.6-.8-1.4-.8-2.5v-.5c-.2-.1-.2-.3-.1-.5zm4.1 2.2c.6 0 1.1-.2 1.5-.5s.7-.8.8-1.4l.5-3.1c.1-.6 0-1.1-.3-1.4-.3-.4-.7-.5-1.3-.5-.6 0-1.2.2-1.6.6s-.7.9-.8 1.6l-.4 2.6c-.1.7 0 1.2.3 1.6.2.3.7.5 1.3.5zm6.9 5.4l2.3-14.4h2.4l-.3 1.9h.2c.2-.7.6-1.2 1.2-1.5.6-.4 1.3-.6 2.1-.6 1 0 1.8.3 2.3.9.6.6.8 1.4.8 2.4 0 .3 0 .7-.1 1l-.4 2.7c-.2 1.4-.7 2.4-1.5 3.2-.8.8-1.8 1.2-3 1.2-.8 0-1.4-.2-1.9-.6s-.7-.9-.7-1.6h-.2v.7c0 .2 0 .4-.1.6 0 .2-.1.4-.1.6l-.5 3.4h-2.5v.1zm5.5-5.4c.7 0 1.2-.2 1.7-.6s.7-1 .8-1.6l.4-2.6c.1-.7 0-1.2-.3-1.6s-.8-.6-1.5-.6c-.6 0-1.2.2-1.6.6s-.7.9-.8 1.6l-.4 2.7c-.1.7 0 1.2.3 1.6.3.3.8.5 1.4.5zm11.6 2.2c-.7 0-1.4-.1-1.9-.3-.5-.2-1-.5-1.4-.9s-.6-.8-.8-1.4c-.1-.5-.2-1.1-.1-1.8l.4-2.8c.1-.7.3-1.2.6-1.8.3-.5.7-1 1.2-1.4s1-.7 1.6-.9c.6-.2 1.3-.3 2-.3s1.3.1 1.9.3c.6.2 1 .5 1.4.9s.6.8.7 1.4.2 1.1 0 1.8l-.3 2h-7l-.1.7c-.1.7 0 1.3.3 1.7.3.4.9.6 1.6.6.5 0 1-.1 1.4-.3.4-.2.7-.4.9-.7h2.5c-.2.5-.5.9-.8 1.2s-.7.7-1.2.9c-.5.3-.9.5-1.5.6-.3.4-.9.5-1.4.5zm3.3-6.7l.1-.3c.1-.7 0-1.3-.3-1.7-.4-.4-.9-.6-1.6-.6-.7 0-1.3.2-1.8.6s-.8 1-.9 1.7l-.1.4 4.6-.1zm15.9 6.5l6.1-14.4h3.4l1.5 14.4h-2.5l-.3-3.6h-4.1l-1.4 3.6h-2.7zm4.9-5.6h3.2l-.4-5.1v-1.9h-.1c-.1.2-.1.4-.2.6-.1.2-.1.4-.2.6s-.2.5-.3.7l-2 5.1zm6.8 9l2.3-14.4h2.4l-.3 1.9h.2c.2-.7.6-1.2 1.2-1.5.6-.4 1.3-.6 2.1-.6 1 0 1.8.3 2.3.9.6.6.8 1.4.8 2.4 0 .3 0 .7-.1 1l-.4 2.7c-.2 1.4-.7 2.4-1.5 3.2-.8.8-1.8 1.2-3 1.2-.8 0-1.4-.2-1.9-.6s-.7-.9-.7-1.6h-.2v.7c0 .2 0 .4-.1.6 0 .2-.1.4-.1.6l-.5 3.4h-2.5v.1zm5.5-5.4c.7 0 1.2-.2 1.7-.6s.7-1 .8-1.6l.4-2.6c.1-.7 0-1.2-.3-1.6s-.8-.6-1.5-.6c-.6 0-1.2.2-1.6.6s-.7.9-.8 1.6l-.4 2.7c-.1.7 0 1.2.3 1.6.3.3.8.5 1.4.5zm6.5 5.4l2.3-14.4h2.4l-.3 1.9h.2c.2-.7.6-1.2 1.2-1.5.6-.4 1.3-.6 2.1-.6 1 0 1.8.3 2.3.9.6.6.8 1.4.8 2.4 0 .3 0 .7-.1 1l-.4 2.7c-.2 1.4-.7 2.4-1.5 3.2-.8.8-1.8 1.2-3 1.2-.8 0-1.4-.2-1.9-.6s-.7-.9-.7-1.6h-.2v.7c0 .2 0 .4-.1.6 0 .2-.1.4-.1.6l-.5 3.4h-2.5v.1zm5.5-5.4c.7 0 1.2-.2 1.7-.6s.7-1 .8-1.6l.4-2.6c.1-.7 0-1.2-.3-1.6s-.8-.6-1.5-.6c-.6 0-1.2.2-1.6.6s-.7.9-.8 1.6l-.4 2.7c-.1.7 0 1.2.3 1.6.3.3.8.5 1.4.5zm8.5-12.4h6l-1.7 10.8c-.1.4 0 .7.2 1 .2.2.5.3.9.3h3.3l-.4 2.3h-3.5c-1.1 0-2-.3-2.5-.9s-.7-1.5-.5-2.6l1.4-8.6h-3.5l.3-2.3zm10.8 14.4l.4-2.3h3.9l1-6.5h-3.4l.3-2.3h5.8l-1.4 8.7h3.2l-.4 2.3h-9.4v.1zm5.4-14c.1-.4.2-.7.5-1 .3-.2.7-.4 1.1-.4h.5c.4 0 .8.1 1 .4.2.2.3.6.2 1s-.2.7-.5.9c-.3.2-.7.4-1.1.4h-.5c-.4 0-.8-.1-1-.4-.2-.2-.3-.5-.2-.9zm11 14.2c-.7 0-1.4-.1-1.9-.3-.5-.2-1-.5-1.4-.9s-.6-.8-.8-1.4c-.1-.5-.2-1.1-.1-1.8l.4-2.8c.2-1.3.8-2.4 1.8-3.2 1-.8 2.2-1.1 3.7-1.1.6 0 1.2.1 1.7.3.5.2.9.4 1.3.8.4.3.7.8.9 1.2.2.5.3 1 .3 1.6h-2.5c0-.5-.2-.9-.6-1.2-.4-.3-.9-.5-1.5-.5-.7 0-1.3.2-1.8.5-.5.4-.7.9-.8 1.6l-.5 2.8c-.1.6 0 1.1.4 1.5s.9.6 1.6.6c.6 0 1.2-.1 1.6-.5.4-.3.8-.7 1-1.2h2.5c-.4 1.2-1.1 2.2-2 2.9-.8.8-2 1.1-3.3 1.1zm7.8-4.4l.4-2.7c.1-.7.3-1.2.5-1.8.3-.5.6-1 1-1.4s.8-.7 1.3-.9c.5-.2 1-.3 1.6-.3.8 0 1.4.2 1.8.5.4.4.6.9.6 1.6h.2l.3-1.9h2.4l-1.3 8.3c0 .2 0 .4.1.6.1.1.3.2.5.2h.7l-.3 2h-1.5c-.7 0-1.2-.2-1.5-.6-.4-.4-.5-.8-.4-1.4h-.2c-.2.7-.6 1.2-1.1 1.6s-1.2.6-1.9.6c-1 0-1.7-.3-2.3-.9-.5-.6-.8-1.4-.8-2.5v-.5c-.2-.1-.2-.3-.1-.5zm4.1 2.2c.6 0 1.1-.2 1.5-.5s.7-.8.8-1.4l.5-3.1c.1-.6 0-1.1-.3-1.4-.3-.4-.7-.5-1.3-.5s-1.2.2-1.6.6c-.4.4-.7.9-.8 1.6l-.4 2.6c-.1.7 0 1.2.3 1.6.2.3.7.5 1.3.5zm8.7-9h3l.5-3.4h2.5l-.5 3.4h4.2l-.4 2.3h-4.2l-.8 5.3c-.1.3 0 .6.2.8.2.2.5.3.8.3h2.8l-.4 2.3h-3c-1.1 0-1.9-.3-2.4-.9s-.7-1.4-.5-2.5l.8-5.3h-3l.4-2.3zm11 11l.4-2.3h3.9l1-6.5h-3.4l.3-2.3h5.8l-1.4 8.7h3.2l-.4 2.3h-9.4v.1zm5.4-14c.1-.4.2-.7.5-1 .3-.2.7-.4 1.1-.4h.5c.4 0 .8.1 1 .4.2.2.3.6.2 1-.1.4-.2.7-.5.9-.3.2-.7.4-1.1.4h-.5c-.4 0-.8-.1-1-.4-.2-.2-.3-.5-.2-.9zM278 77.4c-.7 0-1.4-.1-1.9-.3s-1-.5-1.3-.9-.6-.8-.7-1.4c-.1-.5-.2-1.1-.1-1.8l.4-2.7c.2-1.3.8-2.4 1.8-3.2 1-.8 2.2-1.2 3.7-1.2.7 0 1.4.1 1.9.3.5.2 1 .5 1.3.9.4.4.6.8.8 1.4.1.5.2 1.1.1 1.8l-.4 2.7c-.2 1.4-.8 2.4-1.8 3.2-1.1.8-2.4 1.2-3.8 1.2zm-1.6-4.4c-.1.7 0 1.2.4 1.6s.9.6 1.6.6 1.3-.2 1.8-.6.8-.9.9-1.6l.4-2.7c.1-.7 0-1.2-.4-1.6s-.9-.6-1.6-.6-1.3.2-1.7.6c-.5.4-.8.9-.9 1.6l-.5 2.7zm9 4.2l1.7-11h2.4l-.3 1.9h.2c.2-.7.6-1.2 1.2-1.5s1.2-.6 2.1-.6c.5 0 1 .1 1.4.3.4.2.8.5 1 .8.3.4.4.8.5 1.3s.1 1 0 1.6l-1.1 7.2H292l1.1-6.9c.1-.7 0-1.2-.3-1.6s-.8-.6-1.4-.6-1.2.2-1.6.6-.7.9-.8 1.6l-1.1 6.8-2.5.1zm25.7-14.4h10.4l-.4 2.3h-4l-1.9 12.1h-2.5l1.9-12.1h-4l.5-2.3zm11.1 10.3l1.1-6.9h2.5l-1.1 6.9c-.2 1.4.3 2.1 1.6 2.1s2.1-.7 2.3-2.1l1.1-6.9h2.5l-1.1 6.9c-.2 1.4-.8 2.4-1.7 3.2-.9.8-2.1 1.1-3.5 1.1s-2.4-.4-3.1-1.2c-.6-.7-.8-1.8-.6-3.1zm12.5-6.9h3l.5-3.4h2.5l-.5 3.4h4.2l-.4 2.3h-4.2l-.8 5.3c-.1.3 0 .6.2.8.2.2.5.3.8.3h2.8l-.4 2.3h-3c-1.1 0-1.9-.3-2.4-.9s-.7-1.4-.5-2.5l.8-5.3h-3l.4-2.3zM350 77.4c-.7 0-1.4-.1-1.9-.3s-1-.5-1.3-.9-.6-.8-.7-1.4c-.1-.5-.2-1.1-.1-1.8l.4-2.7c.2-1.3.8-2.4 1.8-3.2 1-.8 2.2-1.2 3.7-1.2.7 0 1.4.1 1.9.3.5.2 1 .5 1.3.9.4.4.6.8.8 1.4.1.5.2 1.1.1 1.8l-.4 2.7c-.2 1.4-.8 2.4-1.8 3.2-1.1.8-2.4 1.2-3.8 1.2zm-1.6-4.4c-.1.7 0 1.2.4 1.6s.9.6 1.6.6 1.3-.2 1.8-.6.8-.9.9-1.6l.4-2.7c.1-.7 0-1.2-.4-1.6s-.9-.6-1.6-.6-1.3.2-1.7.6c-.5.4-.8.9-.9 1.6l-.5 2.7zm9.5 4.2l1.7-11h2.3l-.3 1.9h.2c.2-.7.7-1.2 1.2-1.5.6-.4 1.3-.6 2.1-.6 1.2 0 2 .4 2.6 1.1.5.7.7 1.8.5 3l-.1.8h-2.6l.1-.6c.1-.7 0-1.3-.3-1.7-.3-.4-.8-.6-1.5-.6-.6 0-1.2.2-1.6.6s-.7 1-.8 1.7l-1.1 6.8-2.4.1zm11.8 0l.4-2.3h3.9l1-6.5h-3.4l.3-2.3h5.8l-1.4 8.7h3.2l-.4 2.3h-9.4v.1zm5.4-14c.1-.4.2-.7.5-1 .3-.2.7-.4 1.1-.4h.5c.4 0 .8.1 1 .4.2.2.3.6.2 1-.1.4-.2.7-.5.9-.3.2-.7.4-1.1.4h-.5c-.4 0-.8-.1-1-.4-.2-.2-.3-.5-.2-.9zm6.8 9.8l.4-2.7c.1-.7.3-1.2.5-1.8.3-.5.6-1 1-1.4s.8-.7 1.3-.9c.5-.2 1-.3 1.6-.3.8 0 1.4.2 1.8.5.4.4.6.9.6 1.6h.2l.3-1.9h2.4l-1.3 8.3c0 .2 0 .4.1.6.1.1.3.2.5.2h.7l-.3 2h-1.5c-.7 0-1.2-.2-1.5-.6-.4-.4-.5-.8-.4-1.4h-.2c-.2.7-.6 1.2-1.1 1.6s-1.2.6-1.9.6c-1 0-1.7-.3-2.3-.9-.5-.6-.8-1.4-.8-2.5v-.5c-.2-.1-.2-.3-.1-.5zm4.1 2.2c.6 0 1.1-.2 1.5-.5s.7-.8.8-1.4l.5-3.1c.1-.6 0-1.1-.3-1.4-.3-.4-.7-.5-1.3-.5-.6 0-1.2.2-1.6.6s-.7.9-.8 1.6l-.4 2.6c-.1.7 0 1.2.3 1.6.2.3.7.5 1.3.5zm8.9-12.4h6l-1.7 10.8c-.1.4 0 .7.2 1 .2.2.5.3.9.3h3.3l-.4 2.3h-3.5c-1.1 0-2-.3-2.5-.9s-.7-1.5-.5-2.6l1.4-8.6h-3.5l.3-2.3zm-349 35.6l5.1-2.2c.1-.1.3-.1.4-.2.1 0 .3-.1.4-.1.1 0 .2-.1.3-.1v-.1c-.1 0-.2 0-.3-.1-.2 0-.4-.1-.7-.2l-4.5-2.2.3-1.6 6.5 3.4-.3 1.8-7.6 3.4.4-1.8zm20.6-8.7h3.9c.6 0 1 .1 1.5.2.4.2.8.4 1.1.7.3.3.5.7.6 1.1s.1.9 0 1.4-.2 1-.5 1.4c-.2.4-.5.8-.9 1.1-.4.3-.8.5-1.3.7s-1 .2-1.6.2h-2.2l-.7 4.6h-1.8l1.9-11.4zm.9 5.3h2.2c.6 0 1.1-.2 1.5-.5s.7-.8.7-1.4c.1-.6 0-1-.3-1.4s-.7-.5-1.3-.5H68l-.6 3.8zm7.2 2.9l.4-2.2c.1-.5.2-1 .4-1.4s.5-.8.8-1.1c.3-.3.6-.5 1-.7s.8-.2 1.2-.2c.6 0 1.1.1 1.4.4s.5.7.5 1.2h.1l.3-1.5h1.6l-1.1 6.8c0 .2 0 .4.1.5s.2.2.4.2h.6l-.2 1.5H81c-.5 0-.9-.1-1.2-.4s-.4-.7-.3-1.1h-.1c-.2.5-.5.9-.9 1.2-.4.3-.9.4-1.6.4-.8 0-1.4-.2-1.8-.7s-.6-1.1-.6-2v-.4c0-.1.1-.4.1-.5zm3.2 1.9c.5 0 .9-.2 1.3-.5.3-.3.6-.7.7-1.3l.4-2.7c0-.5-.1-.9-.3-1.2-.2-.3-.6-.4-1.1-.4-.6 0-1 .2-1.4.5s-.6.8-.7 1.4l-.3 2.2c-.1.6 0 1.1.2 1.4s.6.6 1.2.6zm6.4 1.4l1.4-8.8h1.6l-.2 1.5h.1c.2-.5.5-.9 1-1.2s1-.4 1.7-.4c.9 0 1.6.3 2 .9s.6 1.4.4 2.4l-.1.6h-1.8l.1-.4c.1-.6 0-1.1-.3-1.5s-.7-.5-1.3-.5c-.6 0-1 .2-1.4.5s-.6.8-.7 1.4l-.9 5.6-1.6-.1zm10.2-8.8h2.5l.4-2.7h1.8l-.4 2.7h3.4l-.2 1.6h-3.4l-.7 4.7c-.1.3 0 .5.1.7s.4.2.7.2h2.2l-.3 1.6h-2.3c-.8 0-1.4-.2-1.8-.7s-.5-1.1-.4-1.8l.7-4.7h-2.5l.2-1.6zm18.3 8.8l.3-1.6h3.1l1.2-7.4c0-.3.1-.5.1-.7.1-.2.1-.3.1-.3l-.2.2c-.1.1-.2.1-.2.2s-.2.1-.3.2l-2.5 1.5.3-1.7 2.8-1.8h2.1l-1.6 10h2.5l-.2 1.6h-7.5v-.2zm21-11.5h3.5c1.1 0 2 .3 2.5.8.6.5.8 1.3.6 2.2-.1.7-.4 1.3-.9 1.7s-1 .7-1.7.7v.1c.7 0 1.3.3 1.6.8s.5 1.1.3 1.9c-.2 1-.6 1.8-1.3 2.4s-1.7.9-2.8.9h-3.7l1.9-11.5zm.2 10h1.8c.6 0 1.2-.2 1.6-.5.4-.3.6-.8.7-1.3.1-.6 0-1-.3-1.4-.3-.3-.8-.5-1.4-.5h-1.8l-.6 3.7zm.8-5.2h1.8c.6 0 1-.1 1.4-.4s.6-.7.7-1.2c.1-.5 0-.9-.3-1.2-.3-.3-.7-.5-1.2-.5h-1.8l-.6 3.3zm7.1 6.7l1.4-8.8h1.6l-.2 1.5h.1c.2-.5.5-.9 1-1.2s1-.4 1.7-.4c.9 0 1.6.3 2 .9s.6 1.4.4 2.4l-.1.6h-1.8l.1-.4c.1-.6 0-1.1-.3-1.5s-.7-.5-1.3-.5-1 .2-1.4.5-.6.8-.7 1.4l-.9 5.6-1.6-.1zm9.4 0l.3-1.6h3.2l.9-5.6h-2.8l.3-1.6h4.5l-1.1 7.2h2.6l-.3 1.6h-7.6zm4.3-11.2c.1-.3.2-.6.4-.8.2-.2.5-.3.8-.3h.4c.3 0 .6.1.8.3.2.2.2.4.2.7-.1.3-.2.6-.4.7-.2.2-.5.3-.8.3h-.4c-.3 0-.6-.1-.8-.3-.2 0-.2-.3-.2-.6zm8.7 11.4c-.6 0-1-.1-1.5-.2-.4-.2-.8-.4-1-.7-.3-.3-.5-.7-.6-1.1s-.1-.9 0-1.4l.4-2.3c.1-.5.2-1 .5-1.4.2-.4.5-.8.9-1.1.4-.3.8-.5 1.3-.7s1-.2 1.6-.2 1 .1 1.5.2c.4.2.8.4 1 .7.3.3.5.7.6 1.1s.1.9 0 1.4l-.3 1.6H163l-.1.6c-.1.6 0 1.1.3 1.5s.7.5 1.3.5c.4 0 .8-.1 1.2-.2s.6-.4.8-.6h1.7c-.1.3-.4.7-.6.9s-.6.5-.9.7c-.3.2-.7.4-1.1.5-.5.1-1 .2-1.4.2zM167 96l.1-.4c.1-.6 0-1.1-.3-1.4s-.8-.5-1.4-.5c-.6 0-1.1.2-1.5.5s-.6.8-.8 1.4l-.1.4h4zm2.6 7.9l.3-1.6h.8c.5 0 .9-.1 1.2-.4s.5-.6.6-1.1l.9-5.9h-2.5l.2-1.6h2.5l.2-1.2c.1-.7.4-1.3 1-1.8s1.2-.6 2-.6h2.6l-.3 1.6h-2.5c-.3 0-.5.1-.7.2s-.3.4-.4.6l-.2 1.2h3.5l-.3 1.6H175l-.9 5.9c-.1 1-.6 1.7-1.2 2.3-.7.5-1.5.8-2.6.8h-.7zm20-2.7l.2-1.5h2.5l1.3-8.4h-2.5l.2-1.5h6.8l-.2 1.5h-2.5l-1.3 8.4h2.5l-.2 1.5h-6.8zm9.5 0l1.4-8.8h1.7l-.2 1.5h.1c.2-.5.5-.9 1-1.2s1-.4 1.6-.4c.4 0 .8.1 1.1.2.3.2.6.4.8.7s.4.6.4 1c.1.4.1.8 0 1.3l-.9 5.7h-1.7l.9-5.6c.1-.6 0-1.1-.2-1.4s-.6-.5-1.2-.5-1 .2-1.4.5-.6.7-.7 1.3l-.9 5.7h-1.8zm10.5-8.8h2.5l.4-2.7h1.8l-.4 2.7h3.4L217 94h-3.4l-.7 4.7c-.1.3 0 .5.1.7s.4.2.7.2h2.2l-.3 1.6h-2.3c-.8 0-1.4-.2-1.8-.7s-.5-1.1-.4-1.8l.7-4.7h-2.5l.3-1.6zm9 8.8l1.4-8.8h1.6l-.2 1.5h.1c.2-.5.5-.9 1-1.2s1-.4 1.7-.4c.9 0 1.6.3 2 .9s.6 1.4.4 2.4l-.1.6h-1.8l.1-.4c.1-.6 0-1.1-.3-1.5s-.7-.5-1.3-.5-1 .2-1.4.5-.6.8-.7 1.4l-.9 5.6-1.6-.1zm12.8.2c-.6 0-1-.1-1.5-.2-.4-.2-.8-.4-1-.7-.3-.3-.5-.7-.6-1.1s-.1-.9 0-1.4l.4-2.2c.1-.5.2-1 .5-1.4.2-.4.5-.8.9-1.1.4-.3.8-.5 1.3-.7s1-.2 1.6-.2 1.1.1 1.5.2c.4.2.8.4 1 .7.3.3.5.7.6 1.1s.1.9 0 1.4l-.3 2.2c-.2 1.1-.6 1.9-1.4 2.5s-1.9.9-3 .9zm-1.4-3.5c-.1.6 0 1.1.3 1.4s.7.5 1.3.5 1.1-.2 1.5-.5.6-.8.7-1.4l.3-2.2c.1-.6 0-1.1-.3-1.4s-.7-.5-1.3-.5-1.1.2-1.5.5-.6.8-.7 1.4l-.3 2.2zm7.8 0l.4-2.2c.1-.5.2-1 .4-1.4s.5-.8.8-1.1c.3-.3.7-.5 1.1-.7.4-.2.8-.2 1.3-.2.7 0 1.2.1 1.5.4s.6.7.6 1.2h.1v-.5c0-.2 0-.3.1-.5 0-.2 0-.3.1-.5l.4-2.7h1.7l-1.8 11.5h-1.7l.2-1.5h-.1c-.2.5-.5.9-1 1.2-.5.3-1 .4-1.7.4-.8 0-1.4-.2-1.8-.7-.4-.5-.7-1.1-.7-2v-.4c.1 0 .1-.2.1-.3zm3.4 1.9c.6 0 1-.2 1.4-.5.4-.4.6-.8.7-1.4l.4-2.2c.1-.6 0-1.1-.3-1.4-.3-.4-.7-.5-1.2-.5-.6 0-1.1.2-1.5.5s-.6.8-.7 1.4l-.4 2.2c-.1.6 0 1.1.3 1.4s.7.5 1.3.5zm6.4-1.8l.9-5.6h1.8l-.9 5.6c-.2 1.2.3 1.8 1.4 1.8s1.8-.6 2-1.8l.9-5.6h1.7l-.9 5.6c-.2 1.1-.6 1.9-1.3 2.5s-1.6.9-2.7.9-1.9-.3-2.4-.9-.6-1.5-.5-2.5zm12.7 3.4c-.5 0-1-.1-1.5-.2-.4-.2-.8-.4-1-.7-.3-.3-.5-.7-.6-1.1s-.1-.9 0-1.4l.4-2.2c.2-1.1.6-1.9 1.4-2.5.7-.6 1.7-.9 2.8-.9.5 0 .9.1 1.3.2s.7.4 1 .6.5.6.7 1 .2.8.2 1.2h-1.8c0-.4-.2-.8-.5-1.1-.3-.3-.7-.4-1.2-.4-.6 0-1.1.2-1.5.5s-.6.8-.7 1.4l-.4 2.2c-.1.6 0 1 .3 1.4.3.3.7.5 1.3.5.5 0 1-.1 1.4-.4s.7-.6.8-1.1h1.8c-.3 1-.8 1.7-1.5 2.2-.8.5-1.7.8-2.7.8zm6.9-9h2.5l.4-2.7h1.8l-.4 2.7h3.4l-.2 1.6h-3.4l-.7 4.7c-.1.3 0 .5.1.7s.4.2.7.2h2.2l-.3 1.6H271c-.8 0-1.4-.2-1.8-.7s-.5-1.1-.4-1.8l.7-4.7H267l.2-1.6zm8.8 8.8l.3-1.6h3.2l.9-5.6h-2.8l.3-1.6h4.5l-1.1 7.2h2.6l-.3 1.6H276zm4.3-11.2c.1-.3.2-.6.4-.8.2-.2.5-.3.8-.3h.4c.3 0 .6.1.8.3.2.2.2.4.2.7-.1.3-.2.6-.4.7-.2.2-.5.3-.8.3h-.4c-.3 0-.6-.1-.8-.3-.2 0-.2-.3-.2-.6zm8.7 11.4c-.6 0-1-.1-1.5-.2-.4-.2-.8-.4-1-.7-.3-.3-.5-.7-.6-1.1s-.1-.9 0-1.4l.4-2.2c.1-.5.2-1 .5-1.4.2-.4.5-.8.9-1.1.4-.3.8-.5 1.3-.7s1-.2 1.6-.2 1.1.1 1.5.2c.4.2.8.4 1 .7.3.3.5.7.6 1.1s.1.9 0 1.4l-.3 2.2c-.2 1.1-.6 1.9-1.4 2.5s-1.9.9-3 .9zm-1.4-3.5c-.1.6 0 1.1.3 1.4s.7.5 1.3.5c.6 0 1.1-.2 1.5-.5s.6-.8.7-1.4l.3-2.2c.1-.6 0-1.1-.3-1.4s-.7-.5-1.3-.5c-.6 0-1.1.2-1.5.5s-.6.8-.7 1.4l-.3 2.2zm7.5 3.3l1.4-8.8h1.7l-.2 1.5h.1c.2-.5.5-.9 1-1.2s1-.4 1.6-.4c.4 0 .8.1 1.1.2.3.2.6.4.8.7s.4.6.4 1c.1.4.1.8 0 1.3l-.9 5.7h-1.7l.9-5.6c.1-.6 0-1.1-.2-1.4s-.6-.5-1.2-.5-1 .2-1.4.5-.6.7-.7 1.3l-.9 5.7h-1.8zm20.1-8.8h2.5l.4-2.7h1.8l-.4 2.7h3.4l-.2 1.6h-3.4l-.7 4.7c-.1.3 0 .5.1.7s.4.2.7.2h2.2l-.3 1.6H319c-.8 0-1.4-.2-1.8-.7s-.5-1.1-.4-1.8l.7-4.7H315l.2-1.6zm12.2 9c-.6 0-1-.1-1.5-.2-.4-.2-.8-.4-1-.7-.3-.3-.5-.7-.6-1.1s-.1-.9 0-1.4l.4-2.2c.1-.5.2-1 .5-1.4.2-.4.5-.8.9-1.1.4-.3.8-.5 1.3-.7s1-.2 1.6-.2 1.1.1 1.5.2c.4.2.8.4 1 .7.3.3.5.7.6 1.1s.1.9 0 1.4l-.3 2.2c-.2 1.1-.6 1.9-1.4 2.5s-1.9.9-3 .9zm-1.4-3.5c-.1.6 0 1.1.3 1.4s.7.5 1.3.5c.6 0 1.1-.2 1.5-.5s.6-.8.7-1.4l.3-2.2c.1-.6 0-1.1-.3-1.4s-.7-.5-1.3-.5c-.6 0-1.1.2-1.5.5s-.6.8-.7 1.4l-.3 2.2zm19-8.2h7.1l-.3 1.6h-5.4l-.5 3.3h5l-.3 1.6h-4.9l-.8 5h-1.7l1.8-11.5zm8.8 0h4.6l-1.4 8.8c-.1.4 0 .6.2.8s.4.3.8.3h2.6l-.3 1.6h-2.7c-.9 0-1.5-.2-1.9-.7s-.6-1.1-.4-2l1.1-7.2h-2.8l.2-1.6zm9 8.3l.9-5.6h1.8l-.9 5.6c-.2 1.2.3 1.8 1.4 1.8s1.8-.6 2-1.8l.9-5.6h1.7l-.9 5.6c-.2 1.1-.6 1.9-1.3 2.5-.7.6-1.6.9-2.7.9s-1.9-.3-2.4-.9-.6-1.5-.5-2.5zm10-5.6h2.5l.4-2.7h1.8l-.4 2.7h3.4l-.2 1.6h-3.4l-.7 4.7c-.1.3 0 .5.1.7s.4.2.7.2h2.2l-.3 1.6h-2.3c-.8 0-1.4-.2-1.8-.7s-.5-1.1-.4-1.8l.6-4.7h-2.5l.3-1.6zm9.6 0h2.5l.4-2.7h1.8l-.4 2.7h3.4l-.2 1.6h-3.4l-.7 4.7c-.1.3 0 .5.1.7s.4.2.7.2h2.2l-.3 1.6h-2.3c-.8 0-1.4-.2-1.8-.7s-.5-1.1-.4-1.8l.7-4.7h-2.5l.2-1.6zm12.2 9c-.6 0-1-.1-1.5-.2-.4-.2-.8-.4-1-.7-.3-.3-.5-.7-.6-1.1s-.1-.9 0-1.4l.4-2.3c.1-.5.2-1 .5-1.4.2-.4.5-.8.9-1.1.4-.3.8-.5 1.3-.7s1-.2 1.6-.2 1 .1 1.5.2c.4.2.8.4 1 .7.3.3.5.7.6 1.1s.1.9 0 1.4l-.3 1.6h-5.6l-.1.6c-.1.6 0 1.1.3 1.5s.7.5 1.3.5c.4 0 .8-.1 1.2-.2.4-.1.6-.4.8-.6h1.7c-.1.3-.4.7-.6.9s-.6.5-.9.7-.7.4-1.1.5c-.5.1-1 .2-1.4.2zm2.8-5.4l.1-.4c.1-.6 0-1.1-.3-1.4s-.8-.5-1.4-.5-1.1.2-1.5.5-.6.8-.8 1.4l-.1.4h4zm3.6 5.2l1.4-8.8h1.6l-.2 1.5h.1c.2-.5.5-.9 1-1.2s1-.4 1.7-.4c.9 0 1.6.3 2 .9s.6 1.4.4 2.4l-.1.6h-1.8l.1-.4c.1-.6 0-1.1-.3-1.5s-.7-.5-1.3-.5c-.6 0-1 .2-1.4.5s-.6.8-.7 1.4l-.9 5.6-1.6-.1zM48.8 142.8c-.6-.3-1.1-.6-1.5-1s-.8-1-1-1.5-.4-1.2-.4-1.9.1-1.3.4-1.9.6-1.1 1-1.5 1-.8 1.5-1 1.2-.4 1.9-.4 1.3.1 1.9.4 1.1.6 1.5 1 .8 1 1 1.5.4 1.2.4 1.9-.1 1.3-.4 1.9-.6 1.1-1 1.5-1 .8-1.5 1-1.2.4-1.9.4-1.3-.2-1.9-.4zm3.3-.9c.5-.2.9-.5 1.2-.8s.6-.7.8-1.2.3-.9.3-1.5c0-.5-.1-1-.3-1.5s-.5-.9-.8-1.2-.7-.6-1.2-.8-.9-.3-1.5-.3-1 .1-1.5.3-.9.5-1.2.8-.6.7-.8 1.2-.3.9-.3 1.5c0 .5.1 1 .3 1.5s.5.9.8 1.2.7.6 1.2.8.9.3 1.5.3c.6-.1 1-.2 1.5-.3zm-3.4-3.4l2.5-3.1c.1-.1.1-.1.2-.1s.1 0 .2.1 0 .2 0 .3l-.8 2.1h1.5c.1 0 .1 0 .2.1s.1.1.1.2 0 .1-.1.2l-2.5 3.1c-.1.1-.1.1-.2.1s-.1 0-.2-.1-.1-.2 0-.3l.8-2.1h-1.5c-.1 0-.1 0-.2-.1s-.1-.1-.1-.2.1-.2.1-.2zm19.6-.5c.2.1.3.1.4.3s.1.2.1.4c0 .1 0 .2-.1.3s-.2.2-.4.3v2.3c0 .2-.1.4-.2.6s-.3.3-.4.4c-.3.3-.7.6-1.2.7s-.9.2-1.4.2c-.8 0-1.4-.2-2-.5s-1-.7-1.4-1.2-.7-1-.9-1.6-.3-1.1-.3-1.6c0-.3 0-.6.1-1s.2-.7.3-1 .3-.7.6-1c.2-.3.5-.5.8-.7.6-.4 1.1-.7 1.7-.9.6-.2 1.2-.3 1.8-.3.2 0 .4 0 .6.1.2 0 .5.1.7.2l.6.3c.2.1.2.3.2.5s-.1.3-.2.4c-.1.1-.3.2-.4.2s-.2 0-.3-.1c-.1 0-.3-.1-.4-.1s-.3-.1-.4-.1-.3-.1-.4-.1h-.3c-.1 0-.2 0-.3.1-.4.1-.8.3-1.2.4-.4.2-.8.4-1.1.7s-.6.6-.8 1-.3.9-.3 1.5c0 .5.1 1 .3 1.4s.4.8.7 1.1.6.6 1 .8c.4.2.8.3 1.2.3s.7-.1 1.1-.2c.4-.1.7-.4 1-.6v-2.1h-2.4c-.2 0-.4-.1-.5-.2s-.2-.3-.2-.4c0-.1.1-.3.2-.4.1-.1.3-.2.5-.2h2.9c.4 0 .6-.2.7-.2zm1.7 1.4c.1-.3.3-.7.4-1l.6-.9c.2-.3.5-.5.8-.7s.6-.3 1-.4c.6-.1 1.1-.1 1.6.1.4.2.8.6 1.1 1 .3.4.4.9.5 1.4s.1 1.1-.1 1.6c-.2.6-.4 1.2-.8 1.7s-.9.9-1.5 1.1c-.4.2-.9.2-1.3.2s-.8-.2-1.1-.4c-.3-.2-.6-.5-.8-.9-.2-.4-.4-.7-.5-1.2-.1-.3-.1-.6-.1-.8 0-.3 0-.5.1-.8h.1zm1.2.4c0 .2-.1.4-.1.6v.6c0 .3.1.5.3.8.1.2.3.4.5.5s.4.2.7.2c.3 0 .5-.1.8-.2.3-.2.6-.5.8-.8s.4-.7.5-1.1c.1-.3.1-.6.1-1s-.2-.7-.3-.9c-.2-.3-.4-.5-.7-.6-.3-.1-.6-.1-1 .1s-.7.4-1 .8-.5.6-.6 1zm12.2 2.7s0 .1 0 0c0 .2.1.3 0 .4 0 .1-.1.2-.2.3s-.2.1-.3.1c-.1 0-.3 0-.5-.1l-.3-.3c-.1-.1-.2-.2-.2-.3-.2.2-.4.3-.7.5s-.5.2-.7.2h-1.2c-.4 0-.8-.1-1.1-.4-.3-.2-.5-.5-.7-.8s-.3-.6-.3-1v-1c.1-.4.1-.7.3-1 .1-.1.1-.3.2-.4.1-.1.2-.3.2-.4.1-.2.2-.4.4-.6.1-.2.3-.3.5-.5.1-.1.3-.2.4-.3s.3-.2.4-.3.2-.1.4-.2.4-.1.6-.2c.2 0 .4-.1.7-.1s.4 0 .6.1c.1 0 .3 0 .4.1s.2.2.3.4v2.1c0 .7 0 1.4.1 2.1 0 .1 0 .2.1.3s.1.3.2.4c.1.1.1.2.2.3.2.5.2.6.2.6zm-2-1c.1 0 .1-.1 0 0 .1-.1.1-.1 0 0 0-.7-.1-1.3-.1-2v-1.8H81c-.1 0-.2 0-.3.1-.1 0-.2.1-.3.1-.1 0-.2.1-.2.1-.3.1-.6.3-.8.6-.2.2-.4.5-.5.8l-.3.9c-.1.3-.1.6-.1 1 0 .1 0 .2.1.2s.1.2.1.2l.2.2.2.2c.1 0 .2.1.3.1.1 0 .2.1.3.1h.5c.2 0 .3 0 .5-.1s.3-.2.5-.3.1-.3.2-.4zm5 1c.2.1.3.3.3.5s0 .3-.1.4c-.1.1-.2.2-.4.3-.2.1-.3 0-.5-.1-.1-.1-.2-.1-.3-.2s-.2-.1-.3-.2l-.2-.2c0-.1-.1-.2-.1-.3V134c0-.2.1-.3.2-.4.1-.1.2-.2.4-.2.1 0 .3 0 .4.1s.2.2.3.4v8.3s.1 0 .1.1c.2.1.2.1.2.2zm2.1-.4c-.1-.2-.1-.4-.1-.5s.1-.3.2-.4c.1-.1.2-.1.4-.1s.3.1.5.2c.2.3.5.5.8.7s.7.3 1 .3l.3-.1c.1-.1.1-.1.2-.1 0 0 .1 0 .1-.1l.1-.1s.1-.1.1-.2v-.4l-.1-.3-.1-.1-.1-.1c-.3-.2-.5-.3-.8-.4s-.5-.1-.8-.2c-.2-.1-.5-.2-.7-.3s-.5-.3-.7-.6c-.2-.2-.3-.5-.3-.9 0-.3 0-.6.2-.9.1-.3.3-.6.5-.8s.5-.4.8-.4c.4-.1.9-.1 1.3 0s.9.2 1.3.4c.2.1.3.3.3.5s0 .3-.1.4c-.1.1-.2.2-.4.3-.2.1-.3 0-.5-.1s-.5-.2-.8-.3h-1c-.1.1-.2.2-.2.4s-.1.3-.1.4c0 0 0 .1.1.2l.1.1.1.1c.2.1.5.2.8.3l.9.3c.3.1.5.2.8.4.2.2.4.4.6.7.2.6.3 1.1.1 1.6-.2.5-.5.9-1 1.3-.1.1-.3.2-.4.2s-.3.1-.5.1c-.6 0-1.1-.1-1.6-.4-.5-.3-1-.7-1.3-1.1zm7.8-4.5c0 .3-.1.5-.3.7-.2.2-.4.3-.7.3s-.5-.1-.7-.3-.3-.4-.3-.7.1-.5.3-.7c.2-.2.4-.3.7-.3s.5.1.7.3c.3.2.3.4.3.7zm.1 4.7c0 .2-.1.5-.3.6-.2.2-.4.3-.6.3s-.5-.1-.6-.3c-.2-.2-.3-.4-.3-.6 0-.3.1-.5.3-.7.2-.2.4-.3.6-.3.3 0 .5.1.6.3.2.3.3.5.3.7zm-47.7 18.1c.1.1.1.2.1.3s0 .2-.1.3-.2.2-.4.2h-2c-.2 0-.3-.1-.4-.2-.1-.1-.1-.2-.1-.4 0-.1.1-.2.2-.4.1-.1.3-.2.5-.2h.4v-5.5c-.1.1-.3.1-.4.1-.2 0-.3-.1-.4-.2s-.1-.2-.1-.4c0-.1 0-.2.1-.3 0-.1.1-.2.2-.2l.9-.6c.1 0 .2-.1.3-.1.3 0 .5.2.5.5v6.5h.6c-.1.4 0 .5.1.6zm3.4.1c0 .2-.1.4-.2.5-.2.1-.3.2-.6.2-.2 0-.4-.1-.6-.2-.2-.1-.2-.3-.2-.5s.1-.4.2-.5c.2-.2.4-.2.6-.2.2 0 .4.1.6.2s.2.3.2.5zm14.2-6.9c0-.2.1-.3.2-.4.1-.1.2-.1.3-.1.1 0 .3.1.4.2.1.1.2.2.2.4v.1c-.1.7-.3 1.3-.5 2s-.4 1.3-.7 1.9c-.2.6-.4 1.2-.7 1.8-.2.6-.5 1.2-.7 1.8-.1.2-.3.3-.5.3s-.4-.1-.5-.4c-.2-.5-.4-1-.5-1.4-.2-.4-.3-.9-.5-1.3-.1-.4-.3-.8-.4-1.2s-.3-.8-.5-1.2c-.1.3-.2.7-.3 1s-.2.7-.4 1c-.2.5-.4 1.1-.6 1.6-.2.6-.4 1.1-.7 1.6-.1.2-.3.3-.5.3s-.4-.1-.5-.4c-.2-.8-.4-1.6-.7-2.4-.3-.8-.6-1.6-.9-2.3-.2-.4-.3-.8-.5-1.3-.2-.4-.3-.8-.5-1.2-.1-.1-.1-.2-.1-.3 0-.2 0-.3.1-.4.1-.1.2-.1.4-.1.1 0 .2 0 .3.1.1 0 .2.1.2.2.2.4.4.8.6 1.3.2.5.3.9.5 1.3.2.6.4 1.2.6 1.7.2.5.4 1.1.5 1.7.1-.3.2-.6.3-.8.1-.3.2-.6.3-.8l.6-1.8c.2-.6.4-1.3.5-1.9.1-.2.3-.3.5-.3s.4.1.5.3l.6 1.5c.2.5.3.9.5 1.4s.3.9.5 1.3.3.9.5 1.4c.1-.3.3-.7.4-1.1.1-.4.3-.8.4-1.1.2-.6.4-1.2.7-1.8.3-.9.4-1.6.6-2.2zm3.4 7.6c-.1.1-.2.2-.4.2-.1 0-.2 0-.4-.1-.1-.1-.2-.2-.2-.4v-7.4c0-.2.1-.3.2-.4.1-.1.2-.1.3-.1.1 0 .2 0 .3.1s.2.2.2.4v3.1c.1-.1.3-.2.4-.3.2-.1.3-.2.5-.3s.3-.1.5-.2c.2 0 .3-.1.5 0 .2 0 .3.1.5.1.3.1.5.2.7.4s.3.4.5.6c.1.2.2.5.3.7.1.3.1.5.1.8v2.6c0 .2-.1.3-.2.4-.1.1-.2.2-.4.2-.1 0-.2 0-.4-.1s-.2-.2-.2-.4v-2.6c0-.3-.1-.6-.2-.9-.1-.3-.3-.5-.6-.6-.2-.1-.4-.1-.6 0s-.4.2-.5.3c-.2.1-.3.3-.4.4-.1.2-.3.3-.4.5 0 0 0 .1-.1.1l-.1.1v2.6c.3 0 .2.1.1.2zm9.8-5.7c.1-.1.2-.2.2-.3.1-.1.2-.1.3-.1.2 0 .3.1.4.2.1.1.1.3.1.5-.2.7-.4 1.4-.7 2.1-.3.7-.6 1.3-.9 2-.3.6-.7 1.3-1.1 1.9-.4.6-.7 1.3-1.1 1.9l-.2.2c-.1 0-.2.1-.3.1-.1 0-.2 0-.3-.1s-.1-.2-.1-.4v-.2c.3-.5.6-1.1.9-1.6s.6-1 .9-1.6c-.4-.3-.7-.6-1-.9-.3-.3-.5-.6-.8-.9-.2-.3-.4-.7-.6-1.1-.2-.4-.3-.8-.4-1.3 0-.2 0-.4.1-.5s.2-.2.4-.2c.1 0 .2 0 .3.1s.2.2.2.4c.1.4.2.7.4 1 .1.3.3.6.5.9.2.3.4.5.6.8l.7.7c.3-.6.6-1.2.8-1.7.4-.6.6-1.2.7-1.9zm7.7 5.8c-.1.1-.2.2-.4.2-.1 0-.2 0-.3-.1s-.2-.2-.2-.4v-3.3c-.2-.1-.3-.3-.3-.5 0-.1 0-.2.1-.3s.1-.2.3-.2V155c0-.2-.1-.4-.2-.6-.1-.1-.1-.2-.1-.3 0-.3.1-.4.4-.5s.7-.1 1-.1h2c.3 0 .7 0 1-.1.2 0 .4 0 .5.1s.2.2.2.4c0 .1 0 .2-.1.3s-.2.2-.4.2c-.5.1-1.1.1-1.6.1h-1.6c0 .2.1.4.1.6v1.5h1.5c.5 0 .9-.1 1.3-.2.2 0 .4 0 .5.1s.2.2.2.4-.1.4-.4.5c-.2.1-.5.2-.9.2s-.7.1-1.1.1h-1v3.2c-.4.1-.4.3-.5.4zm6.5-.7c.2.1.3.2.3.4 0 .1 0 .3-.1.4-.1.1-.2.2-.3.2-.1 0-.3 0-.5-.1-.1-.1-.2-.1-.2-.2-.1-.1-.2-.1-.3-.2l-.2-.2c0-.1 0-.1-.1-.3v-7.4c0-.2.1-.3.2-.4s.2-.1.3-.1c.1 0 .2 0 .3.1.1.1.2.2.2.4v7.1c.3.2.3.2.4.3 0-.1 0-.1 0 0zm6.7-.3c.1.1.1.3.1.4s0 .3-.1.4c-.1.1-.2.1-.4.1s-.4-.1-.5-.3-.3-.4-.4-.6c-.2.2-.5.5-.8.6-.3.2-.6.3-1 .3-.2 0-.5 0-.7-.1l-.6-.3c-.2-.1-.4-.3-.5-.5s-.3-.4-.3-.6c-.1-.2-.1-.5-.1-.8V156c0-.2.1-.3.2-.4.1-.1.2-.1.3-.1.1 0 .2 0 .3.1.1.1.2.2.2.4v2.4c0 .5.1.9.3 1.2.2.3.5.5.9.5.1 0 .3 0 .4-.1s.3-.1.4-.2l.3-.3.3-.3h.2c-.1-.4-.1-.9-.1-1.3v-.8c0-.3 0-.5.1-.7 0-.2.1-.4.2-.5s.2-.2.4-.2c.1 0 .3.1.4.2s.2.2.2.4v2.3c0 .2 0 .5.1.7 0 .2.1.4.2.6-.2.1-.1.3 0 .4zm.8-4c-.1-.1-.1-.2-.1-.3s.1-.2.2-.4c.1-.1.3-.2.5-.2h.7v-2.1c0-.2.1-.3.2-.4.1-.1.2-.1.3-.1.1 0 .2 0 .3.1s.2.2.2.4v2.1h1.3c.2 0 .3.1.4.2.1.1.1.2.1.3s0 .2-.1.3-.2.2-.4.2h-1.2v4.2c0 .2-.1.4-.2.5s-.2.2-.4.2c-.1 0-.2 0-.3-.1-.1-.1-.2-.2-.2-.4v-4.2h-.8c-.3-.1-.4-.2-.5-.3zm5.1 0c-.1-.1-.1-.2-.1-.3s.1-.2.2-.4c.1-.1.3-.2.5-.2h.7v-2.1c0-.2.1-.3.2-.4.1-.1.2-.1.3-.1.1 0 .2 0 .3.1s.2.2.2.4v2.1h1.3c.2 0 .3.1.4.2.1.1.1.2.1.3s0 .2-.1.3-.2.2-.4.2h-1.2v4.2c0 .2-.1.4-.2.5s-.2.2-.4.2c-.1 0-.2 0-.3-.1-.1-.1-.2-.2-.2-.4v-4.2h-.8c-.3-.1-.4-.2-.5-.3zm9 3.3c.2-.1.3-.1.5 0 .1.1.2.1.3.3.1.1.1.2 0 .4 0 .1-.1.3-.3.4-.3.2-.6.3-.9.5-.3.1-.7.2-1 .3s-.7.1-1 0-.7-.2-1-.4c-.4-.3-.7-.6-.8-1-.2-.4-.3-.9-.3-1.4s.1-.9.3-1.4c.2-.4.5-.8.9-1.1s.8-.5 1.3-.6 1-.2 1.4 0c.2.1.5.2.6.3s.4.4.5.6c.1.2.2.5.2.7s-.1.5-.2.7c-.2.2-.4.5-.6.6s-.6.3-.9.4c-.3.1-.7.2-1 .3s-.6.2-.9.2h-.3c.1.3.3.5.6.7s.6.3 1 .2c.3 0 .6-.1.9-.3.2 0 .4-.2.7-.4zm-2.6-2.8c-.3.2-.6.4-.7.7-.2.3-.2.6-.2 1 .1 0 .1-.1.2-.1.2 0 .3-.1.5-.1s.3-.1.5-.1c.1 0 .2-.1.4-.1.2-.1.4-.1.6-.2s.4-.2.5-.2.3-.2.3-.3c0-.3-.1-.5-.2-.6-.2-.1-.3-.2-.6-.2-.2 0-.5 0-.7.1s-.4.1-.6.1zm5-.2l-.3-.3c-.1-.1-.1-.2-.1-.3s0-.2.1-.4c.1-.1.2-.2.4-.2.1 0 .3 0 .5.1s.3.2.4.3c.3-.2.6-.4.8-.6.3-.2.6-.2.9-.2.1 0 .2 0 .4.1.2 0 .3.1.5.2s.3.2.4.3.2.3.2.5 0 .3-.1.4-.2.1-.4.1c-.1 0-.2 0-.3-.1-.1-.1-.2-.1-.2-.2s-.2-.1-.2-.2c-.1-.1-.2-.1-.3-.1-.1 0-.3 0-.4.1s-.3.2-.4.3-.3.2-.4.3l-.3.3v3.5c0 .2-.1.4-.2.5s-.2.2-.4.2c-.1 0-.2 0-.3-.1s-.2-.2-.2-.4V156.8l-.1-.2zm-67.8 16.2c-.1-.2-.2-.3-.3-.4-.1-.1-.2-.2-.4-.2-.4 0-.7.1-1.1.3-.3.2-.6.5-.9.7-.1.1-.3.1-.4.1-.2 0-.3-.1-.4-.2s-.1-.2-.1-.4c0-.1 0-.3.1-.4.2-.2.3-.4.5-.5s.4-.3.6-.5c.2-.1.4-.2.7-.3.2-.1.5-.1.7-.1.3 0 .5.1.8.2.2.1.5.3.6.5.2.2.3.5.4.8.1.3.2.6.2 1v.4c-.1.4-.2.7-.4 1s-.4.5-.7.7c-.2.2-.5.3-.8.5-.3.1-.5.3-.7.5l-.6.6c-.2.3-.3.6-.3 1h2.7c.1 0 .1-.1.1-.1s.1-.1.1-.2l.2-.2s.1 0 .2-.1h.2c.2 0 .3.1.4.2.1.1.1.2.1.4v.2c0 .1 0 .1-.1.1l-.6.6c-.2.1-.5.2-.8.2h-3.2c-.3 0-.5-.2-.6-.6 0-.3.1-.6.1-.9.1-.3.1-.5.2-.8s.2-.5.4-.7c.1-.2.3-.4.6-.6.2-.2.4-.3.7-.5.3-.1.5-.3.8-.5l.6-.6c.2-.2.3-.5.3-.8 0-.1 0-.2-.1-.3.2 0 .2-.1.2-.1zm4.8 5.7c0 .2-.1.4-.2.5-.2.1-.3.2-.6.2-.2 0-.4-.1-.6-.2-.2-.1-.2-.3-.2-.5s.1-.4.2-.5c.2-.2.4-.2.6-.2.2 0 .4.1.6.2s.2.3.2.5zm11.4-3.6c.3 0 .4.1.5.2.1.1.1.3.1.4 0 .2 0 .3-.1.4-.1.1-.2.2-.5.2v2.6c0 .3-.1.5-.2.6s-.3.1-.4.1-.3-.1-.4-.2c-.1-.1-.2-.3-.2-.5v-2.6h-3.6v2.6c0 .3-.1.5-.2.6-.1.1-.3.1-.4.1-.1 0-.3-.1-.4-.2s-.2-.3-.2-.5v-6.9c0-.2 0-.3.1-.4 0-.1.1-.2.2-.2.1-.1.2-.1.2-.1h.3c.1 0 .2 0 .3.1s.1.2.1.5v3.2H65v-3.1c0-.2 0-.3.1-.4 0-.1.1-.2.2-.2s.2-.1.2-.1h.3c.1 0 .2 0 .3.1.1.1.1.2.1.5l-.1 3.2zm1.5 1.1c.1-.3.2-.6.4-.8.1-.3.3-.5.5-.7s.4-.4.7-.6.5-.3.8-.3c.5-.1 1-.1 1.3.1.4.2.7.5.9.8.2.4.4.8.5 1.2.1.5.1.9-.1 1.3-.1.5-.4 1-.7 1.5-.3.5-.8.8-1.3 1-.4.1-.7.2-1.1.2-.3 0-.7-.2-.9-.3s-.5-.4-.7-.7-.3-.6-.4-1c0-.2-.1-.5 0-.7s0-.5.1-.7v-.3zm1 .3c0 .2-.1.4-.1.5v.5c0 .2.1.5.2.6.1.2.3.3.5.4.2.1.4.2.6.1.2 0 .4-.1.7-.2.3-.2.5-.4.7-.7s.3-.6.4-.9c.1-.3.1-.5 0-.8 0-.3-.1-.6-.3-.8-.1-.2-.3-.4-.6-.5s-.5-.1-.8 0c-.4.2-.6.4-.8.7-.2.4-.4.7-.5 1.1zm12.1-2.7c.1-.2.2-.2.3-.3.1 0 .2-.1.3 0 .1 0 .2.1.3.2s.1.2.1.4c-.3.9-.5 1.7-.8 2.6s-.6 1.7-1 2.5c-.1.2-.3.2-.4.3s-.3-.1-.5-.2c-.2-.5-.5-1-.7-1.5l-.6-1.5c0-.1-.1-.1-.1-.2s-.1-.2-.1-.2c-.1.3-.2.6-.3.8s-.2.5-.3.8l-.3.9c-.1.3-.2.6-.4.9-.2.2-.3.3-.5.3s-.3-.1-.5-.4c-.2-.5-.4-1-.5-1.5-.2-.5-.3-1-.5-1.5-.1-.3-.2-.7-.3-1s-.2-.7-.2-1c0-.2 0-.4.1-.5s.2-.2.3-.2c.1 0 .2 0 .4.1.1.1.2.2.3.4.1.6.2 1.2.4 1.8.2.6.3 1.2.6 1.8.1-.3.2-.6.3-.8s.2-.5.3-.8c.1-.3.2-.5.3-.8.1-.3.2-.6.4-1l.3-.3c.1-.1.2-.1.3-.1.1 0 .2.1.3.1s.2.2.2.3c.1.3.2.6.3.8.1.3.2.5.3.8.1.3.2.6.4.9.1.3.2.6.4.9.2-.6.5-1.2.7-1.9 0-.6.2-1.2.4-1.9zm6.8.7c-.1-.1-.1-.2-.1-.3s.1-.2.2-.4c.1-.1.3-.2.5-.2h.7v-2.1c0-.2.1-.3.2-.4.1-.1.2-.1.3-.1.1 0 .2 0 .3.1s.2.2.2.4v2.1h1.3c.2 0 .3.1.4.2.1.1.1.2.1.3s0 .2-.1.3-.2.2-.4.2h-1.2v4.2c0 .2-.1.4-.2.5s-.2.2-.4.2c-.1 0-.2 0-.3-.1-.1-.1-.2-.2-.2-.4v-4.2H88c-.2-.1-.4-.2-.5-.3zm4.4 1.7c.1-.3.2-.6.4-.8.1-.3.3-.5.5-.7s.4-.4.7-.6.5-.3.8-.3c.5-.1 1-.1 1.3.1.4.2.7.5.9.8.2.4.4.8.5 1.2.1.5.1.9-.1 1.3-.1.5-.4 1-.7 1.5-.3.5-.8.8-1.3 1-.4.1-.7.2-1.1.2-.3 0-.7-.2-.9-.3s-.5-.4-.7-.7-.3-.6-.4-1c0-.2-.1-.5 0-.7s0-.5.1-.7v-.3zm1 .3c0 .2-.1.4-.1.5v.5c0 .2.1.5.2.6.1.2.3.3.5.4.2.1.4.2.6.1.2 0 .4-.1.7-.2.3-.2.5-.4.7-.7s.3-.6.4-.9c.1-.3.1-.5 0-.8 0-.3-.1-.6-.3-.8-.1-.2-.3-.4-.6-.5s-.5-.1-.8 0c-.4.2-.6.4-.8.7-.2.4-.4.7-.5 1.1zm9.3 1.9c-.1-.2-.1-.3-.1-.4 0-.1.1-.2.2-.3s.2-.1.3-.1c.1 0 .3 0 .4.1.2.3.4.5.7.6l.9.3.3-.1.1-.1h.1l.1-.1.1-.1v-.4l-.1-.2-.1-.1-.1-.1c-.2-.1-.4-.2-.7-.3-.2-.1-.4-.1-.6-.2l-.6-.3c-.2-.1-.4-.3-.6-.5s-.3-.5-.3-.7c0-.3 0-.5.1-.8s.3-.5.5-.7.4-.3.7-.4c.4-.1.7-.1 1.1 0s.7.2 1.1.4c.2.1.3.2.3.4s0 .3-.1.4-.2.2-.3.2c-.1 0-.3 0-.5-.1s-.4-.2-.7-.2H103.5c-.1.1-.2.2-.2.3s-.1.2-.1.4c0 0 0 .1.1.2l.1.1.1.1c.2.1.4.2.7.3s.5.1.7.2.5.2.7.3.4.3.5.6c.2.5.2 1 .1 1.4s-.4.8-.9 1.1c-.1.1-.2.1-.4.2-.1 0-.3.1-.4.1-.5 0-.9-.1-1.4-.3-.2-.5-.6-.8-.9-1.2zm10-.6c.2-.1.3-.1.5 0 .1.1.2.1.3.3.1.1.1.2 0 .4 0 .1-.1.3-.3.4-.3.2-.6.3-.9.5-.3.1-.7.2-1 .3s-.7.1-1 0-.7-.2-1-.4c-.4-.3-.7-.6-.8-1-.2-.4-.3-.9-.3-1.4s.1-.9.3-1.4c.2-.4.5-.8.9-1.1s.8-.5 1.3-.6 1-.2 1.4 0c.2.1.5.2.6.3s.4.4.5.6c.1.2.2.5.2.7s-.1.5-.2.7c-.2.2-.4.5-.6.6s-.6.3-.9.4c-.3.1-.7.2-1 .3s-.6.2-.9.2h-.3c.1.3.3.5.6.7s.6.3 1 .2c.3 0 .6-.1.9-.3.1 0 .4-.2.7-.4zm-2.6-2.8c-.3.2-.6.4-.7.7-.2.3-.2.6-.2 1 .1 0 .1-.1.2-.1.2 0 .3-.1.5-.1s.3-.1.5-.1c.1 0 .2-.1.4-.1.2-.1.4-.1.6-.2s.4-.2.5-.2.3-.2.3-.3c0-.3-.1-.5-.2-.6-.2-.1-.3-.2-.6-.2-.2 0-.5 0-.7.1s-.4.1-.6.1zm4.3-.5c-.1-.1-.1-.2-.1-.3s.1-.2.2-.4c.1-.1.3-.2.5-.2h.7v-2.1c0-.2.1-.3.2-.4.1-.1.2-.1.3-.1.1 0 .2 0 .3.1s.2.2.2.4v2.1h1.3c.2 0 .3.1.4.2.1.1.1.2.1.3s0 .2-.1.3-.2.2-.4.2h-1.2v4.2c0 .2-.1.4-.2.5s-.2.2-.4.2c-.1 0-.2 0-.3-.1-.1-.1-.2-.2-.2-.4v-4.2h-.8c-.3-.1-.4-.2-.5-.3zm14.9 4c.1.1.1.3.1.4s0 .3-.1.4c-.1.1-.2.1-.4.1s-.4-.1-.5-.3c-.1-.2-.3-.4-.4-.6-.2.2-.5.5-.8.6-.3.2-.6.3-1 .3-.2 0-.5 0-.7-.1l-.6-.3c-.2-.1-.4-.3-.5-.5s-.3-.4-.3-.6c-.1-.2-.1-.5-.1-.8V174c0-.2.1-.3.2-.4.1-.1.2-.1.3-.1.1 0 .2 0 .3.1.1.1.2.2.2.4v2.4c0 .5.1.9.3 1.2.2.3.5.5.9.5.1 0 .3 0 .4-.1s.3-.1.4-.2l.3-.3.3-.3h.2c-.1-.4-.1-.9-.1-1.3v-.8c0-.3 0-.5.1-.7 0-.2.1-.4.2-.5s.2-.2.4-.2c.1 0 .3.1.4.2s.2.2.2.4v2.3c0 .2 0 .5.1.7 0 .2.1.4.2.6-.2.1-.1.3 0 .4zm1.6-4.9c.1-.1.2-.1.3-.1s.2 0 .3.1.2.2.2.4v.1c.2-.2.4-.3.7-.4s.5-.1.8-.1.7.1 1 .2c.3.2.6.4.8.6.2.3.4.6.5.9.1.3.2.7.2 1.1 0 .4-.1.8-.2 1.2s-.3.7-.6.9-.6.5-1 .6-.9.2-1.4.2h-.8v2.8c0 .2-.1.4-.2.5-.1.1-.2.2-.4.2-.1 0-.2 0-.3-.1s-.2-.2-.2-.4V174c.1-.3.2-.5.3-.6zm1 1.9c0 .1 0 .1 0 0l-.1.1v2.5c.1 0 .2 0 .4.1h.4c.3 0 .6 0 .8-.1s.5-.2.7-.3.3-.3.4-.6c.1-.2.2-.5.2-.8 0-.2 0-.4-.1-.6l-.3-.6c-.1-.2-.3-.3-.4-.4-.2-.1-.3-.2-.5-.2s-.3 0-.4.1c-.1.1-.3.1-.4.2l-.3.3c-.1.1-.3.2-.4.3zm10-1c-.1-.1-.1-.2-.1-.3s.1-.2.2-.4c.1-.1.3-.2.5-.2h.7v-2.1c0-.2.1-.3.2-.4.1-.1.2-.1.3-.1s.2 0 .3.1.2.2.2.4v2.1h1.3c.2 0 .3.1.4.2.1.1.1.2.1.3s0 .2-.1.3-.2.2-.4.2h-1.2v4.2c0 .2-.1.4-.2.5-.1.1-.2.2-.4.2-.1 0-.2 0-.3-.1s-.2-.2-.2-.4v-4.2h-.8c-.3-.1-.4-.2-.5-.3zm6.1 4.9c-.1.1-.2.2-.4.2-.1 0-.2 0-.4-.1-.1-.1-.2-.2-.2-.4v-7.4c0-.2.1-.3.2-.4.1-.1.2-.1.3-.1s.2 0 .3.1.2.2.2.4v3.1c.1-.1.3-.2.4-.3.2-.1.3-.2.5-.3s.3-.1.5-.2c.2 0 .3-.1.5 0 .2 0 .3.1.5.1.3.1.5.2.7.4s.3.4.5.6c.1.2.2.5.3.7.1.3.1.5.1.8v2.6c0 .2-.1.3-.2.4-.1.1-.2.2-.4.2-.1 0-.2 0-.4-.1s-.2-.2-.2-.4v-2.6c0-.3-.1-.6-.2-.9-.1-.3-.3-.5-.6-.6-.2-.1-.4-.1-.6 0-.2.1-.4.2-.5.3-.2.1-.3.3-.4.4-.1.2-.3.3-.4.5 0 0 0 .1-.1.1l-.1.1v2.6c.3 0 .2.1.1.2zm10-1.6c.2-.1.3-.1.5 0 .1.1.2.1.3.3.1.1.1.2 0 .4 0 .1-.1.3-.3.4-.3.2-.6.3-.9.5-.3.1-.7.2-1 .3s-.7.1-1 0-.7-.2-1-.4c-.4-.3-.7-.6-.8-1-.2-.4-.3-.9-.3-1.4s.1-.9.3-1.4c.2-.4.5-.8.9-1.1s.8-.5 1.3-.6 1-.2 1.4 0c.2.1.5.2.6.3s.4.4.5.6c.1.2.2.5.2.7s-.1.5-.2.7c-.2.2-.4.5-.6.6s-.6.3-.9.4c-.3.1-.7.2-1 .3s-.6.2-.9.2h-.3c.1.3.3.5.6.7s.6.3 1 .2c.3 0 .6-.1.9-.3.2 0 .4-.2.7-.4zm-2.6-2.8c-.3.2-.6.4-.7.7-.2.3-.2.6-.2 1 .1 0 .1-.1.2-.1.2 0 .3-.1.5-.1s.3-.1.5-.1c.1 0 .2-.1.4-.1.2-.1.4-.1.6-.2s.4-.2.5-.2.3-.2.3-.3c0-.3-.1-.5-.2-.6-.2-.1-.3-.2-.6-.2-.2 0-.5 0-.7.1s-.4.1-.6.1zm13.5 2.8c.2-.1.3-.1.5 0 .1.1.2.1.3.3.1.1.1.2 0 .4 0 .1-.1.3-.3.4-.3.2-.6.3-.9.5-.3.1-.7.2-1 .3s-.7.1-1 0-.7-.2-1-.4c-.4-.3-.7-.6-.8-1-.2-.4-.3-.9-.3-1.4s.1-.9.3-1.4c.2-.4.5-.8.9-1.1s.8-.5 1.3-.6 1-.2 1.4 0c.2.1.5.2.6.3s.4.4.5.6c.1.2.2.5.2.7s-.1.5-.2.7c-.2.2-.4.5-.6.6s-.6.3-.9.4c-.3.1-.7.2-1 .3s-.6.2-.9.2h-.3c.1.3.3.5.6.7s.6.3 1 .2c.3 0 .6-.1.9-.3.2 0 .4-.2.7-.4zm-2.6-2.8c-.3.2-.6.4-.7.7-.2.3-.2.6-.2 1 .1 0 .1-.1.2-.1.2 0 .3-.1.5-.1s.3-.1.5-.1c.1 0 .2-.1.4-.1.2-.1.4-.1.6-.2s.4-.2.5-.2.3-.2.3-.3c0-.3-.1-.5-.2-.6-.2-.1-.3-.2-.6-.2-.2 0-.5 0-.7.1s-.4.1-.6.1zm9 4.5c-.1.1-.2.2-.4.2-.1 0-.2 0-.3-.1s-.2-.2-.2-.4v-3.3c0-.3 0-.6-.1-.9-.1-.1-.1-.2-.2-.2h-.3c-.3 0-.6.1-.9.2-.3.1-.5.3-.7.6-.1.2-.2.3-.2.4-.1.1-.1.2-.1.4v2.8c0 .2-.1.4-.2.5-.1.1-.2.2-.4.2-.1 0-.2 0-.3-.1s-.2-.2-.2-.4v-4.8c0-.2.1-.3.2-.4.1-.1.2-.1.3-.1s.2 0 .3.1.2.2.2.4v.1c.3-.2.5-.4.9-.5.3-.1.6-.2 1-.2.3 0 .6.1.9.2s.5.4.7.7c.1.1.1.3.1.4v4.2c.1-.3 0-.1-.1 0zm5-5.7c.1-.2.2-.2.3-.3.1 0 .2-.1.3 0 .1 0 .2.1.3.2s.1.2.1.4c-.1.5-.3.9-.4 1.4-.2.5-.3.9-.5 1.4-.2.4-.3.8-.4 1.3-.1.4-.3.8-.5 1.2-.2.2-.3.3-.5.3s-.3-.2-.5-.4c-.3-.8-.6-1.7-1-2.5-.3-.8-.7-1.6-1.1-2.4-.1-.2-.1-.3-.1-.5 0-.1.1-.2.2-.3.1-.1.2-.1.4-.1.1 0 .3.1.4.3.3.6.6 1.2.9 1.9.3.6.5 1.3.8 1.9.1-.2.1-.3.2-.5s.1-.3.2-.5c.2-.5.3-.9.5-1.4.1-.4.3-.9.4-1.4zm2.2-2c0-.2.1-.4.2-.5s.3-.2.5-.2.3.1.5.2c.1.1.2.3.2.5s-.1.3-.2.5c-.1.1-.3.2-.5.2s-.3-.1-.5-.2c-.1-.2-.2-.4-.2-.5zm1.2 7.2c0 .2-.1.4-.2.5-.1.1-.2.2-.4.2-.1 0-.2 0-.3-.1s-.2-.2-.2-.4v-5c0-.2.1-.3.2-.4.1-.1.2-.1.3-.1s.2 0 .3.1.2.2.2.4v2.5c.1.6.1 1.4.1 2.3zm2-4.2l-.3-.3c-.1-.1-.1-.2-.1-.3s0-.2.1-.4c.1-.1.2-.2.4-.2.1 0 .3 0 .5.1s.3.2.4.3c.3-.2.6-.4.8-.6.3-.2.6-.2.9-.2.1 0 .2 0 .4.1.2 0 .3.1.5.2s.3.2.4.3c.1.1.2.3.2.5s0 .3-.1.4-.2.1-.4.1c-.1 0-.2 0-.3-.1s-.2-.1-.2-.2-.2-.1-.2-.2c-.1-.1-.2-.1-.3-.1s-.3 0-.4.1-.3.2-.4.3-.3.2-.4.3l-.3.3v3.5c0 .2-.1.4-.2.5-.1.1-.2.2-.4.2-.1 0-.2 0-.3-.1s-.2-.2-.2-.4V174.8l-.1-.2c.1 0 0 0 0 0zm4.6 1.4c.1-.3.2-.6.4-.8.1-.3.3-.5.5-.7s.4-.4.7-.6.5-.3.8-.3c.5-.1 1-.1 1.3.1.4.2.7.5.9.8.2.4.4.8.5 1.2.1.5.1.9-.1 1.3-.1.5-.4 1-.7 1.5s-.8.8-1.3 1c-.4.1-.7.2-1.1.2-.3 0-.7-.2-.9-.3s-.5-.4-.7-.7-.3-.6-.4-1c0-.2-.1-.5 0-.7s0-.5.1-.7v-.3zm1.1.3c0 .2-.1.4-.1.5v.5c0 .2.1.5.2.6.1.2.3.3.5.4.2.1.4.2.6.1.2 0 .4-.1.7-.2.3-.2.5-.4.7-.7s.3-.6.4-.9c.1-.3.1-.5 0-.8 0-.3-.1-.6-.3-.8-.1-.2-.3-.4-.6-.5s-.5-.1-.8 0c-.4.2-.6.4-.8.7-.3.4-.4.7-.5 1.1zm9.9 3c-.1.1-.2.2-.4.2-.1 0-.2 0-.3-.1s-.2-.2-.2-.4v-3.3c0-.3 0-.6-.1-.9-.1-.1-.1-.2-.2-.2h-.3c-.3 0-.6.1-.9.2-.3.1-.5.3-.7.6-.1.2-.2.3-.2.4-.1.1-.1.2-.1.4v2.8c0 .2-.1.4-.2.5-.1.1-.2.2-.4.2-.1 0-.2 0-.3-.1s-.2-.2-.2-.4v-4.8c0-.2.1-.3.2-.4.1-.1.2-.1.3-.1s.2 0 .3.1.2.2.2.4v.1c.3-.2.5-.4.9-.5.3-.1.6-.2 1-.2.3 0 .6.1.9.2s.5.4.7.7c.1.1.1.3.1.4v4.2c0-.3 0-.1-.1 0zm4.7-3.9v-.2c-.1-.3-.3-.5-.5-.6s-.5-.2-.8-.2l-.6.3-.3.4-.1.1s-.1 0-.1.1v3.6c0 .2-.1.4-.2.5s-.2.2-.4.2c-.1 0-.2 0-.3-.1s-.2-.2-.2-.4V174c0-.2.1-.3.2-.4.1-.1.2-.1.3-.1s.2 0 .3.1.2.2.2.4c.1-.1.3-.2.5-.3s.4-.1.6-.1c.3 0 .6.1 1 .2s.6.4.8.6l.3-.3c.1-.1.2-.2.4-.3.1-.1.3-.2.4-.2.1-.1.3-.1.4-.1.3 0 .5 0 .8.1s.5.2.7.4.4.4.5.6c.1.2.2.4.2.7v3.6c0 .2-.1.4-.2.5-.1.1-.2.2-.4.2-.1 0-.2 0-.3-.1s-.2-.2-.2-.4v-3.6c-.1-.3-.2-.5-.5-.6-.2-.1-.4-.2-.6-.2-.2 0-.4.1-.6.2-.2.1-.3.3-.5.6v3.6c0 .2-.1.4-.2.5-.1.1-.2.2-.4.2-.1 0-.2 0-.3-.1s-.2-.2-.2-.4l.3-3.9zm10.4 2.2c.2-.1.3-.1.5 0 .1.1.2.1.3.3.1.1.1.2 0 .4 0 .1-.1.3-.3.4-.3.2-.6.3-.9.5-.3.1-.7.2-1 .3s-.7.1-1 0-.7-.2-1-.4c-.4-.3-.7-.6-.8-1-.2-.4-.3-.9-.3-1.4s.1-.9.3-1.4c.2-.4.5-.8.9-1.1s.8-.5 1.3-.6 1-.2 1.4 0c.2.1.5.2.6.3s.4.4.5.6c.1.2.2.5.2.7s-.1.5-.2.7c-.2.2-.4.5-.6.6s-.6.3-.9.4c-.3.1-.7.2-1 .3s-.6.2-.9.2h-.3c.1.3.3.5.6.7s.6.3 1 .2c.3 0 .6-.1.9-.3.2 0 .5-.2.7-.4zm-2.6-2.8c-.3.2-.6.4-.7.7-.2.3-.2.6-.2 1 .1 0 .1-.1.2-.1.2 0 .3-.1.5-.1s.3-.1.5-.1c.1 0 .2-.1.4-.1.2-.1.4-.1.6-.2s.4-.2.5-.2.3-.2.3-.3c0-.3-.1-.5-.2-.6-.2-.1-.3-.2-.6-.2-.2 0-.5 0-.7.1s-.4.1-.6.1zm9 4.5c-.1.1-.2.2-.4.2-.1 0-.2 0-.3-.1s-.2-.2-.2-.4v-3.3c0-.3 0-.6-.1-.9-.1-.1-.1-.2-.2-.2h-.3c-.3 0-.6.1-.9.2-.3.1-.5.3-.7.6-.1.2-.2.3-.2.4-.1.1-.1.2-.1.4v2.8c0 .2-.1.4-.2.5-.1.1-.2.2-.4.2-.1 0-.2 0-.3-.1s-.2-.2-.2-.4v-4.8c0-.2.1-.3.2-.4.1-.1.2-.1.3-.1s.2 0 .3.1.2.2.2.4v.1c.3-.2.5-.4.9-.5.3-.1.6-.2 1-.2.3 0 .6.1.9.2s.5.4.7.7c.1.1.1.3.1.4v4.2c.1-.3 0-.1-.1 0zm1.5-5c-.1-.1-.1-.2-.1-.3s.1-.2.2-.4c.1-.1.3-.2.5-.2h.7v-2.1c0-.2.1-.3.2-.4.1-.1.2-.1.3-.1s.2 0 .3.1.2.2.2.4v2.1h1.3c.2 0 .3.1.4.2.1.1.1.2.1.3s0 .2-.1.3-.2.2-.4.2h-1.2v4.2c0 .2-.1.4-.2.5-.1.1-.2.2-.4.2-.1 0-.2 0-.3-.1s-.2-.2-.2-.4v-4.2h-.8c-.3-.1-.4-.2-.5-.3zM46.3 196.4c-.1-.1-.1-.3-.1-.4 0-.2 0-.3.1-.4s.2-.1.4-.1c.1 0 .2 0 .4.1.1.1.3.2.4.3.1.1.3.2.4.3.1.1.3.1.5.1s.5-.1.6-.2c.2-.1.3-.2.5-.4l.3-.6c.1-.2.1-.4.1-.6 0-.2-.1-.4-.2-.6s-.3-.3-.6-.4c-.2-.1-.5-.1-.7-.2-.2 0-.4-.1-.6-.1-.2 0-.3-.1-.4-.2-.1-.1-.1-.2-.1-.3s0-.2.1-.3.2-.2.4-.2.3 0 .5-.1c.2 0 .3-.1.5-.2s.3-.1.5-.3c.1-.1.2-.2.3-.4v-.3l-.1-.3c0-.1-.1-.2-.1-.2-.1-.1-.2-.1-.3-.1s-.2-.1-.3-.1h-.3c-.2 0-.4 0-.7.1-.2 0-.4.1-.5.2-.1.1-.2.1-.3.2-.1 0-.2.1-.3.1s-.3-.1-.4-.2-.2-.3-.2-.5c0-.1.1-.3.2-.4.1-.1.3-.2.4-.3.2-.1.4-.1.5-.1.2 0 .4-.1.5-.1h.5c.3 0 .6 0 .9.1.3.1.5.2.7.3.2.2.4.4.5.6.1.2.2.5.2.8v.3c0 .1 0 .3-.1.4-.1.1-.1.3-.3.5-.1.2-.3.3-.6.5.2.1.3.2.5.3s.3.3.4.4.2.3.3.5.1.4.1.6c0 .3-.1.7-.2 1l-.6.9c-.2.3-.5.5-.8.6-.3.2-.6.2-.9.2-.4 0-.8-.1-1.1-.3s-.6-.3-.9-.5zm7.7.1c0 .2-.1.4-.2.5-.2.1-.3.2-.6.2-.2 0-.4-.1-.6-.2-.2-.1-.2-.3-.2-.5s.1-.4.2-.5c.2-.2.4-.2.6-.2.2 0 .4.1.6.2s.2.3.2.5zm11.4-3.6c.3 0 .4.1.5.2.1.1.1.3.1.4 0 .2 0 .3-.1.4-.1.1-.2.2-.5.2v2.6c0 .3-.1.5-.2.6s-.3.1-.4.1-.3-.1-.4-.2c-.1-.1-.2-.3-.2-.5v-2.6h-3.6v2.6c0 .3-.1.5-.2.6-.1.1-.3.1-.4.1-.1 0-.3-.1-.4-.2s-.2-.3-.2-.5v-6.9c0-.2 0-.3.1-.4 0-.1.1-.2.2-.2.1-.1.2-.1.2-.1h.3c.1 0 .2 0 .3.1s.1.2.1.5v3.2h3.6v-3.1c0-.2 0-.3.1-.4 0-.1.1-.2.2-.2s.2-.1.2-.1h.3c.1 0 .2 0 .3.1.1.1.1.2.1.5v3.2zm1.5 1.1c.1-.3.2-.6.4-.8.1-.3.3-.5.5-.7s.4-.4.7-.6.5-.3.8-.3c.5-.1 1-.1 1.3.1.4.2.7.5.9.8.2.4.4.8.5 1.2.1.5.1.9-.1 1.3-.1.5-.4 1-.7 1.5-.3.5-.8.8-1.3 1-.4.1-.7.2-1.1.2-.3 0-.7-.2-.9-.3s-.5-.4-.7-.7-.3-.6-.4-1c0-.2-.1-.5 0-.7s0-.5.1-.7v-.3zm1 .3c0 .2-.1.4-.1.5v.5c0 .2.1.5.2.6.1.2.3.3.5.4.2.1.4.2.6.1.2 0 .4-.1.7-.2.3-.2.5-.4.7-.7s.3-.6.4-.9c.1-.3.1-.5 0-.8 0-.3-.1-.6-.3-.8-.1-.2-.3-.4-.6-.5s-.5-.1-.8 0c-.4.2-.6.4-.8.7-.2.4-.4.7-.5 1.1zm12.1-2.7c.1-.2.2-.2.3-.3.1 0 .2-.1.3 0 .1 0 .2.1.3.2s.1.2.1.4c-.3.9-.5 1.7-.8 2.6s-.6 1.7-1 2.5c-.1.2-.3.2-.4.3s-.3-.1-.5-.2c-.2-.5-.5-1-.7-1.5l-.6-1.5c0-.1-.1-.1-.1-.2s-.1-.2-.1-.2c-.1.3-.2.6-.3.8s-.2.5-.3.8l-.3.9c-.1.3-.2.6-.4.9-.2.2-.3.3-.5.3s-.3-.1-.5-.4c-.2-.5-.4-1-.5-1.5-.2-.5-.3-1-.5-1.5-.1-.3-.2-.7-.3-1s-.2-.7-.2-1c0-.2 0-.4.1-.5s.2-.2.3-.2c.1 0 .2 0 .4.1.1.1.2.2.3.4.1.6.2 1.2.4 1.8.2.6.3 1.2.6 1.8.1-.3.2-.6.3-.8s.2-.5.3-.8c.1-.3.2-.5.3-.8.1-.3.2-.6.4-1l.3-.3c.1-.1.2-.1.3-.1.1 0 .2.1.3.1s.2.2.2.3c.1.3.2.6.3.8.1.3.2.5.3.8.1.3.2.6.4.9.1.3.2.6.4.9.2-.6.5-1.2.7-1.9 0-.6.2-1.2.4-1.9zm6.8.7c-.1-.1-.1-.2-.1-.3s.1-.2.2-.4c.1-.1.3-.2.5-.2h.6v-2.1c0-.2.1-.3.2-.4.1-.1.2-.1.3-.1.1 0 .2 0 .3.1s.2.2.2.4v2.1h1.3c.2 0 .3.1.4.2.1.1.1.2.1.3s0 .2-.1.3-.2.2-.4.2h-1.2v4.2c0 .2-.1.4-.2.5s-.2.2-.4.2c-.1 0-.2 0-.3-.1-.1-.1-.2-.2-.2-.4v-4.2h-.8c-.1-.1-.3-.2-.4-.3zm4.4 1.7c.1-.3.2-.6.4-.8.1-.3.3-.5.5-.7s.4-.4.7-.6.5-.3.8-.3c.5-.1 1-.1 1.3.1.4.2.7.5.9.8.2.4.4.8.5 1.2.1.5.1.9-.1 1.3-.1.5-.4 1-.7 1.5-.3.5-.8.8-1.3 1-.4.1-.7.2-1.1.2-.3 0-.7-.2-.9-.3s-.5-.4-.7-.7-.3-.6-.4-1c0-.2-.1-.5 0-.7s0-.5.1-.7v-.3zm1 .3c0 .2-.1.4-.1.5v.5c0 .2.1.5.2.6.1.2.3.3.5.4.2.1.4.2.6.1.2 0 .4-.1.7-.2.3-.2.5-.4.7-.7s.3-.6.4-.9c.1-.3.1-.5 0-.8 0-.3-.1-.6-.3-.8-.1-.2-.3-.4-.6-.5s-.5-.1-.8 0c-.4.2-.6.4-.8.7-.2.4-.4.7-.5 1.1zm14.8 2c.1.1.1.3.1.4s0 .3-.1.4c-.1.1-.2.1-.4.1s-.4-.1-.5-.3-.3-.4-.4-.6c-.2.2-.5.5-.8.6-.3.2-.6.3-1 .3-.2 0-.5 0-.7-.1l-.6-.3c-.2-.1-.4-.3-.5-.5s-.3-.4-.3-.6c-.1-.2-.1-.5-.1-.8V192c0-.2.1-.3.2-.4.1-.1.2-.1.3-.1.1 0 .2 0 .3.1.1.1.2.2.2.4v2.4c0 .5.1.9.3 1.2.2.3.5.5.9.5.1 0 .3 0 .4-.1s.3-.1.4-.2l.3-.3.3-.3h.2c-.1-.4-.1-.9-.1-1.3v-.8c0-.3 0-.5.1-.7 0-.2.1-.4.2-.5s.2-.2.4-.2c.1 0 .3.1.4.2s.2.2.2.4v2.3c0 .2 0 .5.1.7 0 .2.1.4.2.6-.2.1-.1.3 0 .4zm1.2-.1c-.1-.2-.1-.3-.1-.4 0-.1.1-.2.2-.3s.2-.1.3-.1c.1 0 .3 0 .4.1.2.3.4.5.7.6l.9.3.3-.1.1-.1h.1l.1-.1.1-.1v-.4l-.1-.2-.1-.1-.1-.1c-.2-.1-.4-.2-.7-.3-.2-.1-.4-.1-.6-.2l-.6-.3c-.2-.1-.4-.3-.6-.5s-.3-.5-.3-.7c0-.3 0-.5.1-.8s.3-.5.5-.7.4-.3.7-.4c.4-.1.7-.1 1.1 0s.7.2 1.1.4c.2.1.3.2.3.4s0 .3-.1.4-.2.2-.3.2c-.1 0-.3 0-.5-.1s-.4-.2-.7-.2H109.5c-.1.1-.2.2-.2.3s-.1.2-.1.4c0 0 0 .1.1.2l.1.1.1.1c.2.1.4.2.7.3s.5.1.7.2.5.2.7.3.4.3.5.6c.2.5.2 1 .1 1.4s-.4.8-.9 1.1c-.1.1-.2.1-.4.2-.1 0-.3.1-.4.1-.5 0-.9-.1-1.4-.3-.3-.5-.6-.8-.9-1.2zm10-.6c.2-.1.3-.1.5 0 .1.1.2.1.3.3.1.1.1.2 0 .4 0 .1-.1.3-.3.4-.3.2-.6.3-.9.5-.3.1-.7.2-1 .3s-.7.1-1 0-.7-.2-1-.4c-.4-.3-.7-.6-.8-1-.2-.4-.3-.9-.3-1.4s.1-.9.3-1.4c.2-.4.5-.8.9-1.1s.8-.5 1.3-.6 1-.2 1.4 0c.2.1.5.2.6.3s.4.4.5.6c.1.2.2.5.2.7s-.1.5-.2.7c-.2.2-.4.5-.6.6s-.6.3-.9.4c-.3.1-.7.2-1 .3s-.6.2-.9.2h-.3c.1.3.3.5.6.7s.6.3 1 .2c.3 0 .6-.1.9-.3.1 0 .4-.2.7-.4zm-2.6-2.8c-.3.2-.6.4-.7.7-.2.3-.2.6-.2 1 .1 0 .1-.1.2-.1.2 0 .3-.1.5-.1s.3-.1.5-.1c.1 0 .2-.1.4-.1.2-.1.4-.1.6-.2s.4-.2.5-.2.3-.2.3-.3c0-.3-.1-.5-.2-.6-.2-.1-.3-.2-.6-.2-.2 0-.5 0-.7.1s-.5.1-.6.1zm9.9 4.5c-.1.1-.2.2-.4.2-.1 0-.2 0-.3-.1s-.2-.2-.2-.4v-3.3c-.2-.1-.3-.3-.3-.5 0-.1 0-.2.1-.3s.1-.2.3-.2V191c0-.2-.1-.4-.2-.6-.1-.1-.1-.2-.1-.3 0-.3.1-.4.4-.5s.7-.1 1-.1h2c.3 0 .7 0 1-.1.2 0 .4 0 .5.1s.2.2.2.4c0 .1 0 .2-.1.3s-.2.2-.4.2c-.5.1-1.1.1-1.6.1h-1.6c0 .2.1.4.1.6v1.5h1.5c.5 0 .9-.1 1.3-.2.2 0 .4 0 .5.1s.2.2.2.4-.1.4-.4.5c-.2.1-.5.2-.9.2s-.7.1-1.1.1h-1v3.2c-.3.1-.4.3-.5.4zm6.6-.7c.2.1.3.2.3.4 0 .1 0 .3-.1.4-.1.1-.2.2-.3.2s-.3 0-.5-.1c-.1-.1-.2-.1-.2-.2-.1-.1-.2-.1-.3-.2l-.2-.2c0-.1 0-.1-.1-.3v-7.4c0-.2.1-.3.2-.4s.2-.1.3-.1.2 0 .3.1.2.2.2.4v7.1c.2.2.3.2.4.3-.1-.1 0-.1 0 0zm6.7-.3c.1.1.1.3.1.4s0 .3-.1.4c-.1.1-.2.1-.4.1s-.4-.1-.5-.3-.3-.4-.4-.6c-.2.2-.5.5-.8.6-.3.2-.6.3-1 .3-.2 0-.5 0-.7-.1l-.6-.3c-.2-.1-.4-.3-.5-.5s-.3-.4-.3-.6c-.1-.2-.1-.5-.1-.8V192c0-.2.1-.3.2-.4.1-.1.2-.1.3-.1s.2 0 .3.1.2.2.2.4v2.4c0 .5.1.9.3 1.2s.5.5.9.5c.1 0 .3 0 .4-.1s.3-.1.4-.2l.3-.3.3-.3h.2c-.1-.4-.1-.9-.1-1.3v-.8c0-.3 0-.5.1-.7 0-.2.1-.4.2-.5.1-.1.2-.2.4-.2.1 0 .3.1.4.2s.2.2.2.4v2.3c0 .2 0 .5.1.7 0 .2.1.4.2.6-.2.1-.1.3 0 .4zm.7-4c-.1-.1-.1-.2-.1-.3s.1-.2.2-.4c.1-.1.3-.2.5-.2h.7v-2.1c0-.2.1-.3.2-.4.1-.1.2-.1.3-.1s.2 0 .3.1.2.2.2.4v2.1h1.3c.2 0 .3.1.4.2.1.1.1.2.1.3s0 .2-.1.3-.2.2-.4.2h-1.2v4.2c0 .2-.1.4-.2.5-.1.1-.2.2-.4.2-.1 0-.2 0-.3-.1s-.2-.2-.2-.4v-4.2h-.8c-.2-.1-.4-.2-.5-.3zm5.2 0c-.1-.1-.1-.2-.1-.3s.1-.2.2-.4c.1-.1.3-.2.5-.2h.7v-2.1c0-.2.1-.3.2-.4.1-.1.2-.1.3-.1s.2 0 .3.1.2.2.2.4v2.1h1.3c.2 0 .3.1.4.2.1.1.1.2.1.3s0 .2-.1.3-.2.2-.4.2H147v4.2c0 .2-.1.4-.2.5-.1.1-.2.2-.4.2-.1 0-.2 0-.3-.1s-.2-.2-.2-.4v-4.2h-.8c-.2-.1-.3-.2-.4-.3zm9 3.3c.2-.1.3-.1.5 0 .1.1.2.1.3.3.1.1.1.2 0 .4 0 .1-.1.3-.3.4-.3.2-.6.3-.9.5-.3.1-.7.2-1 .3s-.7.1-1 0-.7-.2-1-.4c-.4-.3-.7-.6-.8-1-.2-.4-.3-.9-.3-1.4s.1-.9.3-1.4c.2-.4.5-.8.9-1.1s.8-.5 1.3-.6 1-.2 1.4 0c.2.1.5.2.6.3s.4.4.5.6c.1.2.2.5.2.7s-.1.5-.2.7c-.2.2-.4.5-.6.6s-.6.3-.9.4c-.3.1-.7.2-1 .3s-.6.2-.9.2h-.3c.1.3.3.5.6.7s.6.3 1 .2c.3 0 .6-.1.9-.3.1 0 .4-.2.7-.4zm-2.6-2.8c-.3.2-.6.4-.7.7-.2.3-.2.6-.2 1 .1 0 .1-.1.2-.1.2 0 .3-.1.5-.1s.3-.1.5-.1c.1 0 .2-.1.4-.1.2-.1.4-.1.6-.2s.4-.2.5-.2.3-.2.3-.3c0-.3-.1-.5-.2-.6-.2-.1-.3-.2-.6-.2-.2 0-.5 0-.7.1s-.5.1-.6.1zm4.9-.2l-.3-.3c-.1-.1-.1-.2-.1-.3s0-.2.1-.4c.1-.1.2-.2.4-.2.1 0 .3 0 .5.1s.3.2.4.3c.3-.2.6-.4.8-.6.3-.2.6-.2.9-.2.1 0 .2 0 .4.1.2 0 .3.1.5.2s.3.2.4.3c.1.1.2.3.2.5s0 .3-.1.4-.2.1-.4.1c-.1 0-.2 0-.3-.1s-.2-.1-.2-.2-.2-.1-.2-.2c-.1-.1-.2-.1-.3-.1s-.3 0-.4.1-.3.2-.4.3-.3.2-.4.3l-.3.3v3.5c0 .2-.1.4-.2.5-.1.1-.2.2-.4.2-.1 0-.2 0-.3-.1s-.2-.2-.2-.4V192.8l-.1-.2c.1 0 0 0 0 0zM55.3 213.1c-.2 0-.3-.1-.4-.2-.1-.1-.1-.2-.1-.3s.1-.2.2-.4c.1-.1.3-.2.5-.2h3.6c.2 0 .3.1.4.2s.1.2.1.3 0 .2-.1.3-.2.2-.4.2h-1.8c-.8.1-1.4.1-2 .1zm10.5 1.3c-.1-.1-.1-.3-.1-.4 0-.2 0-.3.1-.4s.2-.1.4-.1c.1 0 .2 0 .4.1.1.1.3.2.4.3s.3.2.4.3.3.1.5.1.5-.1.6-.2c.2-.1.3-.2.5-.4l.3-.6c.1-.2.1-.4.1-.6 0-.2-.1-.4-.2-.6s-.3-.3-.6-.4c-.2-.1-.5-.1-.7-.2-.2 0-.4-.1-.6-.1s-.3-.1-.4-.2c-.1-.1-.1-.2-.1-.3s0-.2.1-.3.2-.2.4-.2.3 0 .5-.1c.2 0 .3-.1.5-.2s.3-.1.5-.3c.1-.1.2-.2.3-.4v-.3l-.1-.3c0-.1-.1-.2-.1-.2-.1-.1-.2-.1-.3-.1-.1 0-.2-.1-.3-.1H68c-.2 0-.4 0-.7.1-.2 0-.4.1-.5.2-.1.1-.2.1-.3.2-.1 0-.2.1-.3.1-.1 0-.3-.1-.4-.2s-.2-.3-.2-.5c0-.1.1-.3.2-.4.1-.1.3-.2.4-.3.2-.1.4-.1.5-.1.2 0 .4-.1.5-.1h.5c.3 0 .6 0 .9.1s.5.2.7.3c.2.2.4.4.5.6.1.2.2.5.2.8v.3c0 .1 0 .3-.1.4-.1.1-.1.3-.3.5-.1.2-.3.3-.6.5.2.1.3.2.5.3s.3.3.4.4.2.3.3.5.1.4.1.6c0 .3-.1.7-.2 1l-.6.9c-.2.3-.5.5-.8.6-.3.2-.6.2-.9.2-.4 0-.8-.1-1.1-.3s-.6-.3-.9-.5zm7.7.1c0 .2-.1.4-.2.5-.2.1-.3.2-.6.2-.2 0-.4-.1-.6-.2-.2-.1-.2-.3-.2-.5s.1-.4.2-.5c.2-.2.4-.2.6-.2s.4.1.6.2.2.3.2.5zm4.6-.1c.1.1.1.2.1.3s0 .2-.1.3-.2.2-.4.2h-2c-.2 0-.3-.1-.4-.2-.1-.1-.1-.2-.1-.4 0-.1.1-.2.2-.4.1-.1.3-.2.5-.2h.4v-5.5c-.1.1-.3.1-.4.1-.2 0-.3-.1-.4-.2s-.1-.2-.1-.4c0-.1 0-.2.1-.3 0-.1.1-.2.2-.2l.9-.6c.1 0 .2-.1.3-.1.3 0 .5.2.5.5v6.5h.6c-.1.4 0 .5.1.6zm11.9-3.5c.3 0 .4.1.5.2.1.1.1.3.1.4 0 .2 0 .3-.1.4-.1.1-.2.2-.5.2v2.6c0 .3-.1.5-.2.6s-.3.1-.4.1-.3-.1-.4-.2c-.1-.1-.2-.3-.2-.5v-2.6h-3.6v2.6c0 .3-.1.5-.2.6s-.3.1-.4.1-.3-.1-.4-.2-.2-.3-.2-.5v-6.9c0-.2 0-.3.1-.4 0-.1.1-.2.2-.2.1-.1.2-.1.2-.1h.3c.1 0 .2 0 .3.1.1.1.1.2.1.5v3.2h3.6v-3.1c0-.2 0-.3.1-.4 0-.1.1-.2.2-.2s.2-.1.2-.1h.3c.1 0 .2 0 .3.1.1.1.1.2.1.5v3.2zm1.4 1.1c.1-.3.2-.6.4-.8.1-.3.3-.5.5-.7s.4-.4.7-.6.5-.3.8-.3c.5-.1 1-.1 1.3.1.4.2.7.5.9.8.2.4.4.8.5 1.2.1.5.1.9-.1 1.3-.1.5-.4 1-.7 1.5-.3.5-.8.8-1.3 1-.4.1-.7.2-1.1.2-.3 0-.7-.2-.9-.3s-.5-.4-.7-.7-.3-.6-.4-1c0-.2-.1-.5 0-.7s0-.5.1-.7v-.3zm1.1.3c0 .2-.1.4-.1.5v.5c0 .2.1.5.2.6.1.2.3.3.5.4.2.1.4.2.6.1.2 0 .4-.1.7-.2.3-.2.5-.4.7-.7s.3-.6.4-.9c.1-.3.1-.5 0-.8 0-.3-.1-.6-.3-.8-.1-.2-.3-.4-.6-.5s-.5-.1-.8 0c-.4.2-.6.4-.8.7-.2.4-.4.7-.5 1.1zm12-2.7c.1-.2.2-.2.3-.3.1 0 .2-.1.3 0 .1 0 .2.1.3.2s.1.2.1.4c-.3.9-.5 1.7-.8 2.6s-.6 1.7-1 2.5c-.1.2-.3.2-.4.3s-.3-.1-.5-.2c-.2-.5-.5-1-.7-1.5l-.6-1.5c0-.1-.1-.1-.1-.2s-.1-.2-.1-.2c-.1.3-.2.6-.3.8s-.2.5-.3.8l-.3.9c-.1.3-.2.6-.4.9-.2.2-.3.3-.5.3s-.3-.1-.5-.4c-.2-.5-.4-1-.5-1.5-.2-.5-.3-1-.5-1.5-.1-.3-.2-.7-.3-1s-.2-.7-.2-1c0-.2 0-.4.1-.5s.2-.2.3-.2c.1 0 .2 0 .4.1.1.1.2.2.3.4.1.6.2 1.2.4 1.8.2.6.3 1.2.6 1.8.1-.3.2-.6.3-.8s.2-.5.3-.8c.1-.3.2-.5.3-.8.1-.3.2-.6.4-1l.3-.3c.1-.1.2-.1.3-.1.1 0 .2.1.3.1s.2.2.2.3c.1.3.2.6.3.8.1.3.2.5.3.8.1.3.2.6.4.9.1.3.2.6.4.9.2-.6.5-1.2.7-1.9 0-.6.2-1.2.4-1.9zm6.9.7c-.1-.1-.1-.2-.1-.3s.1-.2.2-.4c.1-.1.3-.2.5-.2h.7v-2.1c0-.2.1-.3.2-.4.1-.1.2-.1.3-.1.1 0 .2 0 .3.1s.2.2.2.4v2.1h1.3c.2 0 .3.1.4.2.1.1.1.2.1.3s0 .2-.1.3-.2.2-.4.2h-1.2v4.2c0 .2-.1.4-.2.5s-.2.2-.4.2c-.1 0-.2 0-.3-.1-.1-.1-.2-.2-.2-.4v-4.2h-.8c-.3-.1-.4-.2-.5-.3zm4.4 1.7c.1-.3.2-.6.4-.8.1-.3.3-.5.5-.7s.4-.4.7-.6.5-.3.8-.3c.5-.1 1-.1 1.3.1.4.2.7.5.9.8.2.4.4.8.5 1.2.1.5.1.9-.1 1.3-.1.5-.4 1-.7 1.5-.3.5-.8.8-1.3 1-.4.1-.7.2-1.1.2-.3 0-.7-.2-.9-.3s-.5-.4-.7-.7-.3-.6-.4-1c0-.2-.1-.5 0-.7s0-.5.1-.7v-.3zm1 .3c0 .2-.1.4-.1.5v.5c0 .2.1.5.2.6.1.2.3.3.5.4.2.1.4.2.6.1.2 0 .4-.1.7-.2.3-.2.5-.4.7-.7s.3-.6.4-.9c.1-.3.1-.5 0-.8 0-.3-.1-.6-.3-.8-.1-.2-.3-.4-.6-.5s-.5-.1-.8 0c-.4.2-.6.4-.8.7-.2.4-.4.7-.5 1.1zm13.1 1.5c.2-.1.3-.2.4-.2s.3.1.4.1c.1.1.1.2.1.4 0 .1 0 .3-.2.4-.3.3-.6.5-1 .7-.4.1-.8.2-1.2.1s-.7-.2-1.1-.5-.6-.6-.7-1c-.1-.2-.2-.5-.2-.8s-.1-.5 0-.8c0-.4.1-.9.3-1.3s.4-.8.7-1.1c.3-.3.6-.6 1-.7.4-.1.8-.1 1.3 0 .2.1.5.2.6.3.2.1.4.3.6.4.1.1.1.3.1.4 0 .1 0 .2-.1.3s-.2.1-.3.2c-.1 0-.3 0-.4-.1-.3-.3-.6-.5-.8-.5-.3-.1-.5 0-.8.1-.2.1-.4.3-.6.5-.2.2-.3.5-.4.8s-.1.6-.1.9.1.6.2.9c.1.2.2.4.4.6.2.1.4.2.6.2.2 0 .4 0 .6-.1.2.1.4 0 .6-.2zm2.7-3.2l-.3-.3c-.1-.1-.1-.2-.1-.3s0-.2.1-.4c.1-.1.2-.2.4-.2.1 0 .3 0 .5.1s.3.2.4.3c.3-.2.6-.4.8-.6.3-.2.6-.2.9-.2.1 0 .2 0 .4.1.2 0 .3.1.5.2s.3.2.4.3c.1.1.2.3.2.5s0 .3-.1.4-.2.1-.4.1c-.1 0-.2 0-.3-.1s-.2-.1-.2-.2-.2-.1-.2-.2c-.1-.1-.2-.1-.3-.1s-.3 0-.4.1-.3.2-.4.3-.3.2-.4.3l-.3.3v3.5c0 .2-.1.4-.2.5-.1.1-.2.2-.4.2-.1 0-.2 0-.3-.1s-.2-.2-.2-.4V210.8l-.1-.2zm9.2 3c.2-.1.3-.1.5 0 .1.1.2.1.3.3.1.1.1.2 0 .4 0 .1-.1.3-.3.4-.3.2-.6.3-.9.5-.3.1-.7.2-1 .3s-.7.1-1 0-.7-.2-1-.4c-.4-.3-.7-.6-.8-1-.2-.4-.3-.9-.3-1.4s.1-.9.3-1.4c.2-.4.5-.8.9-1.1s.8-.5 1.3-.6 1-.2 1.4 0c.2.1.5.2.6.3s.4.4.5.6c.1.2.2.5.2.7s-.1.5-.2.7c-.2.2-.4.5-.6.6s-.6.3-.9.4c-.3.1-.7.2-1 .3s-.6.2-.9.2h-.3c.1.3.3.5.6.7s.6.3 1 .2c.3 0 .6-.1.9-.3.2 0 .4-.2.7-.4zm-2.6-2.8c-.3.2-.6.4-.7.7-.2.3-.2.6-.2 1 .1 0 .1-.1.2-.1.2 0 .3-.1.5-.1s.3-.1.5-.1c.1 0 .2-.1.4-.1.2-.1.4-.1.6-.2s.4-.2.5-.2.3-.2.3-.3c0-.3-.1-.5-.2-.6-.2-.1-.3-.2-.6-.2-.2 0-.5 0-.7.1s-.4.1-.6.1zm9.7 3.8c0 .1.1.3 0 .4 0 .1-.1.2-.2.3s-.2.1-.3.1-.2 0-.4-.1c-.1-.1-.2-.2-.2-.3-.1-.1-.1-.2-.2-.3-.2.2-.4.3-.6.4s-.4.2-.6.2h-1c-.3 0-.7-.1-1-.3s-.5-.4-.6-.7-.2-.5-.3-.8v-.9c0-.3.1-.6.2-.9 0-.1.1-.2.2-.4.1-.1.1-.2.2-.4s.2-.3.3-.5.3-.3.4-.4c.1-.1.2-.2.3-.2.1-.1.2-.2.3-.2.1-.1.2-.1.4-.2s.3-.1.5-.1.4-.1.6-.1c.2 0 .4 0 .5.1.1 0 .2 0 .4.1.1.1.2.2.3.4v1.8c0 .6 0 1.2.1 1.8 0 .1 0 .2.1.3s.1.2.2.3.1.2.2.3c.1.2.2.3.2.3zm-1.7-.9s.1 0 0 0c0-.6-.1-1.1-.1-1.7v-1.6h-.3c-.1 0-.2 0-.3.1s-.2.1-.3.1-.1 0-.2.1c-.3.1-.5.3-.7.5s-.3.4-.5.7c-.1.2-.2.5-.3.8s-.1.5-.1.8c0 .1 0 .1.1.2 0 .1 0 .1.1.2l.1.1c0 .1.1.1.2.1s.2.1.2.1c.1 0 .2.1.2.1h.4c.1 0 .3 0 .4-.1.1-.1.3-.2.4-.3.4 0 .6-.1.7-.2zm2.4-3.4c-.1-.1-.1-.2-.1-.3s.1-.2.2-.4c.1-.1.3-.2.5-.2h.7v-2.1c0-.2.1-.3.2-.4.1-.1.2-.1.3-.1s.2 0 .3.1.2.2.2.4v2.1h1.3c.2 0 .3.1.4.2.1.1.1.2.1.3s0 .2-.1.3-.2.2-.4.2H152v4.2c0 .2-.1.4-.2.5-.1.1-.2.2-.4.2-.1 0-.2 0-.3-.1s-.2-.2-.2-.4v-4.2h-.9c-.2-.1-.3-.2-.4-.3zm9 3.3c.2-.1.3-.1.5 0 .1.1.2.1.3.3.1.1.1.2 0 .4 0 .1-.1.3-.3.4-.3.2-.6.3-.9.5-.3.1-.7.2-1 .3s-.7.1-1 0-.7-.2-1-.4c-.4-.3-.7-.6-.8-1-.2-.4-.3-.9-.3-1.4s.1-.9.3-1.4c.2-.4.5-.8.9-1.1s.8-.5 1.3-.6 1-.2 1.4 0c.2.1.5.2.6.3s.4.4.5.6c.1.2.2.5.2.7s-.1.5-.2.7c-.2.2-.4.5-.6.6s-.6.3-.9.4c-.3.1-.7.2-1 .3s-.6.2-.9.2h-.3c.1.3.3.5.6.7s.6.3 1 .2c.3 0 .6-.1.9-.3.2 0 .5-.2.7-.4zm-2.6-2.8c-.3.2-.6.4-.7.7-.2.3-.2.6-.2 1 .1 0 .1-.1.2-.1.2 0 .3-.1.5-.1s.3-.1.5-.1c.1 0 .2-.1.4-.1.2-.1.4-.1.6-.2s.4-.2.5-.2.3-.2.3-.3c0-.3-.1-.5-.2-.6-.2-.1-.3-.2-.6-.2-.2 0-.5 0-.7.1s-.4.1-.6.1zm14.3 3.8c0 .1.1.3 0 .4 0 .1-.1.2-.2.3s-.2.1-.3.1-.2 0-.4-.1c-.1-.1-.2-.2-.2-.3-.1-.1-.1-.2-.2-.3-.2.2-.4.3-.6.4s-.4.2-.6.2h-1c-.3 0-.7-.1-1-.3s-.5-.4-.6-.7-.2-.5-.3-.8v-.9c0-.3.1-.6.2-.9 0-.1.1-.2.2-.4.1-.1.1-.2.2-.4s.2-.3.3-.5.3-.3.4-.4c.1-.1.2-.2.3-.2.1-.1.2-.2.3-.2.1-.1.2-.1.4-.2s.3-.1.5-.1.4-.1.6-.1c.2 0 .4 0 .5.1.1 0 .2 0 .4.1.1.1.2.2.3.4v1.8c0 .6 0 1.2.1 1.8 0 .1 0 .2.1.3s.1.2.2.3.1.2.2.3c.1.2.2.3.2.3zm-1.7-.9s.1 0 0 0c0-.6-.1-1.1-.1-1.7v-1.6h-.3c-.1 0-.2 0-.3.1s-.2.1-.3.1-.1 0-.2.1c-.3.1-.5.3-.7.5s-.3.4-.5.7c-.1.2-.2.5-.3.8s-.1.5-.1.8c0 .1 0 .1.1.2 0 .1 0 .1.1.2l.1.1c0 .1.1.1.2.1s.2.1.2.1c.1 0 .2.1.2.1h.4c.1 0 .3 0 .4-.1.1-.1.3-.2.4-.3.4 0 .6-.1.7-.2zm12 1.6c-.1.1-.2.2-.4.2-.1 0-.2 0-.3-.1s-.2-.2-.2-.4v-3.3c0-.3 0-.6-.1-.9-.1-.1-.1-.2-.2-.2h-.3c-.3 0-.6.1-.9.2-.3.1-.5.3-.7.6-.1.2-.2.3-.2.4-.1.1-.1.2-.1.4v2.8c0 .2-.1.4-.2.5-.1.1-.2.2-.4.2-.1 0-.2 0-.3-.1s-.2-.2-.2-.4v-4.8c0-.2.1-.3.2-.4.1-.1.2-.1.3-.1s.2 0 .3.1.2.2.2.4v.1c.3-.2.5-.4.9-.5.3-.1.6-.2 1-.2.3 0 .6.1.9.2s.5.4.7.7c.1.1.1.3.1.4v4.2c.1-.3 0-.1-.1 0zm6.2-1.7c.2-.1.3-.1.5 0 .1.1.2.1.3.3.1.1.1.2 0 .4 0 .1-.1.3-.3.4-.3.2-.6.3-.9.5-.3.1-.7.2-1 .3s-.7.1-1 0-.7-.2-1-.4c-.4-.3-.7-.6-.8-1-.2-.4-.3-.9-.3-1.4s.1-.9.3-1.4c.2-.4.5-.8.9-1.1s.8-.5 1.3-.6 1-.2 1.4 0c.2.1.5.2.6.3s.4.4.5.6c.1.2.2.5.2.7s-.1.5-.2.7c-.2.2-.4.5-.6.6s-.6.3-.9.4c-.3.1-.7.2-1 .3s-.6.2-.9.2h-.3c.1.3.3.5.6.7s.6.3 1 .2c.3 0 .6-.1.9-.3.2 0 .5-.2.7-.4zm-2.5-2.8c-.3.2-.6.4-.7.7-.2.3-.2.6-.2 1 .1 0 .1-.1.2-.1.2 0 .3-.1.5-.1s.3-.1.5-.1c.1 0 .2-.1.4-.1.2-.1.4-.1.6-.2s.4-.2.5-.2.3-.2.3-.3c0-.3-.1-.5-.2-.6-.2-.1-.3-.2-.6-.2-.2 0-.5 0-.7.1s-.5.1-.6.1zm11.1-1.2c.1-.2.2-.2.3-.3.1 0 .2-.1.3 0 .1 0 .2.1.3.2s.1.2.1.4c-.3.9-.5 1.7-.8 2.6s-.6 1.7-1 2.5c-.1.2-.3.2-.4.3s-.3-.1-.5-.2c-.2-.5-.5-1-.7-1.5l-.6-1.5c0-.1-.1-.1-.1-.2s-.1-.2-.1-.2c-.1.3-.2.6-.3.8s-.2.5-.3.8l-.3.9c-.1.3-.2.6-.4.9-.2.2-.3.3-.5.3s-.3-.1-.5-.4c-.2-.5-.4-1-.5-1.5-.2-.5-.3-1-.5-1.5-.1-.3-.2-.7-.3-1s-.2-.7-.2-1c0-.2 0-.4.1-.5s.2-.2.3-.2.2 0 .4.1c.1.1.2.2.3.4.1.6.2 1.2.4 1.8s.3 1.2.6 1.8c.1-.3.2-.6.3-.8s.2-.5.3-.8.2-.5.3-.8.2-.6.4-1l.3-.3c.1-.1.2-.1.3-.1s.2.1.3.1.2.2.2.3c.1.3.2.6.3.8.1.3.2.5.3.8s.2.6.4.9c.1.3.2.6.4.9.2-.6.5-1.2.7-1.9 0-.6.2-1.2.4-1.9zm7.4 5.7c-.1.1-.2.2-.4.2-.1 0-.2 0-.3-.1s-.2-.2-.2-.4v-3.3c-.2-.1-.3-.3-.3-.5 0-.1 0-.2.1-.3s.1-.2.3-.2V209c0-.2-.1-.4-.2-.6-.1-.1-.1-.2-.1-.3 0-.3.1-.4.4-.5.3-.1.7-.1 1-.1h2c.3 0 .7 0 1-.1.2 0 .4 0 .5.1s.2.2.2.4c0 .1 0 .2-.1.3s-.2.2-.4.2c-.5.1-1.1.1-1.6.1h-1.6c0 .2.1.4.1.6v1.5h1.5c.5 0 .9-.1 1.3-.2.2 0 .4 0 .5.1s.2.2.2.4-.1.4-.4.5c-.2.1-.5.2-.9.2s-.7.1-1.1.1h-1v3.2c-.3.1-.4.3-.5.4zm6.6-.7c.2.1.3.2.3.4 0 .1 0 .3-.1.4-.1.1-.2.2-.3.2s-.3 0-.5-.1c-.1-.1-.2-.1-.2-.2-.1-.1-.2-.1-.3-.2l-.2-.2c0-.1 0-.1-.1-.3v-7.4c0-.2.1-.3.2-.4s.2-.1.3-.1.2 0 .3.1.2.2.2.4v7.1c.3.2.3.2.4.3-.1-.1 0-.1 0 0zm6.7-.3c.1.1.1.3.1.4s0 .3-.1.4c-.1.1-.2.1-.4.1s-.4-.1-.5-.3-.3-.4-.4-.6c-.2.2-.5.5-.8.6-.3.2-.6.3-1 .3-.2 0-.5 0-.7-.1l-.6-.3c-.2-.1-.4-.3-.5-.5s-.3-.4-.3-.6c-.1-.2-.1-.5-.1-.8V210c0-.2.1-.3.2-.4.1-.1.2-.1.3-.1s.2 0 .3.1.2.2.2.4v2.4c0 .5.1.9.3 1.2s.5.5.9.5c.1 0 .3 0 .4-.1s.3-.1.4-.2l.3-.3.3-.3h.2c-.1-.4-.1-.9-.1-1.3v-.8c0-.3 0-.5.1-.7 0-.2.1-.4.2-.5.1-.1.2-.2.4-.2.1 0 .3.1.4.2s.2.2.2.4v2.3c0 .2 0 .5.1.7 0 .2.1.4.2.6-.2.1-.1.3 0 .4zm.7-4c-.1-.1-.1-.2-.1-.3s.1-.2.2-.4c.1-.1.3-.2.5-.2h.7v-2.1c0-.2.1-.3.2-.4.1-.1.2-.1.3-.1s.2 0 .3.1.2.2.2.4v2.1h1.3c.2 0 .3.1.4.2.1.1.1.2.1.3s0 .2-.1.3-.2.2-.4.2h-1.2v4.2c0 .2-.1.4-.2.5-.1.1-.2.2-.4.2-.1 0-.2 0-.3-.1s-.2-.2-.2-.4v-4.2h-.8c-.2-.1-.4-.2-.5-.3zm5.2 0c-.1-.1-.1-.2-.1-.3s.1-.2.2-.4c.1-.1.3-.2.5-.2h.7v-2.1c0-.2.1-.3.2-.4.1-.1.2-.1.3-.1s.2 0 .3.1.2.2.2.4v2.1h1.3c.2 0 .3.1.4.2.1.1.1.2.1.3s0 .2-.1.3-.2.2-.4.2h-1.2v4.2c0 .2-.1.4-.2.5-.1.1-.2.2-.4.2-.1 0-.2 0-.3-.1s-.2-.2-.2-.4v-4.2h-.8c-.3-.1-.4-.2-.5-.3zm9 3.3c.2-.1.3-.1.5 0 .1.1.2.1.3.3.1.1.1.2 0 .4 0 .1-.1.3-.3.4-.3.2-.6.3-.9.5-.3.1-.7.2-1 .3s-.7.1-1 0-.7-.2-1-.4c-.4-.3-.7-.6-.8-1-.2-.4-.3-.9-.3-1.4s.1-.9.3-1.4c.2-.4.5-.8.9-1.1s.8-.5 1.3-.6 1-.2 1.4 0c.2.1.5.2.6.3s.4.4.5.6c.1.2.2.5.2.7s-.1.5-.2.7c-.2.2-.4.5-.6.6s-.6.3-.9.4c-.3.1-.7.2-1 .3s-.6.2-.9.2h-.3c.1.3.3.5.6.7s.6.3 1 .2c.3 0 .6-.1.9-.3.1 0 .4-.2.7-.4zm-2.6-2.8c-.3.2-.6.4-.7.7-.2.3-.2.6-.2 1 .1 0 .1-.1.2-.1.2 0 .3-.1.5-.1s.3-.1.5-.1c.1 0 .2-.1.4-.1.2-.1.4-.1.6-.2s.4-.2.5-.2.3-.2.3-.3c0-.3-.1-.5-.2-.6-.2-.1-.3-.2-.6-.2-.2 0-.5 0-.7.1s-.5.1-.6.1zm4.9-.2l-.3-.3c-.1-.1-.1-.2-.1-.3s0-.2.1-.4c.1-.1.2-.2.4-.2.1 0 .3 0 .5.1s.3.2.4.3c.3-.2.6-.4.8-.6.3-.2.6-.2.9-.2.1 0 .2 0 .4.1.2 0 .3.1.5.2s.3.2.4.3c.1.1.2.3.2.5s0 .3-.1.4-.2.1-.4.1c-.1 0-.2 0-.3-.1s-.2-.1-.2-.2-.2-.1-.2-.2c-.1-.1-.2-.1-.3-.1s-.3 0-.4.1-.3.2-.4.3-.3.2-.4.3l-.3.3v3.5c0 .2-.1.4-.2.5-.1.1-.2.2-.4.2-.1 0-.2 0-.3-.1s-.2-.2-.2-.4V210.8l-.1-.2c.1 0 .1 0 0 0zm9.9-3.2c.1-.1.2-.1.3-.1h.2c.3-.2.7-.3 1.1-.4.4-.1.7-.1 1.1-.1.2 0 .5 0 .7.1.2 0 .5.1.7.3.2.1.5.3.6.5s.4.4.5.6c.1.2.2.5.3.7.1.3.1.5.1.8 0 .5-.1 1-.4 1.4-.3.5-.6.8-1.1 1.1s-.9.4-1.5.5h-1.2c-.2 0-.4 0-.6-.1v2.2c0 .2-.1.4-.2.5-.1.1-.2.2-.4.2-.1 0-.2 0-.3-.1s-.2-.2-.2-.4v-2.6h-.1l-.3-.3c-.1-.1-.1-.2-.1-.3s0-.2.1-.3.2-.2.3-.2v-3.6c.2-.1.3-.3.4-.4zm3.5.7c-.3-.1-.6-.2-.9-.2-.3 0-.6 0-.9.1s-.6.2-.8.3v3.3c.2 0 .4.1.6.1h1.2c.3 0 .5-.1.8-.2.3-.1.5-.2.7-.4s.3-.4.4-.6c.1-.2.1-.5.1-.7 0-.3-.1-.7-.2-.9-.4-.4-.6-.6-1-.8zm3.2 2.5l-.3-.3c-.1-.1-.1-.2-.1-.3s0-.2.1-.4c.1-.1.2-.2.4-.2.1 0 .3 0 .5.1s.3.2.4.3c.3-.2.6-.4.8-.6.3-.2.6-.2.9-.2.1 0 .2 0 .4.1.2 0 .3.1.5.2s.3.2.4.3c.1.1.2.3.2.5s0 .3-.1.4-.2.1-.4.1c-.1 0-.2 0-.3-.1s-.2-.1-.2-.2-.2-.1-.2-.2c-.1-.1-.2-.1-.3-.1s-.3 0-.4.1-.3.2-.4.3-.3.2-.4.3l-.3.3v3.5c0 .2-.1.4-.2.5-.1.1-.2.2-.4.2-.1 0-.2 0-.3-.1s-.2-.2-.2-.4V210.8l-.1-.2c.1 0 .1 0 0 0zm4.7 1.4c.1-.3.2-.6.4-.8.1-.3.3-.5.5-.7s.4-.4.7-.6.5-.3.8-.3c.5-.1 1-.1 1.3.1.4.2.7.5.9.8.2.4.4.8.5 1.2.1.5.1.9-.1 1.3-.1.5-.4 1-.7 1.5-.3.5-.8.8-1.3 1-.4.1-.7.2-1.1.2-.3 0-.7-.2-.9-.3s-.5-.4-.7-.7-.3-.6-.4-1c0-.2-.1-.5 0-.7s0-.5.1-.7v-.3zm1 .3c0 .2-.1.4-.1.5v.5c0 .2.1.5.2.6.1.2.3.3.5.4.2.1.4.2.6.1.2 0 .4-.1.7-.2.3-.2.5-.4.7-.7s.3-.6.4-.9c.1-.3.1-.5 0-.8 0-.3-.1-.6-.3-.8-.1-.2-.3-.4-.6-.5s-.5-.1-.8 0c-.4.2-.6.4-.8.7-.2.4-.4.7-.5 1.1zm3.9 3.9c-.1-.1-.1-.2-.1-.3 0-.2 0-.3.1-.4s.2-.1.4-.1c.1 0 .3 0 .4.1l.2.2c0 .1.1.1.1.1s.1.1.2.1.1.1.2.1h.1c.2-.1.4-.2.5-.4s.1-.4.1-.6v-5.4c0-.2.1-.3.2-.4.1-.1.2-.1.3-.1.1 0 .2 0 .3.1.1.1.2.2.2.4v5.4c0 .3-.1.6-.2.8s-.1.4-.3.5l-.3.3c-.1.1-.2.2-.3.2-.2.2-.5.2-.8.2s-.6-.1-.9-.3c.1 0-.2-.2-.4-.5zm2.2-8.7c0-.2.1-.4.2-.5s.3-.2.5-.2.3.1.5.2c.1.1.2.3.2.5s-.1.3-.2.5c-.1.1-.3.2-.5.2s-.3-.1-.5-.2-.2-.3-.2-.5zm7.4 6.1c.2-.1.3-.1.5 0 .1.1.2.1.3.3.1.1.1.2 0 .4 0 .1-.1.3-.3.4-.3.2-.6.3-.9.5-.3.1-.7.2-1 .3s-.7.1-1 0-.7-.2-1-.4c-.4-.3-.7-.6-.8-1-.2-.4-.3-.9-.3-1.4s.1-.9.3-1.4c.2-.4.5-.8.9-1.1s.8-.5 1.3-.6 1-.2 1.4 0c.2.1.5.2.6.3s.4.4.5.6c.1.2.2.5.2.7s-.1.5-.2.7c-.2.2-.4.5-.6.6s-.6.3-.9.4c-.3.1-.7.2-1 .3s-.6.2-.9.2h-.3c.1.3.3.5.6.7s.6.3 1 .2c.3 0 .6-.1.9-.3.2 0 .5-.2.7-.4zm-2.5-2.8c-.3.2-.6.4-.7.7-.2.3-.2.6-.2 1 .1 0 .1-.1.2-.1.2 0 .3-.1.5-.1s.3-.1.5-.1c.1 0 .2-.1.4-.1.2-.1.4-.1.6-.2s.4-.2.5-.2.3-.2.3-.3c0-.3-.1-.5-.2-.6-.2-.1-.3-.2-.6-.2-.2 0-.5 0-.7.1s-.5.1-.6.1zm8 3c.2-.1.3-.2.4-.2s.3.1.4.1c.1.1.1.2.1.4 0 .1 0 .3-.2.4-.3.3-.6.5-1 .7-.4.1-.8.2-1.2.1s-.7-.2-1.1-.5-.6-.6-.7-1c-.1-.2-.2-.5-.2-.8s-.1-.5 0-.8c0-.4.1-.9.3-1.3s.4-.8.7-1.1c.3-.3.6-.6 1-.7.4-.1.8-.1 1.3 0 .2.1.5.2.6.3.2.1.4.3.6.4.1.1.1.3.1.4 0 .1 0 .2-.1.3s-.2.1-.3.2c-.1 0-.3 0-.4-.1-.3-.3-.6-.5-.8-.5-.3-.1-.5 0-.8.1-.2.1-.4.3-.6.5s-.3.5-.4.8-.1.6-.1.9.1.6.2.9c.1.2.2.4.4.6.2.1.4.2.6.2s.4 0 .6-.1c.3.1.5 0 .6-.2zm2.4-3.5c-.1-.1-.1-.2-.1-.3s.1-.2.2-.4c.1-.1.3-.2.5-.2h.7v-2.1c0-.2.1-.3.2-.4.1-.1.2-.1.3-.1.1 0 .2 0 .3.1s.2.2.2.4v2.1h1.3c.2 0 .3.1.4.2.1.1.1.2.1.3s0 .2-.1.3-.2.2-.4.2h-1.2v4.2c0 .2-.1.4-.2.5s-.2.2-.4.2c-.1 0-.2 0-.3-.1-.1-.1-.2-.2-.2-.4v-4.2h-.8c-.2-.1-.4-.2-.5-.3zM55.3 231.1c-.2 0-.3-.1-.4-.2-.1-.1-.1-.2-.1-.3s.1-.2.2-.4c.1-.1.3-.2.5-.2h3.6c.2 0 .3.1.4.2s.1.2.1.3 0 .2-.1.3-.2.2-.4.2h-1.8c-.8.1-1.4.1-2 .1zm10.5 1.3c-.1-.1-.1-.3-.1-.4 0-.2 0-.3.1-.4s.2-.1.4-.1c.1 0 .2 0 .4.1.1.1.3.2.4.3s.3.2.4.3.3.1.5.1.5-.1.6-.2c.2-.1.3-.2.5-.4l.3-.6c.1-.2.1-.4.1-.6 0-.2-.1-.4-.2-.6s-.3-.3-.6-.4c-.2-.1-.5-.1-.7-.2-.2 0-.4-.1-.6-.1s-.3-.1-.4-.2c-.1-.1-.1-.2-.1-.3s0-.2.1-.3.2-.2.4-.2.3 0 .5-.1c.2 0 .3-.1.5-.2s.3-.1.5-.3c.1-.1.2-.2.3-.4v-.3l-.1-.3c0-.1-.1-.2-.1-.2-.1-.1-.2-.1-.3-.1-.1 0-.2-.1-.3-.1H68c-.2 0-.4 0-.7.1-.2 0-.4.1-.5.2-.1.1-.2.1-.3.2-.1 0-.2.1-.3.1-.1 0-.3-.1-.4-.2s-.2-.3-.2-.5c0-.1.1-.3.2-.4.1-.1.3-.2.4-.3.2-.1.4-.1.5-.1.2 0 .4-.1.5-.1h.5c.3 0 .6 0 .9.1s.5.2.7.3c.2.2.4.4.5.6.1.2.2.5.2.8v.3c0 .1 0 .3-.1.4-.1.1-.1.3-.3.5-.1.2-.3.3-.6.5.2.1.3.2.5.3s.3.3.4.4.2.3.3.5.1.4.1.6c0 .3-.1.7-.2 1l-.6.9c-.2.3-.5.5-.8.6-.3.2-.6.2-.9.2-.4 0-.8-.1-1.1-.3s-.6-.3-.9-.5zm7.7.1c0 .2-.1.4-.2.5-.2.1-.3.2-.6.2-.2 0-.4-.1-.6-.2-.2-.1-.2-.3-.2-.5s.1-.4.2-.5c.2-.2.4-.2.6-.2s.4.1.6.2.2.3.2.5zm5.4-5.7c-.1-.2-.2-.3-.3-.4-.1-.1-.2-.2-.4-.2-.4 0-.7.1-1.1.3-.3.2-.6.5-.9.7-.1.1-.3.1-.4.1-.2 0-.3-.1-.4-.2s-.1-.2-.1-.4c0-.1 0-.3.1-.4.2-.2.3-.4.5-.5s.4-.3.6-.5c.2-.1.4-.2.7-.3.2-.1.5-.1.7-.1.3 0 .5.1.8.2.2.1.5.3.6.5.2.2.3.5.4.8s.2.6.2 1v.4c-.1.4-.2.7-.4 1-.2.3-.4.5-.7.7-.2.2-.5.3-.8.5-.3.1-.5.3-.7.5l-.6.6c-.2.3-.3.6-.3 1h2.7c.1 0 .1-.1.1-.1s.1-.1.1-.2l.2-.2s.1 0 .2-.1h.2c.2 0 .3.1.4.2.1.1.1.2.1.4v.2c0 .1 0 .1-.1.1l-.6.6c-.2.1-.5.2-.8.2H76c-.3 0-.5-.2-.6-.6 0-.3.1-.6.1-.9.1-.3.1-.5.2-.8s.2-.5.4-.7c.1-.2.3-.4.6-.6.2-.2.4-.3.7-.5.3-.1.5-.3.8-.5l.6-.6c.2-.2.3-.5.3-.8 0-.1 0-.2-.2-.4 0 .1 0 0 0 0zm13.1 2.1c.3 0 .4.1.5.2.1.1.1.3.1.4 0 .2 0 .3-.1.4-.1.1-.2.2-.5.2v2.6c0 .3-.1.5-.2.6s-.3.1-.4.1-.3-.1-.4-.2c-.1-.1-.2-.3-.2-.5v-2.6h-3.6v2.6c0 .3-.1.5-.2.6s-.3.1-.4.1-.3-.1-.4-.2-.2-.3-.2-.5v-6.9c0-.2 0-.3.1-.4 0-.1.1-.2.2-.2.1-.1.2-.1.2-.1h.3c.1 0 .2 0 .3.1.1.1.1.2.1.5v3.2h3.6v-3.1c0-.2 0-.3.1-.4 0-.1.1-.2.2-.2s.2-.1.2-.1h.3c.1 0 .2 0 .3.1.1.1.1.2.1.5v3.2zm1.5 1.1c.1-.3.2-.6.4-.8.1-.3.3-.5.5-.7s.4-.4.7-.6.5-.3.8-.3c.5-.1 1-.1 1.3.1.4.2.7.5.9.8.2.4.4.8.5 1.2.1.5.1.9-.1 1.3-.1.5-.4 1-.7 1.5-.3.5-.8.8-1.3 1-.4.1-.7.2-1.1.2-.3 0-.7-.2-.9-.3s-.5-.4-.7-.7-.3-.6-.4-1c0-.2-.1-.5 0-.7s0-.5.1-.7v-.3zm1 .3c0 .2-.1.4-.1.5v.5c0 .2.1.5.2.6.1.2.3.3.5.4.2.1.4.2.6.1.2 0 .4-.1.7-.2.3-.2.5-.4.7-.7s.3-.6.4-.9c.1-.3.1-.5 0-.8 0-.3-.1-.6-.3-.8-.1-.2-.3-.4-.6-.5s-.5-.1-.8 0c-.4.2-.6.4-.8.7-.2.4-.4.7-.5 1.1zm12.1-2.7c.1-.2.2-.2.3-.3.1 0 .2-.1.3 0 .1 0 .2.1.3.2s.1.2.1.4c-.3.9-.5 1.7-.8 2.6s-.6 1.7-1 2.5c-.1.2-.3.2-.4.3s-.3-.1-.5-.2c-.2-.5-.5-1-.7-1.5l-.6-1.5c0-.1-.1-.1-.1-.2s-.1-.2-.1-.2c-.1.3-.2.6-.3.8s-.2.5-.3.8l-.3.9c-.1.3-.2.6-.4.9-.2.2-.3.3-.5.3s-.3-.1-.5-.4c-.2-.5-.4-1-.5-1.5-.2-.5-.3-1-.5-1.5-.1-.3-.2-.7-.3-1s-.2-.7-.2-1c0-.2 0-.4.1-.5s.2-.2.3-.2c.1 0 .2 0 .4.1.1.1.2.2.3.4.1.6.2 1.2.4 1.8.2.6.3 1.2.6 1.8.1-.3.2-.6.3-.8s.2-.5.3-.8c.1-.3.2-.5.3-.8.1-.3.2-.6.4-1l.3-.3c.1-.1.2-.1.3-.1.1 0 .2.1.3.1s.2.2.2.3c.1.3.2.6.3.8.1.3.2.5.3.8.1.3.2.6.4.9.1.3.2.6.4.9.2-.6.5-1.2.7-1.9 0-.6.2-1.2.4-1.9zm6.8.7c-.1-.1-.1-.2-.1-.3s.1-.2.2-.4c.1-.1.3-.2.5-.2h.7v-2.1c0-.2.1-.3.2-.4.1-.1.2-.1.3-.1.1 0 .2 0 .3.1s.2.2.2.4v2.1h1.3c.2 0 .3.1.4.2.1.1.1.2.1.3s0 .2-.1.3-.2.2-.4.2h-1.2v4.2c0 .2-.1.4-.2.5s-.2.2-.4.2c-.1 0-.2 0-.3-.1-.1-.1-.2-.2-.2-.4v-4.2h-.8c-.3-.1-.4-.2-.5-.3zm4.4 1.7c.1-.3.2-.6.4-.8.1-.3.3-.5.5-.7s.4-.4.7-.6.5-.3.8-.3c.5-.1 1-.1 1.3.1.4.2.7.5.9.8.2.4.4.8.5 1.2.1.5.1.9-.1 1.3-.1.5-.4 1-.7 1.5-.3.5-.8.8-1.3 1-.4.1-.7.2-1.1.2-.3 0-.7-.2-.9-.3s-.5-.4-.7-.7-.3-.6-.4-1c0-.2-.1-.5 0-.7s0-.5.1-.7v-.3zm1 .3c0 .2-.1.4-.1.5v.5c0 .2.1.5.2.6.1.2.3.3.5.4.2.1.4.2.6.1.2 0 .4-.1.7-.2.3-.2.5-.4.7-.7s.3-.6.4-.9c.1-.3.1-.5 0-.8 0-.3-.1-.6-.3-.8-.1-.2-.3-.4-.6-.5s-.5-.1-.8 0c-.4.2-.6.4-.8.7-.2.4-.4.7-.5 1.1zm14.9 2.3c0 .1.1.3 0 .4 0 .1-.1.2-.2.3s-.2.1-.3.1-.2 0-.4-.1c-.1-.1-.2-.2-.2-.3-.1-.1-.1-.2-.2-.3-.2.2-.4.3-.6.4s-.4.2-.6.2h-1c-.3 0-.7-.1-1-.3s-.5-.4-.6-.7-.2-.5-.3-.8v-.9c0-.3.1-.6.2-.9 0-.1.1-.2.2-.4.1-.1.1-.2.2-.4s.2-.3.3-.5.3-.3.4-.4c.1-.1.2-.2.3-.2.1-.1.2-.2.3-.2.1-.1.2-.1.4-.2s.3-.1.5-.1.4-.1.6-.1c.2 0 .4 0 .5.1.1 0 .2 0 .4.1.1.1.2.2.3.4v1.8c0 .6 0 1.2.1 1.8 0 .1 0 .2.1.3s.1.2.2.3.1.2.2.3c.2.2.2.3.2.3zm-1.7-.9s.1 0 0 0c0-.6-.1-1.1-.1-1.7v-1.6h-.3c-.1 0-.2 0-.3.1s-.2.1-.3.1-.1 0-.2.1c-.3.1-.5.3-.7.5s-.3.4-.5.7c-.1.2-.2.5-.3.8s-.1.5-.1.8c0 .1 0 .1.1.2 0 .1 0 .1.1.2l.1.1c0 .1.1.1.2.1s.2.1.2.1c.1 0 .2.1.2.1h.4c.1 0 .3 0 .4-.1.1-.1.3-.2.4-.3.4 0 .6-.1.7-.2zm8 .6c.1.2.2.3.1.5 0 .1-.1.3-.2.3s-.2.1-.4.1c-.1 0-.3-.1-.4-.2l-.1-.1-.1-.1c-.3.2-.6.4-.9.5s-.7.2-1.1.2-.7-.1-1-.2c-.3-.1-.6-.4-.8-.7-.2-.2-.3-.5-.4-.8-.1-.3-.1-.6-.1-.9 0-.3 0-.6.1-.9s.2-.6.3-.8.3-.4.5-.6c.2-.2.4-.3.6-.5.2-.1.4-.2.7-.3s.5-.1.7-.1h.6c.2 0 .4 0 .6.1v-2.5c0-.2.1-.3.2-.4s.2-.1.3-.1.2 0 .3.1.2.2.2.4v6.9c.1-.1.2 0 .3.1-.1-.1-.1-.1 0 0zm-1.2-1V228.9h-.1s-.1 0-.1-.1l-.1-.1c-.3-.1-.5-.1-.8-.1s-.6.1-.8.2c-.3.1-.5.2-.7.4s-.3.4-.4.7c-.1.3-.1.5-.1.7s0 .4.1.7c0 .1.1.1.1.2s.1.1.1.2l.3.3c.1 0 .2.1.3.1.4 0 .7 0 1-.1s.6-.2.9-.5l.1-.1.2-.1v-.1l.1-.1-.1.2zm7.6 1c.1.2.2.3.1.5 0 .1-.1.3-.2.3s-.2.1-.4.1c-.1 0-.3-.1-.4-.2l-.1-.1-.1-.1c-.3.2-.6.4-.9.5s-.7.2-1.1.2-.7-.1-1-.2c-.3-.1-.6-.4-.8-.7-.2-.2-.3-.5-.4-.8-.1-.3-.1-.6-.1-.9 0-.3 0-.6.1-.9s.2-.6.3-.8.3-.4.5-.6c.2-.2.4-.3.6-.5.2-.1.4-.2.7-.3s.5-.1.7-.1h.6c.2 0 .4 0 .6.1v-2.5c0-.2.1-.3.2-.4s.2-.1.3-.1.2 0 .3.1.2.2.2.4v6.9c.2-.1.2 0 .3.1 0-.1 0-.1 0 0zm-1.2-1V228.9h-.1s-.1 0-.1-.1l-.1-.1c-.3-.1-.5-.1-.8-.1s-.6.1-.8.2c-.3.1-.5.2-.7.4s-.3.4-.4.7c-.1.3-.1.5-.1.7s0 .4.1.7c0 .1.1.1.1.2s.1.1.1.2l.3.3c.1 0 .2.1.3.1.4 0 .7 0 1-.1s.6-.2.9-.5l.1-.1.2-.1v-.1l.1-.1-.1.2zm8.2 2c-.1.1-.2.2-.4.2-.1 0-.2 0-.3-.1s-.2-.2-.2-.4v-3.3c-.2-.1-.3-.3-.3-.5 0-.1 0-.2.1-.3s.1-.2.3-.2V227c0-.2-.1-.4-.2-.6-.1-.1-.1-.2-.1-.3 0-.3.1-.4.4-.5.3-.1.7-.1 1-.1h2c.3 0 .7 0 1-.1.2 0 .4 0 .5.1s.2.2.2.4c0 .1 0 .2-.1.3s-.2.2-.4.2c-.5.1-1.1.1-1.6.1h-1.6c0 .2.1.4.1.6v1.5h1.5c.5 0 .9-.1 1.3-.2.2 0 .4 0 .5.1s.2.2.2.4-.1.4-.4.5c-.2.1-.5.2-.9.2s-.7.1-1.1.1h-1v3.2c-.3.1-.4.3-.5.4zm6.6-.7c.2.1.3.2.3.4 0 .1 0 .3-.1.4-.1.1-.2.2-.3.2s-.3 0-.5-.1c-.1-.1-.2-.1-.2-.2-.1-.1-.2-.1-.3-.2l-.2-.2c0-.1 0-.1-.1-.3v-7.4c0-.2.1-.3.2-.4s.2-.1.3-.1.2 0 .3.1.2.2.2.4v7.1c.2.2.2.2.4.3-.1-.1-.1-.1 0 0zm6.6-.3c.1.1.1.3.1.4s0 .3-.1.4c-.1.1-.2.1-.4.1s-.4-.1-.5-.3-.3-.4-.4-.6c-.2.2-.5.5-.8.6-.3.2-.6.3-1 .3-.2 0-.5 0-.7-.1l-.6-.3c-.2-.1-.4-.3-.5-.5s-.3-.4-.3-.6c-.1-.2-.1-.5-.1-.8V228c0-.2.1-.3.2-.4.1-.1.2-.1.3-.1s.2 0 .3.1.2.2.2.4v2.4c0 .5.1.9.3 1.2s.5.5.9.5c.1 0 .3 0 .4-.1s.3-.1.4-.2l.3-.3.3-.3h.2c-.1-.4-.1-.9-.1-1.3v-.8c0-.3 0-.5.1-.7 0-.2.1-.4.2-.5.1-.1.2-.2.4-.2.1 0 .3.1.4.2s.2.2.2.4v2.3c0 .2 0 .5.1.7 0 .2.1.4.2.6-.2.1-.1.3 0 .4zm.8-4c-.1-.1-.1-.2-.1-.3s.1-.2.2-.4c.1-.1.3-.2.5-.2h.7v-2.1c0-.2.1-.3.2-.4.1-.1.2-.1.3-.1s.2 0 .3.1.2.2.2.4v2.1h1.3c.2 0 .3.1.4.2.1.1.1.2.1.3s0 .2-.1.3-.2.2-.4.2h-1.2v4.2c0 .2-.1.4-.2.5-.1.1-.2.2-.4.2-.1 0-.2 0-.3-.1s-.2-.2-.2-.4v-4.2h-.8c-.3-.1-.4-.2-.5-.3zm5.1 0c-.1-.1-.1-.2-.1-.3s.1-.2.2-.4c.1-.1.3-.2.5-.2h.7v-2.1c0-.2.1-.3.2-.4.1-.1.2-.1.3-.1s.2 0 .3.1.2.2.2.4v2.1h1.3c.2 0 .3.1.4.2.1.1.1.2.1.3s0 .2-.1.3-.2.2-.4.2h-1.2v4.2c0 .2-.1.4-.2.5-.1.1-.2.2-.4.2-.1 0-.2 0-.3-.1s-.2-.2-.2-.4v-4.2h-.8c-.2-.1-.4-.2-.5-.3zm9 3.3c.2-.1.3-.1.5 0 .1.1.2.1.3.3.1.1.1.2 0 .4 0 .1-.1.3-.3.4-.3.2-.6.3-.9.5-.3.1-.7.2-1 .3s-.7.1-1 0-.7-.2-1-.4c-.4-.3-.7-.6-.8-1-.2-.4-.3-.9-.3-1.4s.1-.9.3-1.4c.2-.4.5-.8.9-1.1s.8-.5 1.3-.6 1-.2 1.4 0c.2.1.5.2.6.3s.4.4.5.6c.1.2.2.5.2.7s-.1.5-.2.7c-.2.2-.4.5-.6.6s-.6.3-.9.4c-.3.1-.7.2-1 .3s-.6.2-.9.2h-.3c.1.3.3.5.6.7s.6.3 1 .2c.3 0 .6-.1.9-.3.2 0 .5-.2.7-.4zm-2.6-2.8c-.3.2-.6.4-.7.7-.2.3-.2.6-.2 1 .1 0 .1-.1.2-.1.2 0 .3-.1.5-.1s.3-.1.5-.1c.1 0 .2-.1.4-.1.2-.1.4-.1.6-.2s.4-.2.5-.2.3-.2.3-.3c0-.3-.1-.5-.2-.6-.2-.1-.3-.2-.6-.2-.2 0-.5 0-.7.1s-.4.1-.6.1zm5-.2l-.3-.3c-.1-.1-.1-.2-.1-.3s0-.2.1-.4c.1-.1.2-.2.4-.2.1 0 .3 0 .5.1s.3.2.4.3c.3-.2.6-.4.8-.6.3-.2.6-.2.9-.2.1 0 .2 0 .4.1.2 0 .3.1.5.2s.3.2.4.3c.1.1.2.3.2.5s0 .3-.1.4-.2.1-.4.1c-.1 0-.2 0-.3-.1s-.2-.1-.2-.2-.2-.1-.2-.2c-.1-.1-.2-.1-.3-.1s-.3 0-.4.1-.3.2-.4.3-.3.2-.4.3l-.3.3v3.5c0 .2-.1.4-.2.5-.1.1-.2.2-.4.2-.1 0-.2 0-.3-.1s-.2-.2-.2-.4V228.8l-.1-.2c.1 0 0 0 0 0zm9.9-.3c-.1-.1-.1-.2-.1-.3s.1-.2.2-.4c.1-.1.3-.2.5-.2h.7v-2.1c0-.2.1-.3.2-.4.1-.1.2-.1.3-.1s.2 0 .3.1.2.2.2.4v2.1h1.3c.2 0 .3.1.4.2.1.1.1.2.1.3s0 .2-.1.3-.2.2-.4.2h-1.2v4.2c0 .2-.1.4-.2.5-.1.1-.2.2-.4.2-.1 0-.2 0-.3-.1s-.2-.2-.2-.4v-4.2h-.8c-.2-.1-.4-.2-.5-.3zm4.4 1.7c.1-.3.2-.6.4-.8.1-.3.3-.5.5-.7s.4-.4.7-.6.5-.3.8-.3c.5-.1 1-.1 1.3.1.4.2.7.5.9.8.2.4.4.8.5 1.2.1.5.1.9-.1 1.3-.1.5-.4 1-.7 1.5s-.8.8-1.3 1c-.4.1-.7.2-1.1.2-.3 0-.7-.2-.9-.3s-.5-.4-.7-.7-.3-.6-.4-1c0-.2-.1-.5 0-.7s0-.5.1-.7v-.3zm1.1.3c0 .2-.1.4-.1.5v.5c0 .2.1.5.2.6.1.2.3.3.5.4.2.1.4.2.6.1.2 0 .4-.1.7-.2.3-.2.5-.4.7-.7s.3-.6.4-.9c.1-.3.1-.5 0-.8 0-.3-.1-.6-.3-.8-.1-.2-.3-.4-.6-.5s-.5-.1-.8 0c-.4.2-.6.4-.8.7-.3.4-.4.7-.5 1.1zm14 1.3c.2-.1.3-.1.5 0 .1.1.2.1.3.3.1.1.1.2 0 .4 0 .1-.1.3-.3.4-.3.2-.6.3-.9.5-.3.1-.7.2-1 .3s-.7.1-1 0-.7-.2-1-.4c-.4-.3-.7-.6-.8-1-.2-.4-.3-.9-.3-1.4s.1-.9.3-1.4c.2-.4.5-.8.9-1.1s.8-.5 1.3-.6 1-.2 1.4 0c.2.1.5.2.6.3s.4.4.5.6c.1.2.2.5.2.7s-.1.5-.2.7c-.2.2-.4.5-.6.6s-.6.3-.9.4c-.3.1-.7.2-1 .3s-.6.2-.9.2h-.3c.1.3.3.5.6.7s.6.3 1 .2c.3 0 .6-.1.9-.3.2 0 .5-.2.7-.4zm-2.5-2.8c-.3.2-.6.4-.7.7-.2.3-.2.6-.2 1 .1 0 .1-.1.2-.1.2 0 .3-.1.5-.1s.3-.1.5-.1c.1 0 .2-.1.4-.1.2-.1.4-.1.6-.2s.4-.2.5-.2.3-.2.3-.3c0-.3-.1-.5-.2-.6-.2-.1-.3-.2-.6-.2-.2 0-.5 0-.7.1s-.5.1-.6.1zm8.5-1.4c.2-.1.3-.2.4-.2.1 0 .3.1.4.1s.1.2.1.4c0 .1 0 .3-.2.4l-1 1c-.4.4-.6.7-.9 1 .4.4.7.9 1.1 1.3.3.4.6.9.9 1.4.1.2.1.3 0 .4 0 .1-.1.2-.2.3-.1.1-.2.1-.3.1s-.3-.1-.4-.2c-.3-.4-.5-.8-.8-1.2l-.9-1.2c-.6.7-1.1 1.5-1.7 2.3-.1.2-.3.2-.4.3-.1 0-.3 0-.4-.1-.1-.1-.2-.2-.2-.3s0-.3.1-.5c.3-.4.6-.9.9-1.3l.9-1.2-.9-.9-.9-.9c-.1-.1-.2-.3-.2-.4 0-.1 0-.3.1-.4s.2-.2.3-.2.3 0 .5.1l.9.9.9.9c.3-.3.6-.6.9-1 .3-.3.6-.6 1-.9zm2.1-1.8c0-.2.1-.4.2-.5s.3-.2.5-.2.3.1.5.2c.1.1.2.3.2.5s-.1.3-.2.5c-.1.1-.3.2-.5.2s-.3-.1-.5-.2c-.2-.2-.2-.4-.2-.5zm1.2 7.2c0 .2-.1.4-.2.5-.1.1-.2.2-.4.2-.1 0-.2 0-.3-.1s-.2-.2-.2-.4v-5c0-.2.1-.3.2-.4.1-.1.2-.1.3-.1s.2 0 .3.1.2.2.2.4v2.5c.1.6.1 1.4.1 2.3zm1.4-.6c-.1-.2-.1-.3-.1-.4 0-.1.1-.2.2-.3.1-.1.2-.1.3-.1s.3 0 .4.1c.2.3.4.5.7.6l.9.3.3-.1.1-.1h.1l.1-.1.1-.1v-.4l-.1-.2-.1-.1-.1-.1c-.2-.1-.4-.2-.7-.3-.2-.1-.4-.1-.6-.2l-.6-.3c-.2-.1-.4-.3-.6-.5-.2-.2-.3-.5-.3-.7 0-.3 0-.5.1-.8s.3-.5.5-.7.4-.3.7-.4c.4-.1.7-.1 1.1 0 .4.1.7.2 1.1.4.2.1.3.2.3.4s0 .3-.1.4-.2.2-.3.2-.3 0-.5-.1-.4-.2-.7-.2H225.3c-.1.1-.2.2-.2.3s-.1.2-.1.4c0 0 0 .1.1.2l.1.1.1.1c.2.1.4.2.7.3s.5.1.7.2.5.2.7.3.4.3.5.6c.2.5.2 1 .1 1.4-.1.4-.4.8-.9 1.1-.1.1-.2.1-.4.2-.1 0-.3.1-.4.1-.5 0-.9-.1-1.4-.3-.3-.5-.6-.8-.9-1.2zm5.3-3.9c-.1-.1-.1-.2-.1-.3s.1-.2.2-.4c.1-.1.3-.2.5-.2h.7v-2.1c0-.2.1-.3.2-.4.1-.1.2-.1.3-.1s.2 0 .3.1.2.2.2.4v2.1h1.3c.2 0 .3.1.4.2.1.1.1.2.1.3s0 .2-.1.3-.2.2-.4.2h-1.2v4.2c0 .2-.1.4-.2.5-.1.1-.2.2-.4.2-.1 0-.2 0-.3-.1s-.2-.2-.2-.4v-4.2h-.8c-.3-.1-.4-.2-.5-.3zm5.2-2.7c0-.2.1-.4.2-.5s.3-.2.5-.2.3.1.5.2c.1.1.2.3.2.5s-.1.3-.2.5c-.1.1-.3.2-.5.2s-.3-.1-.5-.2c-.1-.2-.2-.4-.2-.5zm1.2 7.2c0 .2-.1.4-.2.5-.1.1-.2.2-.4.2-.1 0-.2 0-.3-.1s-.2-.2-.2-.4v-5c0-.2.1-.3.2-.4.1-.1.2-.1.3-.1s.2 0 .3.1.2.2.2.4v2.5c.1.6.1 1.4.1 2.3zm6.4.5c-.1.1-.2.2-.4.2-.1 0-.2 0-.3-.1s-.2-.2-.2-.4v-3.3c0-.3 0-.6-.1-.9-.1-.1-.1-.2-.2-.2h-.3c-.3 0-.6.1-.9.2-.3.1-.5.3-.7.6-.1.2-.2.3-.2.4-.1.1-.1.2-.1.4v2.8c0 .2-.1.4-.2.5-.1.1-.2.2-.4.2-.1 0-.2 0-.3-.1s-.2-.2-.2-.4v-4.8c0-.2.1-.3.2-.4.1-.1.2-.1.3-.1s.2 0 .3.1.2.2.2.4v.1c.3-.2.5-.4.9-.5.3-.1.6-.2 1-.2.3 0 .6.1.9.2s.5.4.7.7c.1.1.1.3.1.4v4.2c0-.3 0-.1-.1 0zm2 2.5c-.1-.1-.2-.2-.2-.4 0-.1 0-.2.1-.3s.1-.2.3-.2h.4c.1.1.2.1.3.2.1 0 .2.1.2.1.1 0 .2.1.2.1.1 0 .2.1.3.1.2 0 .3.1.5.1s.4 0 .6-.1c.2 0 .3-.1.5-.2s.3-.2.4-.4c.1-.1.1-.2.1-.4v-1.3c-.1.1-.3.1-.4.2-.1 0-.3.1-.4.1-.2 0-.4.1-.6.1h-.6c-.5-.1-.8-.3-1.2-.6-.3-.3-.5-.6-.7-1s-.2-.8-.2-1.3.1-.9.2-1.3c.1-.3.3-.6.5-.9s.5-.5.8-.6c.3-.2.6-.2 1-.3.3 0 .7 0 1 .2.3.1.5.3.7.4.1-.1.1-.2.2-.3s.2-.1.3-.1.2.1.3.1.2.2.2.3v5.6c0 .5-.1.9-.2 1.2-.1.3-.4.6-.8.9-.2.1-.3.2-.5.3s-.4.1-.6.1c-.4.1-.8 0-1.2-.1-.3-.1-.5-.1-.7-.2s-.5.1-.8-.1zm3.6-3.9c0-.1.1-.1 0 0l.1-2.4c-.2-.2-.4-.3-.6-.5-.2-.1-.5-.3-.7-.3h-.6c-.1 0-.1.1-.2.1s-.1.1-.2.1c-.4.5-.7.9-.7 1.4s.1 1 .3 1.6c0 .1.1.1.1.2.1.1.1.1.1.2.8.3 1.7.2 2.4-.4zm12.2.7c0 .1.1.3 0 .4 0 .1-.1.2-.2.3s-.2.1-.3.1c-.1 0-.2 0-.4-.1-.1-.1-.2-.2-.2-.3-.1-.1-.1-.2-.2-.3-.2.2-.4.3-.6.4s-.4.2-.6.2h-1c-.3 0-.7-.1-1-.3s-.5-.4-.6-.7-.2-.5-.3-.8v-.9c0-.3.1-.6.2-.9 0-.1.1-.2.2-.4.1-.1.1-.2.2-.4s.2-.3.3-.5.3-.3.4-.4c.1-.1.2-.2.3-.2.1-.1.2-.2.3-.2.1-.1.2-.1.4-.2s.3-.1.5-.1.4-.1.6-.1.4 0 .5.1c.1 0 .2 0 .4.1.1.1.2.2.3.4v1.8c0 .6 0 1.2.1 1.8 0 .1 0 .2.1.3s.1.2.2.3.1.2.2.3c.2.2.2.3.2.3zm-1.6-.9c0-.6-.1-1.1-.1-1.7v-1.6h-.3c-.1 0-.2 0-.3.1s-.2.1-.3.1c-.1 0-.1 0-.2.1-.3.1-.5.3-.7.5s-.3.4-.5.7c-.1.2-.2.5-.3.8s-.1.5-.1.8c0 .1 0 .1.1.2 0 .1 0 .1.1.2l.1.1c0 .1.1.1.2.1s.2.1.2.1c.1 0 .2.1.2.1h.4c.1 0 .3 0 .4-.1s.3-.2.4-.3c.4 0 .5-.1.7-.2zm3.1-4.3c.1-.1.2-.1.3-.1.1 0 .2 0 .3.1s.2.2.2.4v.1c.2-.2.4-.3.7-.4s.5-.1.8-.1.7.1 1 .2c.3.2.6.4.8.6.2.3.4.6.5.9.1.3.2.7.2 1.1 0 .4-.1.8-.2 1.2s-.3.7-.6.9-.6.5-1 .6-.9.2-1.4.2h-.8v2.8c0 .2-.1.4-.2.5s-.2.2-.4.2c-.1 0-.2 0-.3-.1-.1-.1-.2-.2-.2-.4V228c.2-.3.3-.5.3-.6zm1.1 1.9c-.1.1-.1.1 0 0l-.1.1v2.5c.1 0 .2 0 .4.1h.4c.3 0 .6 0 .8-.1s.5-.2.7-.3.3-.3.4-.6c.1-.2.2-.5.2-.8 0-.2 0-.4-.1-.6l-.3-.6c-.1-.2-.3-.3-.4-.4-.2-.1-.3-.2-.5-.2s-.3 0-.4.1-.3.1-.4.2l-.3.3c-.1.1-.4.2-.4.3zm5.3-1.9c.1-.1.2-.1.3-.1.1 0 .2 0 .3.1s.2.2.2.4v.1c.2-.2.4-.3.7-.4s.5-.1.8-.1.7.1 1 .2c.3.2.6.4.8.6.2.3.4.6.5.9.1.3.2.7.2 1.1 0 .4-.1.8-.2 1.2s-.3.7-.6.9-.6.5-1 .6-.9.2-1.4.2h-.8v2.8c0 .2-.1.4-.2.5s-.2.2-.4.2c-.1 0-.2 0-.3-.1-.1-.1-.2-.2-.2-.4V228c.1-.3.2-.5.3-.6zm1 1.9c0 .1 0 .1 0 0l-.1.1v2.5c.1 0 .2 0 .4.1h.4c.3 0 .6 0 .8-.1s.5-.2.7-.3.3-.3.4-.6c.1-.2.2-.5.2-.8 0-.2 0-.4-.1-.6l-.3-.6c-.1-.2-.3-.3-.4-.4-.2-.1-.3-.2-.5-.2s-.3 0-.4.1-.3.1-.4.2l-.3.3c-.1.1-.3.2-.4.3z" class="st23"/><path id="author" d="M16.2 282.1c-.2 0-.3 0-.5-.1s-.2-.1-.3-.3l-.2-.4v-.5l.1-.6c0-.2.1-.4.2-.5s.2-.3.3-.4.2-.2.4-.3c.2-.1.3-.1.5-.1s.4.1.6.2c.1.1.2.3.2.5l.1-.6h.7l-.5 3.1c0 .2-.1.4-.2.5s-.2.3-.3.4c-.1.1-.3.2-.5.2-.2.1-.4.1-.6.1h-.9l.1-.6h.9c.2 0 .4-.1.5-.2s.2-.2.2-.4l.1-.7c-.1.2-.2.4-.4.5 0 .1-.2.2-.5.2zm-.1-1.3c0 .2 0 .4.1.5s.2.2.4.2.4-.1.5-.2.2-.3.2-.5l.1-.5c0-.2 0-.4-.1-.5s-.2-.2-.5-.2c-.2 0-.4.1-.5.2s-.2.3-.2.5v.5zm2.7 1.5l.1-.7h1.2l.3-1.9h-1l.1-.7h1.8l-.4 2.6h1l-.1.7h-3zm1.7-4.2c0-.1.1-.2.2-.3.1-.1.2-.1.3-.1h.2c.1 0 .2 0 .3.1.1.1.1.2.1.3 0 .1-.1.2-.2.3-.1.1-.2.1-.3.1h-.2c-.1 0-.2 0-.3-.1-.1-.1-.2-.2-.1-.3zm2.2.9h.9l.2-1h.8l-.2 1h1.3l-.1.7h-1.3l-.3 1.6c0 .1 0 .2.1.2.1.1.1.1.2.1h.8l-.1.7h-.9c-.3 0-.6-.1-.7-.3s-.2-.4-.2-.7l.3-1.6h-.9l.1-.7zm3.9-1h.8l-.2 1c0 .1 0 .2-.1.4 0 .1 0 .1-.1.2h.1c.1-.2.2-.4.4-.5.2-.1.4-.2.6-.2s.3 0 .4.1.2.1.3.2.1.2.2.4v.5l-.3 2.2h-.8l.3-2.1c0-.2 0-.4-.1-.5s-.2-.2-.4-.2-.3.1-.5.2c-.1.1-.2.3-.2.5l-.3 2.1H26l.6-4.3zm3.2 3.1l.3-2.1h.8l-.3 2.1c-.1.4.1.6.5.6s.6-.2.7-.6l.2-2.1h.7l-.3 2.1c-.1.4-.2.7-.5 1s-.6.3-1.1.3c-.4 0-.7-.1-.9-.3-.1-.3-.2-.6-.1-1zm3.4 1.2l.7-4.3h.8l-.2 1v.6h.1c.1-.2.2-.4.4-.5s.4-.2.6-.2c.3 0 .5.1.7.3.2.2.3.4.3.7v.3l-.1.8c-.1.4-.2.7-.5 1-.2.2-.5.3-.9.3-.2 0-.4-.1-.6-.2-.1-.1-.2-.3-.2-.5H34l-.1.6h-.7v.1zm.9-1.2c0 .2 0 .4.1.5s.2.2.4.2.4-.1.5-.2.2-.3.2-.5l.1-.8c0-.2 0-.4-.1-.5s-.2-.2-.4-.2-.4.1-.5.2-.2.3-.3.5v.8zm2.5.4l.3-1.9c0-.3.1-.5.2-.7.1-.2.3-.4.4-.5.2-.1.4-.3.6-.3.2-.1.5-.1.7-.1.4 0 .8.1 1 .3.2.2.3.4.3.8v.2l-.4 2.6h-.6l.1-.6c-.1.2-.2.4-.3.5s-.3.2-.5.2c-.4 0-.6-.2-.6-.7v-.4l.1-.5c.1-.7.4-1.1 1-1.1.3 0 .5.2.6.6V279.3c0-.3 0-.4-.1-.6-.1-.1-.4-.2-.6-.2-.3 0-.6.1-.8.3s-.4.5-.4.9l-.3 1.9c-.1.4 0 .6.2.9.2.2.4.3.8.3h.4l-.1.6h-.4c-.5 0-.8-.1-1.1-.4-.3-.2-.4-.6-.4-1-.1-.2-.1-.3-.1-.5zm2.2 0c.3 0 .4-.2.5-.5l.1-.6c0-.4-.1-.6-.3-.6s-.4.2-.5.6l-.1.5v.4c.1.1.2.2.3.2zM41 278h1.5c.2 0 .4 0 .6.1s.3.1.4.3c.1.1.2.3.2.4v.5c-.1.4-.2.7-.5 1-.3.2-.7.3-1.1.3h-.7l-.3 1.7h-.8l.7-4.3zm.5 2h.7c.2 0 .4-.1.5-.2s.2-.3.3-.5c0-.2 0-.4-.1-.5s-.3-.2-.5-.2h-.7l-.2 1.4zm2.6 1.1l.1-.8c0-.2.1-.4.2-.5.1-.2.2-.3.3-.4s.2-.2.4-.3.3-.1.5-.1.4.1.5.2.2.3.2.5h.1l.1-.6h.7l-.4 2.5v.2s.1.1.2.1h.2l-.1.6h-.5c-.2 0-.3-.1-.5-.2-.1-.1-.2-.3-.1-.4h-.1c-.1.2-.2.4-.3.5-.2.1-.3.2-.6.2s-.5-.1-.7-.3-.2-.4-.2-.7v-.5zm1.2.6c.2 0 .3-.1.4-.2.1-.1.2-.2.2-.4l.1-.9c0-.2 0-.3-.1-.4s-.2-.2-.4-.2-.4.1-.5.2-.2.3-.2.5l-.1.8c0 .2 0 .4.1.5s.3.1.5.1zm2.3-.2h.7c0 .1.1.2.1.2.1.1.2.1.4.1h.2c.2 0 .3 0 .5-.1.1-.1.2-.2.2-.3 0-.2-.1-.4-.4-.4l-.5-.1c-.4 0-.6-.1-.8-.3-.2-.2-.2-.4-.2-.7.1-.3.2-.6.4-.7.2-.2.6-.3 1-.3h.2c.4 0 .6.1.8.2.2.2.3.4.3.6H50c0-.1-.1-.2-.1-.2-.1-.1-.2-.1-.3-.1h-.2c-.2 0-.3 0-.4.1s-.2.2-.2.3c0 .2.1.3.4.4l.5.1c.4 0 .6.2.8.3.2.2.2.4.2.7-.1.3-.2.6-.5.8-.3.2-.6.3-1 .3H49c-.4 0-.7-.1-.9-.2-.4-.2-.5-.5-.5-.7zm3.6 0h.8c0 .1.1.2.1.2.1.1.2.1.4.1h.2c.2 0 .3 0 .5-.1.1-.1.2-.2.2-.3 0-.2-.1-.4-.4-.4l-.5-.1c-.4 0-.6-.1-.8-.3-.2-.2-.2-.4-.2-.7.1-.3.2-.6.4-.7.2-.2.6-.3 1-.3h.2c.4 0 .6.1.8.2.2.2.3.4.3.6h-.7c0-.1-.1-.2-.1-.2-.1-.1-.2-.1-.3-.1h-.2c-.2 0-.3 0-.4.1s-.2.2-.2.3c0 .2.1.3.4.4l.5.1c.4 0 .6.2.8.3.2.2.2.4.2.7-.1.3-.2.6-.5.8-.3.2-.6.3-1 .3h-.2c-.4 0-.7-.1-.9-.2-.3-.2-.4-.5-.4-.7zm3.6.8l.1-.7h1.2l.3-1.9h-1l.1-.7h1.8l-.4 2.6h1l-.1.7h-3zm1.6-4.2c0-.1.1-.2.2-.3.1-.1.2-.1.3-.1h.2c.1 0 .2 0 .3.1s.1.2.1.3c0 .1-.1.2-.2.3-.1.1-.2.1-.3.1h-.2c-.1 0-.2 0-.3-.1 0-.1-.1-.2-.1-.3zm3.3 4.3c-.2 0-.4 0-.6-.1-.2-.1-.3-.1-.4-.3-.1-.1-.2-.3-.2-.4v-.5l.1-.8c.1-.4.2-.7.5-1 .3-.2.7-.3 1.1-.3.2 0 .4 0 .6.1s.3.1.4.3c.1.1.2.3.2.4 0 .2.1.3 0 .5l-.1.8c-.1.4-.2.7-.5 1-.3.1-.6.3-1.1.3zm-.5-1.3c0 .2 0 .4.1.5s.3.2.5.2.4-.1.5-.2.2-.3.3-.5l.1-.8c0-.2 0-.4-.1-.5s-.3-.2-.5-.2-.4.1-.5.2-.2.3-.3.5l-.1.8zm2.8 1.2l.5-3.3h.7l-.1.6h.1c.1-.2.2-.4.4-.5s.4-.2.6-.2c.2 0 .3 0 .4.1s.2.1.3.2c.1.1.1.2.2.4v.5l-.3 2.1H64l.3-2.1c0-.2 0-.4-.1-.5s-.2-.2-.4-.2-.4.1-.5.2-.2.3-.2.5l-.3 2.1-.8.1zm4.2-4.3h1.5c.2 0 .4 0 .6.1s.3.1.4.3c.1.1.2.3.2.4v.5c-.1.4-.2.7-.5 1-.3.2-.7.3-1.1.3h-.7l-.3 1.7h-.8l.7-4.3zm.5 2h.7c.2 0 .4-.1.5-.2s.2-.3.3-.5c0-.2 0-.4-.1-.5s-.3-.2-.5-.2h-.7l-.2 1.4zm3.8 2.4c-.2 0-.4 0-.6-.1s-.3-.1-.4-.3c-.1-.1-.2-.2-.2-.4v-.5l.1-.8c0-.2.1-.4.2-.5.1-.2.2-.3.4-.4.1-.1.3-.2.5-.3s.4-.1.6-.1.4 0 .6.1.3.1.4.3c.1.1.2.2.2.4v.5l-.1.6h-2.1v.2c0 .2 0 .4.1.5s.3.2.5.2.3 0 .4-.1.2-.1.3-.2h.6c-.1.1-.1.3-.2.4s-.2.2-.4.3c-.1.1-.3.1-.4.2-.1-.1-.3 0-.5 0zm1-2.1v-.1c0-.2 0-.4-.1-.5s-.3-.2-.5-.2-.4.1-.5.2-.2.3-.3.5v.1h1.4zm1.3 2l.5-3.3h.7l-.1.6h.1c.1-.2.2-.4.4-.5.2-.1.4-.2.6-.2s.3 0 .4.1.2.1.3.2c.1.1.1.2.2.4v.5l-.3 2.1h-.8l.3-2.1c0-.2 0-.4-.1-.5s-.2-.2-.4-.2-.4.1-.5.2-.2.3-.2.5l-.3 2.1-.8.1zm4.6-.2c-.2 0-.3 0-.5-.1s-.2-.1-.3-.3l-.2-.4v-.5l.1-.6c0-.2.1-.4.2-.5s.2-.3.3-.4c.1-.1.2-.2.4-.3.2-.1.3-.1.5-.1s.4.1.6.2c.1.1.2.3.2.5l.1-.6h.7l-.5 3.1c0 .2-.1.4-.2.5s-.2.3-.3.4c-.1.1-.3.2-.5.2-.2.1-.4.1-.6.1h-.9l.1-.6h.9c.2 0 .4-.1.5-.2s.2-.2.2-.4l.1-.7c-.1.2-.2.4-.4.5 0 .1-.2.2-.5.2zm-.1-1.3c0 .2 0 .4.1.5s.2.2.4.2.4-.1.5-.2.2-.3.2-.5l.1-.5c0-.2 0-.4-.1-.5s-.2-.2-.5-.2c-.2 0-.4.1-.5.2s-.2.3-.2.5v.5zm2.9.3l.3-2.1h.8l-.3 2.1c-.1.4.1.6.5.6s.6-.2.7-.6l.3-2.1h.7l-.3 2.1c-.1.4-.2.7-.5 1s-.6.3-1.1.3c-.4 0-.7-.1-.9-.3-.2-.3-.3-.6-.2-1zm3.4 1.2l.1-.7h1.2l.3-1.9h-1l.1-.7H86l-.4 2.6h1l-.1.7h-2.9zm1.6-4.2c0-.1.1-.2.2-.3.1-.1.2-.1.3-.1h.2c.1 0 .2 0 .3.1.1.1.1.2.1.3 0 .1-.1.2-.2.3-.1.1-.2.1-.3.1h-.2c-.1 0-.2 0-.3-.1 0-.1-.1-.2-.1-.3zm2 4.2l.5-3.3h.7l-.1.6h.1c.1-.2.2-.4.4-.5.2-.1.4-.2.6-.2s.3 0 .4.1.2.1.3.2c.1.1.1.2.2.4v.5l-.3 2.1h-.8l.3-2.1c0-.2 0-.4-.1-.5s-.2-.2-.4-.2-.4.1-.5.2-.2.3-.2.5l-.3 2.1-.8.1z" class="st23"/></svg>