<svg xmlns="http://www.w3.org/2000/svg" xmlns:xlink="http://www.w3.org/1999/xlink" id="Layer_1" x="0" y="0" version="1.1" viewBox="0 0 500 300" xml:space="preserve"><style>.st1{fill:#3d4968}.st4{fill:#1d2b51}.st6{fill:#101c3b}.st7{fill:#162345}.st8,.st9{fill:none;stroke:#f0f5f8;stroke-width:.7386;stroke-linecap:round;stroke-miterlimit:10;stroke-dasharray:0,2.5604}.st9{stroke-width:1.4771;stroke-dasharray:0,3.2415}.st11{fill:#9aa2b2}.st12{fill:#bdc4d4}.st13{fill:#f0f5f8}.st14{fill:#e6eaf0}.st16{fill:#34909d}.st22{fill:#d7dbe0}.st23{fill:#fff}.st26{fill:none;stroke:#1d2b51;stroke-width:.9848;stroke-miterlimit:10}</style><path fill="#4d5978" d="M500 0v300H0V5.4C0 2.4 2.2 0 5 0h495z"/><path d="M299.6 232.1c-11.3 11-29.7 17.9-30.7 34.1-.7 11.7 8.6 21.4 10.7 32.8.1.3.1.6.1 1H0V0h140.8c3.8 5.9 7.9 11.4 13.5 16.2 8.6 7.5 18.7 12.9 29.6 15.4 16.1 3.8 32.9 1.5 49.4.4s33.8-.8 48.3 7.6 25 27.1 19.8 43.7c-3.2 10.2-11.2 17.5-18 25.4-6.8 7.9-12.9 18.1-10.9 28.6 2.7 14.2 18 20.4 27.9 30.4 16.1 16.8 15.8 48.2-.8 64.4z" class="st1"/><g id="decoration" opacity=".25"><g><path fill="#3d4968" d="M474.9 131.1v85c0 2.4-1.9 4.3-4.3 4.3h-63.9c-2.4 0-4.3-1.9-4.3-4.3v-85c0-2.4 1.9-4.3 4.3-4.3h63.9c2.4 0 4.3 2 4.3 4.3z" opacity=".28"/><path d="M471.8 129.6v85c0 2.4-1.9 4.3-4.3 4.3h-63.9c-2.4 0-4.3-1.9-4.3-4.3v-6.3h-1v-78.6c0-2.4 1.9-4.3 4.3-4.3h64.9c2.4-.1 4.3 1.8 4.3 4.2z" class="st4"/><path fill="#3d4968" d="M419 210.7v8.1h-15.4c-2.4 0-4.3-1.9-4.3-4.3v-6.3h-1v-1.7h16.4c2.4 0 4.3 1.9 4.3 4.2z" opacity=".33"/><path d="M466.5 129.8c0 .8-.6 1.4-1.4 1.4H459.7c-.3 0-.5-.2-.7-.4-.3-.3-.4-.6-.4-1 0-.8.6-1.4 1.4-1.4h5.1c.4 0 .7.2 1 .4.2.2.4.6.4 1zM456.5 129.8c0 .8-.6 1.4-1.4 1.4H449.7c-.3-.1-.5-.2-.7-.4-.3-.3-.4-.6-.4-1 0-.8.6-1.4 1.4-1.4h5.1c.4 0 .7.2 1 .4.3.2.4.6.4 1zM446.7 129.8c0 .8-.6 1.4-1.4 1.4H439.9c-.3 0-.5-.2-.7-.4-.3-.3-.4-.6-.4-1 0-.8.6-1.4 1.4-1.4h5.1c.4 0 .7.2 1 .4.2.2.4.6.4 1zM468 135.4v34.5c0 .9-.8 1.7-1.7 1.7h-63.1c-.1 0-.3 0-.4-.1-.7-.2-1.3-.8-1.3-1.6v-34.5c0-.9.8-1.7 1.7-1.7h63.1c.4 0 .8.2 1.1.4.4.4.6.8.6 1.3zM401.5 175.1h18.6v1.7h-18.6zM401.5 178.9h18.6v1.7h-18.6zM401.5 182.7h18.6v1.7h-18.6zM401.5 186.5h14.1v1.7h-14.1zM425.5 175.1h18.6v1.7h-18.6zM425.5 178.9h18.6v1.7h-18.6zM425.5 182.7h18.6v1.7h-18.6zM425.5 186.5h14.1v1.7h-14.1zM449.4 175.1H468v1.7h-18.6zM449.4 178.9H468v1.7h-18.6zM449.4 182.7H468v1.7h-18.6zM449.4 186.5h14.1v1.7h-14.1zM468 192.1v6.1c0 .5-.4.9-.9.9h-64.6c-.5 0-.9-.4-.9-.9v-6.1c0-.5.4-.9.9-.9h64.6c.3 0 .6.2.8.4.1.1.1.3.1.5zM432.5 201.7H468v1.6h-35.5zM432.5 205.2H468v1.6h-35.5zM402.9 210.6h8v1h-8zM402.9 212.4h6.9v1h-6.9zM402.9 214.3h7.9v1h-7.9zM420.7 210.6h6.9v1h-6.9zM420.7 212.4h5.7v1h-5.7zM420.7 214.3h6.9v1h-6.9zM438.6 210.6h6.9v1h-6.9zM438.6 212.4h4.2v1h-4.2zM438.6 214.3h5.9v1h-5.9zM456.5 210.6h6.3v1h-6.3zM456.5 212.4h3.5v1h-3.5zM456.5 214.3h4.9v1h-4.9z" class="st6"/><path d="M466.5 129.8c0 .8-.6 1.4-1.4 1.4H459.7c-.2-.3-.4-.6-.4-1 0-.8.6-1.4 1.4-1.4H466.1c.2.2.4.6.4 1zM456.5 129.8c0 .8-.6 1.4-1.4 1.4H449.7c-.2-.3-.4-.6-.4-1 0-.8.6-1.4 1.4-1.4H456.1c.3.2.4.6.4 1zM446.7 129.8c0 .8-.6 1.4-1.4 1.4H439.9c-.2-.3-.4-.6-.4-1 0-.8.6-1.4 1.4-1.4H446.3c.2.2.4.6.4 1zM468 135.4v34.5c0 .9-.8 1.7-1.7 1.7h-63.1c-.1 0-.3 0-.4-.1-.3-.3-.6-.8-.6-1.3v-34.5c0-.9.8-1.7 1.7-1.7H467c.1 0 .3 0 .4.1.4.4.6.8.6 1.3zM402.3 175.5h17.9v1.3h-17.9zM402.3 179.3h17.9v1.3h-17.9zM402.3 183.1h17.9v1.3h-17.9zM402.3 186.9h13.4v1.3h-13.4zM426.2 175.5h17.9v1.3h-17.9zM426.2 179.3h17.9v1.3h-17.9zM426.2 183.1h17.9v1.3h-17.9zM426.2 186.9h13.4v1.3h-13.4zM450.1 175.5H468v1.3h-17.9zM450.1 179.3H468v1.3h-17.9zM450.1 183.1H468v1.3h-17.9zM450.1 186.9h13.4v1.3h-13.4zM468 192.1v6.1c0 .5-.4.9-.9.9h-64.6c-.1-.2-.2-.3-.2-.6v-6.1c0-.5.4-.9.9-.9h64.6c.2.2.2.4.2.6zM433.2 202.1H468v1.2h-34.8zM433.2 205.6H468v1.2h-34.8z" class="st7"/><g><path d="M403.6 211h7.3v.6h-7.3zM403.6 212.8h6.2v.6h-6.2zM403.6 214.7h7.2v.6h-7.2z" class="st7"/></g><g><path d="M421.5 211h6.2v.6h-6.2zM421.5 212.8h5v.6h-5zM421.5 214.7h6.2v.6h-6.2z" class="st7"/></g><g><path d="M439.3 211h6.2v.6h-6.2zM439.3 212.8h3.5v.6h-3.5zM439.3 214.7h5.2v.6h-5.2z" class="st7"/></g><g><path d="M457.2 211h5.6v.6h-5.6zM457.2 212.8h2.8v.6h-2.8zM457.2 214.7h4.2v.6h-4.2z" class="st7"/></g></g><path d="M361.9 140.6l40.6-5.8M425.4 141.2l40.6-5.9M425.2 177.7l40.7-5.9" class="st8"/><path d="M331.8 230.2c-4-7.4-6.2-15.9-6.2-25 0-22.1 13.4-41 32.6-49.1M430.6 218.5c-2.8 10.8-8.8 20.2-17 27.2" class="st9"/><path d="M338.9 166.7h-9.6c-1.8 0-3.5 1-4.4 2.5l-4.8 8.3c-.9 1.6-.9 3.5 0 5.1l4.8 8.3c.9 1.6 2.6 2.5 4.4 2.5h9.6c1.8 0 3.5-1 4.4-2.5l4.8-8.3c.9-1.6.9-3.5 0-5.1l-4.8-8.3c-.9-1.5-2.6-2.5-4.4-2.5z" class="st4"/><path id="gear_8_" fill="#637194" d="M345.4 180.7l-.3-.9c-.1-.3-.3-.6-.4-.8l-1.5.6-.6-.6.6-1.5c-.5-.4-1.1-.6-1.7-.7l-.6 1.5h-.8l-.6-1.5-.9.3c-.3.1-.6.3-.8.4l.6 1.5-.6.6-1.5-.6c-.4.5-.6 1.1-.7 1.7l1.5.6v.8l-1.5.6.3.9c.1.3.3.6.4.8l1.5-.6.6.6-.6 1.5c.5.4 1.1.6 1.7.7l.6-1.5h.8l.6 1.5.9-.3c.3-.1.6-.3.8-.4l-.6-1.5.6-.6 1.5.6c.4-.5.6-1.1.7-1.7l-1.5-.6v-.8l1.5-.6zm-4.6 2c-.5.2-1.1 0-1.3-.6-.2-.5 0-1.1.6-1.3.5-.2 1.1 0 1.3.6.2.5-.1 1-.6 1.3z"/><path id="gear_4_" d="M337.5 178.8c.1-.4.1-.9.1-1.4 0-.5 0-.9-.1-1.4h-2.4c-.1-.4-.3-.8-.5-1.1l1.7-1.7c-.5-.8-1.2-1.4-2-2l-1.7 1.7c-.3-.2-.7-.3-1.1-.5V170c-.4-.1-.9-.1-1.4-.1-.5 0-.9 0-1.4.1v2.4c-.4.1-.8.3-1.1.5l-1.7-1.7c-.8.5-1.4 1.2-2 2l1.7 1.7c-.2.3-.3.7-.5 1.1h-2.4c-.1.5-.1.9-.1 1.4 0 .5 0 .9.1 1.4h2.4c.1.4.3.8.5 1.1l-1.7 1.7c.5.8 1.2 1.4 2 2l1.7-1.7c.3.2.7.3 1.1.5v2.4c.5.1.9.1 1.4.1.5 0 .9 0 1.4-.1v-2.4c.4-.1.8-.3 1.1-.5l1.7 1.7c.8-.5 1.4-1.2 2-2l-1.7-1.7c.2-.3.3-.7.5-1.1h2.4zm-7.3.1c-.8 0-1.5-.7-1.5-1.5s.7-1.5 1.5-1.5 1.5.7 1.5 1.5-.7 1.5-1.5 1.5z" class="st11"/><path id="gear_10_" d="M333.2 177.4c-.3-.1-.3-.5-.1-.6.3-.2.2-.7-.2-.6-.3 0-.5-.3-.3-.5.2-.3-.1-.7-.4-.5-.3.2-.6-.1-.5-.4.1-.4-.4-.6-.6-.3-.2.2-.6.2-.6-.1-.1-.4-.6-.4-.7 0-.1.3-.4.4-.6.1-.2-.3-.7-.1-.6.3.1.3-.2.5-.5.4-.3-.2-.7.2-.4.5.2.2 0 .6-.3.5-.4 0-.5.5-.2.6.3.1.2.5-.1.6-.4.1-.3.6.1.7.3 0 .4.4.2.6-.3.2 0 .7.3.6.3-.1.5.2.4.5-.2.3.3.6.5.4.2-.2.6 0 .6.3 0 .4.5.5.7.1.1-.3.5-.3.6 0 .1.3.7.2.7-.1 0-.3.4-.5.6-.3.3.3.7-.1.5-.4-.1-.3.1-.6.4-.5.4.1.6-.3.3-.6-.2-.2-.1-.6.2-.6.3 0 .4-.6 0-.7zm-3 1c-.6 0-1-.4-1-1s.4-1 1-1 1 .4 1 1-.5 1-1 1z" class="st12"/><path d="M341 181.7c0 .3-.3.6-.6.6s-.6-.3-.6-.6.3-.6.6-.6.6.3.6.6z" class="st12"/><path id="gear_9_" d="M337.1 186.4c-.2-.1-.3-.4-.1-.5.3-.2.1-.6-.2-.5-.2 0-.4-.3-.3-.5.2-.2-.1-.6-.4-.4-.2.1-.5-.1-.4-.3.1-.3-.3-.5-.5-.2-.1.2-.5.1-.5-.1-.1-.3-.5-.3-.6 0 0 .2-.4.3-.5.1-.2-.3-.6-.1-.5.2.1.2-.2.4-.4.3-.3-.2-.6.2-.4.4.1.2 0 .5-.3.5s-.4.4-.2.5c.2.1.2.4-.1.5-.3.1-.3.5.1.6.2 0 .3.3.2.5-.2.2 0 .6.3.5.2-.1.5.2.3.4-.1.3.2.5.5.3.2-.2.5 0 .5.2 0 .3.4.4.5.1.1-.2.4-.2.5 0 .1.3.5.2.5-.1 0-.2.3-.4.5-.2s.6 0 .5-.3c-.1-.2.1-.5.3-.4.3.1.5-.3.3-.5s-.1-.5.2-.5c.5-.1.5-.5.2-.6zm-2.5 1.6c-.9 0-1.6-.7-1.6-1.6 0-.9.7-1.6 1.6-1.6s1.6.7 1.6 1.6c0 .9-.7 1.6-1.6 1.6z" class="st13"/><path d="M336 186.4c0 .8-.6 1.5-1.5 1.5s-1.5-.6-1.5-1.5c0-.8.6-1.5 1.5-1.5s1.5.7 1.5 1.5z" class="st13"/><g id="user_man_account_2_"><path d="M478.1 234.5c0 1.8-.6 3.5-1.7 4.9-1.4 1.8-3.7 3-6.2 3s-4.7-1.2-6.2-3c0-.1-.1-.1-.1-.2-1-1.3-1.6-3-1.6-4.7 0-4.3 3.5-7.9 7.9-7.9 2.9 0 5.4 1.6 6.8 3.9.7 1.2 1.1 2.6 1.1 4z" class="st4"/><path d="M476 238.9c-1.3 1.7-3.4 2.8-5.8 2.8-2.3 0-4.4-1.1-5.8-2.8.5-2.3 2.4-4.1 4.8-4.5-.9-.4-1.6-1.3-1.6-2.3 0-1.4 1.1-2.5 2.5-2.5s2.5 1.1 2.5 2.5c0 1-.6 1.9-1.6 2.3 2.5.4 4.4 2.2 5 4.5z" class="st14"/></g><g id="Artwork_4_1_"><path fill="#3d4968" d="M423.1 218.8v57.4c0 2-1.6 3.7-3.7 3.7h-74.8c-2 0-3.7-1.6-3.7-3.7v-64.3c0-2 1.6-3.7 3.7-3.7h58.2v6.3c0 2.4 1.9 4.3 4.3 4.3h16z" opacity=".32"/><path d="M406.5 276.4h-65.1c-4.7 0-8.6-3.8-8.6-8.6v-54.6c0-4.7 3.8-8.6 8.6-8.6h65.1c4.7 0 8.6 3.8 8.6 8.6v54.6c-.1 4.8-3.9 8.6-8.6 8.6z" class="st11"/><path d="M405.5 276.4h-65.1c-4.7 0-8.6-3.8-8.6-8.6v-54.6c0-4.7 3.8-8.6 8.6-8.6h65.1c4.7 0 8.6 3.8 8.6 8.6v54.6c0 4.8-3.9 8.6-8.6 8.6z" class="st13"/><path d="M409.5 210.2c0 1.2-1 2.2-2.2 2.2s-2.2-1-2.2-2.2c0-1.2 1-2.2 2.2-2.2s2.2 1 2.2 2.2z" class="st16"/><path fill="#f8b85e" d="M403.1 210.2c0 1.2-1 2.2-2.2 2.2-1.2 0-2.2-1-2.2-2.2 0-1.2 1-2.2 2.2-2.2 1.2 0 2.2 1 2.2 2.2z"/><path fill="#ba0034" d="M396.7 210.2c0 1.2-1 2.2-2.2 2.2-1.2 0-2.2-1-2.2-2.2 0-1.2 1-2.2 2.2-2.2 1.2 0 2.2 1 2.2 2.2z"/></g><path fill="#c9d2de" d="M406.5 221.9v25.3c0 1-.8 1.8-1.8 1.8h-63.1c-.3 0-.6-.1-.9-.2-.6-.3-.9-.9-.9-1.6v-25.3c0-1 .8-1.8 1.8-1.8h63.1c.6 0 1 .3 1.4.6.2.3.4.7.4 1.2z"/><path d="M406.5 221.9v25.3c0 1-.8 1.8-1.8 1.8h-63.1c-.3 0-.6-.1-.9-.2-.1-.2-.2-.4-.2-.7v-25.9c0-.8.7-1.5 1.5-1.5h64c.3.3.5.7.5 1.2z" class="st14"/><path d="M340.1 215.6h15.7v2.3h-15.7z" class="st11"/><path d="M397.3 255.1h6.8c1.2 0 2.2-1 2.2-2.2 0-1.2-1-2.2-2.2-2.2h-6.8c-1.2 0-2.2 1-2.2 2.2 0 1.3 1 2.2 2.2 2.2z" class="st16"/><path fill="#a8274b" d="M386.4 255.1h5c1.2 0 2.2-1 2.2-2.2 0-1.2-1-2.2-2.2-2.2h-5c-1.2 0-2.2 1-2.2 2.2 0 1.3 1 2.2 2.2 2.2z"/><path d="M403.4 253.4h-5c-.3 0-.5-.2-.5-.5s.2-.5.5-.5h5c.3 0 .5.2.5.5 0 .2-.3.5-.5.5zM391.3 253.4h-5c-.3 0-.5-.2-.5-.5s.2-.5.5-.5h5c.3 0 .5.2.5.5.1.2-.2.5-.5.5z" class="st13"/><path d="M361.1 241.7h.6v5.1h-.6zM361.8 241.2h1.5v.5h-1.5zM359.6 241.2h1.5v.5h-1.5zM361.8 246.8h1.5v.5h-1.5zM359.6 246.8h1.5v.5h-1.5z" class="st4"/><path id="text_4_" d="M351.1 233.5h-6.5v2.3h6.5v-2.3zm23.5 7.1h17.7v-2.3h-17.7v2.3zm17.7-16.7h-41.5v2.3h41.5v-2.3zm-47.7 21.5h16.1v-2.3h-16.1v2.3zm12.4-16.7h-12.4v2.3H357v-2.3zm-3.9 7.1h25.1v-2.3h-25.1v2.3zm18.1 2.5h-26.6v2.3h26.6v-2.3zm9-2.5h22.2v-2.3h-22.2v2.3zm-19.8-4.8h42v-2.3h-42v2.3zm33.6-7.1v2.3h8.4v-2.3H394zm1.7 16.7h6.7v-2.3h-6.7v2.3z" class="st11"/><g id="cloud_8_"><path d="M440 280.5c0 2-1.6 3.7-3.7 3.7h-39c-3.5 0-6.3-2.8-6.3-6.3s2.8-6.3 6.3-6.3c.8 0 1.6.2 2.3.4v-.1c0-4.6 2.5-8.5 6.1-10.7 1.8-1.1 4-1.7 6.2-1.7 6 0 11.1 4.3 12.2 10.1 1.1-.7 2.5-1 3.9-1 4.3 0 7.9 3.5 7.9 7.9v.5h.4c2.1-.2 3.7 1.5 3.7 3.5z" class="st11"/></g><g id="cloud_9_"><path fill="#dbdee6" d="M352.6 277.7c0 1.5-1.2 2.8-2.8 2.8h-29.3c-2.6 0-4.8-2.1-4.8-4.8 0-2.6 2.1-4.8 4.8-4.8.6 0 1.2.1 1.7.3v-.1c0-3.4 1.9-6.4 4.6-8 1.4-.8 3-1.3 4.7-1.3 4.6 0 8.3 3.3 9.2 7.6.9-.5 1.9-.8 2.9-.8 3.3 0 5.9 2.7 5.9 5.9v.4h.3c1.6.1 2.8 1.3 2.8 2.8z"/></g><g id="login_1_"><path d="M466.6 250.4v3.1c0 .7-.6 1.3-1.3 1.3h-31.8c-.6-.1-1.1-.6-1.1-1.3v-3.1c0-.7.6-1.3 1.3-1.3h31.6c.7 0 1.2.5 1.3 1.1v.2z" class="st22"/><path d="M466.6 250.4v3.1c0 .7-.6 1.3-1.3 1.3h-31.8V251.5c0-.7.6-1.3 1.3-1.3h31.8v.2z" class="st23"/><path d="M466.6 258.5v3.1c0 .7-.6 1.3-1.3 1.3h-31.8c-.6-.1-1.1-.6-1.1-1.3v-3.1c0-.7.6-1.3 1.3-1.3h31.6c.7 0 1.2.5 1.3 1.1v.2z" class="st22"/><path d="M466.6 258.5v3.1c0 .7-.6 1.3-1.3 1.3h-31.8V259.6c0-.7.6-1.3 1.3-1.3h31.8v.2z" class="st23"/><g><path d="M443.6 252.6c0 .4-.3.7-.7.7-.4 0-.7-.3-.7-.7 0-.4.3-.7.7-.7.4 0 .7.3.7.7zM447.2 252.6c0 .4-.3.7-.7.7-.4 0-.7-.3-.7-.7 0-.4.3-.7.7-.7.4 0 .7.3.7.7zM450.8 252.6c0 .4-.3.7-.7.7-.4 0-.7-.3-.7-.7 0-.4.3-.7.7-.7.4 0 .7.3.7.7zM454.4 252.6c0 .4-.3.7-.7.7-.4 0-.7-.3-.7-.7 0-.4.3-.7.7-.7.4 0 .7.3.7.7zM458 252.6c0 .4-.3.7-.7.7-.4 0-.7-.3-.7-.7 0-.4.3-.7.7-.7.4 0 .7.3.7.7z" class="st4"/></g><g><circle cx="442.9" cy="260.4" r=".7" class="st4"/><path d="M447.2 260.4c0 .4-.3.7-.7.7-.4 0-.7-.3-.7-.7 0-.4.3-.7.7-.7.4 0 .7.3.7.7z" class="st4"/><circle cx="450.1" cy="260.4" r=".7" class="st4"/><path d="M454.4 260.4c0 .4-.3.7-.7.7-.4 0-.7-.3-.7-.7 0-.4.3-.7.7-.7.4 0 .7.3.7.7zM458 260.4c0 .4-.3.7-.7.7-.4 0-.7-.3-.7-.7 0-.4.3-.7.7-.7.4 0 .7.3.7.7z" class="st4"/></g></g><g><path d="M424.6 142.6v34.5c0 .9-.7 1.7-1.7 1.7h-63c-.9 0-1.7-.7-1.7-1.7v-34.5c0-.9.7-1.7 1.7-1.7h63c1 .1 1.7.8 1.7 1.7z" class="st16"/><g id="image_photo_1_"><path d="M405.5 174.3h-40.3c-1.2 0-2.3-1-2.3-2.3v-23.7c0-1.2 1-2.3 2.3-2.3h40.3c1.2 0 2.3 1 2.3 2.3V172c-.1 1.3-1.1 2.3-2.3 2.3z" class="st11"/><path d="M364.5 147.1h41.6V170h-41.6z" class="st23"/><path fill="#e5ebf2" d="M406.1 164.9v5.1h-18.5l-1.6-2.7 9.9-11.6c.4-.5 1.1-.5 1.5 0l8.7 9.2z"/><path fill="#cad2db" d="M394.6 170h-30.1v-7.5l11.1-10.6c.4-.4 1-.4 1.4 0l17.6 18.1z"/></g><path d="M422.1 147.3V173c0 .7-.6 1.2-1.2 1.2h-7.4c-.7 0-1.2-.6-1.2-1.2v-25.7c0-.7.6-1.2 1.2-1.2h7.4c.6 0 1.2.6 1.2 1.2z" class="st13"/><path d="M417.8 159.6v-1.4c0-.2-.2-.4-.4-.4s-.4.2-.4.4v1.4c0 .2-.2.4-.4.4h-1.4c-.2 0-.4.2-.4.4s.2.4.4.4h1.4c.2 0 .4.2.4.4v1.4c0 .2.2.4.4.4s.4-.2.4-.4v-1.4c0-.2.2-.4.4-.4h1.4c.2 0 .4-.2.4-.4s-.2-.4-.4-.4h-1.4c-.2.1-.4-.1-.4-.4z" class="st16"/></g><g id="setting_3_"><path d="M365.7 194.5l4-4c.2-.2.6-.4.9-.4.6 0 1.3-.2 1.7-.7.6-.6.8-1.6.6-2.4l-1.2 1.2-1.3-.3-.3-1.3 1.2-1.2c-.8-.2-1.7 0-2.3.6-.5.5-.7 1.1-.7 1.7 0 .3-.1.7-.4.9l-4 4c-.2.2-.6.4-.9.4-.6 0-1.3.2-1.7.7-1 1-.9 2.6.1 3.5.9.8 2.3.8 3.2 0 .5-.5.8-1.2.8-1.8-.1-.3 0-.7.3-.9zm-3.1 2l-.7-.7.3-1 1-.3.7.7-.3 1-1 .3z" class="st4"/><path d="M365.8 192.6c-.1-.1-.1-.4 0-.5l1.3-1.3c.1-.1.4-.1.5 0 .1.1.1.4 0 .5l-1.3 1.3c-.2.1-.4.1-.5 0z" class="st11"/></g><g><path d="M379.9 196.1l3.3-3.3-.6-.6-3.3 3.2-.7.4-.8 1.2.5.5 1.3-.8z" class="st11"/><path d="M386.2 192.5l3.4-3.4c.1-.1.2-.2.2-.3.1-.5.3-1.5-.7-2.4-.9-.9-2-.8-2.4-.7-.1 0-.3.1-.3.2l-3.4 3.4c.5.5.5 1.4 0 1.9l-.3.3-.5-.5-.5.5 2.4 2.4.5-.5-.5-.5.3-.3c.4-.6 1.2-.6 1.8-.1z" class="st4"/></g><g id="_x30__14_"><path d="M491.8 210.5l-5 5c-.3.3-.7.3-1 0-.3-.3-.3-.7 0-1l5-5c.3-.3.7-.3 1 0 .2.2.2.7 0 1z" class="st13"/><path d="M494.1 208.1l-.6.6c-.3.3-.7.3-1 0-.3-.3-.3-.7 0-1l.6-.6c.3-.3.7-.3 1 0 .3.3.3.7 0 1zM497 205.2l-.1.1c-.3.3-.7.3-1 0-.3-.3-.3-.7 0-1l.1-.1c.3-.3.7-.3 1 0 .3.3.3.7 0 1z" class="st11"/></g><g id="_x30__15_"><path d="M333.6 144l-5 5c-.3.3-.7.3-1 0-.3-.3-.3-.7 0-1l5-5c.3-.3.7-.3 1 0 .3.3.3.7 0 1zM336 141.7l-.6.6c-.3.3-.7.3-1 0-.3-.3-.3-.7 0-1l.6-.6c.3-.3.7-.3 1 0 .3.2.3.7 0 1zM338.9 138.8l-.1.1c-.3.3-.7.3-1 0-.3-.3-.3-.7 0-1l.1-.1c.3-.3.7-.3 1 0 .3.2.3.7 0 1z" class="st13"/></g><g id="_x30__16_"><path d="M487.8 150h-.6c-.3 0-.6-.3-.6-.6v-.6c0-.3-.2-.5-.5-.6-.4-.1-.7.2-.7.6v.6c0 .3-.3.6-.6.6h-.6c-.3 0-.5.2-.6.5-.1.4.2.7.6.7h.6c.3 0 .6.3.6.6v.6c0 .3.2.5.5.6.4.1.7-.2.7-.6v-.6c0-.3.3-.6.6-.6h.6c.4 0 .6-.3.6-.7-.1-.3-.3-.5-.6-.5z" class="st11"/></g><g id="_x30__17_"><path d="M384.5 119.9h-.7c-.4 0-.7-.3-.7-.7v-.7c0-.3-.2-.7-.6-.7-.5-.1-.9.3-.9.7v.7c0 .4-.3.7-.7.7h-.7c-.4 0-.7.2-.7.6-.1.5.3.9.7.9h.7c.4 0 .7.3.7.7v.7c0 .4.2.7.6.7.5.1.9-.3.9-.7v-.7c0-.4.3-.7.7-.7h.7c.4 0 .8-.4.7-.9-.1-.3-.4-.6-.7-.6z" class="st13"/></g><g id="_x30__18_"><path d="M321.9 242.9h-.7c-.4 0-.7-.3-.7-.7v-.7c0-.3-.2-.7-.6-.7-.5-.1-.9.3-.9.7v.7c0 .4-.3.7-.7.7h-.7c-.3 0-.7.2-.7.6-.1.5.3.9.7.9h.7c.4 0 .7.3.7.7v.7c0 .4.2.7.6.7.5.1.9-.3.9-.7v-.7c0-.4.3-.7.7-.7h.7c.4 0 .8-.4.7-.9 0-.4-.3-.6-.7-.6z" class="st13"/></g><circle cx="482.3" cy="253.5" r="1.1" class="st26"/><circle cx="442.2" cy="236.4" r="1.1" class="st13"/><path d="M450.4 273.5c0 .3-.3.6-.6.6s-.6-.3-.6-.6.3-.6.6-.6.6.3.6.6zM356.2 125.6c0 .4-.4.8-.8.8s-.8-.4-.8-.8.4-.8.8-.8c.5 0 .8.4.8.8z" class="st4"/><path d="M348.5 149.7c0 .6-.5 1.1-1.1 1.1-.6 0-1.1-.5-1.1-1.1s.5-1.1 1.1-1.1c.6 0 1.1.5 1.1 1.1zM324.3 133.5c0 .3-.2.5-.5.5s-.5-.2-.5-.5.2-.5.5-.5c.2-.1.5.2.5.5z" class="st26"/><circle cx="320.5" cy="157.9" r="1.1" class="st4"/><circle cx="322" cy="259" r="1.3" class="st4"/><circle cx="317.6" cy="226.8" r="1.1" class="st26"/><circle cx="448.9" cy="113.2" r="1.1" class="st26"/><circle cx="488.8" cy="133.1" r=".5" class="st4"/></g><g id="flutter" opacity="0"><path fill="#45d0fc" d="M37.6 15c0 .2-.2.3-.4.4L19.8 32.8c-.3.3-.5.4-.9 0-1.1-1.2-2.2-2.3-3.4-3.4-.4-.4-.4-.6 0-1 4.4-4.3 8.7-8.7 13.1-13l.4-.4h8.6z"/><path d="M101.2 31.9H97c-.3 0-.4 0-.4.4.2 1.5.9 2.7 2.4 3.3 1.5.6 2.9.4 4.1-.7.3-.2.5-.5.7-.8.1-.2.2-.2.4-.1.4.2.7.4 1.1.5.3.1.3.2.1.5-1 1.6-2.5 2.5-4.5 2.7-3.9.4-6.6-2.7-6.3-6.7.2-2.8 2-5 4.6-5.5 3.4-.7 6.5 1.7 6.6 5.2 0 1.2 0 1.2-1.2 1.2h-3.4zM49.8 29.2v-7.6c0-.4.1-.5.5-.5h8.4c.4 0 .5.1.5.5 0 1.3 0 1.3-1.3 1.3h-5.7c-.4 0-.5.1-.5.5V28c0 .4.1.5.5.5H58c.4 0 .5.1.5.5 0 1.4 0 1.4-1.4 1.4h-4.9c-.4 0-.5.1-.5.5v6c0 .4-.1.6-.6.5-.4-.1-1 .2-1.3-.1-.3-.3-.1-.9-.1-1.3.1-2.3.1-4.6.1-6.8zM74.4 35.7c-1.3 1.7-3 2.2-5 1.9-1.8-.3-3-1.8-3.1-3.9-.1-2.5 0-5.1 0-7.6 0-.3.1-.3.4-.4 1.6-.1 1.6-.1 1.6 1.5 0 2-.1 3.9 0 5.9.1 1.5.7 2.4 1.8 2.7 1.3.4 2.7-.1 3.5-1.2.5-.7.7-1.4.7-2.2v-6.1c0-.4.1-.6.5-.5h1c.4 0 .5.1.5.5V37c0 .4-.1.5-.5.4-.5 0-1 .1-1.3-.1-.3-.2-.1-.9-.1-1.3v-.3z" class="st23"/><path fill="#42cffc" d="M25.8 31.1l3-3c.1-.1.3-.2.5-.2h8.2c-2.5 2.5-4.9 5-7.3 7.4-.2.1-.3-.1-.4-.2-1.3-1.2-2.5-2.5-3.8-3.7-.1-.1-.2-.2-.2-.3z"/><path fill="#06589c" d="M30.2 35.4c2.4 2.5 4.9 4.9 7.4 7.4-.1.1-.2 0-.4 0h-7.7c-.3 0-.6-.1-.8-.3-.9-1-1.9-1.9-2.8-2.8-.1-.3.1-.4.3-.5l3.5-3.5c.1-.2.2-.4.5-.3z"/><path d="M85.3 35.5v1.6c0 .2-.1.3-.3.4-2 .6-4.6-.2-4.6-3V28c0-.4-.1-.6-.5-.5h-.2c-1.5 0-1.5 0-1.3-1.5 0-.2.1-.3.3-.3h1c.8 0 .7.1.7-.7v-2.1c0-.3.1-.5.4-.4H82c.3 0 .4.1.4.4v2.3c0 .4.1.6.5.5h1.8c.4 0 .5.1.5.5 0 1.3 0 1.3-1.3 1.3h-1c-.4-.1-.5.1-.5.5v6.2c.1 1.3 1 1.9 2.2 1.5.3 0 .5-.1.7-.2zM93.6 35.5v1.3c.1.5-.2.7-.6.8-.7.1-1.3.2-2 0-1.4-.4-2.3-1.5-2.3-3v-6.5c0-.4-.1-.6-.5-.6H88c-1.5 0-1.5 0-1.3-1.5 0-.2.1-.3.3-.3h1.3c.3 0 .4-.1.4-.4v-2.4c0-.3.1-.5.4-.4h1.1c.3 0 .4.1.4.4v2.4c0 .4.1.5.5.4h2c.3 0 .4.1.4.4.1 1.4.1 1.4-1.4 1.4-.5 0-1.1-.2-1.4.1-.3.3-.1.9-.1 1.3v5.4c.1 1.3 1.1 1.9 2.3 1.4.3 0 .4-.1.7-.2z" class="st23"/><path fill="#1fbbfc" d="M30.2 35.4c-1.4 1.4-2.8 2.8-4.2 4.1 0 0-.1.1-.1.2l-4.1-4.1c-.2-.2-.2-.3 0-.5 1.4-1.3 2.7-2.7 4.1-4 1.3 1.3 2.6 2.5 3.9 3.8 0 .1.2.2.4.5 0-.1 0-.1 0 0z"/><path d="M110 27.4c.6-1.1 1.6-1.8 2.8-2 .6-.1 1.2-.1 1.7.1.2.1.4.2.3.4v1.7l-1.2-.3c-1.9-.2-3.5 1.3-3.5 3.3v6.1c0 .5-.2.6-.6.6h-1c-.3 0-.4-.1-.4-.4V26.1c0-.3.1-.5.4-.5 1.4 0 1.4 0 1.4 1.4.1.2.1.3.1.4zM63.5 29.2v7.6c0 .4-.1.5-.5.5h-1.2c-.2 0-.3-.1-.3-.3v-.3-15.1c0-.5.1-.6.6-.6 1.4 0 1.4 0 1.4 1.4v6.8z" class="st23"/><path d="M96.8 30.3c.2-1.6 1.5-3 3-3.1 1.9-.2 3.4.7 3.9 2.5.2.7.2.7-.5.7h-5.9c-.1-.1-.3-.1-.5-.1z" class="st1"/></g><path id="text" d="M51 62.8l-1.9 12.1h6.3l-.4 2.3h-8.8l2.3-14.4H51zM57.9 73l.4-2.7c.1-.7.3-1.2.5-1.8.3-.5.6-1 1-1.4.4-.4.8-.7 1.3-.9.5-.2 1-.3 1.6-.3.8 0 1.4.2 1.8.5.4.4.6.9.6 1.6h.2l.3-1.9H68l-1.3 8.3c0 .2 0 .4.1.6.1.1.3.2.5.2h.7l-.3 2h-1.5c-.7 0-1.2-.2-1.5-.6-.4-.4-.5-.8-.4-1.4h-.2c-.2.7-.6 1.2-1.1 1.6s-1.2.6-1.9.6c-1 0-1.7-.3-2.3-.9-.5-.6-.8-1.4-.8-2.5v-.5c-.2-.1-.2-.3-.1-.5zm4.1 2.2c.6 0 1.1-.2 1.5-.5.4-.3.7-.8.8-1.4l.5-3.1c.1-.6 0-1.1-.3-1.4-.3-.4-.7-.5-1.3-.5-.6 0-1.2.2-1.6.6-.4.4-.7.9-.8 1.6l-.4 2.5c-.1.7 0 1.2.3 1.6.2.4.7.6 1.3.6zM69.4 77.2l1.7-11h2.4l-.3 1.9h.2c.2-.7.6-1.2 1.2-1.5s1.2-.6 2.1-.6c.5 0 1 .1 1.4.3.4.2.8.5 1 .8.3.4.4.8.5 1.3s.1 1 0 1.6l-1.1 7.2H76l1.1-6.9c.1-.7 0-1.2-.3-1.6-.3-.4-.8-.6-1.4-.6-.6 0-1.2.2-1.6.6-.4.4-.7.9-.8 1.6l-1.1 6.8h-2.5zM81.9 73l.4-2.7c.1-.7.3-1.3.6-1.8s.6-1 1-1.4c.4-.4.8-.7 1.3-.9.5-.2 1-.3 1.6-.3.8 0 1.4.2 1.9.6.5.4.7.9.7 1.5h.2c0-.2 0-.5.1-.7 0-.2 0-.4.1-.6 0-.2 0-.4.1-.6l.5-3.4h2.5l-2.3 14.4h-2.4l.3-1.9h-.2c-.2.7-.6 1.2-1.2 1.6s-1.3.6-2.1.6c-1 0-1.8-.3-2.3-.9s-.8-1.4-.8-2.5v-.5c-.1-.1 0-.3 0-.5zm4.3 2.2c.7 0 1.2-.2 1.6-.6.4-.4.7-.9.8-1.6l.4-2.7c.1-.7 0-1.2-.3-1.6-.3-.4-.8-.6-1.5-.6s-1.2.2-1.7.6c-.4.4-.7.9-.8 1.6l-.3 2.7c-.1.7 0 1.2.3 1.6.3.4.8.6 1.5.6zM93.7 74.4h2.5c0 .3.2.6.5.8.3.2.7.3 1.2.3h.8c.6 0 1.1-.1 1.5-.4.4-.2.6-.6.7-1 .1-.8-.4-1.2-1.5-1.4l-1.5-.2c-1.2-.1-2-.5-2.6-1-.5-.6-.7-1.3-.6-2.2.2-1 .7-1.8 1.5-2.4.8-.6 1.8-.9 3.2-.9h.8c1.2 0 2.1.3 2.8.8.7.5 1 1.2.9 2.2h-2.5c0-.3-.2-.6-.5-.7-.3-.2-.6-.3-1.1-.3H99c-.6 0-1 .1-1.4.3-.3.2-.5.5-.6.9-.1.7.3 1.1 1.3 1.3l1.6.2c1.2.1 2.1.5 2.7 1.1s.8 1.3.6 2.3c-.2 1.1-.7 1.9-1.5 2.5-.8.6-2 .9-3.4.9h-.8c-1.2 0-2.2-.3-2.9-.8-.6-.6-1-1.4-.9-2.3zM110.1 77.4c-.7 0-1.4-.1-1.9-.3-.5-.2-1-.5-1.4-.9-.4-.4-.6-.8-.8-1.4-.1-.5-.2-1.1-.1-1.8l.4-2.8c.2-1.3.8-2.4 1.8-3.2 1-.8 2.2-1.1 3.7-1.1.6 0 1.2.1 1.7.3.5.2.9.4 1.3.8.4.3.7.8.9 1.2.2.5.3 1 .3 1.6h-2.5c0-.5-.2-.9-.6-1.2-.4-.3-.9-.5-1.5-.5-.7 0-1.3.2-1.8.5-.5.4-.7.9-.8 1.6l-.5 2.8c-.1.6 0 1.1.4 1.5.4.4.9.6 1.6.6.6 0 1.2-.1 1.6-.5.4-.3.8-.7 1-1.2h2.5c-.4 1.2-1.1 2.2-2 2.9-.8.8-2 1.1-3.3 1.1zM117.9 73l.4-2.7c.1-.7.3-1.2.5-1.8.3-.5.6-1 1-1.4.4-.4.8-.7 1.3-.9.5-.2 1-.3 1.6-.3.8 0 1.4.2 1.8.5.4.4.6.9.6 1.6h.2l.3-1.9h2.4l-1.3 8.3c0 .2 0 .4.1.6.1.1.3.2.5.2h.7l-.3 2h-1.5c-.7 0-1.2-.2-1.5-.6-.4-.4-.5-.8-.4-1.4h-.2c-.2.7-.6 1.2-1.1 1.6s-1.2.6-1.9.6c-1 0-1.7-.3-2.3-.9-.5-.6-.8-1.4-.8-2.5v-.5c-.2-.1-.2-.3-.1-.5zm4.1 2.2c.6 0 1.1-.2 1.5-.5.4-.3.7-.8.8-1.4l.5-3.1c.1-.6 0-1.1-.3-1.4-.3-.4-.7-.5-1.3-.5-.6 0-1.2.2-1.6.6-.4.4-.7.9-.8 1.6l-.4 2.6c-.1.7 0 1.2.3 1.6.2.3.7.5 1.3.5zM128.9 80.6l2.3-14.4h2.4l-.3 1.9h.2c.2-.7.6-1.2 1.2-1.5.6-.4 1.3-.6 2.1-.6 1 0 1.8.3 2.3.9.6.6.8 1.4.8 2.4 0 .3 0 .7-.1 1l-.4 2.7c-.2 1.4-.7 2.4-1.5 3.2-.8.8-1.8 1.2-3 1.2-.8 0-1.4-.2-1.9-.6-.5-.4-.7-.9-.7-1.6h-.2v.7c0 .2 0 .4-.1.6 0 .2-.1.4-.1.6l-.5 3.4h-2.5zm5.5-5.4c.7 0 1.2-.2 1.7-.6s.7-1 .8-1.6l.4-2.6c.1-.7 0-1.2-.3-1.6-.3-.4-.8-.6-1.5-.6-.6 0-1.2.2-1.6.6s-.7.9-.8 1.6l-.4 2.7c-.1.7 0 1.2.3 1.6.3.3.8.5 1.4.5zM146 77.4c-.7 0-1.4-.1-1.9-.3-.5-.2-1-.5-1.4-.9-.4-.4-.6-.8-.8-1.4-.1-.5-.2-1.1-.1-1.8l.4-2.8c.1-.7.3-1.2.6-1.8.3-.5.7-1 1.2-1.4.5-.4 1-.7 1.6-.9.6-.2 1.3-.3 2-.3s1.3.1 1.9.3c.6.2 1 .5 1.4.9.4.4.6.8.7 1.4s.2 1.1 0 1.8l-.3 2h-7l-.1.7c-.1.7 0 1.3.3 1.7.3.4.9.6 1.6.6.5 0 1-.1 1.4-.3.4-.2.7-.4.9-.7h2.5c-.2.5-.5.9-.8 1.2s-.7.7-1.2.9c-.5.3-.9.5-1.5.6-.3.4-.9.5-1.4.5zm3.3-6.7l.1-.3c.1-.7 0-1.3-.3-1.7-.4-.4-.9-.6-1.6-.6-.7 0-1.3.2-1.8.6-.5.4-.8 1-.9 1.7l-.1.4h4.6zM165.2 77.2l6.1-14.4h3.4l1.5 14.4h-2.5l-.3-3.6h-4.1l-1.4 3.6h-2.7zm4.9-5.6h3.2l-.4-5.1v-.7-.6-.6h-.1c-.1.2-.1.4-.2.6-.1.2-.1.4-.2.6s-.2.5-.3.7l-2 5.1zM176.9 80.6l2.3-14.4h2.4l-.3 1.9h.2c.2-.7.6-1.2 1.2-1.5.6-.4 1.3-.6 2.1-.6 1 0 1.8.3 2.3.9.6.6.8 1.4.8 2.4 0 .3 0 .7-.1 1l-.4 2.7c-.2 1.4-.7 2.4-1.5 3.2-.8.8-1.8 1.2-3 1.2-.8 0-1.4-.2-1.9-.6-.5-.4-.7-.9-.7-1.6h-.2v.7c0 .2 0 .4-.1.6 0 .2-.1.4-.1.6l-.5 3.4h-2.5zm5.5-5.4c.7 0 1.2-.2 1.7-.6s.7-1 .8-1.6l.4-2.6c.1-.7 0-1.2-.3-1.6-.3-.4-.8-.6-1.5-.6-.6 0-1.2.2-1.6.6s-.7.9-.8 1.6l-.4 2.7c-.1.7 0 1.2.3 1.6.3.3.8.5 1.4.5zM188.9 80.6l2.3-14.4h2.4l-.3 1.9h.2c.2-.7.6-1.2 1.2-1.5.6-.4 1.3-.6 2.1-.6 1 0 1.8.3 2.3.9.6.6.8 1.4.8 2.4 0 .3 0 .7-.1 1l-.4 2.7c-.2 1.4-.7 2.4-1.5 3.2-.8.8-1.8 1.2-3 1.2-.8 0-1.4-.2-1.9-.6-.5-.4-.7-.9-.7-1.6h-.2v.7c0 .2 0 .4-.1.6 0 .2-.1.4-.1.6l-.5 3.4h-2.5zm5.5-5.4c.7 0 1.2-.2 1.7-.6s.7-1 .8-1.6l.4-2.6c.1-.7 0-1.2-.3-1.6-.3-.4-.8-.6-1.5-.6-.6 0-1.2.2-1.6.6s-.7.9-.8 1.6l-.4 2.7c-.1.7 0 1.2.3 1.6.3.3.8.5 1.4.5zM202.9 62.8h6l-1.7 10.8c-.1.4 0 .7.2 1 .2.2.5.3.9.3h3.3l-.4 2.3h-3.5c-1.1 0-2-.3-2.5-.9-.5-.6-.7-1.5-.5-2.6l1.4-8.6h-3.5l.3-2.3zM213.7 77.2l.4-2.3h3.9l1-6.5h-3.4l.3-2.3h5.8l-1.4 8.7h3.2l-.4 2.3h-9.4zm5.4-14c.1-.4.2-.7.5-1 .3-.2.7-.4 1.1-.4h.5c.4 0 .8.1 1 .4.2.2.3.6.2 1-.1.4-.2.7-.5.9-.3.2-.7.4-1.1.4h-.5c-.4 0-.8-.1-1-.4-.2-.2-.3-.5-.2-.9zM230.1 77.4c-.7 0-1.4-.1-1.9-.3-.5-.2-1-.5-1.4-.9-.4-.4-.6-.8-.8-1.4-.1-.5-.2-1.1-.1-1.8l.4-2.8c.2-1.3.8-2.4 1.8-3.2 1-.8 2.2-1.1 3.7-1.1.6 0 1.2.1 1.7.3.5.2.9.4 1.3.8.4.3.7.8.9 1.2.2.5.3 1 .3 1.6h-2.5c0-.5-.2-.9-.6-1.2-.4-.3-.9-.5-1.5-.5-.7 0-1.3.2-1.8.5-.5.4-.7.9-.8 1.6l-.5 2.8c-.1.6 0 1.1.4 1.5.4.4.9.6 1.6.6.6 0 1.2-.1 1.6-.5.4-.3.8-.7 1-1.2h2.5c-.4 1.2-1.1 2.2-2 2.9-.8.8-2 1.1-3.3 1.1zM237.9 73l.4-2.7c.1-.7.3-1.2.5-1.8.3-.5.6-1 1-1.4.4-.4.8-.7 1.3-.9.5-.2 1-.3 1.6-.3.8 0 1.4.2 1.8.5.4.4.6.9.6 1.6h.2l.3-1.9h2.4l-1.3 8.3c0 .2 0 .4.1.6.1.1.3.2.5.2h.7l-.3 2h-1.5c-.7 0-1.2-.2-1.5-.6-.4-.4-.5-.8-.4-1.4h-.2c-.2.7-.6 1.2-1.1 1.6s-1.2.6-1.9.6c-1 0-1.7-.3-2.3-.9-.5-.6-.8-1.4-.8-2.5v-.5c-.2-.1-.2-.3-.1-.5zm4.1 2.2c.6 0 1.1-.2 1.5-.5.4-.3.7-.8.8-1.4l.5-3.1c.1-.6 0-1.1-.3-1.4-.3-.4-.7-.5-1.3-.5-.6 0-1.2.2-1.6.6-.4.4-.7.9-.8 1.6l-.4 2.6c-.1.7 0 1.2.3 1.6.2.3.7.5 1.3.5zM250.7 66.2h3l.5-3.4h2.5l-.5 3.4h4.2l-.4 2.3h-4.2l-.8 5.3c-.1.3 0 .6.2.8.2.2.5.3.8.3h2.8l-.4 2.3h-3c-1.1 0-1.9-.3-2.4-.9s-.7-1.4-.5-2.5l.8-5.3h-3l.4-2.3zM261.7 77.2l.4-2.3h3.9l1-6.5h-3.4l.3-2.3h5.8l-1.4 8.7h3.2l-.4 2.3h-9.4zm5.4-14c.1-.4.2-.7.5-1 .3-.2.7-.4 1.1-.4h.5c.4 0 .8.1 1 .4.2.2.3.6.2 1-.1.4-.2.7-.5.9-.3.2-.7.4-1.1.4h-.5c-.4 0-.8-.1-1-.4-.2-.2-.3-.5-.2-.9zM278 77.4c-.7 0-1.4-.1-1.9-.3s-1-.5-1.3-.9c-.3-.4-.6-.8-.7-1.4-.1-.5-.2-1.1-.1-1.8l.4-2.7c.2-1.3.8-2.4 1.8-3.2 1-.8 2.2-1.2 3.7-1.2.7 0 1.4.1 1.9.3.5.2 1 .5 1.3.9.4.4.6.8.8 1.4.1.5.2 1.1.1 1.8l-.4 2.7c-.2 1.4-.8 2.4-1.8 3.2-1.1.8-2.4 1.2-3.8 1.2zm-1.6-4.4c-.1.7 0 1.2.4 1.6.4.4.9.6 1.6.6.7 0 1.3-.2 1.8-.6.5-.4.8-.9.9-1.6l.4-2.7c.1-.7 0-1.2-.4-1.6-.4-.4-.9-.6-1.6-.6s-1.3.2-1.7.6c-.5.4-.8.9-.9 1.6l-.5 2.7zM285.4 77.2l1.7-11h2.4l-.3 1.9h.2c.2-.7.6-1.2 1.2-1.5s1.2-.6 2.1-.6c.5 0 1 .1 1.4.3.4.2.8.5 1 .8.3.4.4.8.5 1.3s.1 1 0 1.6l-1.1 7.2H292l1.1-6.9c.1-.7 0-1.2-.3-1.6-.3-.4-.8-.6-1.4-.6-.6 0-1.2.2-1.6.6-.4.4-.7.9-.8 1.6l-1.1 6.8h-2.5zM311.1 62.8h10.4l-.4 2.3h-4l-1.9 12.1h-2.5l1.9-12.1h-4l.5-2.3zM322.2 73.1l1.1-6.9h2.5l-1.1 6.9c-.2 1.4.3 2.1 1.6 2.1s2.1-.7 2.3-2.1l1.1-6.9h2.5l-1.1 6.9c-.2 1.4-.8 2.4-1.7 3.2-.9.8-2.1 1.1-3.5 1.1s-2.4-.4-3.1-1.2c-.6-.7-.8-1.8-.6-3.1zM334.7 66.2h3l.5-3.4h2.5l-.5 3.4h4.2l-.4 2.3h-4.2l-.8 5.3c-.1.3 0 .6.2.8.2.2.5.3.8.3h2.8l-.4 2.3h-3c-1.1 0-1.9-.3-2.4-.9s-.7-1.4-.5-2.5l.8-5.3h-3l.4-2.3zM350 77.4c-.7 0-1.4-.1-1.9-.3s-1-.5-1.3-.9c-.3-.4-.6-.8-.7-1.4-.1-.5-.2-1.1-.1-1.8l.4-2.7c.2-1.3.8-2.4 1.8-3.2 1-.8 2.2-1.2 3.7-1.2.7 0 1.4.1 1.9.3.5.2 1 .5 1.3.9.4.4.6.8.8 1.4.1.5.2 1.1.1 1.8l-.4 2.7c-.2 1.4-.8 2.4-1.8 3.2-1.1.8-2.4 1.2-3.8 1.2zm-1.6-4.4c-.1.7 0 1.2.4 1.6.4.4.9.6 1.6.6.7 0 1.3-.2 1.8-.6.5-.4.8-.9.9-1.6l.4-2.7c.1-.7 0-1.2-.4-1.6-.4-.4-.9-.6-1.6-.6s-1.3.2-1.7.6c-.5.4-.8.9-.9 1.6l-.5 2.7zM357.9 77.2l1.7-11h2.3l-.3 1.9h.2c.2-.7.7-1.2 1.2-1.5.6-.4 1.3-.6 2.1-.6 1.2 0 2 .4 2.6 1.1.5.7.7 1.8.5 3l-.1.8h-2.6l.1-.6c.1-.7 0-1.3-.3-1.7-.3-.4-.8-.6-1.5-.6-.6 0-1.2.2-1.6.6-.4.4-.7 1-.8 1.7l-1.1 6.8h-2.4zM369.7 77.2l.4-2.3h3.9l1-6.5h-3.4l.3-2.3h5.8l-1.4 8.7h3.2l-.4 2.3h-9.4zm5.4-14c.1-.4.2-.7.5-1 .3-.2.7-.4 1.1-.4h.5c.4 0 .8.1 1 .4.2.2.3.6.2 1-.1.4-.2.7-.5.9-.3.2-.7.4-1.1.4h-.5c-.4 0-.8-.1-1-.4-.2-.2-.3-.5-.2-.9zM381.9 73l.4-2.7c.1-.7.3-1.2.5-1.8.3-.5.6-1 1-1.4.4-.4.8-.7 1.3-.9.5-.2 1-.3 1.6-.3.8 0 1.4.2 1.8.5.4.4.6.9.6 1.6h.2l.3-1.9h2.4l-1.3 8.3c0 .2 0 .4.1.6.1.1.3.2.5.2h.7l-.3 2h-1.5c-.7 0-1.2-.2-1.5-.6-.4-.4-.5-.8-.4-1.4h-.2c-.2.7-.6 1.2-1.1 1.6s-1.2.6-1.9.6c-1 0-1.7-.3-2.3-.9-.5-.6-.8-1.4-.8-2.5v-.5c-.2-.1-.2-.3-.1-.5zm4.1 2.2c.6 0 1.1-.2 1.5-.5.4-.3.7-.8.8-1.4l.5-3.1c.1-.6 0-1.1-.3-1.4-.3-.4-.7-.5-1.3-.5-.6 0-1.2.2-1.6.6-.4.4-.7.9-.8 1.6l-.4 2.6c-.1.7 0 1.2.3 1.6.2.3.7.5 1.3.5zM394.9 62.8h6l-1.7 10.8c-.1.4 0 .7.2 1 .2.2.5.3.9.3h3.3l-.4 2.3h-3.5c-1.1 0-2-.3-2.5-.9-.5-.6-.7-1.5-.5-2.6l1.4-8.6h-3.5l.3-2.3zM45.9 98.4l5.1-2.2c.1-.1.3-.1.4-.2.1 0 .3-.1.4-.1.1 0 .2-.1.3-.1v-.1c-.1 0-.2 0-.3-.1-.2 0-.4-.1-.7-.2l-4.5-2.2.3-1.6 6.5 3.4-.3 1.8-7.6 3.4.4-1.8zM66.5 89.7h3.9c.6 0 1 .1 1.5.2.4.2.8.4 1.1.7.3.3.5.7.6 1.1s.1.9 0 1.4c-.1.5-.2 1-.5 1.4-.2.4-.5.8-.9 1.1-.4.3-.8.5-1.3.7-.5.2-1 .2-1.6.2h-2.2l-.7 4.6h-1.8l1.9-11.4zm.9 5.3h2.2c.6 0 1.1-.2 1.5-.5s.7-.8.7-1.4c.1-.6 0-1-.3-1.4-.3-.4-.7-.5-1.3-.5H68l-.6 3.8zM74.6 97.9l.4-2.2c.1-.5.2-1 .4-1.4s.5-.8.8-1.1c.3-.3.6-.5 1-.7s.8-.2 1.2-.2c.6 0 1.1.1 1.4.4.3.3.5.7.5 1.2h.1l.3-1.5h1.6l-1.1 6.8c0 .2 0 .4.1.5s.2.2.4.2h.6l-.2 1.5H81c-.5 0-.9-.1-1.2-.4s-.4-.7-.3-1.1h-.1c-.2.5-.5.9-.9 1.2-.4.3-.9.4-1.6.4-.8 0-1.4-.2-1.8-.7-.4-.5-.6-1.1-.6-2v-.4c0-.1.1-.4.1-.5zm3.2 1.9c.5 0 .9-.2 1.3-.5.3-.3.6-.7.7-1.3l.4-2.7c0-.5-.1-.9-.3-1.2-.2-.3-.6-.4-1.1-.4-.6 0-1 .2-1.4.5-.4.3-.6.8-.7 1.4l-.3 2.2c-.1.6 0 1.1.2 1.4s.6.6 1.2.6zM84.2 101.2l1.4-8.8h1.6l-.2 1.5h.1c.2-.5.5-.9 1-1.2s1-.4 1.7-.4c.9 0 1.6.3 2 .9.4.6.6 1.4.4 2.4l-.1.6h-1.8l.1-.4c.1-.6 0-1.1-.3-1.5s-.7-.5-1.3-.5c-.6 0-1 .2-1.4.5-.4.3-.6.8-.7 1.4l-.9 5.6h-1.6zM94.4 92.4h2.5l.4-2.7h1.8l-.4 2.7h3.4l-.2 1.6h-3.4l-.7 4.7c-.1.3 0 .5.1.7.1.2.4.2.7.2h2.2l-.3 1.6h-2.3c-.8 0-1.4-.2-1.8-.7s-.5-1.1-.4-1.8l.7-4.7h-2.5l.2-1.6zM112.7 101.2l.3-1.6h3.1l1.2-7.4c0-.3.1-.5.1-.7.1-.2.1-.3.1-.3l-.2.2c-.1.1-.2.1-.2.2s-.2.1-.3.2l-2.5 1.5.3-1.7 2.8-1.8h2.1l-1.6 10h2.5l-.2 1.6h-7.5zM133.7 89.7h3.5c1.1 0 2 .3 2.5.8.6.5.8 1.3.6 2.2-.1.7-.4 1.3-.9 1.7s-1 .7-1.7.7v.1c.7 0 1.3.3 1.6.8s.5 1.1.3 1.9c-.2 1-.6 1.8-1.3 2.4-.7.6-1.7.9-2.8.9h-3.7l1.9-11.5zm.2 10h1.8c.6 0 1.2-.2 1.6-.5.4-.3.6-.8.7-1.3.1-.6 0-1-.3-1.4-.3-.3-.8-.5-1.4-.5h-1.8l-.6 3.7zm.8-5.2h1.8c.6 0 1-.1 1.4-.4.4-.3.6-.7.7-1.2.1-.5 0-.9-.3-1.2-.3-.3-.7-.5-1.2-.5h-1.8l-.6 3.3zM141.8 101.2l1.4-8.8h1.6l-.2 1.5h.1c.2-.5.5-.9 1-1.2s1-.4 1.7-.4c.9 0 1.6.3 2 .9.4.6.6 1.4.4 2.4l-.1.6h-1.8l.1-.4c.1-.6 0-1.1-.3-1.5s-.7-.5-1.3-.5c-.6 0-1 .2-1.4.5-.4.3-.6.8-.7 1.4l-.9 5.6h-1.6zM151.2 101.2l.3-1.6h3.2l.9-5.6h-2.8l.3-1.6h4.5l-1.1 7.2h2.6l-.3 1.6h-7.6zm4.3-11.2c.1-.3.2-.6.4-.8.2-.2.5-.3.8-.3h.4c.3 0 .6.1.8.3.2.2.2.4.2.7-.1.3-.2.6-.4.7-.2.2-.5.3-.8.3h-.4c-.3 0-.6-.1-.8-.3-.2 0-.2-.3-.2-.6zM164.2 101.4c-.6 0-1-.1-1.5-.2-.4-.2-.8-.4-1-.7-.3-.3-.5-.7-.6-1.1s-.1-.9 0-1.4l.4-2.3c.1-.5.2-1 .5-1.4.2-.4.5-.8.9-1.1.4-.3.8-.5 1.3-.7.5-.2 1-.2 1.6-.2.6 0 1 .1 1.5.2.4.2.8.4 1 .7.3.3.5.7.6 1.1.1.4.1.9 0 1.4l-.3 1.6H163l-.1.6c-.1.6 0 1.1.3 1.5.3.4.7.5 1.3.5.4 0 .8-.1 1.2-.2.4-.1.6-.4.8-.6h1.7c-.1.3-.4.7-.6.9s-.6.5-.9.7c-.3.2-.7.4-1.1.5-.5.1-1 .2-1.4.2zM167 96l.1-.4c.1-.6 0-1.1-.3-1.4-.3-.3-.8-.5-1.4-.5-.6 0-1.1.2-1.5.5-.4.3-.6.8-.8 1.4l-.1.4h4zM169.6 103.9l.3-1.6h.8c.5 0 .9-.1 1.2-.4.3-.3.5-.6.6-1.1l.9-5.9h-2.5l.2-1.6h2.5l.2-1.2c.1-.7.4-1.3 1-1.8s1.2-.6 2-.6h2.6l-.3 1.6h-2.5c-.3 0-.5.1-.7.2-.2.1-.3.4-.4.6l-.2 1.2h3.5l-.3 1.6H175l-.9 5.9c-.1 1-.6 1.7-1.2 2.3-.7.5-1.5.8-2.6.8h-.7zM189.6 101.2l.2-1.5h2.5l1.3-8.4h-2.5l.2-1.5h6.8l-.2 1.5h-2.5l-1.3 8.4h2.5l-.2 1.5h-6.8zM199.1 101.2l1.4-8.8h1.7l-.2 1.5h.1c.2-.5.5-.9 1-1.2s1-.4 1.6-.4c.4 0 .8.1 1.1.2.3.2.6.4.8.7s.4.6.4 1c.1.4.1.8 0 1.3l-.9 5.7h-1.7l.9-5.6c.1-.6 0-1.1-.2-1.4-.2-.3-.6-.5-1.2-.5s-1 .2-1.4.5-.6.7-.7 1.3l-.9 5.7h-1.8zM209.6 92.4h2.5l.4-2.7h1.8l-.4 2.7h3.4L217 94h-3.4l-.7 4.7c-.1.3 0 .5.1.7.1.2.4.2.7.2h2.2l-.3 1.6h-2.3c-.8 0-1.4-.2-1.8-.7s-.5-1.1-.4-1.8l.7-4.7h-2.5l.3-1.6zM218.6 101.2l1.4-8.8h1.6l-.2 1.5h.1c.2-.5.5-.9 1-1.2s1-.4 1.7-.4c.9 0 1.6.3 2 .9.4.6.6 1.4.4 2.4l-.1.6h-1.8l.1-.4c.1-.6 0-1.1-.3-1.5s-.7-.5-1.3-.5c-.6 0-1 .2-1.4.5-.4.3-.6.8-.7 1.4l-.9 5.6h-1.6zM231.4 101.4c-.6 0-1-.1-1.5-.2-.4-.2-.8-.4-1-.7-.3-.3-.5-.7-.6-1.1-.1-.4-.1-.9 0-1.4l.4-2.2c.1-.5.2-1 .5-1.4.2-.4.5-.8.9-1.1.4-.3.8-.5 1.3-.7.5-.2 1-.2 1.6-.2s1.1.1 1.5.2c.4.2.8.4 1 .7.3.3.5.7.6 1.1.1.4.1.9 0 1.4l-.3 2.2c-.2 1.1-.6 1.9-1.4 2.5s-1.9.9-3 .9zm-1.4-3.5c-.1.6 0 1.1.3 1.4s.7.5 1.3.5c.6 0 1.1-.2 1.5-.5.4-.3.6-.8.7-1.4l.3-2.2c.1-.6 0-1.1-.3-1.4-.3-.3-.7-.5-1.3-.5-.6 0-1.1.2-1.5.5s-.6.8-.7 1.4l-.3 2.2zM237.8 97.9l.4-2.2c.1-.5.2-1 .4-1.4.2-.4.5-.8.8-1.1.3-.3.7-.5 1.1-.7.4-.2.8-.2 1.3-.2.7 0 1.2.1 1.5.4s.6.7.6 1.2h.1v-.5c0-.2 0-.3.1-.5 0-.2 0-.3.1-.5l.4-2.7h1.7l-1.8 11.5h-1.7l.2-1.5h-.1c-.2.5-.5.9-1 1.2-.5.3-1 .4-1.7.4-.8 0-1.4-.2-1.8-.7-.4-.5-.7-1.1-.7-2v-.4c.1 0 .1-.2.1-.3zm3.4 1.9c.6 0 1-.2 1.4-.5.4-.4.6-.8.7-1.4l.4-2.2c.1-.6 0-1.1-.3-1.4-.3-.4-.7-.5-1.2-.5-.6 0-1.1.2-1.5.5-.4.3-.6.8-.7 1.4l-.4 2.2c-.1.6 0 1.1.3 1.4s.7.5 1.3.5zM247.6 98l.9-5.6h1.8l-.9 5.6c-.2 1.2.3 1.8 1.4 1.8s1.8-.6 2-1.8l.9-5.6h1.7l-.9 5.6c-.2 1.1-.6 1.9-1.3 2.5-.7.6-1.6.9-2.7.9s-1.9-.3-2.4-.9c-.5-.6-.6-1.5-.5-2.5zM260.3 101.4c-.5 0-1-.1-1.5-.2-.4-.2-.8-.4-1-.7-.3-.3-.5-.7-.6-1.1s-.1-.9 0-1.4l.4-2.2c.2-1.1.6-1.9 1.4-2.5.7-.6 1.7-.9 2.8-.9.5 0 .9.1 1.3.2s.7.4 1 .6.5.6.7 1c.2.4.2.8.2 1.2h-1.8c0-.4-.2-.8-.5-1.1-.3-.3-.7-.4-1.2-.4-.6 0-1.1.2-1.5.5s-.6.8-.7 1.4l-.4 2.2c-.1.6 0 1 .3 1.4.3.3.7.5 1.3.5.5 0 1-.1 1.4-.4.4-.3.7-.6.8-1.1h1.8c-.3 1-.8 1.7-1.5 2.2-.8.5-1.7.8-2.7.8zM267.2 92.4h2.5l.4-2.7h1.8l-.4 2.7h3.4l-.2 1.6h-3.4l-.7 4.7c-.1.3 0 .5.1.7.1.2.4.2.7.2h2.2l-.3 1.6H271c-.8 0-1.4-.2-1.8-.7s-.5-1.1-.4-1.8l.7-4.7H267l.2-1.6zM276 101.2l.3-1.6h3.2l.9-5.6h-2.8l.3-1.6h4.5l-1.1 7.2h2.6l-.3 1.6H276zm4.3-11.2c.1-.3.2-.6.4-.8.2-.2.5-.3.8-.3h.4c.3 0 .6.1.8.3.2.2.2.4.2.7-.1.3-.2.6-.4.7-.2.2-.5.3-.8.3h-.4c-.3 0-.6-.1-.8-.3-.2 0-.2-.3-.2-.6zM289 101.4c-.6 0-1-.1-1.5-.2-.4-.2-.8-.4-1-.7-.3-.3-.5-.7-.6-1.1-.1-.4-.1-.9 0-1.4l.4-2.2c.1-.5.2-1 .5-1.4.2-.4.5-.8.9-1.1.4-.3.8-.5 1.3-.7.5-.2 1-.2 1.6-.2s1.1.1 1.5.2c.4.2.8.4 1 .7.3.3.5.7.6 1.1.1.4.1.9 0 1.4l-.3 2.2c-.2 1.1-.6 1.9-1.4 2.5s-1.9.9-3 .9zm-1.4-3.5c-.1.6 0 1.1.3 1.4s.7.5 1.3.5c.6 0 1.1-.2 1.5-.5.4-.3.6-.8.7-1.4l.3-2.2c.1-.6 0-1.1-.3-1.4-.3-.3-.7-.5-1.3-.5-.6 0-1.1.2-1.5.5s-.6.8-.7 1.4l-.3 2.2zM295.1 101.2l1.4-8.8h1.7l-.2 1.5h.1c.2-.5.5-.9 1-1.2s1-.4 1.6-.4c.4 0 .8.1 1.1.2.3.2.6.4.8.7s.4.6.4 1c.1.4.1.8 0 1.3l-.9 5.7h-1.7l.9-5.6c.1-.6 0-1.1-.2-1.4-.2-.3-.6-.5-1.2-.5s-1 .2-1.4.5-.6.7-.7 1.3l-.9 5.7h-1.8zM315.2 92.4h2.5l.4-2.7h1.8l-.4 2.7h3.4l-.2 1.6h-3.4l-.7 4.7c-.1.3 0 .5.1.7.1.2.4.2.7.2h2.2l-.3 1.6H319c-.8 0-1.4-.2-1.8-.7s-.5-1.1-.4-1.8l.7-4.7H315l.2-1.6zM327.4 101.4c-.6 0-1-.1-1.5-.2-.4-.2-.8-.4-1-.7-.3-.3-.5-.7-.6-1.1-.1-.4-.1-.9 0-1.4l.4-2.2c.1-.5.2-1 .5-1.4.2-.4.5-.8.9-1.1.4-.3.8-.5 1.3-.7.5-.2 1-.2 1.6-.2s1.1.1 1.5.2c.4.2.8.4 1 .7.3.3.5.7.6 1.1.1.4.1.9 0 1.4l-.3 2.2c-.2 1.1-.6 1.9-1.4 2.5s-1.9.9-3 .9zm-1.4-3.5c-.1.6 0 1.1.3 1.4s.7.5 1.3.5c.6 0 1.1-.2 1.5-.5.4-.3.6-.8.7-1.4l.3-2.2c.1-.6 0-1.1-.3-1.4-.3-.3-.7-.5-1.3-.5-.6 0-1.1.2-1.5.5s-.6.8-.7 1.4l-.3 2.2zM345 89.7h7.1l-.3 1.6h-5.4l-.5 3.3h5l-.3 1.6h-4.9l-.8 5h-1.7l1.8-11.5zM353.8 89.7h4.6l-1.4 8.8c-.1.4 0 .6.2.8s.4.3.8.3h2.6l-.3 1.6h-2.7c-.9 0-1.5-.2-1.9-.7s-.6-1.1-.4-2l1.1-7.2h-2.8l.2-1.6zM362.8 98l.9-5.6h1.8l-.9 5.6c-.2 1.2.3 1.8 1.4 1.8s1.8-.6 2-1.8l.9-5.6h1.7l-.9 5.6c-.2 1.1-.6 1.9-1.3 2.5-.7.6-1.6.9-2.7.9s-1.9-.3-2.4-.9c-.5-.6-.6-1.5-.5-2.5zM372.8 92.4h2.5l.4-2.7h1.8l-.4 2.7h3.4l-.2 1.6h-3.4l-.7 4.7c-.1.3 0 .5.1.7.1.2.4.2.7.2h2.2l-.3 1.6h-2.3c-.8 0-1.4-.2-1.8-.7s-.5-1.1-.4-1.8l.6-4.7h-2.5l.3-1.6zM382.4 92.4h2.5l.4-2.7h1.8l-.4 2.7h3.4l-.2 1.6h-3.4l-.7 4.7c-.1.3 0 .5.1.7.1.2.4.2.7.2h2.2l-.3 1.6h-2.3c-.8 0-1.4-.2-1.8-.7s-.5-1.1-.4-1.8l.7-4.7h-2.5l.2-1.6zM394.6 101.4c-.6 0-1-.1-1.5-.2-.4-.2-.8-.4-1-.7-.3-.3-.5-.7-.6-1.1s-.1-.9 0-1.4l.4-2.3c.1-.5.2-1 .5-1.4.2-.4.5-.8.9-1.1.4-.3.8-.5 1.3-.7.5-.2 1-.2 1.6-.2.6 0 1 .1 1.5.2.4.2.8.4 1 .7.3.3.5.7.6 1.1.1.4.1.9 0 1.4l-.3 1.6h-5.6l-.1.6c-.1.6 0 1.1.3 1.5.3.4.7.5 1.3.5.4 0 .8-.1 1.2-.2.4-.1.6-.4.8-.6h1.7c-.1.3-.4.7-.6.9s-.6.5-.9.7c-.3.2-.7.4-1.1.5-.5.1-1 .2-1.4.2zm2.8-5.4l.1-.4c.1-.6 0-1.1-.3-1.4-.3-.3-.8-.5-1.4-.5-.6 0-1.1.2-1.5.5-.4.3-.6.8-.8 1.4l-.1.4h4zM401 101.2l1.4-8.8h1.6l-.2 1.5h.1c.2-.5.5-.9 1-1.2s1-.4 1.7-.4c.9 0 1.6.3 2 .9.4.6.6 1.4.4 2.4l-.1.6h-1.8l.1-.4c.1-.6 0-1.1-.3-1.5s-.7-.5-1.3-.5c-.6 0-1 .2-1.4.5-.4.3-.6.8-.7 1.4l-.9 5.6H401zM48.8 142.8c-.6-.3-1.1-.6-1.5-1s-.8-1-1-1.5-.4-1.2-.4-1.9.1-1.3.4-1.9.6-1.1 1-1.5 1-.8 1.5-1 1.2-.4 1.9-.4 1.3.1 1.9.4 1.1.6 1.5 1 .8 1 1 1.5.4 1.2.4 1.9-.1 1.3-.4 1.9-.6 1.1-1 1.5-1 .8-1.5 1-1.2.4-1.9.4-1.3-.2-1.9-.4zm3.3-.9c.5-.2.9-.5 1.2-.8s.6-.7.8-1.2.3-.9.3-1.5c0-.5-.1-1-.3-1.5s-.5-.9-.8-1.2-.7-.6-1.2-.8-.9-.3-1.5-.3-1 .1-1.5.3-.9.5-1.2.8-.6.7-.8 1.2-.3.9-.3 1.5c0 .5.1 1 .3 1.5s.5.9.8 1.2.7.6 1.2.8.9.3 1.5.3c.6-.1 1-.2 1.5-.3zm-3.4-3.4l2.5-3.1c.1-.1.1-.1.2-.1s.1 0 .2.1 0 .2 0 .3l-.8 2.1h1.5c.1 0 .1 0 .2.1s.1.1.1.2 0 .1-.1.2l-2.5 3.1c-.1.1-.1.1-.2.1s-.1 0-.2-.1-.1-.2 0-.3l.8-2.1h-1.5c-.1 0-.1 0-.2-.1s-.1-.1-.1-.2.1-.2.1-.2zM68.3 138c.2.1.3.1.4.3s.1.2.1.4c0 .1 0 .2-.1.3-.1.1-.2.2-.4.3v2.3c0 .2-.1.4-.2.6s-.3.3-.4.4c-.3.3-.7.6-1.2.7s-.9.2-1.4.2c-.8 0-1.4-.2-2-.5-.6-.3-1-.7-1.4-1.2s-.7-1-.9-1.6c-.2-.6-.3-1.1-.3-1.6 0-.3 0-.6.1-1s.2-.7.3-1 .3-.7.6-1c.2-.3.5-.5.8-.7.6-.4 1.1-.7 1.7-.9s1.2-.3 1.8-.3c.2 0 .4 0 .6.1.2 0 .5.1.7.2l.6.3c.2.1.2.3.2.5s-.1.3-.2.4c-.1.1-.3.2-.4.2-.1 0-.2 0-.3-.1-.1 0-.3-.1-.4-.1-.1 0-.3-.1-.4-.1s-.3-.1-.4-.1h-.3c-.1 0-.2 0-.3.1-.4.1-.8.3-1.2.4-.4.2-.8.4-1.1.7-.3.3-.6.6-.8 1-.2.4-.3.9-.3 1.5 0 .5.1 1 .3 1.4.2.4.4.8.7 1.1.3.3.6.6 1 .8.4.2.8.3 1.2.3.4 0 .7-.1 1.1-.2.4-.1.7-.4 1-.6v-2.1h-2.4c-.2 0-.4-.1-.5-.2s-.2-.3-.2-.4c0-.1.1-.3.2-.4.1-.1.3-.2.5-.2H67.6c.4 0 .6-.2.7-.2zM70 139.4c.1-.3.3-.7.4-1l.6-.9c.2-.3.5-.5.8-.7.3-.2.6-.3 1-.4.6-.1 1.1-.1 1.6.1.4.2.8.6 1.1 1 .3.4.4.9.5 1.4.1.5.1 1.1-.1 1.6-.2.6-.4 1.2-.8 1.7s-.9.9-1.5 1.1c-.4.2-.9.2-1.3.2s-.8-.2-1.1-.4c-.3-.2-.6-.5-.8-.9-.2-.4-.4-.7-.5-1.2-.1-.3-.1-.6-.1-.8 0-.3 0-.5.1-.8h.1zm1.2.4c0 .2-.1.4-.1.6v.6c0 .3.1.5.3.8.1.2.3.4.5.5.2.1.4.2.7.2.3 0 .5-.1.8-.2.3-.2.6-.5.8-.8s.4-.7.5-1.1c.1-.3.1-.6.1-1s-.2-.7-.3-.9c-.2-.3-.4-.5-.7-.6-.3-.1-.6-.1-1 .1s-.7.4-1 .8-.5.6-.6 1zM83.4 142.5s0 .1 0 0c0 .2.1.3 0 .4 0 .1-.1.2-.2.3-.1.1-.2.1-.3.1-.1 0-.3 0-.5-.1l-.3-.3c-.1-.1-.2-.2-.2-.3-.2.2-.4.3-.7.5s-.5.2-.7.2h-1.2c-.4 0-.8-.1-1.1-.4-.3-.2-.5-.5-.7-.8-.2-.3-.3-.6-.3-1v-1c.1-.4.1-.7.3-1 .1-.1.1-.3.2-.4.1-.1.2-.3.2-.4.1-.2.2-.4.4-.6.1-.2.3-.3.5-.5.1-.1.3-.2.4-.3s.3-.2.4-.3c.1-.1.2-.1.4-.2s.4-.1.6-.2c.2 0 .4-.1.7-.1s.4 0 .6.1c.1 0 .3 0 .4.1.1.1.2.2.3.4v2.1c0 .7 0 1.4.1 2.1 0 .1 0 .2.1.3s.1.3.2.4c.1.1.1.2.2.3.2.5.2.6.2.6zm-2-1c.1 0 .1-.1 0 0 .1-.1.1-.1 0 0 0-.7-.1-1.3-.1-2v-1.8H81c-.1 0-.2 0-.3.1-.1 0-.2.1-.3.1-.1 0-.2.1-.2.1-.3.1-.6.3-.8.6-.2.2-.4.5-.5.8l-.3.9c-.1.3-.1.6-.1 1 0 .1 0 .2.1.2s.1.2.1.2l.2.2.2.2c.1 0 .2.1.3.1.1 0 .2.1.3.1h.5c.2 0 .3 0 .5-.1s.3-.2.5-.3.1-.3.2-.4zM86.4 142.5c.2.1.3.3.3.5s0 .3-.1.4c-.1.1-.2.2-.4.3-.2.1-.3 0-.5-.1-.1-.1-.2-.1-.3-.2s-.2-.1-.3-.2l-.2-.2c0-.1-.1-.2-.1-.3V134c0-.2.1-.3.2-.4.1-.1.2-.2.4-.2.1 0 .3 0 .4.1.1.1.2.2.3.4v8.3s.1 0 .1.1c.2.1.2.1.2.2zM88.5 142.1c-.1-.2-.1-.4-.1-.5 0-.1.1-.3.2-.4.1-.1.2-.1.4-.1s.3.1.5.2c.2.3.5.5.8.7.3.2.7.3 1 .3l.3-.1c.1-.1.1-.1.2-.1 0 0 .1 0 .1-.1l.1-.1s.1-.1.1-.2v-.1-.1-.1-.1l-.1-.3-.1-.1-.1-.1c-.3-.2-.5-.3-.8-.4s-.5-.1-.8-.2c-.2-.1-.5-.2-.7-.3-.2-.1-.5-.3-.7-.6-.2-.2-.3-.5-.3-.9 0-.3 0-.6.2-.9.1-.3.3-.6.5-.8s.5-.4.8-.4c.4-.1.9-.1 1.3 0s.9.2 1.3.4c.2.1.3.3.3.5s0 .3-.1.4c-.1.1-.2.2-.4.3-.2.1-.3 0-.5-.1s-.5-.2-.8-.3h-.8-.1-.1c-.1.1-.2.2-.2.4s-.1.3-.1.4c0 0 0 .1.1.2l.1.1.1.1c.2.1.5.2.8.3l.9.3c.3.1.5.2.8.4.2.2.4.4.6.7.2.6.3 1.1.1 1.6-.2.5-.5.9-1 1.3-.1.1-.3.2-.4.2s-.3.1-.5.1c-.6 0-1.1-.1-1.6-.4-.5-.3-1-.7-1.3-1.1zM96.3 137.6c0 .3-.1.5-.3.7-.2.2-.4.3-.7.3s-.5-.1-.7-.3c-.2-.2-.3-.4-.3-.7 0-.3.1-.5.3-.7.2-.2.4-.3.7-.3s.5.1.7.3c.3.2.3.4.3.7zm.1 4.7c0 .2-.1.5-.3.6-.2.2-.4.3-.6.3-.2 0-.5-.1-.6-.3-.2-.2-.3-.4-.3-.6 0-.3.1-.5.3-.7.2-.2.4-.3.6-.3.3 0 .5.1.6.3.2.3.3.5.3.7zM48.7 160.4c.1.1.1.2.1.3 0 .1 0 .2-.1.3-.1.1-.2.2-.4.2h-2c-.2 0-.3-.1-.4-.2-.1-.1-.1-.2-.1-.4 0-.1.1-.2.2-.4.1-.1.3-.2.5-.2h.4v-5.5c-.1.1-.3.1-.4.1-.2 0-.3-.1-.4-.2s-.1-.2-.1-.4c0-.1 0-.2.1-.3 0-.1.1-.2.2-.2l.9-.6c.1 0 .2-.1.3-.1.3 0 .5.2.5.5v6.5h.6c-.1.4 0 .5.1.6zM52.1 160.5c0 .2-.1.4-.2.5-.2.1-.3.2-.6.2-.2 0-.4-.1-.6-.2-.2-.1-.2-.3-.2-.5s.1-.4.2-.5c.2-.2.4-.2.6-.2.2 0 .4.1.6.2s.2.3.2.5zM66.3 153.6c0-.2.1-.3.2-.4.1-.1.2-.1.3-.1.1 0 .3.1.4.2.1.1.2.2.2.4v.1c-.1.7-.3 1.3-.5 2s-.4 1.3-.7 1.9c-.2.6-.4 1.2-.7 1.8-.2.6-.5 1.2-.7 1.8-.1.2-.3.3-.5.3s-.4-.1-.5-.4c-.2-.5-.4-1-.5-1.4-.2-.4-.3-.9-.5-1.3-.1-.4-.3-.8-.4-1.2s-.3-.8-.5-1.2c-.1.3-.2.7-.3 1-.1.3-.2.7-.4 1-.2.5-.4 1.1-.6 1.6-.2.6-.4 1.1-.7 1.6-.1.2-.3.3-.5.3s-.4-.1-.5-.4c-.2-.8-.4-1.6-.7-2.4-.3-.8-.6-1.6-.9-2.3-.2-.4-.3-.8-.5-1.3-.2-.4-.3-.8-.5-1.2-.1-.1-.1-.2-.1-.3 0-.2 0-.3.1-.4.1-.1.2-.1.4-.1.1 0 .2 0 .3.1.1 0 .2.1.2.2.2.4.4.8.6 1.3.2.5.3.9.5 1.3.2.6.4 1.2.6 1.7.2.5.4 1.1.5 1.7.1-.3.2-.6.3-.8.1-.3.2-.6.3-.8l.6-1.8c.2-.6.4-1.3.5-1.9.1-.2.3-.3.5-.3s.4.1.5.3l.6 1.5c.2.5.3.9.5 1.4s.3.9.5 1.3.3.9.5 1.4c.1-.3.3-.7.4-1.1.1-.4.3-.8.4-1.1.2-.6.4-1.2.7-1.8.3-.9.4-1.6.6-2.2zM69.7 161.2c-.1.1-.2.2-.4.2-.1 0-.2 0-.4-.1-.1-.1-.2-.2-.2-.4v-7.4c0-.2.1-.3.2-.4.1-.1.2-.1.3-.1.1 0 .2 0 .3.1s.2.2.2.4v3.1c.1-.1.3-.2.4-.3.2-.1.3-.2.5-.3.2-.1.3-.1.5-.2.2 0 .3-.1.5 0 .2 0 .3.1.5.1.3.1.5.2.7.4.2.2.3.4.5.6.1.2.2.5.3.7.1.3.1.5.1.8v2.6c0 .2-.1.3-.2.4-.1.1-.2.2-.4.2-.1 0-.2 0-.4-.1s-.2-.2-.2-.4v-1.3-1.3c0-.3-.1-.6-.2-.9-.1-.3-.3-.5-.6-.6-.2-.1-.4-.1-.6 0-.2.1-.4.2-.5.3-.2.1-.3.3-.4.4-.1.2-.3.3-.4.5 0 0 0 .1-.1.1l-.1.1v2.6c.3 0 .2.1.1.2zM79.5 155.5c.1-.1.2-.2.2-.3.1-.1.2-.1.3-.1.2 0 .3.1.4.2.1.1.1.3.1.5-.2.7-.4 1.4-.7 2.1-.3.7-.6 1.3-.9 2-.3.6-.7 1.3-1.1 1.9-.4.6-.7 1.3-1.1 1.9l-.2.2c-.1 0-.2.1-.3.1-.1 0-.2 0-.3-.1s-.1-.2-.1-.4v-.1-.1c.3-.5.6-1.1.9-1.6s.6-1 .9-1.6c-.4-.3-.7-.6-1-.9-.3-.3-.5-.6-.8-.9-.2-.3-.4-.7-.6-1.1-.2-.4-.3-.8-.4-1.3 0-.2 0-.4.1-.5.1-.1.2-.2.4-.2.1 0 .2 0 .3.1s.2.2.2.4c.1.4.2.7.4 1 .1.3.3.6.5.9.2.3.4.5.6.8l.7.7c.3-.6.6-1.2.8-1.7.4-.6.6-1.2.7-1.9zM87.2 161.3c-.1.1-.2.2-.4.2-.1 0-.2 0-.3-.1s-.2-.2-.2-.4v-3.3c-.2-.1-.3-.3-.3-.5 0-.1 0-.2.1-.3s.1-.2.3-.2v-.1-.4-.5-.7c0-.2-.1-.4-.2-.6-.1-.1-.1-.2-.1-.3 0-.3.1-.4.4-.5.3-.1.7-.1 1-.1h2c.3 0 .7 0 1-.1.2 0 .4 0 .5.1s.2.2.2.4c0 .1 0 .2-.1.3-.1.1-.2.2-.4.2-.5.1-1.1.1-1.6.1h-1.6c0 .2.1.4.1.6v1.5h1.5c.5 0 .9-.1 1.3-.2.2 0 .4 0 .5.1.1.1.2.2.2.4s-.1.4-.4.5c-.2.1-.5.2-.9.2s-.7.1-1.1.1h-1v3.2c-.4.1-.4.3-.5.4zM93.7 160.6c.2.1.3.2.3.4 0 .1 0 .3-.1.4-.1.1-.2.2-.3.2-.1 0-.3 0-.5-.1-.1-.1-.2-.1-.2-.2-.1-.1-.2-.1-.3-.2l-.2-.2c0-.1 0-.1-.1-.3v-7.4c0-.2.1-.3.2-.4s.2-.1.3-.1c.1 0 .2 0 .3.1.1.1.2.2.2.4v7.1c.3.2.3.2.4.3 0-.1 0-.1 0 0zM100.4 160.3c.1.1.1.3.1.4s0 .3-.1.4c-.1.1-.2.1-.4.1s-.4-.1-.5-.3c-.1-.2-.3-.4-.4-.6-.2.2-.5.5-.8.6-.3.2-.6.3-1 .3-.2 0-.5 0-.7-.1l-.6-.3c-.2-.1-.4-.3-.5-.5-.1-.2-.3-.4-.3-.6-.1-.2-.1-.5-.1-.8v-.9-1.1-.9c0-.2.1-.3.2-.4.1-.1.2-.1.3-.1.1 0 .2 0 .3.1.1.1.2.2.2.4v2.4c0 .5.1.9.3 1.2.2.3.5.5.9.5.1 0 .3 0 .4-.1s.3-.1.4-.2l.3-.3.3-.3h.2c-.1-.4-.1-.9-.1-1.3v-.8c0-.3 0-.5.1-.7 0-.2.1-.4.2-.5.1-.1.2-.2.4-.2.1 0 .3.1.4.2s.2.2.2.4v2.3c0 .2 0 .5.1.7 0 .2.1.4.2.6-.2.1-.1.3 0 .4zM101.2 156.3c-.1-.1-.1-.2-.1-.3s.1-.2.2-.4c.1-.1.3-.2.5-.2h.7v-2.1c0-.2.1-.3.2-.4.1-.1.2-.1.3-.1.1 0 .2 0 .3.1s.2.2.2.4v2.1h1.3c.2 0 .3.1.4.2.1.1.1.2.1.3 0 .1 0 .2-.1.3s-.2.2-.4.2h-1.2v4.2c0 .2-.1.4-.2.5-.1.1-.2.2-.4.2-.1 0-.2 0-.3-.1-.1-.1-.2-.2-.2-.4v-2.1-2.1h-.8c-.3-.1-.4-.2-.5-.3zM106.3 156.3c-.1-.1-.1-.2-.1-.3s.1-.2.2-.4c.1-.1.3-.2.5-.2h.7v-2.1c0-.2.1-.3.2-.4.1-.1.2-.1.3-.1.1 0 .2 0 .3.1s.2.2.2.4v2.1h1.3c.2 0 .3.1.4.2.1.1.1.2.1.3 0 .1 0 .2-.1.3s-.2.2-.4.2h-1.2v4.2c0 .2-.1.4-.2.5-.1.1-.2.2-.4.2-.1 0-.2 0-.3-.1-.1-.1-.2-.2-.2-.4v-2.1-2.1h-.8c-.3-.1-.4-.2-.5-.3zM115.3 159.6c.2-.1.3-.1.5 0 .1.1.2.1.3.3.1.1.1.2 0 .4 0 .1-.1.3-.3.4-.3.2-.6.3-.9.5-.3.1-.7.2-1 .3s-.7.1-1 0-.7-.2-1-.4c-.4-.3-.7-.6-.8-1-.2-.4-.3-.9-.3-1.4 0-.5.1-.9.3-1.4.2-.4.5-.8.9-1.1.4-.3.8-.5 1.3-.6.5-.1 1-.2 1.4 0 .2.1.5.2.6.3s.4.4.5.6c.1.2.2.5.2.7s-.1.5-.2.7c-.2.2-.4.5-.6.6s-.6.3-.9.4c-.3.1-.7.2-1 .3-.3.1-.6.2-.9.2h-.3c.1.3.3.5.6.7s.6.3 1 .2c.3 0 .6-.1.9-.3.2 0 .4-.2.7-.4zm-2.6-2.8c-.3.2-.6.4-.7.7-.2.3-.2.6-.2 1 .1 0 .1-.1.2-.1.2 0 .3-.1.5-.1s.3-.1.5-.1c.1 0 .2-.1.4-.1.2-.1.4-.1.6-.2s.4-.2.5-.2.3-.2.3-.3c0-.3-.1-.5-.2-.6-.2-.1-.3-.2-.6-.2-.2 0-.5 0-.7.1s-.4.1-.6.1zM117.7 156.6l-.3-.3c-.1-.1-.1-.2-.1-.3 0-.1 0-.2.1-.4.1-.1.2-.2.4-.2.1 0 .3 0 .5.1s.3.2.4.3c.3-.2.6-.4.8-.6.3-.2.6-.2.9-.2.1 0 .2 0 .4.1.2 0 .3.1.5.2s.3.2.4.3c.1.1.2.3.2.5s0 .3-.1.4-.2.1-.4.1c-.1 0-.2 0-.3-.1-.1-.1-.2-.1-.2-.2s-.2-.1-.2-.2c-.1-.1-.2-.1-.3-.1-.1 0-.3 0-.4.1s-.3.2-.4.3-.3.2-.4.3l-.3.3v3.5c0 .2-.1.4-.2.5-.1.1-.2.2-.4.2-.1 0-.2 0-.3-.1s-.2-.2-.2-.4v-3.6-.1-.1-.1-.1l-.1-.1zM49.9 172.8c-.1-.2-.2-.3-.3-.4-.1-.1-.2-.2-.4-.2-.4 0-.7.1-1.1.3-.3.2-.6.5-.9.7-.1.1-.3.1-.4.1-.2 0-.3-.1-.4-.2s-.1-.2-.1-.4c0-.1 0-.3.1-.4.2-.2.3-.4.5-.5s.4-.3.6-.5c.2-.1.4-.2.7-.3.2-.1.5-.1.7-.1.3 0 .5.1.8.2.2.1.5.3.6.5.2.2.3.5.4.8.1.3.2.6.2 1v.4c-.1.4-.2.7-.4 1-.2.3-.4.5-.7.7-.2.2-.5.3-.8.5-.3.1-.5.3-.7.5l-.6.6c-.2.3-.3.6-.3 1h2.7c.1 0 .1-.1.1-.1s.1-.1.1-.2l.2-.2s.1 0 .2-.1h.2c.2 0 .3.1.4.2.1.1.1.2.1.4v.2c0 .1 0 .1-.1.1l-.6.6c-.2.1-.5.2-.8.2h-3.2c-.3 0-.5-.2-.6-.6 0-.3.1-.6.1-.9.1-.3.1-.5.2-.8s.2-.5.4-.7c.1-.2.3-.4.6-.6.2-.2.4-.3.7-.5.3-.1.5-.3.8-.5l.6-.6c.2-.2.3-.5.3-.8 0-.1 0-.2-.1-.3.2 0 .2-.1.2-.1zM54.7 178.5c0 .2-.1.4-.2.5-.2.1-.3.2-.6.2-.2 0-.4-.1-.6-.2-.2-.1-.2-.3-.2-.5s.1-.4.2-.5c.2-.2.4-.2.6-.2.2 0 .4.1.6.2s.2.3.2.5zM66.1 174.9c.3 0 .4.1.5.2.1.1.1.3.1.4 0 .2 0 .3-.1.4-.1.1-.2.2-.5.2v2.6c0 .3-.1.5-.2.6s-.3.1-.4.1c-.1 0-.3-.1-.4-.2-.1-.1-.2-.3-.2-.5v-2.6h-3.6v2.6c0 .3-.1.5-.2.6-.1.1-.3.1-.4.1-.1 0-.3-.1-.4-.2s-.2-.3-.2-.5v-6.9c0-.2 0-.3.1-.4 0-.1.1-.2.2-.2.1-.1.2-.1.2-.1h.3c.1 0 .2 0 .3.1.1.1.1.2.1.5v3.2H65v-3.1c0-.2 0-.3.1-.4 0-.1.1-.2.2-.2s.2-.1.2-.1h.3c.1 0 .2 0 .3.1.1.1.1.2.1.5v3.2zM67.6 176c.1-.3.2-.6.4-.8.1-.3.3-.5.5-.7.2-.2.4-.4.7-.6s.5-.3.8-.3c.5-.1 1-.1 1.3.1.4.2.7.5.9.8.2.4.4.8.5 1.2.1.5.1.9-.1 1.3-.1.5-.4 1-.7 1.5-.3.5-.8.8-1.3 1-.4.1-.7.2-1.1.2-.3 0-.7-.2-.9-.3s-.5-.4-.7-.7c-.2-.3-.3-.6-.4-1 0-.2-.1-.5 0-.7s0-.5.1-.7v-.3zm1 .3c0 .2-.1.4-.1.5v.5c0 .2.1.5.2.6.1.2.3.3.5.4.2.1.4.2.6.1.2 0 .4-.1.7-.2.3-.2.5-.4.7-.7.2-.3.3-.6.4-.9.1-.3.1-.5 0-.8 0-.3-.1-.6-.3-.8-.1-.2-.3-.4-.6-.5s-.5-.1-.8 0c-.4.2-.6.4-.8.7-.2.4-.4.7-.5 1.1zM80.7 173.6c.1-.2.2-.2.3-.3.1 0 .2-.1.3 0 .1 0 .2.1.3.2s.1.2.1.4c-.3.9-.5 1.7-.8 2.6s-.6 1.7-1 2.5c-.1.2-.3.2-.4.3s-.3-.1-.5-.2c-.2-.5-.5-1-.7-1.5l-.6-1.5c0-.1-.1-.1-.1-.2s-.1-.2-.1-.2c-.1.3-.2.6-.3.8s-.2.5-.3.8l-.3.9c-.1.3-.2.6-.4.9-.2.2-.3.3-.5.3s-.3-.1-.5-.4c-.2-.5-.4-1-.5-1.5-.2-.5-.3-1-.5-1.5-.1-.3-.2-.7-.3-1s-.2-.7-.2-1c0-.2 0-.4.1-.5.1-.1.2-.2.3-.2.1 0 .2 0 .4.1.1.1.2.2.3.4.1.6.2 1.2.4 1.8.2.6.3 1.2.6 1.8.1-.3.2-.6.3-.8s.2-.5.3-.8c.1-.3.2-.5.3-.8.1-.3.2-.6.4-1l.3-.3c.1-.1.2-.1.3-.1.1 0 .2.1.3.1s.2.2.2.3c.1.3.2.6.3.8.1.3.2.5.3.8.1.3.2.6.4.9.1.3.2.6.4.9.2-.6.5-1.2.7-1.9 0-.6.2-1.2.4-1.9zM87.5 174.3c-.1-.1-.1-.2-.1-.3s.1-.2.2-.4c.1-.1.3-.2.5-.2h.7v-2.1c0-.2.1-.3.2-.4.1-.1.2-.1.3-.1.1 0 .2 0 .3.1s.2.2.2.4v2.1h1.3c.2 0 .3.1.4.2.1.1.1.2.1.3 0 .1 0 .2-.1.3s-.2.2-.4.2h-1.2v4.2c0 .2-.1.4-.2.5-.1.1-.2.2-.4.2-.1 0-.2 0-.3-.1-.1-.1-.2-.2-.2-.4v-2.1-2.1H88c-.2-.1-.4-.2-.5-.3zM91.9 176c.1-.3.2-.6.4-.8.1-.3.3-.5.5-.7.2-.2.4-.4.7-.6s.5-.3.8-.3c.5-.1 1-.1 1.3.1.4.2.7.5.9.8.2.4.4.8.5 1.2.1.5.1.9-.1 1.3-.1.5-.4 1-.7 1.5-.3.5-.8.8-1.3 1-.4.1-.7.2-1.1.2-.3 0-.7-.2-.9-.3s-.5-.4-.7-.7c-.2-.3-.3-.6-.4-1 0-.2-.1-.5 0-.7s0-.5.1-.7v-.3zm1 .3c0 .2-.1.4-.1.5v.5c0 .2.1.5.2.6.1.2.3.3.5.4.2.1.4.2.6.1.2 0 .4-.1.7-.2.3-.2.5-.4.7-.7.2-.3.3-.6.4-.9.1-.3.1-.5 0-.8 0-.3-.1-.6-.3-.8-.1-.2-.3-.4-.6-.5s-.5-.1-.8 0c-.4.2-.6.4-.8.7-.2.4-.4.7-.5 1.1zM102.2 178.2c-.1-.2-.1-.3-.1-.4 0-.1.1-.2.2-.3.1-.1.2-.1.3-.1.1 0 .3 0 .4.1.2.3.4.5.7.6l.9.3.3-.1.1-.1h.1l.1-.1.1-.1v-.1-.1-.1-.1l-.1-.2-.1-.1-.1-.1c-.2-.1-.4-.2-.7-.3-.2-.1-.4-.1-.6-.2l-.6-.3c-.2-.1-.4-.3-.6-.5-.2-.2-.3-.5-.3-.7 0-.3 0-.5.1-.8.1-.3.3-.5.5-.7s.4-.3.7-.4c.4-.1.7-.1 1.1 0 .4.1.7.2 1.1.4.2.1.3.2.3.4s0 .3-.1.4-.2.2-.3.2c-.1 0-.3 0-.5-.1s-.4-.2-.7-.2h-.7-.1-.1c-.1.1-.2.2-.2.3 0 .1-.1.2-.1.4 0 0 0 .1.1.2l.1.1.1.1c.2.1.4.2.7.3s.5.1.7.2.5.2.7.3c.2.1.4.3.5.6.2.5.2 1 .1 1.4-.1.4-.4.8-.9 1.1-.1.1-.2.1-.4.2-.1 0-.3.1-.4.1-.5 0-.9-.1-1.4-.3-.2-.5-.6-.8-.9-1.2zM112.2 177.6c.2-.1.3-.1.5 0 .1.1.2.1.3.3.1.1.1.2 0 .4 0 .1-.1.3-.3.4-.3.2-.6.3-.9.5-.3.1-.7.2-1 .3s-.7.1-1 0-.7-.2-1-.4c-.4-.3-.7-.6-.8-1-.2-.4-.3-.9-.3-1.4 0-.5.1-.9.3-1.4.2-.4.5-.8.9-1.1.4-.3.8-.5 1.3-.6.5-.1 1-.2 1.4 0 .2.1.5.2.6.3s.4.4.5.6c.1.2.2.5.2.7s-.1.5-.2.7c-.2.2-.4.5-.6.6s-.6.3-.9.4c-.3.1-.7.2-1 .3-.3.1-.6.2-.9.2h-.3c.1.3.3.5.6.7s.6.3 1 .2c.3 0 .6-.1.9-.3.1 0 .4-.2.7-.4zm-2.6-2.8c-.3.2-.6.4-.7.7-.2.3-.2.6-.2 1 .1 0 .1-.1.2-.1.2 0 .3-.1.5-.1s.3-.1.5-.1c.1 0 .2-.1.4-.1.2-.1.4-.1.6-.2s.4-.2.5-.2.3-.2.3-.3c0-.3-.1-.5-.2-.6-.2-.1-.3-.2-.6-.2-.2 0-.5 0-.7.1s-.4.1-.6.1zM113.9 174.3c-.1-.1-.1-.2-.1-.3s.1-.2.2-.4c.1-.1.3-.2.5-.2h.7v-2.1c0-.2.1-.3.2-.4.1-.1.2-.1.3-.1.1 0 .2 0 .3.1s.2.2.2.4v2.1h1.3c.2 0 .3.1.4.2.1.1.1.2.1.3 0 .1 0 .2-.1.3s-.2.2-.4.2h-1.2v4.2c0 .2-.1.4-.2.5-.1.1-.2.2-.4.2-.1 0-.2 0-.3-.1-.1-.1-.2-.2-.2-.4v-2.1-2.1h-.8c-.3-.1-.4-.2-.5-.3zM128.8 178.3c.1.1.1.3.1.4s0 .3-.1.4c-.1.1-.2.1-.4.1s-.4-.1-.5-.3c-.1-.2-.3-.4-.4-.6-.2.2-.5.5-.8.6-.3.2-.6.3-1 .3-.2 0-.5 0-.7-.1l-.6-.3c-.2-.1-.4-.3-.5-.5-.1-.2-.3-.4-.3-.6-.1-.2-.1-.5-.1-.8v-.9-1.1-.9c0-.2.1-.3.2-.4.1-.1.2-.1.3-.1.1 0 .2 0 .3.1.1.1.2.2.2.4v2.4c0 .5.1.9.3 1.2.2.3.5.5.9.5.1 0 .3 0 .4-.1s.3-.1.4-.2l.3-.3.3-.3h.2c-.1-.4-.1-.9-.1-1.3v-.8c0-.3 0-.5.1-.7 0-.2.1-.4.2-.5.1-.1.2-.2.4-.2.1 0 .3.1.4.2s.2.2.2.4v2.3c0 .2 0 .5.1.7 0 .2.1.4.2.6-.2.1-.1.3 0 .4zM130.4 173.4c.1-.1.2-.1.3-.1.1 0 .2 0 .3.1s.2.2.2.4v.1c.2-.2.4-.3.7-.4s.5-.1.8-.1c.3 0 .7.1 1 .2.3.2.6.4.8.6.2.3.4.6.5.9.1.3.2.7.2 1.1 0 .4-.1.8-.2 1.2s-.3.7-.6.9-.6.5-1 .6c-.4.1-.9.2-1.4.2h-.8v2.8c0 .2-.1.4-.2.5-.1.1-.2.2-.4.2-.1 0-.2 0-.3-.1-.1-.1-.2-.2-.2-.4V174c.1-.3.2-.5.3-.6zm1 1.9c0 .1 0 .1 0 0l-.1.1v2.5c.1 0 .2 0 .4.1h.4c.3 0 .6 0 .8-.1s.5-.2.7-.3c.2-.1.3-.3.4-.6.1-.2.2-.5.2-.8 0-.2 0-.4-.1-.6l-.3-.6c-.1-.2-.3-.3-.4-.4-.2-.1-.3-.2-.5-.2s-.3 0-.4.1c-.1.1-.3.1-.4.2l-.3.3c-.1.1-.3.2-.4.3zM141.4 174.3c-.1-.1-.1-.2-.1-.3s.1-.2.2-.4c.1-.1.3-.2.5-.2h.7v-2.1c0-.2.1-.3.2-.4.1-.1.2-.1.3-.1.1 0 .2 0 .3.1s.2.2.2.4v2.1h1.3c.2 0 .3.1.4.2.1.1.1.2.1.3 0 .1 0 .2-.1.3s-.2.2-.4.2h-1.2v4.2c0 .2-.1.4-.2.5-.1.1-.2.2-.4.2-.1 0-.2 0-.3-.1-.1-.1-.2-.2-.2-.4v-2.1-2.1h-.8c-.3-.1-.4-.2-.5-.3zM147.5 179.2c-.1.1-.2.2-.4.2-.1 0-.2 0-.4-.1-.1-.1-.2-.2-.2-.4v-7.4c0-.2.1-.3.2-.4.1-.1.2-.1.3-.1.1 0 .2 0 .3.1s.2.2.2.4v3.1c.1-.1.3-.2.4-.3.2-.1.3-.2.5-.3.2-.1.3-.1.5-.2.2 0 .3-.1.5 0 .2 0 .3.1.5.1.3.1.5.2.7.4.2.2.3.4.5.6.1.2.2.5.3.7.1.3.1.5.1.8v2.6c0 .2-.1.3-.2.4-.1.1-.2.2-.4.2-.1 0-.2 0-.4-.1s-.2-.2-.2-.4v-1.3-1.3c0-.3-.1-.6-.2-.9-.1-.3-.3-.5-.6-.6-.2-.1-.4-.1-.6 0-.2.1-.4.2-.5.3-.2.1-.3.3-.4.4-.1.2-.3.3-.4.5 0 0 0 .1-.1.1l-.1.1v2.6c.3 0 .2.1.1.2zM157.5 177.6c.2-.1.3-.1.5 0 .1.1.2.1.3.3.1.1.1.2 0 .4 0 .1-.1.3-.3.4-.3.2-.6.3-.9.5-.3.1-.7.2-1 .3s-.7.1-1 0-.7-.2-1-.4c-.4-.3-.7-.6-.8-1-.2-.4-.3-.9-.3-1.4 0-.5.1-.9.3-1.4.2-.4.5-.8.9-1.1.4-.3.8-.5 1.3-.6.5-.1 1-.2 1.4 0 .2.1.5.2.6.3s.4.4.5.6c.1.2.2.5.2.7s-.1.5-.2.7c-.2.2-.4.5-.6.6s-.6.3-.9.4c-.3.1-.7.2-1 .3-.3.1-.6.2-.9.2h-.3c.1.3.3.5.6.7s.6.3 1 .2c.3 0 .6-.1.9-.3.2 0 .4-.2.7-.4zm-2.6-2.8c-.3.2-.6.4-.7.7-.2.3-.2.6-.2 1 .1 0 .1-.1.2-.1.2 0 .3-.1.5-.1s.3-.1.5-.1c.1 0 .2-.1.4-.1.2-.1.4-.1.6-.2s.4-.2.5-.2.3-.2.3-.3c0-.3-.1-.5-.2-.6-.2-.1-.3-.2-.6-.2-.2 0-.5 0-.7.1s-.4.1-.6.1zM168.4 177.6c.2-.1.3-.1.5 0 .1.1.2.1.3.3.1.1.1.2 0 .4 0 .1-.1.3-.3.4-.3.2-.6.3-.9.5-.3.1-.7.2-1 .3s-.7.1-1 0-.7-.2-1-.4c-.4-.3-.7-.6-.8-1-.2-.4-.3-.9-.3-1.4 0-.5.1-.9.3-1.4.2-.4.5-.8.9-1.1.4-.3.8-.5 1.3-.6.5-.1 1-.2 1.4 0 .2.1.5.2.6.3s.4.4.5.6c.1.2.2.5.2.7s-.1.5-.2.7c-.2.2-.4.5-.6.6s-.6.3-.9.4c-.3.1-.7.2-1 .3-.3.1-.6.2-.9.2h-.3c.1.3.3.5.6.7s.6.3 1 .2c.3 0 .6-.1.9-.3.2 0 .4-.2.7-.4zm-2.6-2.8c-.3.2-.6.4-.7.7-.2.3-.2.6-.2 1 .1 0 .1-.1.2-.1.2 0 .3-.1.5-.1s.3-.1.5-.1c.1 0 .2-.1.4-.1.2-.1.4-.1.6-.2s.4-.2.5-.2.3-.2.3-.3c0-.3-.1-.5-.2-.6-.2-.1-.3-.2-.6-.2-.2 0-.5 0-.7.1s-.4.1-.6.1zM174.8 179.3c-.1.1-.2.2-.4.2-.1 0-.2 0-.3-.1s-.2-.2-.2-.4v-1.2-1.2-.9c0-.3 0-.6-.1-.9-.1-.1-.1-.2-.2-.2h-.3c-.3 0-.6.1-.9.2-.3.1-.5.3-.7.6-.1.2-.2.3-.2.4-.1.1-.1.2-.1.4v2.8c0 .2-.1.4-.2.5-.1.1-.2.2-.4.2-.1 0-.2 0-.3-.1-.1-.1-.2-.2-.2-.4V178v-1.2-1.2-1.2c0-.2.1-.3.2-.4.1-.1.2-.1.3-.1.1 0 .2 0 .3.1s.2.2.2.4v.1c.3-.2.5-.4.9-.5.3-.1.6-.2 1-.2.3 0 .6.1.9.2s.5.4.7.7c.1.1.1.3.1.4v4.2c.1-.3 0-.1-.1 0zM179.8 173.6c.1-.2.2-.2.3-.3.1 0 .2-.1.3 0 .1 0 .2.1.3.2s.1.2.1.4c-.1.5-.3.9-.4 1.4-.2.5-.3.9-.5 1.4-.2.4-.3.8-.4 1.3-.1.4-.3.8-.5 1.2-.2.2-.3.3-.5.3s-.3-.2-.5-.4c-.3-.8-.6-1.7-1-2.5-.3-.8-.7-1.6-1.1-2.4-.1-.2-.1-.3-.1-.5 0-.1.1-.2.2-.3.1-.1.2-.1.4-.1.1 0 .3.1.4.3.3.6.6 1.2.9 1.9.3.6.5 1.3.8 1.9.1-.2.1-.3.2-.5s.1-.3.2-.5c.2-.5.3-.9.5-1.4.1-.4.3-.9.4-1.4zM182 171.6c0-.2.1-.4.2-.5s.3-.2.5-.2.3.1.5.2c.1.1.2.3.2.5s-.1.3-.2.5c-.1.1-.3.2-.5.2s-.3-.1-.5-.2c-.1-.2-.2-.4-.2-.5zm1.2 7.2c0 .2-.1.4-.2.5-.1.1-.2.2-.4.2-.1 0-.2 0-.3-.1s-.2-.2-.2-.4v-2.5-2.5c0-.2.1-.3.2-.4.1-.1.2-.1.3-.1.1 0 .2 0 .3.1.1.1.2.2.2.4v2.5c.1.6.1 1.4.1 2.3zM185.2 174.6l-.3-.3c-.1-.1-.1-.2-.1-.3 0-.1 0-.2.1-.4.1-.1.2-.2.4-.2.1 0 .3 0 .5.1s.3.2.4.3c.3-.2.6-.4.8-.6.3-.2.6-.2.9-.2.1 0 .2 0 .4.1.2 0 .3.1.5.2s.3.2.4.3c.1.1.2.3.2.5s0 .3-.1.4-.2.1-.4.1c-.1 0-.2 0-.3-.1-.1-.1-.2-.1-.2-.2s-.2-.1-.2-.2c-.1-.1-.2-.1-.3-.1-.1 0-.3 0-.4.1s-.3.2-.4.3-.3.2-.4.3l-.3.3v3.5c0 .2-.1.4-.2.5-.1.1-.2.2-.4.2-.1 0-.2 0-.3-.1s-.2-.2-.2-.4v-3.6-.1-.1-.1-.1l-.1-.1c.1 0 0 0 0 0zM189.8 176c.1-.3.2-.6.4-.8.1-.3.3-.5.5-.7.2-.2.4-.4.7-.6s.5-.3.8-.3c.5-.1 1-.1 1.3.1.4.2.7.5.9.8.2.4.4.8.5 1.2.1.5.1.9-.1 1.3-.1.5-.4 1-.7 1.5-.3.5-.8.8-1.3 1-.4.1-.7.2-1.1.2-.3 0-.7-.2-.9-.3s-.5-.4-.7-.7c-.2-.3-.3-.6-.4-1 0-.2-.1-.5 0-.7s0-.5.1-.7v-.3zm1.1.3c0 .2-.1.4-.1.5v.5c0 .2.1.5.2.6.1.2.3.3.5.4.2.1.4.2.6.1.2 0 .4-.1.7-.2.3-.2.5-.4.7-.7.2-.3.3-.6.4-.9.1-.3.1-.5 0-.8 0-.3-.1-.6-.3-.8-.1-.2-.3-.4-.6-.5s-.5-.1-.8 0c-.4.2-.6.4-.8.7-.3.4-.4.7-.5 1.1zM200.8 179.3c-.1.1-.2.2-.4.2-.1 0-.2 0-.3-.1s-.2-.2-.2-.4v-1.2-1.2-.9c0-.3 0-.6-.1-.9-.1-.1-.1-.2-.2-.2h-.3c-.3 0-.6.1-.9.2-.3.1-.5.3-.7.6-.1.2-.2.3-.2.4-.1.1-.1.2-.1.4v2.8c0 .2-.1.4-.2.5-.1.1-.2.2-.4.2-.1 0-.2 0-.3-.1-.1-.1-.2-.2-.2-.4V178v-1.2-1.2-1.2c0-.2.1-.3.2-.4.1-.1.2-.1.3-.1.1 0 .2 0 .3.1s.2.2.2.4v.1c.3-.2.5-.4.9-.5.3-.1.6-.2 1-.2.3 0 .6.1.9.2s.5.4.7.7c.1.1.1.3.1.4v4.2c0-.3 0-.1-.1 0zM205.5 175.4v-.2c-.1-.3-.3-.5-.5-.6-.2-.1-.5-.2-.8-.2l-.6.3-.3.4-.1.1s-.1 0-.1.1v3.6c0 .2-.1.4-.2.5s-.2.2-.4.2c-.1 0-.2 0-.3-.1-.1-.1-.2-.2-.2-.4V174c0-.2.1-.3.2-.4.1-.1.2-.1.3-.1.1 0 .2 0 .3.1.1.1.2.2.2.4.1-.1.3-.2.5-.3.2-.1.4-.1.6-.1.3 0 .6.1 1 .2s.6.4.8.6l.3-.3c.1-.1.2-.2.4-.3.1-.1.3-.2.4-.2.1-.1.3-.1.4-.1.3 0 .5 0 .8.1.3.1.5.2.7.4.2.2.4.4.5.6.1.2.2.4.2.7v3.6c0 .2-.1.4-.2.5-.1.1-.2.2-.4.2-.1 0-.2 0-.3-.1s-.2-.2-.2-.4v-3.6c-.1-.3-.2-.5-.5-.6-.2-.1-.4-.2-.6-.2-.2 0-.4.1-.6.2-.2.1-.3.3-.5.6v3.6c0 .2-.1.4-.2.5-.1.1-.2.2-.4.2-.1 0-.2 0-.3-.1-.1-.1-.2-.2-.2-.4l.3-3.9zM215.9 177.6c.2-.1.3-.1.5 0 .1.1.2.1.3.3.1.1.1.2 0 .4 0 .1-.1.3-.3.4-.3.2-.6.3-.9.5-.3.1-.7.2-1 .3s-.7.1-1 0-.7-.2-1-.4c-.4-.3-.7-.6-.8-1-.2-.4-.3-.9-.3-1.4 0-.5.1-.9.3-1.4.2-.4.5-.8.9-1.1.4-.3.8-.5 1.3-.6.5-.1 1-.2 1.4 0 .2.1.5.2.6.3s.4.4.5.6c.1.2.2.5.2.7s-.1.5-.2.7c-.2.2-.4.5-.6.6s-.6.3-.9.4c-.3.1-.7.2-1 .3-.3.1-.6.2-.9.2h-.3c.1.3.3.5.6.7s.6.3 1 .2c.3 0 .6-.1.9-.3.2 0 .5-.2.7-.4zm-2.6-2.8c-.3.2-.6.4-.7.7-.2.3-.2.6-.2 1 .1 0 .1-.1.2-.1.2 0 .3-.1.5-.1s.3-.1.5-.1c.1 0 .2-.1.4-.1.2-.1.4-.1.6-.2s.4-.2.5-.2.3-.2.3-.3c0-.3-.1-.5-.2-.6-.2-.1-.3-.2-.6-.2-.2 0-.5 0-.7.1s-.4.1-.6.1zM222.3 179.3c-.1.1-.2.2-.4.2-.1 0-.2 0-.3-.1s-.2-.2-.2-.4v-1.2-1.2-.9c0-.3 0-.6-.1-.9-.1-.1-.1-.2-.2-.2h-.3c-.3 0-.6.1-.9.2-.3.1-.5.3-.7.6-.1.2-.2.3-.2.4-.1.1-.1.2-.1.4v2.8c0 .2-.1.4-.2.5-.1.1-.2.2-.4.2-.1 0-.2 0-.3-.1-.1-.1-.2-.2-.2-.4V178v-1.2-1.2-1.2c0-.2.1-.3.2-.4.1-.1.2-.1.3-.1.1 0 .2 0 .3.1s.2.2.2.4v.1c.3-.2.5-.4.9-.5.3-.1.6-.2 1-.2.3 0 .6.1.9.2s.5.4.7.7c.1.1.1.3.1.4v4.2c.1-.3 0-.1-.1 0zM223.8 174.3c-.1-.1-.1-.2-.1-.3s.1-.2.2-.4c.1-.1.3-.2.5-.2h.7v-2.1c0-.2.1-.3.2-.4.1-.1.2-.1.3-.1.1 0 .2 0 .3.1s.2.2.2.4v2.1h1.3c.2 0 .3.1.4.2.1.1.1.2.1.3 0 .1 0 .2-.1.3s-.2.2-.4.2h-1.2v4.2c0 .2-.1.4-.2.5-.1.1-.2.2-.4.2-.1 0-.2 0-.3-.1-.1-.1-.2-.2-.2-.4v-2.1-2.1h-.8c-.3-.1-.4-.2-.5-.3zM46.3 196.4c-.1-.1-.1-.3-.1-.4 0-.2 0-.3.1-.4s.2-.1.4-.1c.1 0 .2 0 .4.1.1.1.3.2.4.3.1.1.3.2.4.3.1.1.3.1.5.1s.5-.1.6-.2c.2-.1.3-.2.5-.4l.3-.6c.1-.2.1-.4.1-.6 0-.2-.1-.4-.2-.6s-.3-.3-.6-.4c-.2-.1-.5-.1-.7-.2-.2 0-.4-.1-.6-.1-.2 0-.3-.1-.4-.2-.1-.1-.1-.2-.1-.3 0-.1 0-.2.1-.3s.2-.2.4-.2.3 0 .5-.1c.2 0 .3-.1.5-.2s.3-.1.5-.3c.1-.1.2-.2.3-.4v-.3l-.1-.3c0-.1-.1-.2-.1-.2-.1-.1-.2-.1-.3-.1-.1 0-.2-.1-.3-.1h-.3c-.2 0-.4 0-.7.1-.2 0-.4.1-.5.2-.1.1-.2.1-.3.2-.1 0-.2.1-.3.1-.1 0-.3-.1-.4-.2s-.2-.3-.2-.5c0-.1.1-.3.2-.4.1-.1.3-.2.4-.3.2-.1.4-.1.5-.1.2 0 .4-.1.5-.1h.5c.3 0 .6 0 .9.1.3.1.5.2.7.3.2.2.4.4.5.6.1.2.2.5.2.8v.3c0 .1 0 .3-.1.4-.1.1-.1.3-.3.5-.1.2-.3.3-.6.5.2.1.3.2.5.3s.3.3.4.4.2.3.3.5.1.4.1.6c0 .3-.1.7-.2 1l-.6.9c-.2.3-.5.5-.8.6-.3.2-.6.2-.9.2-.4 0-.8-.1-1.1-.3s-.6-.3-.9-.5zM54 196.5c0 .2-.1.4-.2.5-.2.1-.3.2-.6.2-.2 0-.4-.1-.6-.2-.2-.1-.2-.3-.2-.5s.1-.4.2-.5c.2-.2.4-.2.6-.2.2 0 .4.1.6.2s.2.3.2.5zM65.4 192.9c.3 0 .4.1.5.2.1.1.1.3.1.4 0 .2 0 .3-.1.4-.1.1-.2.2-.5.2v2.6c0 .3-.1.5-.2.6s-.3.1-.4.1c-.1 0-.3-.1-.4-.2-.1-.1-.2-.3-.2-.5v-2.6h-3.6v2.6c0 .3-.1.5-.2.6-.1.1-.3.1-.4.1-.1 0-.3-.1-.4-.2s-.2-.3-.2-.5v-6.9c0-.2 0-.3.1-.4 0-.1.1-.2.2-.2.1-.1.2-.1.2-.1h.3c.1 0 .2 0 .3.1.1.1.1.2.1.5v3.2h3.6v-3.1c0-.2 0-.3.1-.4 0-.1.1-.2.2-.2s.2-.1.2-.1h.3c.1 0 .2 0 .3.1.1.1.1.2.1.5v3.2zM66.9 194c.1-.3.2-.6.4-.8.1-.3.3-.5.5-.7.2-.2.4-.4.7-.6s.5-.3.8-.3c.5-.1 1-.1 1.3.1.4.2.7.5.9.8.2.4.4.8.5 1.2.1.5.1.9-.1 1.3-.1.5-.4 1-.7 1.5-.3.5-.8.8-1.3 1-.4.1-.7.2-1.1.2-.3 0-.7-.2-.9-.3s-.5-.4-.7-.7c-.2-.3-.3-.6-.4-1 0-.2-.1-.5 0-.7s0-.5.1-.7v-.3zm1 .3c0 .2-.1.4-.1.5v.5c0 .2.1.5.2.6.1.2.3.3.5.4.2.1.4.2.6.1.2 0 .4-.1.7-.2.3-.2.5-.4.7-.7.2-.3.3-.6.4-.9.1-.3.1-.5 0-.8 0-.3-.1-.6-.3-.8-.1-.2-.3-.4-.6-.5s-.5-.1-.8 0c-.4.2-.6.4-.8.7-.2.4-.4.7-.5 1.1zM80 191.6c.1-.2.2-.2.3-.3.1 0 .2-.1.3 0 .1 0 .2.1.3.2s.1.2.1.4c-.3.9-.5 1.7-.8 2.6s-.6 1.7-1 2.5c-.1.2-.3.2-.4.3s-.3-.1-.5-.2c-.2-.5-.5-1-.7-1.5l-.6-1.5c0-.1-.1-.1-.1-.2s-.1-.2-.1-.2c-.1.3-.2.6-.3.8s-.2.5-.3.8l-.3.9c-.1.3-.2.6-.4.9-.2.2-.3.3-.5.3s-.3-.1-.5-.4c-.2-.5-.4-1-.5-1.5-.2-.5-.3-1-.5-1.5-.1-.3-.2-.7-.3-1s-.2-.7-.2-1c0-.2 0-.4.1-.5.1-.1.2-.2.3-.2.1 0 .2 0 .4.1.1.1.2.2.3.4.1.6.2 1.2.4 1.8.2.6.3 1.2.6 1.8.1-.3.2-.6.3-.8s.2-.5.3-.8c.1-.3.2-.5.3-.8.1-.3.2-.6.4-1l.3-.3c.1-.1.2-.1.3-.1.1 0 .2.1.3.1s.2.2.2.3c.1.3.2.6.3.8.1.3.2.5.3.8.1.3.2.6.4.9.1.3.2.6.4.9.2-.6.5-1.2.7-1.9 0-.6.2-1.2.4-1.9zM86.8 192.3c-.1-.1-.1-.2-.1-.3s.1-.2.2-.4c.1-.1.3-.2.5-.2h.6v-2.1c0-.2.1-.3.2-.4.1-.1.2-.1.3-.1.1 0 .2 0 .3.1s.2.2.2.4v2.1h1.3c.2 0 .3.1.4.2.1.1.1.2.1.3 0 .1 0 .2-.1.3s-.2.2-.4.2h-1.2v4.2c0 .2-.1.4-.2.5-.1.1-.2.2-.4.2-.1 0-.2 0-.3-.1-.1-.1-.2-.2-.2-.4v-2.1-2.1h-.8c-.1-.1-.3-.2-.4-.3zM91.2 194c.1-.3.2-.6.4-.8.1-.3.3-.5.5-.7.2-.2.4-.4.7-.6s.5-.3.8-.3c.5-.1 1-.1 1.3.1.4.2.7.5.9.8.2.4.4.8.5 1.2.1.5.1.9-.1 1.3-.1.5-.4 1-.7 1.5-.3.5-.8.8-1.3 1-.4.1-.7.2-1.1.2-.3 0-.7-.2-.9-.3s-.5-.4-.7-.7c-.2-.3-.3-.6-.4-1 0-.2-.1-.5 0-.7s0-.5.1-.7v-.3zm1 .3c0 .2-.1.4-.1.5v.5c0 .2.1.5.2.6.1.2.3.3.5.4.2.1.4.2.6.1.2 0 .4-.1.7-.2.3-.2.5-.4.7-.7.2-.3.3-.6.4-.9.1-.3.1-.5 0-.8 0-.3-.1-.6-.3-.8-.1-.2-.3-.4-.6-.5s-.5-.1-.8 0c-.4.2-.6.4-.8.7-.2.4-.4.7-.5 1.1zM107 196.3c.1.1.1.3.1.4s0 .3-.1.4c-.1.1-.2.1-.4.1s-.4-.1-.5-.3c-.1-.2-.3-.4-.4-.6-.2.2-.5.5-.8.6-.3.2-.6.3-1 .3-.2 0-.5 0-.7-.1l-.6-.3c-.2-.1-.4-.3-.5-.5-.1-.2-.3-.4-.3-.6-.1-.2-.1-.5-.1-.8v-.9-1.1-.9c0-.2.1-.3.2-.4.1-.1.2-.1.3-.1.1 0 .2 0 .3.1.1.1.2.2.2.4v2.4c0 .5.1.9.3 1.2.2.3.5.5.9.5.1 0 .3 0 .4-.1s.3-.1.4-.2l.3-.3.3-.3h.2c-.1-.4-.1-.9-.1-1.3v-.8c0-.3 0-.5.1-.7 0-.2.1-.4.2-.5.1-.1.2-.2.4-.2.1 0 .3.1.4.2s.2.2.2.4v2.3c0 .2 0 .5.1.7 0 .2.1.4.2.6-.2.1-.1.3 0 .4zM108.2 196.2c-.1-.2-.1-.3-.1-.4 0-.1.1-.2.2-.3.1-.1.2-.1.3-.1.1 0 .3 0 .4.1.2.3.4.5.7.6l.9.3.3-.1.1-.1h.1l.1-.1.1-.1v-.1-.1-.1-.1l-.1-.2-.1-.1-.1-.1c-.2-.1-.4-.2-.7-.3-.2-.1-.4-.1-.6-.2l-.6-.3c-.2-.1-.4-.3-.6-.5-.2-.2-.3-.5-.3-.7 0-.3 0-.5.1-.8.1-.3.3-.5.5-.7s.4-.3.7-.4c.4-.1.7-.1 1.1 0 .4.1.7.2 1.1.4.2.1.3.2.3.4s0 .3-.1.4-.2.2-.3.2c-.1 0-.3 0-.5-.1s-.4-.2-.7-.2h-.7-.1-.1c-.1.1-.2.2-.2.3 0 .1-.1.2-.1.4 0 0 0 .1.1.2l.1.1.1.1c.2.1.4.2.7.3s.5.1.7.2.5.2.7.3c.2.1.4.3.5.6.2.5.2 1 .1 1.4-.1.4-.4.8-.9 1.1-.1.1-.2.1-.4.2-.1 0-.3.1-.4.1-.5 0-.9-.1-1.4-.3-.3-.5-.6-.8-.9-1.2zM118.2 195.6c.2-.1.3-.1.5 0 .1.1.2.1.3.3.1.1.1.2 0 .4 0 .1-.1.3-.3.4-.3.2-.6.3-.9.5-.3.1-.7.2-1 .3s-.7.1-1 0-.7-.2-1-.4c-.4-.3-.7-.6-.8-1-.2-.4-.3-.9-.3-1.4 0-.5.1-.9.3-1.4.2-.4.5-.8.9-1.1.4-.3.8-.5 1.3-.6.5-.1 1-.2 1.4 0 .2.1.5.2.6.3s.4.4.5.6c.1.2.2.5.2.7s-.1.5-.2.7c-.2.2-.4.5-.6.6s-.6.3-.9.4c-.3.1-.7.2-1 .3-.3.1-.6.2-.9.2h-.3c.1.3.3.5.6.7s.6.3 1 .2c.3 0 .6-.1.9-.3.1 0 .4-.2.7-.4zm-2.6-2.8c-.3.2-.6.4-.7.7-.2.3-.2.6-.2 1 .1 0 .1-.1.2-.1.2 0 .3-.1.5-.1s.3-.1.5-.1c.1 0 .2-.1.4-.1.2-.1.4-.1.6-.2s.4-.2.5-.2.3-.2.3-.3c0-.3-.1-.5-.2-.6-.2-.1-.3-.2-.6-.2-.2 0-.5 0-.7.1s-.5.1-.6.1zM125.5 197.3c-.1.1-.2.2-.4.2-.1 0-.2 0-.3-.1s-.2-.2-.2-.4v-3.3c-.2-.1-.3-.3-.3-.5 0-.1 0-.2.1-.3s.1-.2.3-.2v-.1-.4-.5-.7c0-.2-.1-.4-.2-.6-.1-.1-.1-.2-.1-.3 0-.3.1-.4.4-.5.3-.1.7-.1 1-.1h2c.3 0 .7 0 1-.1.2 0 .4 0 .5.1s.2.2.2.4c0 .1 0 .2-.1.3-.1.1-.2.2-.4.2-.5.1-1.1.1-1.6.1h-1.6c0 .2.1.4.1.6v1.5h1.5c.5 0 .9-.1 1.3-.2.2 0 .4 0 .5.1.1.1.2.2.2.4s-.1.4-.4.5c-.2.1-.5.2-.9.2s-.7.1-1.1.1h-1v3.2c-.3.1-.4.3-.5.4zM132.1 196.6c.2.1.3.2.3.4 0 .1 0 .3-.1.4-.1.1-.2.2-.3.2-.1 0-.3 0-.5-.1-.1-.1-.2-.1-.2-.2-.1-.1-.2-.1-.3-.2l-.2-.2c0-.1 0-.1-.1-.3v-7.4c0-.2.1-.3.2-.4s.2-.1.3-.1c.1 0 .2 0 .3.1.1.1.2.2.2.4v7.1c.2.2.3.2.4.3-.1-.1 0-.1 0 0zM138.8 196.3c.1.1.1.3.1.4s0 .3-.1.4c-.1.1-.2.1-.4.1s-.4-.1-.5-.3c-.1-.2-.3-.4-.4-.6-.2.2-.5.5-.8.6-.3.2-.6.3-1 .3-.2 0-.5 0-.7-.1l-.6-.3c-.2-.1-.4-.3-.5-.5-.1-.2-.3-.4-.3-.6-.1-.2-.1-.5-.1-.8v-.9-1.1-.9c0-.2.1-.3.2-.4.1-.1.2-.1.3-.1.1 0 .2 0 .3.1.1.1.2.2.2.4v2.4c0 .5.1.9.3 1.2.2.3.5.5.9.5.1 0 .3 0 .4-.1s.3-.1.4-.2l.3-.3.3-.3h.2c-.1-.4-.1-.9-.1-1.3v-.8c0-.3 0-.5.1-.7 0-.2.1-.4.2-.5.1-.1.2-.2.4-.2.1 0 .3.1.4.2s.2.2.2.4v2.3c0 .2 0 .5.1.7 0 .2.1.4.2.6-.2.1-.1.3 0 .4zM139.5 192.3c-.1-.1-.1-.2-.1-.3s.1-.2.2-.4c.1-.1.3-.2.5-.2h.7v-2.1c0-.2.1-.3.2-.4.1-.1.2-.1.3-.1.1 0 .2 0 .3.1s.2.2.2.4v2.1h1.3c.2 0 .3.1.4.2.1.1.1.2.1.3 0 .1 0 .2-.1.3s-.2.2-.4.2h-1.2v4.2c0 .2-.1.4-.2.5-.1.1-.2.2-.4.2-.1 0-.2 0-.3-.1-.1-.1-.2-.2-.2-.4v-2.1-2.1h-.8c-.2-.1-.4-.2-.5-.3zM144.7 192.3c-.1-.1-.1-.2-.1-.3s.1-.2.2-.4c.1-.1.3-.2.5-.2h.7v-2.1c0-.2.1-.3.2-.4.1-.1.2-.1.3-.1.1 0 .2 0 .3.1s.2.2.2.4v2.1h1.3c.2 0 .3.1.4.2.1.1.1.2.1.3 0 .1 0 .2-.1.3s-.2.2-.4.2H147v4.2c0 .2-.1.4-.2.5-.1.1-.2.2-.4.2-.1 0-.2 0-.3-.1-.1-.1-.2-.2-.2-.4v-2.1-2.1h-.8c-.2-.1-.3-.2-.4-.3zM153.7 195.6c.2-.1.3-.1.5 0 .1.1.2.1.3.3.1.1.1.2 0 .4 0 .1-.1.3-.3.4-.3.2-.6.3-.9.5-.3.1-.7.2-1 .3s-.7.1-1 0-.7-.2-1-.4c-.4-.3-.7-.6-.8-1-.2-.4-.3-.9-.3-1.4 0-.5.1-.9.3-1.4.2-.4.5-.8.9-1.1.4-.3.8-.5 1.3-.6.5-.1 1-.2 1.4 0 .2.1.5.2.6.3s.4.4.5.6c.1.2.2.5.2.7s-.1.5-.2.7c-.2.2-.4.5-.6.6s-.6.3-.9.4c-.3.1-.7.2-1 .3-.3.1-.6.2-.9.2h-.3c.1.3.3.5.6.7s.6.3 1 .2c.3 0 .6-.1.9-.3.1 0 .4-.2.7-.4zm-2.6-2.8c-.3.2-.6.4-.7.7-.2.3-.2.6-.2 1 .1 0 .1-.1.2-.1.2 0 .3-.1.5-.1s.3-.1.5-.1c.1 0 .2-.1.4-.1.2-.1.4-.1.6-.2s.4-.2.5-.2.3-.2.3-.3c0-.3-.1-.5-.2-.6-.2-.1-.3-.2-.6-.2-.2 0-.5 0-.7.1s-.5.1-.6.1zM156 192.6l-.3-.3c-.1-.1-.1-.2-.1-.3 0-.1 0-.2.1-.4.1-.1.2-.2.4-.2.1 0 .3 0 .5.1s.3.2.4.3c.3-.2.6-.4.8-.6.3-.2.6-.2.9-.2.1 0 .2 0 .4.1.2 0 .3.1.5.2s.3.2.4.3c.1.1.2.3.2.5s0 .3-.1.4-.2.1-.4.1c-.1 0-.2 0-.3-.1-.1-.1-.2-.1-.2-.2s-.2-.1-.2-.2c-.1-.1-.2-.1-.3-.1-.1 0-.3 0-.4.1s-.3.2-.4.3-.3.2-.4.3l-.3.3v3.5c0 .2-.1.4-.2.5-.1.1-.2.2-.4.2-.1 0-.2 0-.3-.1s-.2-.2-.2-.4v-3.6-.1-.1-.1-.1l-.1-.1c.1 0 0 0 0 0zM55.3 213.1c-.2 0-.3-.1-.4-.2-.1-.1-.1-.2-.1-.3 0-.1.1-.2.2-.4.1-.1.3-.2.5-.2H59.1c.2 0 .3.1.4.2s.1.2.1.3c0 .1 0 .2-.1.3-.1.1-.2.2-.4.2h-1.8c-.8.1-1.4.1-2 .1zM65.8 214.4c-.1-.1-.1-.3-.1-.4 0-.2 0-.3.1-.4s.2-.1.4-.1c.1 0 .2 0 .4.1.1.1.3.2.4.3.1.1.3.2.4.3.1.1.3.1.5.1s.5-.1.6-.2c.2-.1.3-.2.5-.4l.3-.6c.1-.2.1-.4.1-.6 0-.2-.1-.4-.2-.6s-.3-.3-.6-.4c-.2-.1-.5-.1-.7-.2-.2 0-.4-.1-.6-.1-.2 0-.3-.1-.4-.2-.1-.1-.1-.2-.1-.3 0-.1 0-.2.1-.3s.2-.2.4-.2.3 0 .5-.1c.2 0 .3-.1.5-.2s.3-.1.5-.3c.1-.1.2-.2.3-.4v-.3l-.1-.3c0-.1-.1-.2-.1-.2-.1-.1-.2-.1-.3-.1-.1 0-.2-.1-.3-.1H68c-.2 0-.4 0-.7.1-.2 0-.4.1-.5.2-.1.1-.2.1-.3.2-.1 0-.2.1-.3.1-.1 0-.3-.1-.4-.2s-.2-.3-.2-.5c0-.1.1-.3.2-.4.1-.1.3-.2.4-.3.2-.1.4-.1.5-.1.2 0 .4-.1.5-.1h.5c.3 0 .6 0 .9.1.3.1.5.2.7.3.2.2.4.4.5.6.1.2.2.5.2.8v.3c0 .1 0 .3-.1.4-.1.1-.1.3-.3.5-.1.2-.3.3-.6.5.2.1.3.2.5.3s.3.3.4.4.2.3.3.5.1.4.1.6c0 .3-.1.7-.2 1l-.6.9c-.2.3-.5.5-.8.6-.3.2-.6.2-.9.2-.4 0-.8-.1-1.1-.3s-.6-.3-.9-.5zM73.5 214.5c0 .2-.1.4-.2.5-.2.1-.3.2-.6.2-.2 0-.4-.1-.6-.2-.2-.1-.2-.3-.2-.5s.1-.4.2-.5c.2-.2.4-.2.6-.2.2 0 .4.1.6.2s.2.3.2.5zM78.1 214.4c.1.1.1.2.1.3 0 .1 0 .2-.1.3-.1.1-.2.2-.4.2h-2c-.2 0-.3-.1-.4-.2-.1-.1-.1-.2-.1-.4 0-.1.1-.2.2-.4.1-.1.3-.2.5-.2h.4v-5.5c-.1.1-.3.1-.4.1-.2 0-.3-.1-.4-.2s-.1-.2-.1-.4c0-.1 0-.2.1-.3 0-.1.1-.2.2-.2l.9-.6c.1 0 .2-.1.3-.1.3 0 .5.2.5.5v6.5h.6c-.1.4 0 .5.1.6zM90 210.9c.3 0 .4.1.5.2.1.1.1.3.1.4 0 .2 0 .3-.1.4-.1.1-.2.2-.5.2v2.6c0 .3-.1.5-.2.6s-.3.1-.4.1c-.1 0-.3-.1-.4-.2-.1-.1-.2-.3-.2-.5v-2.6h-3.6v2.6c0 .3-.1.5-.2.6-.1.1-.3.1-.4.1-.1 0-.3-.1-.4-.2s-.2-.3-.2-.5v-6.9c0-.2 0-.3.1-.4 0-.1.1-.2.2-.2.1-.1.2-.1.2-.1h.3c.1 0 .2 0 .3.1.1.1.1.2.1.5v3.2h3.6v-3.1c0-.2 0-.3.1-.4 0-.1.1-.2.2-.2s.2-.1.2-.1h.3c.1 0 .2 0 .3.1.1.1.1.2.1.5v3.2zM91.4 212c.1-.3.2-.6.4-.8.1-.3.3-.5.5-.7.2-.2.4-.4.7-.6s.5-.3.8-.3c.5-.1 1-.1 1.3.1.4.2.7.5.9.8.2.4.4.8.5 1.2.1.5.1.9-.1 1.3-.1.5-.4 1-.7 1.5-.3.5-.8.8-1.3 1-.4.1-.7.2-1.1.2-.3 0-.7-.2-.9-.3s-.5-.4-.7-.7c-.2-.3-.3-.6-.4-1 0-.2-.1-.5 0-.7s0-.5.1-.7v-.3zm1.1.3c0 .2-.1.4-.1.5v.5c0 .2.1.5.2.6.1.2.3.3.5.4.2.1.4.2.6.1.2 0 .4-.1.7-.2.3-.2.5-.4.7-.7.2-.3.3-.6.4-.9.1-.3.1-.5 0-.8 0-.3-.1-.6-.3-.8-.1-.2-.3-.4-.6-.5s-.5-.1-.8 0c-.4.2-.6.4-.8.7-.2.4-.4.7-.5 1.1zM104.5 209.6c.1-.2.2-.2.3-.3.1 0 .2-.1.3 0 .1 0 .2.1.3.2s.1.2.1.4c-.3.9-.5 1.7-.8 2.6s-.6 1.7-1 2.5c-.1.2-.3.2-.4.3s-.3-.1-.5-.2c-.2-.5-.5-1-.7-1.5l-.6-1.5c0-.1-.1-.1-.1-.2s-.1-.2-.1-.2c-.1.3-.2.6-.3.8s-.2.5-.3.8l-.3.9c-.1.3-.2.6-.4.9-.2.2-.3.3-.5.3s-.3-.1-.5-.4c-.2-.5-.4-1-.5-1.5-.2-.5-.3-1-.5-1.5-.1-.3-.2-.7-.3-1s-.2-.7-.2-1c0-.2 0-.4.1-.5.1-.1.2-.2.3-.2.1 0 .2 0 .4.1.1.1.2.2.3.4.1.6.2 1.2.4 1.8.2.6.3 1.2.6 1.8.1-.3.2-.6.3-.8s.2-.5.3-.8c.1-.3.2-.5.3-.8.1-.3.2-.6.4-1l.3-.3c.1-.1.2-.1.3-.1.1 0 .2.1.3.1s.2.2.2.3c.1.3.2.6.3.8.1.3.2.5.3.8.1.3.2.6.4.9.1.3.2.6.4.9.2-.6.5-1.2.7-1.9 0-.6.2-1.2.4-1.9zM111.4 210.3c-.1-.1-.1-.2-.1-.3s.1-.2.2-.4c.1-.1.3-.2.5-.2h.7v-2.1c0-.2.1-.3.2-.4.1-.1.2-.1.3-.1.1 0 .2 0 .3.1s.2.2.2.4v2.1h1.3c.2 0 .3.1.4.2.1.1.1.2.1.3 0 .1 0 .2-.1.3s-.2.2-.4.2h-1.2v4.2c0 .2-.1.4-.2.5-.1.1-.2.2-.4.2-.1 0-.2 0-.3-.1-.1-.1-.2-.2-.2-.4v-2.1-2.1h-.8c-.3-.1-.4-.2-.5-.3zM115.8 212c.1-.3.2-.6.4-.8.1-.3.3-.5.5-.7.2-.2.4-.4.7-.6s.5-.3.8-.3c.5-.1 1-.1 1.3.1.4.2.7.5.9.8.2.4.4.8.5 1.2.1.5.1.9-.1 1.3-.1.5-.4 1-.7 1.5-.3.5-.8.8-1.3 1-.4.1-.7.2-1.1.2-.3 0-.7-.2-.9-.3s-.5-.4-.7-.7c-.2-.3-.3-.6-.4-1 0-.2-.1-.5 0-.7s0-.5.1-.7v-.3zm1 .3c0 .2-.1.4-.1.5v.5c0 .2.1.5.2.6.1.2.3.3.5.4.2.1.4.2.6.1.2 0 .4-.1.7-.2.3-.2.5-.4.7-.7.2-.3.3-.6.4-.9.1-.3.1-.5 0-.8 0-.3-.1-.6-.3-.8-.1-.2-.3-.4-.6-.5s-.5-.1-.8 0c-.4.2-.6.4-.8.7-.2.4-.4.7-.5 1.1zM129.9 213.8c.2-.1.3-.2.4-.2s.3.1.4.1c.1.1.1.2.1.4 0 .1 0 .3-.2.4-.3.3-.6.5-1 .7-.4.1-.8.2-1.2.1s-.7-.2-1.1-.5-.6-.6-.7-1c-.1-.2-.2-.5-.2-.8 0-.3-.1-.5 0-.8 0-.4.1-.9.3-1.3s.4-.8.7-1.1c.3-.3.6-.6 1-.7.4-.1.8-.1 1.3 0 .2.1.5.2.6.3.2.1.4.3.6.4.1.1.1.3.1.4 0 .1 0 .2-.1.3s-.2.1-.3.2c-.1 0-.3 0-.4-.1-.3-.3-.6-.5-.8-.5-.3-.1-.5 0-.8.1-.2.1-.4.3-.6.5-.2.2-.3.5-.4.8-.1.3-.1.6-.1.9s.1.6.2.9c.1.2.2.4.4.6.2.1.4.2.6.2.2 0 .4 0 .6-.1.2.1.4 0 .6-.2zM132.6 210.6l-.3-.3c-.1-.1-.1-.2-.1-.3 0-.1 0-.2.1-.4.1-.1.2-.2.4-.2.1 0 .3 0 .5.1s.3.2.4.3c.3-.2.6-.4.8-.6.3-.2.6-.2.9-.2.1 0 .2 0 .4.1.2 0 .3.1.5.2s.3.2.4.3c.1.1.2.3.2.5s0 .3-.1.4-.2.1-.4.1c-.1 0-.2 0-.3-.1-.1-.1-.2-.1-.2-.2s-.2-.1-.2-.2c-.1-.1-.2-.1-.3-.1-.1 0-.3 0-.4.1s-.3.2-.4.3-.3.2-.4.3l-.3.3v3.5c0 .2-.1.4-.2.5-.1.1-.2.2-.4.2-.1 0-.2 0-.3-.1s-.2-.2-.2-.4v-3.6-.1-.1-.1-.1l-.1-.1zM141.8 213.6c.2-.1.3-.1.5 0 .1.1.2.1.3.3.1.1.1.2 0 .4 0 .1-.1.3-.3.4-.3.2-.6.3-.9.5-.3.1-.7.2-1 .3s-.7.1-1 0-.7-.2-1-.4c-.4-.3-.7-.6-.8-1-.2-.4-.3-.9-.3-1.4 0-.5.1-.9.3-1.4.2-.4.5-.8.9-1.1.4-.3.8-.5 1.3-.6.5-.1 1-.2 1.4 0 .2.1.5.2.6.3s.4.4.5.6c.1.2.2.5.2.7s-.1.5-.2.7c-.2.2-.4.5-.6.6s-.6.3-.9.4c-.3.1-.7.2-1 .3-.3.1-.6.2-.9.2h-.3c.1.3.3.5.6.7s.6.3 1 .2c.3 0 .6-.1.9-.3.2 0 .4-.2.7-.4zm-2.6-2.8c-.3.2-.6.4-.7.7-.2.3-.2.6-.2 1 .1 0 .1-.1.2-.1.2 0 .3-.1.5-.1s.3-.1.5-.1c.1 0 .2-.1.4-.1.2-.1.4-.1.6-.2s.4-.2.5-.2.3-.2.3-.3c0-.3-.1-.5-.2-.6-.2-.1-.3-.2-.6-.2-.2 0-.5 0-.7.1s-.4.1-.6.1zM148.9 214.6c0 .1.1.3 0 .4 0 .1-.1.2-.2.3s-.2.1-.3.1c-.1 0-.2 0-.4-.1-.1-.1-.2-.2-.2-.3-.1-.1-.1-.2-.2-.3-.2.2-.4.3-.6.4s-.4.2-.6.2h-1c-.3 0-.7-.1-1-.3-.3-.2-.5-.4-.6-.7-.1-.3-.2-.5-.3-.8v-.9c0-.3.1-.6.2-.9 0-.1.1-.2.2-.4.1-.1.1-.2.2-.4s.2-.3.3-.5c.1-.2.3-.3.4-.4.1-.1.2-.2.3-.2.1-.1.2-.2.3-.2.1-.1.2-.1.4-.2s.3-.1.5-.1.4-.1.6-.1c.2 0 .4 0 .5.1.1 0 .2 0 .4.1.1.1.2.2.3.4v1.8c0 .6 0 1.2.1 1.8 0 .1 0 .2.1.3.1.1.1.2.2.3s.1.2.2.3c.1.2.2.3.2.3zm-1.7-.9s.1 0 0 0c0-.6-.1-1.1-.1-1.7v-1.6h-.3c-.1 0-.2 0-.3.1s-.2.1-.3.1c-.1 0-.1 0-.2.1-.3.1-.5.3-.7.5-.2.2-.3.4-.5.7-.1.2-.2.5-.3.8-.1.3-.1.5-.1.8 0 .1 0 .1.1.2 0 .1 0 .1.1.2l.1.1c0 .1.1.1.2.1s.2.1.2.1c.1 0 .2.1.2.1h.4c.1 0 .3 0 .4-.1.1-.1.3-.2.4-.3.4 0 .6-.1.7-.2zM149.6 210.3c-.1-.1-.1-.2-.1-.3s.1-.2.2-.4c.1-.1.3-.2.5-.2h.7v-2.1c0-.2.1-.3.2-.4.1-.1.2-.1.3-.1.1 0 .2 0 .3.1s.2.2.2.4v2.1h1.3c.2 0 .3.1.4.2.1.1.1.2.1.3 0 .1 0 .2-.1.3s-.2.2-.4.2H152v4.2c0 .2-.1.4-.2.5-.1.1-.2.2-.4.2-.1 0-.2 0-.3-.1-.1-.1-.2-.2-.2-.4v-2.1-2.1h-.9c-.2-.1-.3-.2-.4-.3zM158.6 213.6c.2-.1.3-.1.5 0 .1.1.2.1.3.3.1.1.1.2 0 .4 0 .1-.1.3-.3.4-.3.2-.6.3-.9.5-.3.1-.7.2-1 .3s-.7.1-1 0-.7-.2-1-.4c-.4-.3-.7-.6-.8-1-.2-.4-.3-.9-.3-1.4 0-.5.1-.9.3-1.4.2-.4.5-.8.9-1.1.4-.3.8-.5 1.3-.6.5-.1 1-.2 1.4 0 .2.1.5.2.6.3s.4.4.5.6c.1.2.2.5.2.7s-.1.5-.2.7c-.2.2-.4.5-.6.6s-.6.3-.9.4c-.3.1-.7.2-1 .3-.3.1-.6.2-.9.2h-.3c.1.3.3.5.6.7s.6.3 1 .2c.3 0 .6-.1.9-.3.2 0 .5-.2.7-.4zm-2.6-2.8c-.3.2-.6.4-.7.7-.2.3-.2.6-.2 1 .1 0 .1-.1.2-.1.2 0 .3-.1.5-.1s.3-.1.5-.1c.1 0 .2-.1.4-.1.2-.1.4-.1.6-.2s.4-.2.5-.2.3-.2.3-.3c0-.3-.1-.5-.2-.6-.2-.1-.3-.2-.6-.2-.2 0-.5 0-.7.1s-.4.1-.6.1zM170.3 214.6c0 .1.1.3 0 .4 0 .1-.1.2-.2.3s-.2.1-.3.1c-.1 0-.2 0-.4-.1-.1-.1-.2-.2-.2-.3-.1-.1-.1-.2-.2-.3-.2.2-.4.3-.6.4s-.4.2-.6.2h-1c-.3 0-.7-.1-1-.3-.3-.2-.5-.4-.6-.7-.1-.3-.2-.5-.3-.8v-.9c0-.3.1-.6.2-.9 0-.1.1-.2.2-.4.1-.1.1-.2.2-.4s.2-.3.3-.5c.1-.2.3-.3.4-.4.1-.1.2-.2.3-.2.1-.1.2-.2.3-.2.1-.1.2-.1.4-.2s.3-.1.5-.1.4-.1.6-.1c.2 0 .4 0 .5.1.1 0 .2 0 .4.1.1.1.2.2.3.4v1.8c0 .6 0 1.2.1 1.8 0 .1 0 .2.1.3.1.1.1.2.2.3s.1.2.2.3c.1.2.2.3.2.3zm-1.7-.9s.1 0 0 0c0-.6-.1-1.1-.1-1.7v-1.6h-.3c-.1 0-.2 0-.3.1s-.2.1-.3.1c-.1 0-.1 0-.2.1-.3.1-.5.3-.7.5-.2.2-.3.4-.5.7-.1.2-.2.5-.3.8-.1.3-.1.5-.1.8 0 .1 0 .1.1.2 0 .1 0 .1.1.2l.1.1c0 .1.1.1.2.1s.2.1.2.1c.1 0 .2.1.2.1h.4c.1 0 .3 0 .4-.1.1-.1.3-.2.4-.3.4 0 .6-.1.7-.2zM180.6 215.3c-.1.1-.2.2-.4.2-.1 0-.2 0-.3-.1s-.2-.2-.2-.4v-1.2-1.2-.9c0-.3 0-.6-.1-.9-.1-.1-.1-.2-.2-.2h-.3c-.3 0-.6.1-.9.2-.3.1-.5.3-.7.6-.1.2-.2.3-.2.4-.1.1-.1.2-.1.4v2.8c0 .2-.1.4-.2.5-.1.1-.2.2-.4.2-.1 0-.2 0-.3-.1-.1-.1-.2-.2-.2-.4V214v-1.2-1.2-1.2c0-.2.1-.3.2-.4.1-.1.2-.1.3-.1.1 0 .2 0 .3.1s.2.2.2.4v.1c.3-.2.5-.4.9-.5.3-.1.6-.2 1-.2.3 0 .6.1.9.2s.5.4.7.7c.1.1.1.3.1.4v4.2c.1-.3 0-.1-.1 0zM186.8 213.6c.2-.1.3-.1.5 0 .1.1.2.1.3.3.1.1.1.2 0 .4 0 .1-.1.3-.3.4-.3.2-.6.3-.9.5-.3.1-.7.2-1 .3s-.7.1-1 0-.7-.2-1-.4c-.4-.3-.7-.6-.8-1-.2-.4-.3-.9-.3-1.4 0-.5.1-.9.3-1.4.2-.4.5-.8.9-1.1.4-.3.8-.5 1.3-.6.5-.1 1-.2 1.4 0 .2.1.5.2.6.3s.4.4.5.6c.1.2.2.5.2.7s-.1.5-.2.7c-.2.2-.4.5-.6.6s-.6.3-.9.4c-.3.1-.7.2-1 .3-.3.1-.6.2-.9.2h-.3c.1.3.3.5.6.7s.6.3 1 .2c.3 0 .6-.1.9-.3.2 0 .5-.2.7-.4zm-2.5-2.8c-.3.2-.6.4-.7.7-.2.3-.2.6-.2 1 .1 0 .1-.1.2-.1.2 0 .3-.1.5-.1s.3-.1.5-.1c.1 0 .2-.1.4-.1.2-.1.4-.1.6-.2s.4-.2.5-.2.3-.2.3-.3c0-.3-.1-.5-.2-.6-.2-.1-.3-.2-.6-.2-.2 0-.5 0-.7.1s-.5.1-.6.1zM195.4 209.6c.1-.2.2-.2.3-.3.1 0 .2-.1.3 0 .1 0 .2.1.3.2s.1.2.1.4c-.3.9-.5 1.7-.8 2.6s-.6 1.7-1 2.5c-.1.2-.3.2-.4.3s-.3-.1-.5-.2c-.2-.5-.5-1-.7-1.5l-.6-1.5c0-.1-.1-.1-.1-.2s-.1-.2-.1-.2c-.1.3-.2.6-.3.8s-.2.5-.3.8l-.3.9c-.1.3-.2.6-.4.9-.2.2-.3.3-.5.3s-.3-.1-.5-.4c-.2-.5-.4-1-.5-1.5-.2-.5-.3-1-.5-1.5-.1-.3-.2-.7-.3-1s-.2-.7-.2-1c0-.2 0-.4.1-.5.1-.1.2-.2.3-.2.1 0 .2 0 .4.1.1.1.2.2.3.4.1.6.2 1.2.4 1.8.2.6.3 1.2.6 1.8.1-.3.2-.6.3-.8s.2-.5.3-.8c.1-.3.2-.5.3-.8.1-.3.2-.6.4-1l.3-.3c.1-.1.2-.1.3-.1.1 0 .2.1.3.1s.2.2.2.3c.1.3.2.6.3.8.1.3.2.5.3.8.1.3.2.6.4.9.1.3.2.6.4.9.2-.6.5-1.2.7-1.9 0-.6.2-1.2.4-1.9zM202.8 215.3c-.1.1-.2.2-.4.2-.1 0-.2 0-.3-.1s-.2-.2-.2-.4v-3.3c-.2-.1-.3-.3-.3-.5 0-.1 0-.2.1-.3s.1-.2.3-.2v-.1-.4-.5-.7c0-.2-.1-.4-.2-.6-.1-.1-.1-.2-.1-.3 0-.3.1-.4.4-.5.3-.1.7-.1 1-.1h2c.3 0 .7 0 1-.1.2 0 .4 0 .5.1s.2.2.2.4c0 .1 0 .2-.1.3-.1.1-.2.2-.4.2-.5.1-1.1.1-1.6.1h-1.6c0 .2.1.4.1.6v1.5h1.5c.5 0 .9-.1 1.3-.2.2 0 .4 0 .5.1.1.1.2.2.2.4s-.1.4-.4.5c-.2.1-.5.2-.9.2s-.7.1-1.1.1h-1v3.2c-.3.1-.4.3-.5.4zM209.4 214.6c.2.1.3.2.3.4 0 .1 0 .3-.1.4-.1.1-.2.2-.3.2-.1 0-.3 0-.5-.1-.1-.1-.2-.1-.2-.2-.1-.1-.2-.1-.3-.2l-.2-.2c0-.1 0-.1-.1-.3v-7.4c0-.2.1-.3.2-.4s.2-.1.3-.1c.1 0 .2 0 .3.1.1.1.2.2.2.4v7.1c.3.2.3.2.4.3-.1-.1 0-.1 0 0zM216.1 214.3c.1.1.1.3.1.4s0 .3-.1.4c-.1.1-.2.1-.4.1s-.4-.1-.5-.3c-.1-.2-.3-.4-.4-.6-.2.2-.5.5-.8.6-.3.2-.6.3-1 .3-.2 0-.5 0-.7-.1l-.6-.3c-.2-.1-.4-.3-.5-.5-.1-.2-.3-.4-.3-.6-.1-.2-.1-.5-.1-.8v-.9-1.1-.9c0-.2.1-.3.2-.4.1-.1.2-.1.3-.1.1 0 .2 0 .3.1.1.1.2.2.2.4v2.4c0 .5.1.9.3 1.2.2.3.5.5.9.5.1 0 .3 0 .4-.1s.3-.1.4-.2l.3-.3.3-.3h.2c-.1-.4-.1-.9-.1-1.3v-.8c0-.3 0-.5.1-.7 0-.2.1-.4.2-.5.1-.1.2-.2.4-.2.1 0 .3.1.4.2s.2.2.2.4v2.3c0 .2 0 .5.1.7 0 .2.1.4.2.6-.2.1-.1.3 0 .4zM216.8 210.3c-.1-.1-.1-.2-.1-.3s.1-.2.2-.4c.1-.1.3-.2.5-.2h.7v-2.1c0-.2.1-.3.2-.4.1-.1.2-.1.3-.1.1 0 .2 0 .3.1s.2.2.2.4v2.1h1.3c.2 0 .3.1.4.2.1.1.1.2.1.3 0 .1 0 .2-.1.3s-.2.2-.4.2h-1.2v4.2c0 .2-.1.4-.2.5-.1.1-.2.2-.4.2-.1 0-.2 0-.3-.1-.1-.1-.2-.2-.2-.4v-2.1-2.1h-.8c-.2-.1-.4-.2-.5-.3zM222 210.3c-.1-.1-.1-.2-.1-.3s.1-.2.2-.4c.1-.1.3-.2.5-.2h.7v-2.1c0-.2.1-.3.2-.4.1-.1.2-.1.3-.1.1 0 .2 0 .3.1s.2.2.2.4v2.1h1.3c.2 0 .3.1.4.2.1.1.1.2.1.3 0 .1 0 .2-.1.3s-.2.2-.4.2h-1.2v4.2c0 .2-.1.4-.2.5-.1.1-.2.2-.4.2-.1 0-.2 0-.3-.1-.1-.1-.2-.2-.2-.4v-2.1-2.1h-.8c-.3-.1-.4-.2-.5-.3zM231 213.6c.2-.1.3-.1.5 0 .1.1.2.1.3.3.1.1.1.2 0 .4 0 .1-.1.3-.3.4-.3.2-.6.3-.9.5-.3.1-.7.2-1 .3s-.7.1-1 0-.7-.2-1-.4c-.4-.3-.7-.6-.8-1-.2-.4-.3-.9-.3-1.4 0-.5.1-.9.3-1.4.2-.4.5-.8.9-1.1.4-.3.8-.5 1.3-.6.5-.1 1-.2 1.4 0 .2.1.5.2.6.3s.4.4.5.6c.1.2.2.5.2.7s-.1.5-.2.7c-.2.2-.4.5-.6.6s-.6.3-.9.4c-.3.1-.7.2-1 .3-.3.1-.6.2-.9.2h-.3c.1.3.3.5.6.7s.6.3 1 .2c.3 0 .6-.1.9-.3.1 0 .4-.2.7-.4zm-2.6-2.8c-.3.2-.6.4-.7.7-.2.3-.2.6-.2 1 .1 0 .1-.1.2-.1.2 0 .3-.1.5-.1s.3-.1.5-.1c.1 0 .2-.1.4-.1.2-.1.4-.1.6-.2s.4-.2.5-.2.3-.2.3-.3c0-.3-.1-.5-.2-.6-.2-.1-.3-.2-.6-.2-.2 0-.5 0-.7.1s-.5.1-.6.1zM233.3 210.6l-.3-.3c-.1-.1-.1-.2-.1-.3 0-.1 0-.2.1-.4.1-.1.2-.2.4-.2.1 0 .3 0 .5.1s.3.2.4.3c.3-.2.6-.4.8-.6.3-.2.6-.2.9-.2.1 0 .2 0 .4.1.2 0 .3.1.5.2s.3.2.4.3c.1.1.2.3.2.5s0 .3-.1.4-.2.1-.4.1c-.1 0-.2 0-.3-.1-.1-.1-.2-.1-.2-.2s-.2-.1-.2-.2c-.1-.1-.2-.1-.3-.1-.1 0-.3 0-.4.1s-.3.2-.4.3-.3.2-.4.3l-.3.3v3.5c0 .2-.1.4-.2.5-.1.1-.2.2-.4.2-.1 0-.2 0-.3-.1s-.2-.2-.2-.4v-3.6-.1-.1-.1-.1l-.1-.1c.1 0 .1 0 0 0zM243.2 207.4c.1-.1.2-.1.3-.1h.2c.3-.2.7-.3 1.1-.4.4-.1.7-.1 1.1-.1.2 0 .5 0 .7.1.2 0 .5.1.7.3.2.1.5.3.6.5s.4.4.5.6c.1.2.2.5.3.7.1.3.1.5.1.8 0 .5-.1 1-.4 1.4-.3.5-.6.8-1.1 1.1s-.9.4-1.5.5h-1.2c-.2 0-.4 0-.6-.1v2.2c0 .2-.1.4-.2.5-.1.1-.2.2-.4.2-.1 0-.2 0-.3-.1s-.2-.2-.2-.4v-2.6h-.1l-.3-.3c-.1-.1-.1-.2-.1-.3 0-.1 0-.2.1-.3s.2-.2.3-.2v-3.6c.2-.1.3-.3.4-.4zm3.5.7c-.3-.1-.6-.2-.9-.2-.3 0-.6 0-.9.1s-.6.2-.8.3v3.3c.2 0 .4.1.6.1h1.2c.3 0 .5-.1.8-.2.3-.1.5-.2.7-.4.2-.2.3-.4.4-.6.1-.2.1-.5.1-.7 0-.3-.1-.7-.2-.9-.4-.4-.6-.6-1-.8zM249.9 210.6l-.3-.3c-.1-.1-.1-.2-.1-.3 0-.1 0-.2.1-.4.1-.1.2-.2.4-.2.1 0 .3 0 .5.1s.3.2.4.3c.3-.2.6-.4.8-.6.3-.2.6-.2.9-.2.1 0 .2 0 .4.1.2 0 .3.1.5.2s.3.2.4.3c.1.1.2.3.2.5s0 .3-.1.4-.2.1-.4.1c-.1 0-.2 0-.3-.1-.1-.1-.2-.1-.2-.2s-.2-.1-.2-.2c-.1-.1-.2-.1-.3-.1-.1 0-.3 0-.4.1s-.3.2-.4.3-.3.2-.4.3l-.3.3v3.5c0 .2-.1.4-.2.5-.1.1-.2.2-.4.2-.1 0-.2 0-.3-.1s-.2-.2-.2-.4v-3.6-.1-.1-.1-.1l-.1-.1c.1 0 .1 0 0 0zM254.6 212c.1-.3.2-.6.4-.8.1-.3.3-.5.5-.7.2-.2.4-.4.7-.6s.5-.3.8-.3c.5-.1 1-.1 1.3.1.4.2.7.5.9.8.2.4.4.8.5 1.2.1.5.1.9-.1 1.3-.1.5-.4 1-.7 1.5-.3.5-.8.8-1.3 1-.4.1-.7.2-1.1.2-.3 0-.7-.2-.9-.3s-.5-.4-.7-.7c-.2-.3-.3-.6-.4-1 0-.2-.1-.5 0-.7s0-.5.1-.7v-.3zm1 .3c0 .2-.1.4-.1.5v.5c0 .2.1.5.2.6.1.2.3.3.5.4.2.1.4.2.6.1.2 0 .4-.1.7-.2.3-.2.5-.4.7-.7.2-.3.3-.6.4-.9.1-.3.1-.5 0-.8 0-.3-.1-.6-.3-.8-.1-.2-.3-.4-.6-.5s-.5-.1-.8 0c-.4.2-.6.4-.8.7-.2.4-.4.7-.5 1.1zM259.5 216.2c-.1-.1-.1-.2-.1-.3 0-.2 0-.3.1-.4s.2-.1.4-.1c.1 0 .3 0 .4.1l.2.2c0 .1.1.1.1.1s.1.1.2.1.1.1.2.1h.1c.2-.1.4-.2.5-.4.1-.2.1-.4.1-.6v-.9-.9-1.8-1.8c0-.2.1-.3.2-.4.1-.1.2-.1.3-.1.1 0 .2 0 .3.1.1.1.2.2.2.4v5.4c0 .3-.1.6-.2.8-.1.2-.1.4-.3.5l-.3.3c-.1.1-.2.2-.3.2-.2.2-.5.2-.8.2-.3 0-.6-.1-.9-.3.1 0-.2-.2-.4-.5zm2.2-8.7c0-.2.1-.4.2-.5s.3-.2.5-.2.3.1.5.2c.1.1.2.3.2.5s-.1.3-.2.5c-.1.1-.3.2-.5.2s-.3-.1-.5-.2-.2-.3-.2-.5zM269.1 213.6c.2-.1.3-.1.5 0 .1.1.2.1.3.3.1.1.1.2 0 .4 0 .1-.1.3-.3.4-.3.2-.6.3-.9.5-.3.1-.7.2-1 .3s-.7.1-1 0-.7-.2-1-.4c-.4-.3-.7-.6-.8-1-.2-.4-.3-.9-.3-1.4 0-.5.1-.9.3-1.4.2-.4.5-.8.9-1.1.4-.3.8-.5 1.3-.6.5-.1 1-.2 1.4 0 .2.1.5.2.6.3s.4.4.5.6c.1.2.2.5.2.7s-.1.5-.2.7c-.2.2-.4.5-.6.6s-.6.3-.9.4c-.3.1-.7.2-1 .3-.3.1-.6.2-.9.2h-.3c.1.3.3.5.6.7s.6.3 1 .2c.3 0 .6-.1.9-.3.2 0 .5-.2.7-.4zm-2.5-2.8c-.3.2-.6.4-.7.7-.2.3-.2.6-.2 1 .1 0 .1-.1.2-.1.2 0 .3-.1.5-.1s.3-.1.5-.1c.1 0 .2-.1.4-.1.2-.1.4-.1.6-.2s.4-.2.5-.2.3-.2.3-.3c0-.3-.1-.5-.2-.6-.2-.1-.3-.2-.6-.2-.2 0-.5 0-.7.1s-.5.1-.6.1zM274.6 213.8c.2-.1.3-.2.4-.2s.3.1.4.1c.1.1.1.2.1.4 0 .1 0 .3-.2.4-.3.3-.6.5-1 .7-.4.1-.8.2-1.2.1s-.7-.2-1.1-.5-.6-.6-.7-1c-.1-.2-.2-.5-.2-.8 0-.3-.1-.5 0-.8 0-.4.1-.9.3-1.3s.4-.8.7-1.1c.3-.3.6-.6 1-.7.4-.1.8-.1 1.3 0 .2.1.5.2.6.3.2.1.4.3.6.4.1.1.1.3.1.4 0 .1 0 .2-.1.3s-.2.1-.3.2c-.1 0-.3 0-.4-.1-.3-.3-.6-.5-.8-.5-.3-.1-.5 0-.8.1-.2.1-.4.3-.6.5-.2.2-.3.5-.4.8-.1.3-.1.6-.1.9s.1.6.2.9c.1.2.2.4.4.6.2.1.4.2.6.2.2 0 .4 0 .6-.1.3.1.5 0 .6-.2zM277 210.3c-.1-.1-.1-.2-.1-.3s.1-.2.2-.4c.1-.1.3-.2.5-.2h.7v-2.1c0-.2.1-.3.2-.4.1-.1.2-.1.3-.1.1 0 .2 0 .3.1s.2.2.2.4v2.1h1.3c.2 0 .3.1.4.2.1.1.1.2.1.3 0 .1 0 .2-.1.3s-.2.2-.4.2h-1.2v4.2c0 .2-.1.4-.2.5-.1.1-.2.2-.4.2-.1 0-.2 0-.3-.1-.1-.1-.2-.2-.2-.4v-2.1-2.1h-.8c-.2-.1-.4-.2-.5-.3zM55.3 231.1c-.2 0-.3-.1-.4-.2-.1-.1-.1-.2-.1-.3 0-.1.1-.2.2-.4.1-.1.3-.2.5-.2H59.1c.2 0 .3.1.4.2s.1.2.1.3c0 .1 0 .2-.1.3-.1.1-.2.2-.4.2h-1.8c-.8.1-1.4.1-2 .1zM65.8 232.4c-.1-.1-.1-.3-.1-.4 0-.2 0-.3.1-.4s.2-.1.4-.1c.1 0 .2 0 .4.1.1.1.3.2.4.3.1.1.3.2.4.3.1.1.3.1.5.1s.5-.1.6-.2c.2-.1.3-.2.5-.4l.3-.6c.1-.2.1-.4.1-.6 0-.2-.1-.4-.2-.6s-.3-.3-.6-.4c-.2-.1-.5-.1-.7-.2-.2 0-.4-.1-.6-.1-.2 0-.3-.1-.4-.2-.1-.1-.1-.2-.1-.3 0-.1 0-.2.1-.3s.2-.2.4-.2.3 0 .5-.1c.2 0 .3-.1.5-.2s.3-.1.5-.3c.1-.1.2-.2.3-.4v-.3l-.1-.3c0-.1-.1-.2-.1-.2-.1-.1-.2-.1-.3-.1-.1 0-.2-.1-.3-.1H68c-.2 0-.4 0-.7.1-.2 0-.4.1-.5.2-.1.1-.2.1-.3.2-.1 0-.2.1-.3.1-.1 0-.3-.1-.4-.2s-.2-.3-.2-.5c0-.1.1-.3.2-.4.1-.1.3-.2.4-.3.2-.1.4-.1.5-.1.2 0 .4-.1.5-.1h.5c.3 0 .6 0 .9.1.3.1.5.2.7.3.2.2.4.4.5.6.1.2.2.5.2.8v.3c0 .1 0 .3-.1.4-.1.1-.1.3-.3.5-.1.2-.3.3-.6.5.2.1.3.2.5.3s.3.3.4.4.2.3.3.5.1.4.1.6c0 .3-.1.7-.2 1l-.6.9c-.2.3-.5.5-.8.6-.3.2-.6.2-.9.2-.4 0-.8-.1-1.1-.3s-.6-.3-.9-.5zM73.5 232.5c0 .2-.1.4-.2.5-.2.1-.3.2-.6.2-.2 0-.4-.1-.6-.2-.2-.1-.2-.3-.2-.5s.1-.4.2-.5c.2-.2.4-.2.6-.2.2 0 .4.1.6.2s.2.3.2.5zM78.9 226.8c-.1-.2-.2-.3-.3-.4-.1-.1-.2-.2-.4-.2-.4 0-.7.1-1.1.3-.3.2-.6.5-.9.7-.1.1-.3.1-.4.1-.2 0-.3-.1-.4-.2s-.1-.2-.1-.4c0-.1 0-.3.1-.4.2-.2.3-.4.5-.5s.4-.3.6-.5c.2-.1.4-.2.7-.3.2-.1.5-.1.7-.1.3 0 .5.1.8.2.2.1.5.3.6.5.2.2.3.5.4.8.1.3.2.6.2 1v.4c-.1.4-.2.7-.4 1-.2.3-.4.5-.7.7-.2.2-.5.3-.8.5-.3.1-.5.3-.7.5l-.6.6c-.2.3-.3.6-.3 1h2.7c.1 0 .1-.1.1-.1s.1-.1.1-.2l.2-.2s.1 0 .2-.1h.2c.2 0 .3.1.4.2.1.1.1.2.1.4v.2c0 .1 0 .1-.1.1l-.6.6c-.2.1-.5.2-.8.2H76c-.3 0-.5-.2-.6-.6 0-.3.1-.6.1-.9.1-.3.1-.5.2-.8s.2-.5.4-.7c.1-.2.3-.4.6-.6.2-.2.4-.3.7-.5.3-.1.5-.3.8-.5l.6-.6c.2-.2.3-.5.3-.8 0-.1 0-.2-.1-.3-.1 0-.1-.1-.1-.1zM92 228.9c.3 0 .4.1.5.2.1.1.1.3.1.4 0 .2 0 .3-.1.4-.1.1-.2.2-.5.2v2.6c0 .3-.1.5-.2.6s-.3.1-.4.1c-.1 0-.3-.1-.4-.2-.1-.1-.2-.3-.2-.5v-2.6h-3.6v2.6c0 .3-.1.5-.2.6-.1.1-.3.1-.4.1-.1 0-.3-.1-.4-.2s-.2-.3-.2-.5v-6.9c0-.2 0-.3.1-.4 0-.1.1-.2.2-.2.1-.1.2-.1.2-.1h.3c.1 0 .2 0 .3.1.1.1.1.2.1.5v3.2h3.6v-3.1c0-.2 0-.3.1-.4 0-.1.1-.2.2-.2s.2-.1.2-.1h.3c.1 0 .2 0 .3.1.1.1.1.2.1.5v3.2zM93.5 230c.1-.3.2-.6.4-.8.1-.3.3-.5.5-.7.2-.2.4-.4.7-.6s.5-.3.8-.3c.5-.1 1-.1 1.3.1.4.2.7.5.9.8.2.4.4.8.5 1.2.1.5.1.9-.1 1.3-.1.5-.4 1-.7 1.5-.3.5-.8.8-1.3 1-.4.1-.7.2-1.1.2-.3 0-.7-.2-.9-.3s-.5-.4-.7-.7c-.2-.3-.3-.6-.4-1 0-.2-.1-.5 0-.7s0-.5.1-.7v-.3zm1 .3c0 .2-.1.4-.1.5v.5c0 .2.1.5.2.6.1.2.3.3.5.4.2.1.4.2.6.1.2 0 .4-.1.7-.2.3-.2.5-.4.7-.7.2-.3.3-.6.4-.9.1-.3.1-.5 0-.8 0-.3-.1-.6-.3-.8-.1-.2-.3-.4-.6-.5s-.5-.1-.8 0c-.4.2-.6.4-.8.7-.2.4-.4.7-.5 1.1zM106.6 227.6c.1-.2.2-.2.3-.3.1 0 .2-.1.3 0 .1 0 .2.1.3.2s.1.2.1.4c-.3.9-.5 1.7-.8 2.6s-.6 1.7-1 2.5c-.1.2-.3.2-.4.3s-.3-.1-.5-.2c-.2-.5-.5-1-.7-1.5l-.6-1.5c0-.1-.1-.1-.1-.2s-.1-.2-.1-.2c-.1.3-.2.6-.3.8s-.2.5-.3.8l-.3.9c-.1.3-.2.6-.4.9-.2.2-.3.3-.5.3s-.3-.1-.5-.4c-.2-.5-.4-1-.5-1.5-.2-.5-.3-1-.5-1.5-.1-.3-.2-.7-.3-1s-.2-.7-.2-1c0-.2 0-.4.1-.5.1-.1.2-.2.3-.2.1 0 .2 0 .4.1.1.1.2.2.3.4.1.6.2 1.2.4 1.8.2.6.3 1.2.6 1.8.1-.3.2-.6.3-.8s.2-.5.3-.8c.1-.3.2-.5.3-.8.1-.3.2-.6.4-1l.3-.3c.1-.1.2-.1.3-.1.1 0 .2.1.3.1s.2.2.2.3c.1.3.2.6.3.8.1.3.2.5.3.8.1.3.2.6.4.9.1.3.2.6.4.9.2-.6.5-1.2.7-1.9 0-.6.2-1.2.4-1.9zM113.4 228.3c-.1-.1-.1-.2-.1-.3s.1-.2.2-.4c.1-.1.3-.2.5-.2h.7v-2.1c0-.2.1-.3.2-.4.1-.1.2-.1.3-.1.1 0 .2 0 .3.1s.2.2.2.4v2.1h1.3c.2 0 .3.1.4.2.1.1.1.2.1.3 0 .1 0 .2-.1.3s-.2.2-.4.2h-1.2v4.2c0 .2-.1.4-.2.5-.1.1-.2.2-.4.2-.1 0-.2 0-.3-.1-.1-.1-.2-.2-.2-.4v-2.1-2.1h-.8c-.3-.1-.4-.2-.5-.3zM117.8 230c.1-.3.2-.6.4-.8.1-.3.3-.5.5-.7.2-.2.4-.4.7-.6s.5-.3.8-.3c.5-.1 1-.1 1.3.1.4.2.7.5.9.8.2.4.4.8.5 1.2.1.5.1.9-.1 1.3-.1.5-.4 1-.7 1.5-.3.5-.8.8-1.3 1-.4.1-.7.2-1.1.2-.3 0-.7-.2-.9-.3s-.5-.4-.7-.7c-.2-.3-.3-.6-.4-1 0-.2-.1-.5 0-.7s0-.5.1-.7v-.3zm1 .3c0 .2-.1.4-.1.5v.5c0 .2.1.5.2.6.1.2.3.3.5.4.2.1.4.2.6.1.2 0 .4-.1.7-.2.3-.2.5-.4.7-.7.2-.3.3-.6.4-.9.1-.3.1-.5 0-.8 0-.3-.1-.6-.3-.8-.1-.2-.3-.4-.6-.5s-.5-.1-.8 0c-.4.2-.6.4-.8.7-.2.4-.4.7-.5 1.1zM133.7 232.6c0 .1.1.3 0 .4 0 .1-.1.2-.2.3s-.2.1-.3.1c-.1 0-.2 0-.4-.1-.1-.1-.2-.2-.2-.3-.1-.1-.1-.2-.2-.3-.2.2-.4.3-.6.4s-.4.2-.6.2h-1c-.3 0-.7-.1-1-.3-.3-.2-.5-.4-.6-.7-.1-.3-.2-.5-.3-.8v-.9c0-.3.1-.6.2-.9 0-.1.1-.2.2-.4.1-.1.1-.2.2-.4s.2-.3.3-.5c.1-.2.3-.3.4-.4.1-.1.2-.2.3-.2.1-.1.2-.2.3-.2.1-.1.2-.1.4-.2s.3-.1.5-.1.4-.1.6-.1c.2 0 .4 0 .5.1.1 0 .2 0 .4.1.1.1.2.2.3.4v1.8c0 .6 0 1.2.1 1.8 0 .1 0 .2.1.3.1.1.1.2.2.3s.1.2.2.3c.2.2.2.3.2.3zm-1.7-.9s.1 0 0 0c0-.6-.1-1.1-.1-1.7v-1.6h-.3c-.1 0-.2 0-.3.1s-.2.1-.3.1c-.1 0-.1 0-.2.1-.3.1-.5.3-.7.5-.2.2-.3.4-.5.7-.1.2-.2.5-.3.8-.1.3-.1.5-.1.8 0 .1 0 .1.1.2 0 .1 0 .1.1.2l.1.1c0 .1.1.1.2.1s.2.1.2.1c.1 0 .2.1.2.1h.4c.1 0 .3 0 .4-.1.1-.1.3-.2.4-.3.4 0 .6-.1.7-.2zM140 232.3c.1.2.2.3.1.5 0 .1-.1.3-.2.3s-.2.1-.4.1c-.1 0-.3-.1-.4-.2l-.1-.1-.1-.1c-.3.2-.6.4-.9.5s-.7.2-1.1.2-.7-.1-1-.2c-.3-.1-.6-.4-.8-.7-.2-.2-.3-.5-.4-.8-.1-.3-.1-.6-.1-.9 0-.3 0-.6.1-.9s.2-.6.3-.8c.1-.2.3-.4.5-.6.2-.2.4-.3.6-.5.2-.1.4-.2.7-.3s.5-.1.7-.1h.6c.2 0 .4 0 .6.1v-1.6-.9c0-.2.1-.3.2-.4s.2-.1.3-.1.2 0 .3.1c.1.1.2.2.2.4v6.9c.1-.1.2 0 .3.1-.1-.1-.1-.1 0 0zm-1.2-1v-.2-1.1-1.1h-.1s-.1 0-.1-.1l-.1-.1c-.3-.1-.5-.1-.8-.1-.3 0-.6.1-.8.2-.3.1-.5.2-.7.4-.2.2-.3.4-.4.7-.1.3-.1.5-.1.7 0 .2 0 .4.1.7 0 .1.1.1.1.2s.1.1.1.2l.3.3c.1 0 .2.1.3.1.4 0 .7 0 1-.1.3-.1.6-.2.9-.5l.1-.1.1-.1.1-.1.1-.1-.1.2zM146.4 232.3c.1.2.2.3.1.5 0 .1-.1.3-.2.3s-.2.1-.4.1c-.1 0-.3-.1-.4-.2l-.1-.1-.1-.1c-.3.2-.6.4-.9.5s-.7.2-1.1.2-.7-.1-1-.2c-.3-.1-.6-.4-.8-.7-.2-.2-.3-.5-.4-.8-.1-.3-.1-.6-.1-.9 0-.3 0-.6.1-.9s.2-.6.3-.8c.1-.2.3-.4.5-.6.2-.2.4-.3.6-.5.2-.1.4-.2.7-.3s.5-.1.7-.1h.6c.2 0 .4 0 .6.1v-1.6-.9c0-.2.1-.3.2-.4s.2-.1.3-.1.2 0 .3.1c.1.1.2.2.2.4v6.9c.2-.1.2 0 .3.1 0-.1 0-.1 0 0zm-1.2-1v-.2-1.1-1.1h-.1s-.1 0-.1-.1l-.1-.1c-.3-.1-.5-.1-.8-.1-.3 0-.6.1-.8.2-.3.1-.5.2-.7.4-.2.2-.3.4-.4.7-.1.3-.1.5-.1.7 0 .2 0 .4.1.7 0 .1.1.1.1.2s.1.1.1.2l.3.3c.1 0 .2.1.3.1.4 0 .7 0 1-.1.3-.1.6-.2.9-.5l.1-.1.1-.1.1-.1.1-.1-.1.2zM153.4 233.3c-.1.1-.2.2-.4.2-.1 0-.2 0-.3-.1s-.2-.2-.2-.4v-3.3c-.2-.1-.3-.3-.3-.5 0-.1 0-.2.1-.3s.1-.2.3-.2v-.1-.4-.5-.7c0-.2-.1-.4-.2-.6-.1-.1-.1-.2-.1-.3 0-.3.1-.4.4-.5.3-.1.7-.1 1-.1h2c.3 0 .7 0 1-.1.2 0 .4 0 .5.1s.2.2.2.4c0 .1 0 .2-.1.3-.1.1-.2.2-.4.2-.5.1-1.1.1-1.6.1h-1.6c0 .2.1.4.1.6v1.5h1.5c.5 0 .9-.1 1.3-.2.2 0 .4 0 .5.1.1.1.2.2.2.4s-.1.4-.4.5c-.2.1-.5.2-.9.2s-.7.1-1.1.1h-1v3.2c-.3.1-.4.3-.5.4zM160 232.6c.2.1.3.2.3.4 0 .1 0 .3-.1.4-.1.1-.2.2-.3.2-.1 0-.3 0-.5-.1-.1-.1-.2-.1-.2-.2-.1-.1-.2-.1-.3-.2l-.2-.2c0-.1 0-.1-.1-.3v-7.4c0-.2.1-.3.2-.4s.2-.1.3-.1c.1 0 .2 0 .3.1.1.1.2.2.2.4v7.1c.2.2.2.2.4.3-.1-.1-.1-.1 0 0zM166.6 232.3c.1.1.1.3.1.4s0 .3-.1.4c-.1.1-.2.1-.4.1s-.4-.1-.5-.3c-.1-.2-.3-.4-.4-.6-.2.2-.5.5-.8.6-.3.2-.6.3-1 .3-.2 0-.5 0-.7-.1l-.6-.3c-.2-.1-.4-.3-.5-.5-.1-.2-.3-.4-.3-.6-.1-.2-.1-.5-.1-.8v-.9-1.1-.9c0-.2.1-.3.2-.4.1-.1.2-.1.3-.1.1 0 .2 0 .3.1.1.1.2.2.2.4v2.4c0 .5.1.9.3 1.2.2.3.5.5.9.5.1 0 .3 0 .4-.1s.3-.1.4-.2l.3-.3.3-.3h.2c-.1-.4-.1-.9-.1-1.3v-.8c0-.3 0-.5.1-.7 0-.2.1-.4.2-.5.1-.1.2-.2.4-.2.1 0 .3.1.4.2s.2.2.2.4v2.3c0 .2 0 .5.1.7 0 .2.1.4.2.6-.2.1-.1.3 0 .4zM167.4 228.3c-.1-.1-.1-.2-.1-.3s.1-.2.2-.4c.1-.1.3-.2.5-.2h.7v-2.1c0-.2.1-.3.2-.4.1-.1.2-.1.3-.1.1 0 .2 0 .3.1s.2.2.2.4v2.1h1.3c.2 0 .3.1.4.2.1.1.1.2.1.3 0 .1 0 .2-.1.3s-.2.2-.4.2h-1.2v4.2c0 .2-.1.4-.2.5-.1.1-.2.2-.4.2-.1 0-.2 0-.3-.1-.1-.1-.2-.2-.2-.4v-2.1-2.1h-.8c-.3-.1-.4-.2-.5-.3zM172.5 228.3c-.1-.1-.1-.2-.1-.3s.1-.2.2-.4c.1-.1.3-.2.5-.2h.7v-2.1c0-.2.1-.3.2-.4.1-.1.2-.1.3-.1.1 0 .2 0 .3.1s.2.2.2.4v2.1h1.3c.2 0 .3.1.4.2.1.1.1.2.1.3 0 .1 0 .2-.1.3s-.2.2-.4.2h-1.2v4.2c0 .2-.1.4-.2.5-.1.1-.2.2-.4.2-.1 0-.2 0-.3-.1-.1-.1-.2-.2-.2-.4v-2.1-2.1h-.8c-.2-.1-.4-.2-.5-.3zM181.5 231.6c.2-.1.3-.1.5 0 .1.1.2.1.3.3.1.1.1.2 0 .4 0 .1-.1.3-.3.4-.3.2-.6.3-.9.5-.3.1-.7.2-1 .3s-.7.1-1 0-.7-.2-1-.4c-.4-.3-.7-.6-.8-1-.2-.4-.3-.9-.3-1.4 0-.5.1-.9.3-1.4.2-.4.5-.8.9-1.1.4-.3.8-.5 1.3-.6.5-.1 1-.2 1.4 0 .2.1.5.2.6.3s.4.4.5.6c.1.2.2.5.2.7s-.1.5-.2.7c-.2.2-.4.5-.6.6s-.6.3-.9.4c-.3.1-.7.2-1 .3-.3.1-.6.2-.9.2h-.3c.1.3.3.5.6.7s.6.3 1 .2c.3 0 .6-.1.9-.3.2 0 .5-.2.7-.4zm-2.6-2.8c-.3.2-.6.4-.7.7-.2.3-.2.6-.2 1 .1 0 .1-.1.2-.1.2 0 .3-.1.5-.1s.3-.1.5-.1c.1 0 .2-.1.4-.1.2-.1.4-.1.6-.2s.4-.2.5-.2.3-.2.3-.3c0-.3-.1-.5-.2-.6-.2-.1-.3-.2-.6-.2-.2 0-.5 0-.7.1s-.4.1-.6.1zM183.9 228.6l-.3-.3c-.1-.1-.1-.2-.1-.3 0-.1 0-.2.1-.4.1-.1.2-.2.4-.2.1 0 .3 0 .5.1s.3.2.4.3c.3-.2.6-.4.8-.6.3-.2.6-.2.9-.2.1 0 .2 0 .4.1.2 0 .3.1.5.2s.3.2.4.3c.1.1.2.3.2.5s0 .3-.1.4-.2.1-.4.1c-.1 0-.2 0-.3-.1-.1-.1-.2-.1-.2-.2s-.2-.1-.2-.2c-.1-.1-.2-.1-.3-.1-.1 0-.3 0-.4.1s-.3.2-.4.3-.3.2-.4.3l-.3.3v3.5c0 .2-.1.4-.2.5-.1.1-.2.2-.4.2-.1 0-.2 0-.3-.1s-.2-.2-.2-.4v-3.6-.1-.1-.1-.1l-.1-.1c.1 0 0 0 0 0zM193.8 228.3c-.1-.1-.1-.2-.1-.3s.1-.2.2-.4c.1-.1.3-.2.5-.2h.7v-2.1c0-.2.1-.3.2-.4.1-.1.2-.1.3-.1.1 0 .2 0 .3.1s.2.2.2.4v2.1h1.3c.2 0 .3.1.4.2.1.1.1.2.1.3 0 .1 0 .2-.1.3s-.2.2-.4.2h-1.2v4.2c0 .2-.1.4-.2.5-.1.1-.2.2-.4.2-.1 0-.2 0-.3-.1-.1-.1-.2-.2-.2-.4v-2.1-2.1h-.8c-.2-.1-.4-.2-.5-.3zM198.2 230c.1-.3.2-.6.4-.8.1-.3.3-.5.5-.7.2-.2.4-.4.7-.6s.5-.3.8-.3c.5-.1 1-.1 1.3.1.4.2.7.5.9.8.2.4.4.8.5 1.2.1.5.1.9-.1 1.3-.1.5-.4 1-.7 1.5-.3.5-.8.8-1.3 1-.4.1-.7.2-1.1.2-.3 0-.7-.2-.9-.3s-.5-.4-.7-.7c-.2-.3-.3-.6-.4-1 0-.2-.1-.5 0-.7s0-.5.1-.7v-.3zm1.1.3c0 .2-.1.4-.1.5v.5c0 .2.1.5.2.6.1.2.3.3.5.4.2.1.4.2.6.1.2 0 .4-.1.7-.2.3-.2.5-.4.7-.7.2-.3.3-.6.4-.9.1-.3.1-.5 0-.8 0-.3-.1-.6-.3-.8-.1-.2-.3-.4-.6-.5s-.5-.1-.8 0c-.4.2-.6.4-.8.7-.3.4-.4.7-.5 1.1zM213.3 231.6c.2-.1.3-.1.5 0 .1.1.2.1.3.3.1.1.1.2 0 .4 0 .1-.1.3-.3.4-.3.2-.6.3-.9.5-.3.1-.7.2-1 .3s-.7.1-1 0-.7-.2-1-.4c-.4-.3-.7-.6-.8-1-.2-.4-.3-.9-.3-1.4 0-.5.1-.9.3-1.4.2-.4.5-.8.9-1.1.4-.3.8-.5 1.3-.6.5-.1 1-.2 1.4 0 .2.1.5.2.6.3s.4.4.5.6c.1.2.2.5.2.7s-.1.5-.2.7c-.2.2-.4.5-.6.6s-.6.3-.9.4c-.3.1-.7.2-1 .3-.3.1-.6.2-.9.2h-.3c.1.3.3.5.6.7s.6.3 1 .2c.3 0 .6-.1.9-.3.2 0 .5-.2.7-.4zm-2.5-2.8c-.3.2-.6.4-.7.7-.2.3-.2.6-.2 1 .1 0 .1-.1.2-.1.2 0 .3-.1.5-.1s.3-.1.5-.1c.1 0 .2-.1.4-.1.2-.1.4-.1.6-.2s.4-.2.5-.2.3-.2.3-.3c0-.3-.1-.5-.2-.6-.2-.1-.3-.2-.6-.2-.2 0-.5 0-.7.1s-.5.1-.6.1zM219.3 227.4c.2-.1.3-.2.4-.2.1 0 .3.1.4.1s.1.2.1.4c0 .1 0 .3-.2.4l-1 1c-.4.4-.6.7-.9 1 .4.4.7.9 1.1 1.3.3.4.6.9.9 1.4.1.2.1.3 0 .4 0 .1-.1.2-.2.3-.1.1-.2.1-.3.1s-.3-.1-.4-.2c-.3-.4-.5-.8-.8-1.2l-.9-1.2c-.6.7-1.1 1.5-1.7 2.3-.1.2-.3.2-.4.3-.1 0-.3 0-.4-.1-.1-.1-.2-.2-.2-.3 0-.1 0-.3.1-.5.3-.4.6-.9.9-1.3l.9-1.2-.9-.9-.9-.9c-.1-.1-.2-.3-.2-.4 0-.1 0-.3.1-.4s.2-.2.3-.2c.1 0 .3 0 .5.1l.9.9.9.9c.3-.3.6-.6.9-1 .3-.3.6-.6 1-.9zM221.4 225.6c0-.2.1-.4.2-.5s.3-.2.5-.2.3.1.5.2c.1.1.2.3.2.5s-.1.3-.2.5c-.1.1-.3.2-.5.2s-.3-.1-.5-.2c-.2-.2-.2-.4-.2-.5zm1.2 7.2c0 .2-.1.4-.2.5-.1.1-.2.2-.4.2-.1 0-.2 0-.3-.1s-.2-.2-.2-.4v-2.5-2.5c0-.2.1-.3.2-.4.1-.1.2-.1.3-.1.1 0 .2 0 .3.1.1.1.2.2.2.4v2.5c.1.6.1 1.4.1 2.3zM224 232.2c-.1-.2-.1-.3-.1-.4 0-.1.1-.2.2-.3.1-.1.2-.1.3-.1.1 0 .3 0 .4.1.2.3.4.5.7.6l.9.3.3-.1.1-.1h.1l.1-.1.1-.1v-.1-.1-.1-.1l-.1-.2-.1-.1-.1-.1c-.2-.1-.4-.2-.7-.3-.2-.1-.4-.1-.6-.2l-.6-.3c-.2-.1-.4-.3-.6-.5-.2-.2-.3-.5-.3-.7 0-.3 0-.5.1-.8.1-.3.3-.5.5-.7s.4-.3.7-.4c.4-.1.7-.1 1.1 0 .4.1.7.2 1.1.4.2.1.3.2.3.4s0 .3-.1.4-.2.2-.3.2c-.1 0-.3 0-.5-.1s-.4-.2-.7-.2h-.7-.1-.1c-.1.1-.2.2-.2.3 0 .1-.1.2-.1.4 0 0 0 .1.1.2l.1.1.1.1c.2.1.4.2.7.3s.5.1.7.2.5.2.7.3c.2.1.4.3.5.6.2.5.2 1 .1 1.4-.1.4-.4.8-.9 1.1-.1.1-.2.1-.4.2-.1 0-.3.1-.4.1-.5 0-.9-.1-1.4-.3-.3-.5-.6-.8-.9-1.2zM229.3 228.3c-.1-.1-.1-.2-.1-.3s.1-.2.2-.4c.1-.1.3-.2.5-.2h.7v-2.1c0-.2.1-.3.2-.4.1-.1.2-.1.3-.1.1 0 .2 0 .3.1s.2.2.2.4v2.1h1.3c.2 0 .3.1.4.2.1.1.1.2.1.3 0 .1 0 .2-.1.3s-.2.2-.4.2h-1.2v4.2c0 .2-.1.4-.2.5-.1.1-.2.2-.4.2-.1 0-.2 0-.3-.1-.1-.1-.2-.2-.2-.4v-2.1-2.1h-.8c-.3-.1-.4-.2-.5-.3zM234.5 225.6c0-.2.1-.4.2-.5s.3-.2.5-.2.3.1.5.2c.1.1.2.3.2.5s-.1.3-.2.5c-.1.1-.3.2-.5.2s-.3-.1-.5-.2c-.1-.2-.2-.4-.2-.5zm1.2 7.2c0 .2-.1.4-.2.5-.1.1-.2.2-.4.2-.1 0-.2 0-.3-.1s-.2-.2-.2-.4v-2.5-2.5c0-.2.1-.3.2-.4.1-.1.2-.1.3-.1.1 0 .2 0 .3.1.1.1.2.2.2.4v2.5c.1.6.1 1.4.1 2.3zM242.1 233.3c-.1.1-.2.2-.4.2-.1 0-.2 0-.3-.1s-.2-.2-.2-.4v-1.2-1.2-.9c0-.3 0-.6-.1-.9-.1-.1-.1-.2-.2-.2h-.3c-.3 0-.6.1-.9.2-.3.1-.5.3-.7.6-.1.2-.2.3-.2.4-.1.1-.1.2-.1.4v2.8c0 .2-.1.4-.2.5-.1.1-.2.2-.4.2-.1 0-.2 0-.3-.1-.1-.1-.2-.2-.2-.4V232v-1.2-1.2-1.2c0-.2.1-.3.2-.4.1-.1.2-.1.3-.1.1 0 .2 0 .3.1s.2.2.2.4v.1c.3-.2.5-.4.9-.5.3-.1.6-.2 1-.2.3 0 .6.1.9.2s.5.4.7.7c.1.1.1.3.1.4v4.2c0-.3 0-.1-.1 0zM244.1 235.8c-.1-.1-.2-.2-.2-.4 0-.1 0-.2.1-.3s.1-.2.3-.2h.4c.1.1.2.1.3.2.1 0 .2.1.2.1.1 0 .2.1.2.1.1 0 .2.1.3.1.2 0 .3.1.5.1s.4 0 .6-.1c.2 0 .3-.1.5-.2s.3-.2.4-.4c.1-.1.1-.2.1-.4v-1.3c-.1.1-.3.1-.4.2-.1 0-.3.1-.4.1-.2 0-.4.1-.6.1h-.6c-.5-.1-.8-.3-1.2-.6-.3-.3-.5-.6-.7-1s-.2-.8-.2-1.3.1-.9.2-1.3c.1-.3.3-.6.5-.9s.5-.5.8-.6c.3-.2.6-.2 1-.3.3 0 .7 0 1 .2.3.1.5.3.7.4.1-.1.1-.2.2-.3s.2-.1.3-.1c.1 0 .2.1.3.1s.2.2.2.3v5.6c0 .5-.1.9-.2 1.2-.1.3-.4.6-.8.9-.2.1-.3.2-.5.3s-.4.1-.6.1c-.4.1-.8 0-1.2-.1-.3-.1-.5-.1-.7-.2s-.5.1-.8-.1zm3.6-3.9c0-.1.1-.1 0 0l.1-2.4c-.2-.2-.4-.3-.6-.5-.2-.1-.5-.3-.7-.3h-.6c-.1 0-.1.1-.2.1s-.1.1-.2.1c-.4.5-.7.9-.7 1.4 0 .5.1 1 .3 1.6 0 .1.1.1.1.2.1.1.1.1.1.2.8.3 1.7.2 2.4-.4zM259.9 232.6c0 .1.1.3 0 .4 0 .1-.1.2-.2.3s-.2.1-.3.1c-.1 0-.2 0-.4-.1-.1-.1-.2-.2-.2-.3-.1-.1-.1-.2-.2-.3-.2.2-.4.3-.6.4s-.4.2-.6.2h-1c-.3 0-.7-.1-1-.3-.3-.2-.5-.4-.6-.7-.1-.3-.2-.5-.3-.8v-.9c0-.3.1-.6.2-.9 0-.1.1-.2.2-.4.1-.1.1-.2.2-.4s.2-.3.3-.5c.1-.2.3-.3.4-.4.1-.1.2-.2.3-.2.1-.1.2-.2.3-.2.1-.1.2-.1.4-.2s.3-.1.5-.1.4-.1.6-.1c.2 0 .4 0 .5.1.1 0 .2 0 .4.1.1.1.2.2.3.4v1.8c0 .6 0 1.2.1 1.8 0 .1 0 .2.1.3.1.1.1.2.2.3s.1.2.2.3c.2.2.2.3.2.3zm-1.6-.9c0-.6-.1-1.1-.1-1.7v-1.6h-.3c-.1 0-.2 0-.3.1s-.2.1-.3.1c-.1 0-.1 0-.2.1-.3.1-.5.3-.7.5-.2.2-.3.4-.5.7-.1.2-.2.5-.3.8-.1.3-.1.5-.1.8 0 .1 0 .1.1.2 0 .1 0 .1.1.2l.1.1c0 .1.1.1.2.1s.2.1.2.1c.1 0 .2.1.2.1h.4c.1 0 .3 0 .4-.1.1-.1.3-.2.4-.3.4 0 .5-.1.7-.2zM261.4 227.4c.1-.1.2-.1.3-.1.1 0 .2 0 .3.1s.2.2.2.4v.1c.2-.2.4-.3.7-.4s.5-.1.8-.1c.3 0 .7.1 1 .2.3.2.6.4.8.6.2.3.4.6.5.9.1.3.2.7.2 1.1 0 .4-.1.8-.2 1.2s-.3.7-.6.9-.6.5-1 .6c-.4.1-.9.2-1.4.2h-.8v2.8c0 .2-.1.4-.2.5-.1.1-.2.2-.4.2-.1 0-.2 0-.3-.1-.1-.1-.2-.2-.2-.4V228c.2-.3.3-.5.3-.6zm1.1 1.9c-.1.1-.1.1 0 0l-.1.1v2.5c.1 0 .2 0 .4.1h.4c.3 0 .6 0 .8-.1s.5-.2.7-.3c.2-.1.3-.3.4-.6.1-.2.2-.5.2-.8 0-.2 0-.4-.1-.6l-.3-.6c-.1-.2-.3-.3-.4-.4-.2-.1-.3-.2-.5-.2s-.3 0-.4.1c-.1.1-.3.1-.4.2l-.3.3c-.1.1-.4.2-.4.3zM267.8 227.4c.1-.1.2-.1.3-.1.1 0 .2 0 .3.1s.2.2.2.4v.1c.2-.2.4-.3.7-.4s.5-.1.8-.1c.3 0 .7.1 1 .2.3.2.6.4.8.6.2.3.4.6.5.9.1.3.2.7.2 1.1 0 .4-.1.8-.2 1.2s-.3.7-.6.9-.6.5-1 .6c-.4.1-.9.2-1.4.2h-.8v2.8c0 .2-.1.4-.2.5-.1.1-.2.2-.4.2-.1 0-.2 0-.3-.1-.1-.1-.2-.2-.2-.4V228c.1-.3.2-.5.3-.6zm1 1.9c0 .1 0 .1 0 0l-.1.1v2.5c.1 0 .2 0 .4.1h.4c.3 0 .6 0 .8-.1s.5-.2.7-.3c.2-.1.3-.3.4-.6.1-.2.2-.5.2-.8 0-.2 0-.4-.1-.6l-.3-.6c-.1-.2-.3-.3-.4-.4-.2-.1-.3-.2-.5-.2s-.3 0-.4.1c-.1.1-.3.1-.4.2l-.3.3c-.1.1-.3.2-.4.3z" class="st23" opacity="0"/><g><path id="author" d="M16.2 282.1c-.2 0-.3 0-.5-.1s-.2-.1-.3-.3l-.2-.4v-.5l.1-.6c0-.2.1-.4.2-.5s.2-.3.3-.4c.1-.1.2-.2.4-.3.2-.1.3-.1.5-.1s.4.1.6.2c.1.1.2.3.2.5l.1-.6h.7l-.5 3.1c0 .2-.1.4-.2.5-.1.1-.2.3-.3.4-.1.1-.3.2-.5.2-.2.1-.4.1-.6.1h-.9l.1-.6h.9c.2 0 .4-.1.5-.2.1-.1.2-.2.2-.4l.1-.7c-.1.2-.2.4-.4.5 0 .1-.2.2-.5.2zm-.1-1.3c0 .2 0 .4.1.5.1.1.2.2.4.2s.4-.1.5-.2c.1-.1.2-.3.2-.5l.1-.5c0-.2 0-.4-.1-.5-.1-.1-.2-.2-.5-.2-.2 0-.4.1-.5.2-.1.1-.2.3-.2.5v.5zM18.8 282.3l.1-.7h1.2l.3-1.9h-1l.1-.7h1.8l-.4 2.6h1l-.1.7h-3zm1.7-4.2c0-.1.1-.2.2-.3.1-.1.2-.1.3-.1h.2c.1 0 .2 0 .3.1.1.1.1.2.1.3 0 .1-.1.2-.2.3-.1.1-.2.1-.3.1h-.2c-.1 0-.2 0-.3-.1-.1-.1-.2-.2-.1-.3zM22.7 279h.9l.2-1h.8l-.2 1h1.3l-.1.7h-1.3l-.3 1.6c0 .1 0 .2.1.2.1.1.1.1.2.1h.8l-.1.7h-.9c-.3 0-.6-.1-.7-.3s-.2-.4-.2-.7l.3-1.6h-.9l.1-.7zM26.6 278h.8l-.2 1c0 .1 0 .2-.1.4 0 .1 0 .1-.1.2h.1c.1-.2.2-.4.4-.5.2-.1.4-.2.6-.2.2 0 .3 0 .4.1s.2.1.3.2.1.2.2.4v.5l-.3 2.2h-.8l.3-2.1c0-.2 0-.4-.1-.5-.1-.1-.2-.2-.4-.2s-.3.1-.5.2c-.1.1-.2.3-.2.5l-.3 2.1H26l.6-4.3zM29.8 281.1l.3-2.1h.8l-.3 2.1c-.1.4.1.6.5.6s.6-.2.7-.6l.2-2.1h.7l-.3 2.1c-.1.4-.2.7-.5 1s-.6.3-1.1.3c-.4 0-.7-.1-.9-.3-.1-.3-.2-.6-.1-1zM33.2 282.3l.7-4.3h.8l-.2 1V279.6h.1c.1-.2.2-.4.4-.5s.4-.2.6-.2c.3 0 .5.1.7.3.2.2.3.4.3.7v.3l-.1.8c-.1.4-.2.7-.5 1-.2.2-.5.3-.9.3-.2 0-.4-.1-.6-.2-.1-.1-.2-.3-.2-.5H34l-.1.6h-.7zm.9-1.2c0 .2 0 .4.1.5s.2.2.4.2.4-.1.5-.2c.1-.1.2-.3.2-.5l.1-.8c0-.2 0-.4-.1-.5-.1-.1-.2-.2-.4-.2s-.4.1-.5.2c-.1.1-.2.3-.3.5v.8zM36.6 281.5l.3-1.9c0-.3.1-.5.2-.7.1-.2.3-.4.4-.5.2-.1.4-.3.6-.3.2-.1.5-.1.7-.1.4 0 .8.1 1 .3.2.2.3.4.3.8v.2l-.4 2.6h-.6l.1-.6c-.1.2-.2.4-.3.5-.1.1-.3.2-.5.2-.4 0-.6-.2-.6-.7v-.2-.2l.1-.5c.1-.7.4-1.1 1-1.1.3 0 .5.2.6.6v-.2-.4c0-.3 0-.4-.1-.6-.1-.1-.4-.2-.6-.2-.3 0-.6.1-.8.3s-.4.5-.4.9l-.3 1.9c-.1.4 0 .6.2.9.2.2.4.3.8.3h.4l-.1.6h-.4c-.5 0-.8-.1-1.1-.4-.3-.2-.4-.6-.4-1-.1-.2-.1-.3-.1-.5zm2.2 0c.3 0 .4-.2.5-.5l.1-.6c0-.4-.1-.6-.3-.6-.2 0-.4.2-.5.6l-.1.5v.4c.1.1.2.2.3.2zM41 278h1.5c.2 0 .4 0 .6.1s.3.1.4.3c.1.1.2.3.2.4v.5c-.1.4-.2.7-.5 1-.3.2-.7.3-1.1.3h-.7l-.3 1.7h-.8l.7-4.3zm.5 2h.7c.2 0 .4-.1.5-.2.1-.1.2-.3.3-.5 0-.2 0-.4-.1-.5s-.3-.2-.5-.2h-.7l-.2 1.4zM44.1 281.1l.1-.8c0-.2.1-.4.2-.5.1-.2.2-.3.3-.4.1-.1.2-.2.4-.3s.3-.1.5-.1.4.1.5.2c.1.1.2.3.2.5h.1l.1-.6h.7l-.4 2.5v.2s.1.1.2.1h.2l-.1.6h-.5c-.2 0-.3-.1-.5-.2-.1-.1-.2-.3-.1-.4h-.1c-.1.2-.2.4-.3.5-.2.1-.3.2-.6.2s-.5-.1-.7-.3-.2-.4-.2-.7v-.1-.4zm1.2.6c.2 0 .3-.1.4-.2.1-.1.2-.2.2-.4l.1-.9c0-.2 0-.3-.1-.4-.1-.1-.2-.2-.4-.2s-.4.1-.5.2c-.1.1-.2.3-.2.5l-.1.8c0 .2 0 .4.1.5s.3.1.5.1zM47.6 281.5h.7c0 .1.1.2.1.2.1.1.2.1.4.1h.2c.2 0 .3 0 .5-.1.1-.1.2-.2.2-.3 0-.2-.1-.4-.4-.4l-.5-.1c-.4 0-.6-.1-.8-.3-.2-.2-.2-.4-.2-.7.1-.3.2-.6.4-.7.2-.2.6-.3 1-.3h.2c.4 0 .6.1.8.2.2.2.3.4.3.6H50c0-.1-.1-.2-.1-.2-.1-.1-.2-.1-.3-.1h-.2c-.2 0-.3 0-.4.1s-.2.2-.2.3c0 .2.1.3.4.4l.5.1c.4 0 .6.2.8.3.2.2.2.4.2.7-.1.3-.2.6-.5.8-.3.2-.6.3-1 .3H49c-.4 0-.7-.1-.9-.2-.4-.2-.5-.5-.5-.7zM51.2 281.5h.8c0 .1.1.2.1.2.1.1.2.1.4.1h.2c.2 0 .3 0 .5-.1.1-.1.2-.2.2-.3 0-.2-.1-.4-.4-.4l-.5-.1c-.4 0-.6-.1-.8-.3-.2-.2-.2-.4-.2-.7.1-.3.2-.6.4-.7.2-.2.6-.3 1-.3h.2c.4 0 .6.1.8.2.2.2.3.4.3.6h-.7c0-.1-.1-.2-.1-.2-.1-.1-.2-.1-.3-.1h-.2c-.2 0-.3 0-.4.1s-.2.2-.2.3c0 .2.1.3.4.4l.5.1c.4 0 .6.2.8.3.2.2.2.4.2.7-.1.3-.2.6-.5.8-.3.2-.6.3-1 .3h-.2c-.4 0-.7-.1-.9-.2-.3-.2-.4-.5-.4-.7zM54.8 282.3l.1-.7h1.2l.3-1.9h-1l.1-.7h1.8l-.4 2.6h1l-.1.7h-3zm1.6-4.2c0-.1.1-.2.2-.3.1-.1.2-.1.3-.1h.2c.1 0 .2 0 .3.1.1.1.1.2.1.3 0 .1-.1.2-.2.3-.1.1-.2.1-.3.1h-.2c-.1 0-.2 0-.3-.1 0-.1-.1-.2-.1-.3zM59.7 282.4c-.2 0-.4 0-.6-.1-.2-.1-.3-.1-.4-.3-.1-.1-.2-.3-.2-.4v-.5l.1-.8c.1-.4.2-.7.5-1 .3-.2.7-.3 1.1-.3.2 0 .4 0 .6.1s.3.1.4.3c.1.1.2.3.2.4 0 .2.1.3 0 .5l-.1.8c-.1.4-.2.7-.5 1-.3.1-.6.3-1.1.3zm-.5-1.3c0 .2 0 .4.1.5s.3.2.5.2.4-.1.5-.2.2-.3.3-.5l.1-.8c0-.2 0-.4-.1-.5-.1-.1-.3-.2-.5-.2s-.4.1-.5.2c-.1.1-.2.3-.3.5l-.1.8zM62 282.3l.5-3.3h.7l-.1.6h.1c.1-.2.2-.4.4-.5.2-.1.4-.2.6-.2.2 0 .3 0 .4.1s.2.1.3.2c.1.1.1.2.2.4v.5l-.3 2.1H64l.3-2.1c0-.2 0-.4-.1-.5-.1-.1-.2-.2-.4-.2s-.4.1-.5.2c-.1.1-.2.3-.2.5l-.3 2.1H62zM66.2 278h1.5c.2 0 .4 0 .6.1s.3.1.4.3c.1.1.2.3.2.4v.5c-.1.4-.2.7-.5 1-.3.2-.7.3-1.1.3h-.7l-.3 1.7h-.8l.7-4.3zm.5 2h.7c.2 0 .4-.1.5-.2.1-.1.2-.3.3-.5 0-.2 0-.4-.1-.5s-.3-.2-.5-.2h-.7l-.2 1.4zM70.5 282.4c-.2 0-.4 0-.6-.1-.2-.1-.3-.1-.4-.3-.1-.1-.2-.2-.2-.4v-.5l.1-.8c0-.2.1-.4.2-.5.1-.2.2-.3.4-.4.1-.1.3-.2.5-.3s.4-.1.6-.1c.2 0 .4 0 .6.1s.3.1.4.3c.1.1.2.2.2.4v.5l-.1.6h-2.1v.2c0 .2 0 .4.1.5s.3.2.5.2.3 0 .4-.1c.1-.1.2-.1.3-.2h.6c-.1.1-.1.3-.2.4-.1.1-.2.2-.4.3-.1.1-.3.1-.4.2-.1-.1-.3 0-.5 0zm1-2.1v-.1c0-.2 0-.4-.1-.5-.1-.1-.3-.2-.5-.2s-.4.1-.5.2c-.1.1-.2.3-.3.5v.1h1.4zM72.8 282.3l.5-3.3h.7l-.1.6h.1c.1-.2.2-.4.4-.5.2-.1.4-.2.6-.2.2 0 .3 0 .4.1s.2.1.3.2c.1.1.1.2.2.4v.5l-.3 2.1h-.8l.3-2.1c0-.2 0-.4-.1-.5-.1-.1-.2-.2-.4-.2s-.4.1-.5.2c-.1.1-.2.3-.2.5l-.3 2.1h-.8zM77.4 282.1c-.2 0-.3 0-.5-.1s-.2-.1-.3-.3l-.2-.4v-.5l.1-.6c0-.2.1-.4.2-.5s.2-.3.3-.4c.1-.1.2-.2.4-.3.2-.1.3-.1.5-.1s.4.1.6.2c.1.1.2.3.2.5l.1-.6h.7l-.5 3.1c0 .2-.1.4-.2.5-.1.1-.2.3-.3.4-.1.1-.3.2-.5.2-.2.1-.4.1-.6.1h-.9l.1-.6h.9c.2 0 .4-.1.5-.2.1-.1.2-.2.2-.4l.1-.7c-.1.2-.2.4-.4.5 0 .1-.2.2-.5.2zm-.1-1.3c0 .2 0 .4.1.5.1.1.2.2.4.2s.4-.1.5-.2c.1-.1.2-.3.2-.5l.1-.5c0-.2 0-.4-.1-.5-.1-.1-.2-.2-.5-.2-.2 0-.4.1-.5.2-.1.1-.2.3-.2.5v.5zM80.2 281.1l.3-2.1h.8l-.3 2.1c-.1.4.1.6.5.6s.6-.2.7-.6l.3-2.1h.7l-.3 2.1c-.1.4-.2.7-.5 1s-.6.3-1.1.3c-.4 0-.7-.1-.9-.3-.2-.3-.3-.6-.2-1zM83.6 282.3l.1-.7h1.2l.3-1.9h-1l.1-.7H86l-.4 2.6h1l-.1.7h-2.9zm1.6-4.2c0-.1.1-.2.2-.3.1-.1.2-.1.3-.1h.2c.1 0 .2 0 .3.1.1.1.1.2.1.3 0 .1-.1.2-.2.3-.1.1-.2.1-.3.1h-.2c-.1 0-.2 0-.3-.1 0-.1-.1-.2-.1-.3zM87.2 282.3l.5-3.3h.7l-.1.6h.1c.1-.2.2-.4.4-.5.2-.1.4-.2.6-.2.2 0 .3 0 .4.1s.2.1.3.2c.1.1.1.2.2.4v.5l-.3 2.1h-.8l.3-2.1c0-.2 0-.4-.1-.5-.1-.1-.2-.2-.4-.2s-.4.1-.5.2c-.1.1-.2.3-.2.5l-.3 2.1h-.8z" class="st23" opacity="0"/></g><animate fill="freeze" attributeName="opacity" dur="1s" from="0" to=".25" xlink:href="#decoration"/><animate fill="freeze" attributeName="opacity" begin="0.5s" dur="1s" from="0" to="1" xlink:href="#text"/><animate fill="freeze" attributeName="opacity" begin="1s" dur="0.5s" from="0" to="1" xlink:href="#flutter"/><animate fill="freeze" attributeName="opacity" begin="1.5s" dur="0.5s" from="0" to="1" xlink:href="#author"/></svg>